<?xml version="1.0" encoding="UTF-8" standalone="no"?>
<!-- Created with Inkscape (http://www.inkscape.org/) -->

<svg
   xmlns:dc="http://purl.org/dc/elements/1.1/"
   xmlns:cc="http://creativecommons.org/ns#"
   xmlns:rdf="http://www.w3.org/1999/02/22-rdf-syntax-ns#"
   xmlns:svg="http://www.w3.org/2000/svg"
   xmlns="http://www.w3.org/2000/svg"
   xmlns:xlink="http://www.w3.org/1999/xlink"
   xmlns:sodipodi="http://sodipodi.sourceforge.net/DTD/sodipodi-0.dtd"
   xmlns:inkscape="http://www.inkscape.org/namespaces/inkscape"
   width="24px"
   height="24px"
   viewBox="0 0 24 24"
   version="1.1"
   id="SVGRoot"
   inkscape:version="0.92.4 (5da689c313, 2019-01-14)"
   sodipodi:docname="chipsynth-sfc.svg">
  <defs
     id="defs1125">
    <linearGradient
       inkscape:collect="always"
       xlink:href="#linearGradient1763"
       id="linearGradient1573-6"
       x1="12"
       y1="2"
       x2="12"
       y2="22"
       gradientUnits="userSpaceOnUse"
       gradientTransform="matrix(1.1,0,0,1.1,-1.2,-1.2000002)" />
    <linearGradient
       inkscape:collect="always"
       id="linearGradient1763">
      <stop
         style="stop-color:#d4d4d6;stop-opacity:1"
         offset="0"
         id="stop1759" />
      <stop
         style="stop-color:#b9b9b9;stop-opacity:1"
         offset="1"
         id="stop1761" />
    </linearGradient>
  </defs>
  <sodipodi:namedview
     id="base"
     pagecolor="#ffffff"
     bordercolor="#666666"
     borderopacity="1.0"
     inkscape:pageopacity="0.0"
     inkscape:pageshadow="2"
     inkscape:zoom="108.5"
     inkscape:cx="13.738568"
     inkscape:cy="11.414266"
     inkscape:document-units="px"
     inkscape:current-layer="layer1"
     showgrid="true"
     inkscape:window-width="1920"
     inkscape:window-height="1017"
     inkscape:window-x="-8"
     inkscape:window-y="-8"
     inkscape:window-maximized="1"
     inkscape:grid-bbox="true"
     inkscape:snap-global="true">
    <inkscape:grid
       type="xygrid"
       id="grid1723" />
  </sodipodi:namedview>
  <metadata
     id="metadata1128">
    <rdf:RDF>
      <cc:Work
         rdf:about="">
        <dc:format>image/svg+xml</dc:format>
        <dc:type
           rdf:resource="http://purl.org/dc/dcmitype/StillImage" />
        <dc:title />
      </cc:Work>
    </rdf:RDF>
  </metadata>
  <g
     inkscape:label="Layer 1"
     inkscape:groupmode="layer"
     id="layer1">
    <rect
       style="opacity:1;vector-effect:none;fill:url(#linearGradient1573-6);fill-opacity:1;fill-rule:evenodd;stroke:none;stroke-width:4.4000001;stroke-linecap:round;stroke-linejoin:round;stroke-miterlimit:4;stroke-dasharray:none;paint-order:stroke fill markers"
       id="rect1560-7"
       width="22"
       height="22"
       x="1"
       y="0.99999976"
       ry="4" />
    <path
       style="fill:#ff7373;fill-opacity:1;stroke:none;stroke-width:1.75000012px;stroke-linecap:butt;stroke-linejoin:miter;stroke-opacity:1"
       d="M 16 1 L 13 4 L 13 6 L 15 6 L 18 9 L 18 11 L 20 11 L 23 8 L 23 5 C 23 2.784 21.216 1 19 1 L 16 1 z "
       id="path861-3" />
    <path
       style="fill:#98adff;fill-opacity:1;stroke:none;stroke-width:1.75000012px;stroke-linecap:butt;stroke-linejoin:miter;stroke-opacity:1"
       d="M 5 1 C 2.784 1 1 2.784 1 5 L 1 8 L 4 11 L 6 11 L 6 9 L 9 6 L 11 6 L 11 4 L 8 1 L 5 1 z "
       id="path861" />
    <path
       style="fill:#75ffa3;fill-opacity:1;stroke:none;stroke-width:2px;stroke-linecap:butt;stroke-linejoin:miter;stroke-opacity:1"
       d="M 1 13 L 1 19 C 1 21.216 2.784 23 5 23 L 7 23 L 11 19 L 11 17 L 7 13 L 1 13 z "
       id="path863" />
    <path
       style="fill:#fff970;fill-opacity:1;stroke:none;stroke-width:2px;stroke-linecap:butt;stroke-linejoin:miter;stroke-opacity:1"
       d="M 17 13 L 13 17 L 13 19 L 17 23 L 19 23 C 21.216 23 23 21.216 23 19 L 23 13 L 17 13 z "
       id="path863-4" />
    <path
       style="opacity:1;vector-effect:none;fill:#555555;fill-opacity:1;fill-rule:evenodd;stroke:none;stroke-width:2;stroke-linecap:round;stroke-linejoin:round;stroke-miterlimit:4;stroke-dasharray:none;stroke-opacity:1;paint-order:stroke fill markers"
       d="M 6 8 C 4.892 8 4 8.892 4 10 L 4 14 C 4 15.108 4.892 16 6 16 L 10 16 L 12 16 L 13 16 L 18 16 C 18 16 20 16 20 14 L 20 13 C 20 11 18 11 18 11 L 14 11 L 14 10 L 20 10 L 20 8 L 14 8 C 14 8 12 8 12 10 L 12 11 C 12 13 14 13 14 13 L 18 13 L 18 14 L 13 14 L 12 14 L 7 14 C 6.446 14 6 13.554 6 13 L 6 11 C 6 10.446 6.446 10 7 10 L 11 10 L 11 8 L 6 8 z "
       id="rect821" />
    <path
       style="opacity:0.25;vector-effect:none;fill:#000000;fill-opacity:1;fill-rule:evenodd;stroke:none;stroke-width:4;stroke-linecap:round;stroke-linejoin:round;stroke-miterlimit:4;stroke-dasharray:none;paint-order:stroke fill markers"
       d="m 5,0.99999976 c -2.216,0 -4,1.78400004 -4,4.00000004 V 19 c 0,2.216 1.784,4 4,4 h 14 c 2.216,0 4,-1.784 4,-4 V 4.9999998 c 0,-2.216 -1.784,-4.00000004 -4,-4.00000004 z M 5,1.9999998 h 14 c 1.662,0 3,1.338 3,3 V 19 c 0,1.662 -1.338,3 -3,3 H 5 C 3.338,22 2,20.662 2,19 V 4.9999998 c 0,-1.662 1.338,-3 3,-3 z"
       id="rect1558-6"
       inkscape:connector-curvature="0" />
  </g>
</svg>
