<?xml version="1.0" encoding="UTF-8" standalone="no"?>
<!-- Created with Inkscape (http://www.inkscape.org/) -->

<svg
   xmlns:dc="http://purl.org/dc/elements/1.1/"
   xmlns:cc="http://creativecommons.org/ns#"
   xmlns:rdf="http://www.w3.org/1999/02/22-rdf-syntax-ns#"
   xmlns:svg="http://www.w3.org/2000/svg"
   xmlns="http://www.w3.org/2000/svg"
   xmlns:xlink="http://www.w3.org/1999/xlink"
   xmlns:sodipodi="http://sodipodi.sourceforge.net/DTD/sodipodi-0.dtd"
   xmlns:inkscape="http://www.inkscape.org/namespaces/inkscape"
   width="24px"
   height="24px"
   viewBox="0 0 24 24"
   version="1.1"
   id="SVGRoot"
   inkscape:version="0.92.4 (5da689c313, 2019-01-14)"
   sodipodi:docname="autogun.svg">
  <defs
     id="defs1125">
    <linearGradient
       inkscape:collect="always"
       id="linearGradient841">
      <stop
         style="stop-color:#454749;stop-opacity:1;"
         offset="0"
         id="stop837" />
      <stop
         style="stop-color:#292a2b;stop-opacity:1"
         offset="1"
         id="stop839" />
    </linearGradient>
    <linearGradient
       inkscape:collect="always"
       id="linearGradient893">
      <stop
         style="stop-color:#5f666b;stop-opacity:1"
         offset="0"
         id="stop889" />
      <stop
         id="stop897"
         offset="0.5"
         style="stop-color:#aaadaf;stop-opacity:1" />
      <stop
         style="stop-color:#727b82;stop-opacity:1"
         offset="1"
         id="stop891" />
    </linearGradient>
    <linearGradient
       inkscape:collect="always"
       xlink:href="#linearGradient1763"
       id="linearGradient1573-6"
       x1="12"
       y1="2"
       x2="12"
       y2="22"
       gradientUnits="userSpaceOnUse"
       gradientTransform="matrix(1.1,0,0,1.1,-1.2,-1.2000002)" />
    <linearGradient
       inkscape:collect="always"
       id="linearGradient1763">
      <stop
         style="stop-color:#805340;stop-opacity:1"
         offset="0"
         id="stop1759" />
      <stop
         style="stop-color:#3e281f;stop-opacity:1"
         offset="1"
         id="stop1761" />
    </linearGradient>
    <linearGradient
       inkscape:collect="always"
       xlink:href="#linearGradient893"
       id="linearGradient895"
       x1="-3"
       y1="10"
       x2="27"
       y2="10"
       gradientUnits="userSpaceOnUse" />
    <linearGradient
       inkscape:collect="always"
       xlink:href="#linearGradient841"
       id="linearGradient843"
       x1="19"
       y1="21"
       x2="19"
       y2="18"
       gradientUnits="userSpaceOnUse" />
    <linearGradient
       inkscape:collect="always"
       xlink:href="#linearGradient841"
       id="linearGradient851"
       x1="23"
       y1="18"
       x2="20"
       y2="16"
       gradientUnits="userSpaceOnUse" />
  </defs>
  <sodipodi:namedview
     id="base"
     pagecolor="#ffffff"
     bordercolor="#666666"
     borderopacity="1.0"
     inkscape:pageopacity="0.0"
     inkscape:pageshadow="2"
     inkscape:zoom="38.360545"
     inkscape:cx="12.429616"
     inkscape:cy="11.887982"
     inkscape:document-units="px"
     inkscape:current-layer="layer1"
     showgrid="true"
     inkscape:window-width="1920"
     inkscape:window-height="1017"
     inkscape:window-x="-8"
     inkscape:window-y="-8"
     inkscape:window-maximized="1"
     inkscape:grid-bbox="true"
     inkscape:snap-global="true">
    <inkscape:grid
       type="xygrid"
       id="grid1723" />
  </sodipodi:namedview>
  <metadata
     id="metadata1128">
    <rdf:RDF>
      <cc:Work
         rdf:about="">
        <dc:format>image/svg+xml</dc:format>
        <dc:type
           rdf:resource="http://purl.org/dc/dcmitype/StillImage" />
        <dc:title />
      </cc:Work>
    </rdf:RDF>
  </metadata>
  <g
     inkscape:label="Layer 1"
     inkscape:groupmode="layer"
     id="layer1">
    <rect
       style="opacity:1;vector-effect:none;fill:url(#linearGradient1573-6);fill-opacity:1;fill-rule:evenodd;stroke:none;stroke-width:4.4000001;stroke-linecap:round;stroke-linejoin:round;stroke-miterlimit:4;stroke-dasharray:none;paint-order:stroke fill markers"
       id="rect1560-7"
       width="22"
       height="22"
       x="1"
       y="0.99999976"
       ry="4" />
    <rect
       style="opacity:1;vector-effect:none;fill:#505050;fill-opacity:1;fill-rule:evenodd;stroke:none;stroke-width:4;stroke-linecap:round;stroke-linejoin:round;stroke-miterlimit:4;stroke-dasharray:none;stroke-opacity:1;paint-order:stroke fill markers"
       id="rect881"
       width="6"
       height="6"
       x="9"
       y="15"
       ry="3" />
    <path
       style="color:#000000;font-style:normal;font-variant:normal;font-weight:normal;font-stretch:normal;font-size:medium;line-height:normal;font-family:sans-serif;font-variant-ligatures:normal;font-variant-position:normal;font-variant-caps:normal;font-variant-numeric:normal;font-variant-alternates:normal;font-feature-settings:normal;text-indent:0;text-align:start;text-decoration:none;text-decoration-line:none;text-decoration-style:solid;text-decoration-color:#000000;letter-spacing:normal;word-spacing:normal;text-transform:none;writing-mode:lr-tb;direction:ltr;text-orientation:mixed;dominant-baseline:auto;baseline-shift:baseline;text-anchor:start;white-space:normal;shape-padding:0;clip-rule:nonzero;display:inline;overflow:visible;visibility:visible;opacity:1;isolation:auto;mix-blend-mode:normal;color-interpolation:sRGB;color-interpolation-filters:linearRGB;solid-color:#000000;solid-opacity:1;vector-effect:none;fill:url(#linearGradient851);fill-opacity:1;fill-rule:nonzero;stroke:none;stroke-width:1px;stroke-linecap:round;stroke-linejoin:round;stroke-miterlimit:4;stroke-dasharray:none;stroke-dashoffset:0;stroke-opacity:1;color-rendering:auto;image-rendering:auto;shape-rendering:auto;text-rendering:auto;enable-background:accumulate"
       d="M 17.445312 14.882812 A 0.50005 0.50005 0 0 0 17.189453 15.804688 C 17.189453 15.804688 19.397292 17.213561 20.255859 18.003906 C 21.712087 19.344422 21.938524 20.875884 21.945312 21.691406 C 22.29482 21.308851 22.567854 20.86097 22.748047 20.363281 C 22.520375 19.40768 22.028368 18.275361 20.933594 17.267578 C 20.708443 17.060318 20.534853 16.992721 20.236328 16.765625 C 20.303358 16.788875 20.364388 16.802579 20.423828 16.824219 C 21.543591 17.232019 22.417217 17.081997 23 16.775391 L 23 15.511719 C 22.94044 15.59792 22.83617 15.726521 22.603516 15.865234 C 22.261249 16.069299 21.72628 16.234623 20.765625 15.884766 C 19.690928 15.493378 17.59375 14.900391 17.59375 14.900391 A 0.50005 0.50005 0 0 0 17.445312 14.882812 z "
       id="path885" />
    <path
       style="color:#000000;font-style:normal;font-variant:normal;font-weight:normal;font-stretch:normal;font-size:medium;line-height:normal;font-family:sans-serif;font-variant-ligatures:normal;font-variant-position:normal;font-variant-caps:normal;font-variant-numeric:normal;font-variant-alternates:normal;font-feature-settings:normal;text-indent:0;text-align:start;text-decoration:none;text-decoration-line:none;text-decoration-style:solid;text-decoration-color:#000000;letter-spacing:normal;word-spacing:normal;text-transform:none;writing-mode:lr-tb;direction:ltr;text-orientation:mixed;dominant-baseline:auto;baseline-shift:baseline;text-anchor:start;white-space:normal;shape-padding:0;clip-rule:nonzero;display:inline;overflow:visible;visibility:visible;opacity:1;isolation:auto;mix-blend-mode:normal;color-interpolation:sRGB;color-interpolation-filters:linearRGB;solid-color:#000000;solid-opacity:1;vector-effect:none;fill:url(#linearGradient843);fill-opacity:1;fill-rule:nonzero;stroke:none;stroke-width:2;stroke-linecap:round;stroke-linejoin:round;stroke-miterlimit:4;stroke-dasharray:none;stroke-dashoffset:0;stroke-opacity:1;color-rendering:auto;image-rendering:auto;shape-rendering:auto;text-rendering:auto;enable-background:accumulate"
       d="M 15.947266 14.992188 A 1.0001 1.0001 0 0 0 15.398438 16.798828 C 15.398438 16.798828 15.978533 17.236432 16.609375 17.880859 C 17.240217 18.525287 17.859078 19.397111 17.980469 19.929688 C 18.200253 20.893939 18.007812 22.875 18.007812 22.875 A 1.0001 1.0001 0 0 0 18 23 L 19 23 C 19.353313 23 19.689755 22.940689 20.015625 22.855469 C 20.066517 22.484148 20.262865 20.937535 19.931641 19.484375 C 19.644418 18.224252 18.783971 17.243373 18.039062 16.482422 C 17.294155 15.721471 16.601562 15.201172 16.601562 15.201172 A 1.0001 1.0001 0 0 0 15.947266 14.992188 z "
       id="path883" />
    <path
       style="fill:#f39e29;stroke:none;stroke-width:1px;stroke-linecap:butt;stroke-linejoin:miter;stroke-opacity:1;fill-opacity:1"
       d="M 10.890625 19.666016 L 10.335938 20.496094 C 10.81175 20.813017 11.383 21 12 21 C 12.617 21 13.18825 20.813017 13.664062 20.496094 L 13.109375 19.666016 C 12.792126 19.87738 12.411421 20 12 20 C 11.588579 20 11.207874 19.87738 10.890625 19.666016 z "
       id="path855" />
    <path
       style="color:#000000;font-style:normal;font-variant:normal;font-weight:normal;font-stretch:normal;font-size:medium;line-height:normal;font-family:sans-serif;font-variant-ligatures:normal;font-variant-position:normal;font-variant-caps:normal;font-variant-numeric:normal;font-variant-alternates:normal;font-feature-settings:normal;text-indent:0;text-align:start;text-decoration:none;text-decoration-line:none;text-decoration-style:solid;text-decoration-color:#000000;letter-spacing:normal;word-spacing:normal;text-transform:none;writing-mode:lr-tb;direction:ltr;text-orientation:mixed;dominant-baseline:auto;baseline-shift:baseline;text-anchor:start;white-space:normal;shape-padding:0;clip-rule:nonzero;display:inline;overflow:visible;visibility:visible;opacity:1;isolation:auto;mix-blend-mode:normal;color-interpolation:sRGB;color-interpolation-filters:linearRGB;solid-color:#000000;solid-opacity:1;vector-effect:none;fill:url(#linearGradient895);fill-opacity:1;fill-rule:nonzero;stroke:none;stroke-width:4;stroke-linecap:round;stroke-linejoin:round;stroke-miterlimit:4;stroke-dasharray:none;stroke-dashoffset:0;stroke-opacity:1;color-rendering:auto;image-rendering:auto;shape-rendering:auto;text-rendering:auto;enable-background:accumulate"
       d="M 5 1 C 2.784 1 1 2.784 1 5 L 1 12 C 1.0001022 12.530398 1.2108651 13.039039 1.5859375 13.414062 L 6.5859375 18.414062 C 6.9609609 18.789136 7.469602 18.999898 8 19 L 16 19 C 16.530398 18.999898 17.039039 18.789136 17.414062 18.414062 L 22.414062 13.414062 C 22.789136 13.039039 22.999898 12.530398 23 12 L 23 5 C 23 2.784 21.216 1 19 1 L 5 1 z "
       id="path873" />
    <path
       style="opacity:1;vector-effect:none;fill:#2f383e;fill-opacity:1;fill-rule:evenodd;stroke:none;stroke-width:4;stroke-linecap:round;stroke-linejoin:round;stroke-miterlimit:4;stroke-dasharray:none;stroke-opacity:1;paint-order:stroke fill markers"
       d="m 4,3.016466 c -0.554,0 -1,0.446 -1,1 V 10 c 0,0.554 0.446,1 1,1 H 8.0175781 C 8.9285676,9.7910816 10.362943,9 12,9 c 1.637057,0 3.071432,0.7910816 3.982422,2 H 20 c 0.554,0 1,-0.446 1,-1 V 4.016466 c 0,-0.554 -0.446,-1 -1,-1 z"
       id="rect875"
       inkscape:connector-curvature="0"
       sodipodi:nodetypes="sssscscsssss" />
    <rect
       style="opacity:1;vector-effect:none;fill:#79e9fc;fill-opacity:1;fill-rule:evenodd;stroke:none;stroke-width:4;stroke-linecap:round;stroke-linejoin:round;stroke-miterlimit:4;stroke-dasharray:none;stroke-opacity:1;paint-order:stroke fill markers"
       id="rect877"
       width="6"
       height="6"
       x="9"
       y="10.999999"
       ry="3" />
    <rect
       style="opacity:1;vector-effect:none;fill:#aaadaf;fill-opacity:1;fill-rule:evenodd;stroke:none;stroke-width:4;stroke-linecap:round;stroke-linejoin:round;stroke-miterlimit:4;stroke-dasharray:none;stroke-opacity:1;paint-order:stroke fill markers"
       id="rect879"
       width="4"
       height="4"
       x="10"
       y="11.999999"
       ry="2" />
    <path
       style="color:#000000;font-style:normal;font-variant:normal;font-weight:normal;font-stretch:normal;font-size:medium;line-height:normal;font-family:sans-serif;font-variant-ligatures:normal;font-variant-position:normal;font-variant-caps:normal;font-variant-numeric:normal;font-variant-alternates:normal;font-feature-settings:normal;text-indent:0;text-align:start;text-decoration:none;text-decoration-line:none;text-decoration-style:solid;text-decoration-color:#000000;letter-spacing:normal;word-spacing:normal;text-transform:none;writing-mode:lr-tb;direction:ltr;text-orientation:mixed;dominant-baseline:auto;baseline-shift:baseline;text-anchor:start;white-space:normal;shape-padding:0;clip-rule:nonzero;display:inline;overflow:visible;visibility:visible;opacity:0.25;isolation:auto;mix-blend-mode:normal;color-interpolation:sRGB;color-interpolation-filters:linearRGB;solid-color:#000000;solid-opacity:1;vector-effect:none;fill:#000000;fill-opacity:1;fill-rule:nonzero;stroke:none;stroke-width:4;stroke-linecap:round;stroke-linejoin:round;stroke-miterlimit:4;stroke-dasharray:none;stroke-dashoffset:0;stroke-opacity:1;color-rendering:auto;image-rendering:auto;shape-rendering:auto;text-rendering:auto;enable-background:accumulate"
       d="m 1,11 v 1 c 1.022e-4,0.530398 0.2108651,1.039039 0.5859375,1.414062 l 5,5 C 6.9609609,18.789135 7.469602,18.999898 8,19 h 8 c 0.530398,-1.02e-4 1.039039,-0.210865 1.414062,-0.585938 l 5,-5 C 22.789135,13.039039 22.999898,12.530398 23,12 v -1 c -1.02e-4,0.530398 -0.210865,1.039039 -0.585938,1.414062 l -5,5 C 17.039039,17.789135 16.530398,17.999898 16,18 H 8 C 7.469602,17.999898 6.9609609,17.789135 6.5859375,17.414062 l -5,-5 C 1.2108651,12.039039 1.0001022,11.530398 1,11 Z"
       id="path873-2"
       inkscape:connector-curvature="0"
       sodipodi:nodetypes="ccccccccccccccccc" />
    <path
       style="opacity:0.25;vector-effect:none;fill:#000000;fill-opacity:1;fill-rule:evenodd;stroke:none;stroke-width:2;stroke-linecap:round;stroke-linejoin:round;stroke-miterlimit:4;stroke-dasharray:none;stroke-opacity:1;paint-order:stroke fill markers"
       d="M 4 3.015625 C 3.446 3.015625 3 3.461625 3 4.015625 L 3 10 C 3 10.554 3.446 11 4 11 L 6 11 L 6 3.015625 L 4 3.015625 z "
       id="rect1015" />
    <path
       inkscape:connector-curvature="0"
       style="opacity:0.25;vector-effect:none;fill:#000000;fill-opacity:1;fill-rule:evenodd;stroke:none;stroke-width:2;stroke-linecap:round;stroke-linejoin:round;stroke-miterlimit:4;stroke-dasharray:none;stroke-opacity:1;paint-order:stroke fill markers"
       d="m 20,3.015625 c 0.554,0 1,0.446 1,1 V 10 c 0,0.554 -0.446,1 -1,1 H 18 V 3.015625 Z"
       id="rect1015-5" />
    <path
       style="opacity:0.25;vector-effect:none;fill:#000000;fill-opacity:1;fill-rule:evenodd;stroke:none;stroke-width:4;stroke-linecap:round;stroke-linejoin:round;stroke-miterlimit:4;stroke-dasharray:none;paint-order:stroke fill markers"
       d="m 5,0.99999976 c -2.216,0 -4,1.78400004 -4,4.00000004 V 19 c 0,2.216 1.784,4 4,4 h 14 c 2.216,0 4,-1.784 4,-4 V 4.9999998 c 0,-2.216 -1.784,-4.00000004 -4,-4.00000004 z M 5,1.9999998 h 14 c 1.662,0 3,1.338 3,3 V 19 c 0,1.662 -1.338,3 -3,3 H 5 C 3.338,22 2,20.662 2,19 V 4.9999998 c 0,-1.662 1.338,-3 3,-3 z"
       id="rect1558-6"
       inkscape:connector-curvature="0" />
  </g>
</svg>
