<?xml version="1.0" encoding="UTF-8" standalone="no"?>
<!-- Created with Inkscape (http://www.inkscape.org/) -->

<svg
   xmlns:dc="http://purl.org/dc/elements/1.1/"
   xmlns:cc="http://creativecommons.org/ns#"
   xmlns:rdf="http://www.w3.org/1999/02/22-rdf-syntax-ns#"
   xmlns:svg="http://www.w3.org/2000/svg"
   xmlns="http://www.w3.org/2000/svg"
   xmlns:xlink="http://www.w3.org/1999/xlink"
   xmlns:sodipodi="http://sodipodi.sourceforge.net/DTD/sodipodi-0.dtd"
   xmlns:inkscape="http://www.inkscape.org/namespaces/inkscape"
   width="24px"
   height="24px"
   viewBox="0 0 24 24"
   version="1.1"
   id="SVGRoot"
   inkscape:version="0.92.4 (5da689c313, 2019-01-14)"
   sodipodi:docname="harmor.svg">
  <defs
     id="defs1125">
    <linearGradient
       inkscape:collect="always"
       xlink:href="#linearGradient1763"
       id="linearGradient1573-6"
       x1="12"
       y1="2"
       x2="12"
       y2="22"
       gradientUnits="userSpaceOnUse"
       gradientTransform="matrix(1.1,0,0,1.1,-1.2,-1.2000002)" />
    <linearGradient
       inkscape:collect="always"
       id="linearGradient1763">
      <stop
         style="stop-color:#5b6168;stop-opacity:1"
         offset="0"
         id="stop1759" />
      <stop
         style="stop-color:#44494e;stop-opacity:1"
         offset="1"
         id="stop1761" />
    </linearGradient>
  </defs>
  <sodipodi:namedview
     id="base"
     pagecolor="#ffffff"
     bordercolor="#666666"
     borderopacity="1.0"
     inkscape:pageopacity="0.0"
     inkscape:pageshadow="2"
     inkscape:zoom="5.6568543"
     inkscape:cx="20.284929"
     inkscape:cy="12.000984"
     inkscape:document-units="px"
     inkscape:current-layer="layer1"
     showgrid="true"
     inkscape:window-width="1920"
     inkscape:window-height="1017"
     inkscape:window-x="-8"
     inkscape:window-y="-8"
     inkscape:window-maximized="1"
     inkscape:grid-bbox="true"
     inkscape:snap-global="false">
    <inkscape:grid
       type="xygrid"
       id="grid1723" />
  </sodipodi:namedview>
  <metadata
     id="metadata1128">
    <rdf:RDF>
      <cc:Work
         rdf:about="">
        <dc:format>image/svg+xml</dc:format>
        <dc:type
           rdf:resource="http://purl.org/dc/dcmitype/StillImage" />
        <dc:title></dc:title>
      </cc:Work>
    </rdf:RDF>
  </metadata>
  <g
     inkscape:label="Layer 1"
     inkscape:groupmode="layer"
     id="layer1">
    <rect
       style="opacity:1;vector-effect:none;fill:url(#linearGradient1573-6);fill-opacity:1;fill-rule:evenodd;stroke:none;stroke-width:4.4000001;stroke-linecap:round;stroke-linejoin:round;stroke-miterlimit:4;stroke-dasharray:none;paint-order:stroke fill markers"
       id="rect1560-7"
       width="22"
       height="22"
       x="1"
       y="0.99999976"
       ry="4" />
    <path
       style="opacity:0.25;vector-effect:none;fill:#000000;fill-opacity:1;fill-rule:evenodd;stroke:none;stroke-width:4;stroke-linecap:round;stroke-linejoin:round;stroke-miterlimit:4;stroke-dasharray:none;paint-order:stroke fill markers"
       d="m 5,0.99999976 c -2.216,0 -4,1.78400004 -4,4.00000004 V 19 c 0,2.216 1.784,4 4,4 h 14 c 2.216,0 4,-1.784 4,-4 V 4.9999998 c 0,-2.216 -1.784,-4.00000004 -4,-4.00000004 z M 5,1.9999998 h 14 c 1.662,0 3,1.338 3,3 V 19 c 0,1.662 -1.338,3 -3,3 H 5 C 3.338,22 2,20.662 2,19 V 4.9999998 c 0,-1.662 1.338,-3 3,-3 z"
       id="rect1558-6"
       inkscape:connector-curvature="0" />
    <path
       style="fill:#d2dbe5;stroke:none;stroke-width:2.17159772px;stroke-linecap:butt;stroke-linejoin:miter;stroke-opacity:1"
       d="m 3.9825255,6.2660874 c 0,0 0.6920484,4.1033466 1.0367048,6.1754806 0.588186,3.536273 1.949242,4.580714 1.949242,4.580714 0,0 -2.2671914,-7.36302 0.4071746,-7.9613539 3.2145211,-0.7191829 4.6485771,8.4703219 4.6485771,8.4703219 0,0 1.462744,-9.2688159 4.682507,-8.504253 2.824174,0.6706262 0.339313,7.85956 0.339313,7.85956 0,0 1.153986,-0.364885 1.949241,-4.309264 0.41911,-2.078745 1.002773,-6.2433432 1.002773,-6.2433432 0,0 -3.413907,-0.2375185 -5.123612,-0.2375185 -2.421145,0 -2.680566,3.4270523 -2.680566,3.4270523 v 2.3921504 c 0,0 0.01998,0.603169 -0.202523,0.603172 -0.222425,2e-6 -0.221914,-0.590671 -0.221914,-0.590671 V 9.4556213 c 0,0 -0.07757,-3.3931212 -2.9008137,-3.3931212 -1.6301145,0 -4.8861038,0.2035873 -4.8861038,0.2035873 z"
       id="path832"
       inkscape:connector-curvature="0"
       sodipodi:nodetypes="cscscscscscczccsc" />
    <rect
       style="opacity:1;vector-effect:none;fill:#d2dbe5;fill-opacity:1;fill-rule:evenodd;stroke:none;stroke-width:2.97477436;stroke-linecap:round;stroke-linejoin:round;stroke-miterlimit:4;stroke-dasharray:none;stroke-opacity:1;paint-order:stroke fill markers"
       id="rect834"
       width="0.88313615"
       height="0.88313615"
       x="11.550062"
       y="6.1133966"
       ry="0.44156808" />
  </g>
</svg>
