<?xml version="1.0" encoding="UTF-8" standalone="no"?>
<!-- Created with Inkscape (http://www.inkscape.org/) -->

<svg
   xmlns:dc="http://purl.org/dc/elements/1.1/"
   xmlns:cc="http://creativecommons.org/ns#"
   xmlns:rdf="http://www.w3.org/1999/02/22-rdf-syntax-ns#"
   xmlns:svg="http://www.w3.org/2000/svg"
   xmlns="http://www.w3.org/2000/svg"
   xmlns:xlink="http://www.w3.org/1999/xlink"
   xmlns:sodipodi="http://sodipodi.sourceforge.net/DTD/sodipodi-0.dtd"
   xmlns:inkscape="http://www.inkscape.org/namespaces/inkscape"
   width="24px"
   height="24px"
   viewBox="0 0 24 24"
   version="1.1"
   id="SVGRoot"
   inkscape:version="0.92.4 (5da689c313, 2019-01-14)"
   sodipodi:docname="toxic-biohazard.svg">
  <defs
     id="defs1125">
    <linearGradient
       inkscape:collect="always"
       xlink:href="#linearGradient1763"
       id="linearGradient1573-6"
       x1="12"
       y1="2"
       x2="12"
       y2="22"
       gradientUnits="userSpaceOnUse"
       gradientTransform="matrix(1.1,0,0,1.1,-1.2,-1.2000002)" />
    <linearGradient
       inkscape:collect="always"
       id="linearGradient1763">
      <stop
         style="stop-color:#356261;stop-opacity:1"
         offset="0"
         id="stop1759" />
      <stop
         style="stop-color:#2b3c3c;stop-opacity:1"
         offset="1"
         id="stop1761" />
    </linearGradient>
  </defs>
  <sodipodi:namedview
     id="base"
     pagecolor="#ffffff"
     bordercolor="#666666"
     borderopacity="1.0"
     inkscape:pageopacity="0.0"
     inkscape:pageshadow="2"
     inkscape:zoom="22.627417"
     inkscape:cx="7.7373098"
     inkscape:cy="19.746395"
     inkscape:document-units="px"
     inkscape:current-layer="layer1"
     showgrid="true"
     inkscape:window-width="1920"
     inkscape:window-height="1017"
     inkscape:window-x="-8"
     inkscape:window-y="-8"
     inkscape:window-maximized="1"
     inkscape:grid-bbox="true"
     inkscape:snap-global="true">
    <inkscape:grid
       type="xygrid"
       id="grid1723" />
  </sodipodi:namedview>
  <metadata
     id="metadata1128">
    <rdf:RDF>
      <cc:Work
         rdf:about="">
        <dc:format>image/svg+xml</dc:format>
        <dc:type
           rdf:resource="http://purl.org/dc/dcmitype/StillImage" />
        <dc:title></dc:title>
      </cc:Work>
    </rdf:RDF>
  </metadata>
  <g
     inkscape:label="Layer 1"
     inkscape:groupmode="layer"
     id="layer1">
    <rect
       style="opacity:1;vector-effect:none;fill:url(#linearGradient1573-6);fill-opacity:1;fill-rule:evenodd;stroke:none;stroke-width:4.4000001;stroke-linecap:round;stroke-linejoin:round;stroke-miterlimit:4;stroke-dasharray:none;paint-order:stroke fill markers"
       id="rect1560-7"
       width="22"
       height="22"
       x="1"
       y="0.99999976"
       ry="4" />
    <path
       style="opacity:0.25;vector-effect:none;fill:#000000;fill-opacity:1;fill-rule:evenodd;stroke:none;stroke-width:4;stroke-linecap:round;stroke-linejoin:round;stroke-miterlimit:4;stroke-dasharray:none;paint-order:stroke fill markers"
       d="m 5,0.99999976 c -2.216,0 -4,1.78400004 -4,4.00000004 V 19 c 0,2.216 1.784,4 4,4 h 14 c 2.216,0 4,-1.784 4,-4 V 4.9999998 c 0,-2.216 -1.784,-4.00000004 -4,-4.00000004 z M 5,1.9999998 h 14 c 1.662,0 3,1.338 3,3 V 19 c 0,1.662 -1.338,3 -3,3 H 5 C 3.338,22 2,20.662 2,19 V 4.9999998 c 0,-1.662 1.338,-3 3,-3 z"
       id="rect1558-6"
       inkscape:connector-curvature="0" />
    <path
       style="opacity:1;vector-effect:none;fill:#ffffff;fill-opacity:1;fill-rule:evenodd;stroke:none;stroke-width:2;stroke-linecap:round;stroke-linejoin:round;stroke-miterlimit:4;stroke-dasharray:none;stroke-opacity:1;paint-order:stroke fill markers"
       d="M 12 7 C 9.23 7 7 9.23 7 12 C 7 14.77 9.23 17 12 17 C 14.77 17 17 14.77 17 12 C 17 9.23 14.77 7 12 7 z M 12 8 C 14.216 8 16 9.784 16 12 C 16 14.216 14.216 16 12 16 C 9.784 16 8 14.216 8 12 C 8 9.784 9.784 8 12 8 z "
       id="rect891" />
    <path
       style="fill:#9de2de;stroke:none;stroke-width:0.15093407px;stroke-linecap:butt;stroke-linejoin:miter;stroke-opacity:1"
       d="m 10.685593,12.823119 0.266816,-0.186772 c 0,0 -0.03372,-0.554531 0.106727,-0.773766 0.27428,-0.428145 0.675834,-0.570913 0.675834,-0.570913 v -0.339602 c 0,0 -2.9721285,-1.247995 -3.0375479,-3.2828154 C 8.603624,4.7517669 11.395368,3.971366 11.395368,3.971366 c 0,0 -2.3296185,0.088953 -3.3677159,1.7451751 -1.127749,1.7992579 -0.8773042,3.7450514 -0.8773042,3.7450514 0,0 -1.3780461,0.7067685 -2.4338117,2.2734445 -1.3680437,2.030073 -0.3584683,4.16012 -0.3584683,4.16012 0,0 -0.2031061,-2.492534 0.69807,-3.528084 1.1173452,-1.283953 3.1452666,-1.341628 4.4148212,-0.603736 0.7415599,0.431012 1.2146339,1.059782 1.2146339,1.059782 z"
       id="path836"
       inkscape:connector-curvature="0"
       sodipodi:nodetypes="ccsccscscscssc" />
    <path
       style="fill:#9de2de;stroke:none;stroke-width:0.15093407px;stroke-linecap:butt;stroke-linejoin:miter;stroke-opacity:1"
       d="m 13.274597,12.823119 -0.266815,-0.186772 c 0,0 0.03372,-0.554531 -0.106729,-0.773766 -0.274278,-0.428145 -0.675833,-0.570913 -0.675833,-0.570913 v -0.339602 c 0,0 2.972129,-1.247995 3.037549,-3.2828154 0.0938,-2.9174837 -2.697947,-3.6978846 -2.697947,-3.6978846 0,0 2.32962,0.088953 3.367717,1.7451751 1.127748,1.7992579 0.877304,3.7450514 0.877304,3.7450514 0,0 1.378045,0.7067685 2.433811,2.2734445 1.368044,2.030073 0.358469,4.16012 0.358469,4.16012 0,0 0.203105,-2.492534 -0.69807,-3.528084 -1.117345,-1.283953 -3.145267,-1.341628 -4.414821,-0.603736 -0.741561,0.431012 -1.214635,1.059782 -1.214635,1.059782 z"
       id="path836-1"
       inkscape:connector-curvature="0"
       sodipodi:nodetypes="ccsccscscscssc" />
    <path
       style="fill:#9de2de;stroke:none;stroke-width:0.15093407px;stroke-linecap:butt;stroke-linejoin:miter;stroke-opacity:1"
       d="m 10.873469,13.081808 0.300438,-0.125738 c 0,0 0.450723,0.324795 0.711081,0.323216 0.508456,-0.003 0.843691,-0.266227 0.843691,-0.266227 l 0.287061,0.181452 c 0,0 -1.086006,2.924139 1.151922,4.32165 2.582742,1.612837 4.56732,-0.304712 4.56732,-0.304712 0,0 -1.395401,1.827336 -3.350053,1.819884 -2.12346,-0.0081 -3.558931,-1.165121 -3.558931,-1.165121 0,0 -1.088462,1.126812 -2.9768615,1.182141 -2.4469567,0.0717 -3.9532967,-2.259396 -3.9532967,-2.259396 0,0 1.4323809,1.560076 3.4306965,1.351629 1.6928717,-0.176585 2.7580167,-1.583335 2.7937577,-3.465807 0.01628,-0.857564 -0.246825,-1.592969 -0.246825,-1.592969 z"
       id="path836-1-8"
       inkscape:connector-curvature="0"
       sodipodi:nodetypes="ccsccscscscssc" />
  </g>
</svg>
