<?xml version="1.0" encoding="UTF-8" standalone="no"?>
<!-- Created with Inkscape (http://www.inkscape.org/) -->

<svg
   xmlns:dc="http://purl.org/dc/elements/1.1/"
   xmlns:cc="http://creativecommons.org/ns#"
   xmlns:rdf="http://www.w3.org/1999/02/22-rdf-syntax-ns#"
   xmlns:svg="http://www.w3.org/2000/svg"
   xmlns="http://www.w3.org/2000/svg"
   xmlns:xlink="http://www.w3.org/1999/xlink"
   xmlns:sodipodi="http://sodipodi.sourceforge.net/DTD/sodipodi-0.dtd"
   xmlns:inkscape="http://www.inkscape.org/namespaces/inkscape"
   width="24px"
   height="24px"
   viewBox="0 0 24 24"
   version="1.1"
   id="SVGRoot"
   inkscape:version="0.92.4 (5da689c313, 2019-01-14)"
   sodipodi:docname="elogoxa-cosmo-girl-ii.svg">
  <defs
     id="defs1125">
    <linearGradient
       inkscape:collect="always"
       id="linearGradient1144">
      <stop
         style="stop-color:#363636;stop-opacity:1;"
         offset="0"
         id="stop1140" />
      <stop
         style="stop-color:#5a5a5a;stop-opacity:1"
         offset="1"
         id="stop1142" />
    </linearGradient>
    <linearGradient
       inkscape:collect="always"
       id="linearGradient959">
      <stop
         style="stop-color:#776a49;stop-opacity:1;"
         offset="0"
         id="stop955" />
      <stop
         style="stop-color:#594f36;stop-opacity:1"
         offset="1"
         id="stop957" />
    </linearGradient>
    <linearGradient
       inkscape:collect="always"
       id="linearGradient951">
      <stop
         style="stop-color:#6f6f6f;stop-opacity:1"
         offset="0"
         id="stop947" />
      <stop
         style="stop-color:#474747;stop-opacity:1"
         offset="1"
         id="stop949" />
    </linearGradient>
    <linearGradient
       inkscape:collect="always"
       id="linearGradient878">
      <stop
         style="stop-color:#f5c28d;stop-opacity:1;"
         offset="0"
         id="stop874" />
      <stop
         style="stop-color:#f39372;stop-opacity:1"
         offset="1"
         id="stop876" />
    </linearGradient>
    <linearGradient
       inkscape:collect="always"
       xlink:href="#linearGradient1763"
       id="linearGradient1573-6"
       x1="12"
       y1="2"
       x2="12"
       y2="22"
       gradientUnits="userSpaceOnUse"
       gradientTransform="matrix(1.1,0,0,1.1,-1.2,-1.2000002)" />
    <linearGradient
       inkscape:collect="always"
       id="linearGradient1763">
      <stop
         style="stop-color:#b4cad7;stop-opacity:1"
         offset="0"
         id="stop1759" />
      <stop
         style="stop-color:#7799ae;stop-opacity:1"
         offset="1"
         id="stop1761" />
    </linearGradient>
    <linearGradient
       inkscape:collect="always"
       xlink:href="#linearGradient878"
       id="linearGradient880"
       x1="12"
       y1="21"
       x2="12"
       y2="19"
       gradientUnits="userSpaceOnUse" />
    <linearGradient
       inkscape:collect="always"
       xlink:href="#linearGradient878"
       id="linearGradient888"
       x1="12"
       y1="20"
       x2="12"
       y2="18"
       gradientUnits="userSpaceOnUse" />
    <linearGradient
       inkscape:collect="always"
       xlink:href="#linearGradient878"
       id="linearGradient896"
       x1="13"
       y1="16"
       x2="13"
       y2="19"
       gradientUnits="userSpaceOnUse" />
    <linearGradient
       inkscape:collect="always"
       xlink:href="#linearGradient951"
       id="linearGradient953"
       x1="12"
       y1="10"
       x2="12"
       y2="16"
       gradientUnits="userSpaceOnUse" />
    <linearGradient
       inkscape:collect="always"
       xlink:href="#linearGradient959"
       id="linearGradient961"
       x1="12"
       y1="4"
       x2="12"
       y2="18"
       gradientUnits="userSpaceOnUse" />
    <linearGradient
       inkscape:collect="always"
       xlink:href="#linearGradient959"
       id="linearGradient969"
       x1="14"
       y1="4"
       x2="14"
       y2="18"
       gradientUnits="userSpaceOnUse" />
    <linearGradient
       inkscape:collect="always"
       xlink:href="#linearGradient1144"
       id="linearGradient1146"
       x1="12"
       y1="10"
       x2="12"
       y2="4"
       gradientUnits="userSpaceOnUse" />
  </defs>
  <sodipodi:namedview
     id="base"
     pagecolor="#ffffff"
     bordercolor="#666666"
     borderopacity="1.0"
     inkscape:pageopacity="0.0"
     inkscape:pageshadow="2"
     inkscape:zoom="6.4966283"
     inkscape:cx="6.1017862"
     inkscape:cy="8.788446"
     inkscape:document-units="px"
     inkscape:current-layer="layer1"
     showgrid="true"
     inkscape:window-width="1920"
     inkscape:window-height="1017"
     inkscape:window-x="-8"
     inkscape:window-y="-8"
     inkscape:window-maximized="1"
     inkscape:grid-bbox="true"
     inkscape:snap-global="false">
    <inkscape:grid
       type="xygrid"
       id="grid1723" />
  </sodipodi:namedview>
  <metadata
     id="metadata1128">
    <rdf:RDF>
      <cc:Work
         rdf:about="">
        <dc:format>image/svg+xml</dc:format>
        <dc:type
           rdf:resource="http://purl.org/dc/dcmitype/StillImage" />
        <dc:title />
      </cc:Work>
    </rdf:RDF>
  </metadata>
  <g
     inkscape:label="Layer 1"
     inkscape:groupmode="layer"
     id="layer1">
    <rect
       style="opacity:1;vector-effect:none;fill:url(#linearGradient1573-6);fill-opacity:1;fill-rule:evenodd;stroke:none;stroke-width:4.4000001;stroke-linecap:round;stroke-linejoin:round;stroke-miterlimit:4;stroke-dasharray:none;paint-order:stroke fill markers"
       id="rect1560-7"
       width="22"
       height="22"
       x="1"
       y="0.99999976"
       ry="4" />
    <rect
       style="opacity:1;vector-effect:none;fill:url(#linearGradient1146);fill-opacity:1;fill-rule:evenodd;stroke:none;stroke-width:2;stroke-linecap:round;stroke-linejoin:round;stroke-miterlimit:4;stroke-dasharray:none;stroke-opacity:1;paint-order:stroke fill markers"
       id="rect841"
       width="14"
       height="15"
       x="5"
       y="3"
       ry="7" />
    <rect
       style="opacity:1;vector-effect:none;fill:url(#linearGradient953);fill-opacity:1;fill-rule:evenodd;stroke:none;stroke-width:2;stroke-linecap:round;stroke-linejoin:round;stroke-miterlimit:4;stroke-dasharray:none;stroke-opacity:1;paint-order:stroke fill markers"
       id="rect839"
       width="16"
       height="6"
       x="4"
       y="10"
       ry="1" />
    <rect
       style="opacity:0.25;vector-effect:none;fill:#ffffff;fill-opacity:1;fill-rule:evenodd;stroke:none;stroke-width:2;stroke-linecap:round;stroke-linejoin:round;stroke-miterlimit:4;stroke-dasharray:none;stroke-opacity:1;paint-order:stroke fill markers"
       id="rect973"
       width="16"
       height="1"
       x="4"
       y="11" />
    <rect
       style="opacity:1;vector-effect:none;fill:url(#linearGradient961);fill-opacity:1;fill-rule:evenodd;stroke:none;stroke-width:2;stroke-linecap:round;stroke-linejoin:round;stroke-miterlimit:4;stroke-dasharray:none;stroke-opacity:1;paint-order:stroke fill markers"
       id="rect835"
       width="12"
       height="14"
       x="6"
       y="4"
       ry="6" />
    <rect
       style="opacity:1;vector-effect:none;fill:url(#linearGradient969);fill-opacity:1;fill-rule:evenodd;stroke:none;stroke-width:2;stroke-linecap:round;stroke-linejoin:round;stroke-miterlimit:4;stroke-dasharray:none;stroke-opacity:1;paint-order:stroke fill markers"
       id="rect837"
       width="12"
       height="8"
       x="6"
       y="10"
       ry="2" />
    <rect
       style="opacity:0.25;vector-effect:none;fill:#000000;fill-opacity:1;fill-rule:evenodd;stroke:none;stroke-width:2;stroke-linecap:round;stroke-linejoin:round;stroke-miterlimit:4;stroke-dasharray:none;stroke-opacity:1;paint-order:stroke fill markers"
       id="rect971"
       width="8"
       height="3"
       x="8"
       y="15" />
    <path
       style="fill:url(#linearGradient888);stroke:none;stroke-width:1px;stroke-linecap:butt;stroke-linejoin:miter;stroke-opacity:1;fill-opacity:1"
       d="M 12 19 C 9.9724125 19 7.7026694 18.899078 6 20 C 5.0729106 20.599443 4.196953 22.550461 4.0546875 22.876953 C 4.3588994 22.950492 4.6725625 23 5 23 L 19 23 C 19.327437 23 19.641101 22.950492 19.945312 22.876953 C 19.803047 22.550461 18.92709 20.599443 18 20 C 16.297331 18.899078 14.027588 19 12 19 z "
       id="path847" />
    <path
       style="fill:#6c0000;stroke:none;stroke-width:1px;stroke-linecap:butt;stroke-linejoin:miter;stroke-opacity:1;opacity:0.25"
       d="M 12 19 C 9.9724125 19 7.7026694 18.899078 6 20 C 6 20 10 19 12 21 C 14 19 18 20 18 20 C 16.297331 18.899078 14.027588 19 12 19 z "
       id="path1113" />
    <rect
       style="opacity:1;vector-effect:none;fill:url(#linearGradient880);fill-opacity:1;fill-rule:evenodd;stroke:none;stroke-width:2;stroke-linecap:round;stroke-linejoin:round;stroke-miterlimit:4;stroke-dasharray:none;stroke-opacity:1;paint-order:stroke fill markers"
       id="rect845"
       width="4"
       height="4"
       x="10"
       y="17"
       ry="1.5"
       rx="2" />
    <path
       style="opacity:0.25;fill:#6c0000;fill-opacity:1;stroke:none;stroke-width:1px;stroke-linecap:butt;stroke-linejoin:miter;stroke-opacity:1"
       d="m 12,16.535426 c -1.108,0 -2,0.669 -2,1.5 v 0.936924 c 0.654919,0.405067 1.37426,0.563076 2,0.563076 0.62574,0 1.345081,-0.144184 2,-0.549251 v -0.950749 c 0,-0.831 -0.892,-1.5 -2,-1.5 z"
       id="path843-5"
       inkscape:connector-curvature="0"
       sodipodi:nodetypes="sscscss" />
    <path
       style="fill:url(#linearGradient896);stroke:none;stroke-width:1px;stroke-linecap:butt;stroke-linejoin:miter;stroke-opacity:1;fill-opacity:1"
       d="m 8,13 c 0,0 2,0 4,-3 2,3 4,3 4,3 v 3 c 0,1 -2.333333,3 -4,3 -1.666667,0 -4,-2 -4,-3 z"
       id="path843"
       inkscape:connector-curvature="0"
       sodipodi:nodetypes="cccsssc" />
    <path
       style="opacity:0.25;fill:#6c0000;stroke:none;stroke-width:1px;stroke-linecap:butt;stroke-linejoin:miter;stroke-opacity:1"
       d="m 7,21 c 0,0 0.3199686,0.69204 0.1924075,1 C 7.0120088,22.435521 6,23 6,23 H 8 C 8,22 7,21 7,21 Z m 10,0 c 0,0 -1,1 -1,2 h 2 c 0,0 -0.819601,-0.564479 -1,-1 -0.127561,-0.30796 0,-1 0,-1 z"
       id="path850"
       inkscape:connector-curvature="0"
       sodipodi:nodetypes="cscccccccc" />
    <path
       style="opacity:0.25;vector-effect:none;fill:#000000;fill-opacity:1;fill-rule:evenodd;stroke:none;stroke-width:4;stroke-linecap:round;stroke-linejoin:round;stroke-miterlimit:4;stroke-dasharray:none;paint-order:stroke fill markers"
       d="m 5,0.99999976 c -2.216,0 -4,1.78400004 -4,4.00000004 V 19 c 0,2.216 1.784,4 4,4 h 14 c 2.216,0 4,-1.784 4,-4 V 4.9999998 c 0,-2.216 -1.784,-4.00000004 -4,-4.00000004 z M 5,1.9999998 h 14 c 1.662,0 3,1.338 3,3 V 19 c 0,1.662 -1.338,3 -3,3 H 5 C 3.338,22 2,20.662 2,19 V 4.9999998 c 0,-1.662 1.338,-3 3,-3 z"
       id="rect1558-6"
       inkscape:connector-curvature="0" />
  </g>
</svg>
