<?xml version="1.0" encoding="UTF-8" standalone="no"?>
<!-- Created with Inkscape (http://www.inkscape.org/) -->

<svg
   xmlns:dc="http://purl.org/dc/elements/1.1/"
   xmlns:cc="http://creativecommons.org/ns#"
   xmlns:rdf="http://www.w3.org/1999/02/22-rdf-syntax-ns#"
   xmlns:svg="http://www.w3.org/2000/svg"
   xmlns="http://www.w3.org/2000/svg"
   xmlns:xlink="http://www.w3.org/1999/xlink"
   xmlns:sodipodi="http://sodipodi.sourceforge.net/DTD/sodipodi-0.dtd"
   xmlns:inkscape="http://www.inkscape.org/namespaces/inkscape"
   width="24px"
   height="24px"
   viewBox="0 0 24 24"
   version="1.1"
   id="SVGRoot"
   inkscape:version="0.92.4 (5da689c313, 2019-01-14)"
   sodipodi:docname="delay-lama.svg">
  <defs
     id="defs1125">
    <linearGradient
       inkscape:collect="always"
       id="linearGradient916">
      <stop
         style="stop-color:#000000;stop-opacity:1;"
         offset="0"
         id="stop912" />
      <stop
         style="stop-color:#000000;stop-opacity:0;"
         offset="1"
         id="stop914" />
    </linearGradient>
    <linearGradient
       id="linearGradient910"
       inkscape:collect="always">
      <stop
         id="stop906"
         offset="0"
         style="stop-color:#f0b693;stop-opacity:1" />
      <stop
         id="stop908"
         offset="1"
         style="stop-color:#e59c6f;stop-opacity:1" />
    </linearGradient>
    <linearGradient
       inkscape:collect="always"
       id="linearGradient886">
      <stop
         style="stop-color:#eca275;stop-opacity:1;"
         offset="0"
         id="stop882" />
      <stop
         style="stop-color:#df8853;stop-opacity:1"
         offset="1"
         id="stop884" />
    </linearGradient>
    <linearGradient
       inkscape:collect="always"
       xlink:href="#linearGradient1763"
       id="linearGradient1573-6"
       x1="12"
       y1="2"
       x2="12"
       y2="22"
       gradientUnits="userSpaceOnUse"
       gradientTransform="matrix(1.1,0,0,1.1,-1.1558058,-1.155806)" />
    <linearGradient
       inkscape:collect="always"
       id="linearGradient1763">
      <stop
         style="stop-color:#c6b29f;stop-opacity:1"
         offset="0"
         id="stop1759" />
      <stop
         style="stop-color:#b2957d;stop-opacity:1"
         offset="1"
         id="stop1761" />
    </linearGradient>
    <linearGradient
       inkscape:collect="always"
       xlink:href="#linearGradient910"
       id="linearGradient888"
       x1="13"
       y1="23"
       x2="13"
       y2="20"
       gradientUnits="userSpaceOnUse" />
    <linearGradient
       inkscape:collect="always"
       xlink:href="#linearGradient886"
       id="linearGradient896"
       x1="20"
       y1="11"
       x2="18"
       y2="12"
       gradientUnits="userSpaceOnUse" />
    <linearGradient
       inkscape:collect="always"
       xlink:href="#linearGradient910"
       id="linearGradient904"
       x1="11"
       y1="13"
       x2="11"
       y2="20"
       gradientUnits="userSpaceOnUse" />
    <linearGradient
       inkscape:collect="always"
       xlink:href="#linearGradient916"
       id="linearGradient918"
       x1="14"
       y1="13"
       x2="15"
       y2="12"
       gradientUnits="userSpaceOnUse" />
  </defs>
  <sodipodi:namedview
     id="base"
     pagecolor="#ffffff"
     bordercolor="#666666"
     borderopacity="1.0"
     inkscape:pageopacity="0.0"
     inkscape:pageshadow="2"
     inkscape:zoom="11.313709"
     inkscape:cx="13.327701"
     inkscape:cy="10.028141"
     inkscape:document-units="px"
     inkscape:current-layer="layer1"
     showgrid="true"
     inkscape:window-width="1920"
     inkscape:window-height="1017"
     inkscape:window-x="-8"
     inkscape:window-y="-8"
     inkscape:window-maximized="1"
     inkscape:grid-bbox="true"
     inkscape:snap-global="false"
     showguides="false">
    <inkscape:grid
       type="xygrid"
       id="grid1723" />
  </sodipodi:namedview>
  <metadata
     id="metadata1128">
    <rdf:RDF>
      <cc:Work
         rdf:about="">
        <dc:format>image/svg+xml</dc:format>
        <dc:type
           rdf:resource="http://purl.org/dc/dcmitype/StillImage" />
        <dc:title></dc:title>
      </cc:Work>
    </rdf:RDF>
  </metadata>
  <g
     inkscape:label="Layer 1"
     inkscape:groupmode="layer"
     id="layer1">
    <rect
       style="opacity:1;vector-effect:none;fill:url(#linearGradient1573-6);fill-opacity:1;fill-rule:evenodd;stroke:none;stroke-width:4.4000001;stroke-linecap:round;stroke-linejoin:round;stroke-miterlimit:4;stroke-dasharray:none;paint-order:stroke fill markers"
       id="rect1560-7"
       width="22"
       height="22"
       x="1.0441942"
       y="1.044194"
       ry="4" />
    <path
       style="color:#000000;font-style:normal;font-variant:normal;font-weight:normal;font-stretch:normal;font-size:medium;line-height:normal;font-family:sans-serif;font-variant-ligatures:normal;font-variant-position:normal;font-variant-caps:normal;font-variant-numeric:normal;font-variant-alternates:normal;font-feature-settings:normal;text-indent:0;text-align:start;text-decoration:none;text-decoration-line:none;text-decoration-style:solid;text-decoration-color:#000000;letter-spacing:normal;word-spacing:normal;text-transform:none;writing-mode:lr-tb;direction:ltr;text-orientation:mixed;dominant-baseline:auto;baseline-shift:baseline;text-anchor:start;white-space:normal;shape-padding:0;clip-rule:nonzero;display:inline;overflow:visible;visibility:visible;opacity:0.5;isolation:auto;mix-blend-mode:normal;color-interpolation:sRGB;color-interpolation-filters:linearRGB;solid-color:#000000;solid-opacity:1;vector-effect:none;fill:#000000;fill-opacity:1;fill-rule:nonzero;stroke:none;stroke-width:2;stroke-linecap:round;stroke-linejoin:round;stroke-miterlimit:4;stroke-dasharray:none;stroke-dashoffset:0;stroke-opacity:1;color-rendering:auto;image-rendering:auto;shape-rendering:auto;text-rendering:auto;enable-background:accumulate"
       d="M 12.816406 3.03125 C 8.3084384 3.0115944 5.9062487 4.8066663 4.8671875 6.6914062 C 3.9777915 8.3046703 4.0396814 9.6929283 4.0722656 10.125 C 3.8377531 10.11179 3.5967365 10.10121 3.2753906 10.259766 C 2.7087461 10.539361 2.3837286 11.013122 2.1914062 11.496094 C 1.9990841 11.979065 1.9240886 12.501908 2.0605469 13.052734 C 2.2403468 13.778514 2.6853385 14.288431 3.1328125 14.675781 C 3.4517497 14.951865 3.7869189 15.089995 4.125 15.240234 C 4.156214 15.386755 4.144829 15.662353 4.6152344 16.017578 C 4.9835142 16.295683 5.2615303 16.337057 5.5 16.324219 C 5.6841807 16.84735 6.0450249 17.493443 6.515625 18.234375 C 6.505365 18.260575 6.4930359 18.289786 6.4824219 18.316406 C 5.9934794 18.186556 5.5222785 18 5 18 C 4.1304191 18 3.4172649 18.395923 2.75 18.859375 C 2.1982945 19.242565 1.6908206 19.70245 1.2207031 20.162109 C 1.7048352 21.826377 3.2202898 23.044922 5.0449219 23.044922 L 19.044922 23.044922 C 20.702843 23.044922 22.116491 22.044256 22.724609 20.613281 C 21.472373 19.652885 19.818868 18.670808 18.068359 18.300781 C 18.686172 17.351688 19.198706 16.305053 19.447266 15.109375 C 19.466946 15.014685 19.505723 14.882911 19.539062 14.759766 C 19.643807 14.652213 19.8444 14.620913 19.892578 14.513672 C 20.048567 14.166452 20.049565 13.910086 20.060547 13.689453 C 20.082507 13.248188 20.157067 12.887551 20.085938 13.033203 C 20.062168 13.081883 20.153108 12.961993 20.359375 12.755859 C 20.565644 12.549721 20.931546 12.183445 20.994141 11.570312 C 21.039491 11.126076 21.001841 10.666099 20.828125 10.179688 C 20.741275 9.9364812 20.618234 9.6830247 20.396484 9.4433594 C 20.174734 9.203694 19.816951 8.9836199 19.412109 8.9433594 C 19.331769 8.9353694 19.286004 8.9929389 19.208984 8.9980469 C 19.137876 8.7359452 19.020244 8.4328677 18.992188 8.1953125 C 18.870985 7.169131 18.559025 5.8779417 17.597656 4.8164062 C 16.636287 3.7548708 15.05665 3.0410179 12.816406 3.03125 z "
       id="path1144" />
    <path
       style="fill:#e67b33;stroke:none;stroke-width:1px;stroke-linecap:butt;stroke-linejoin:miter;stroke-opacity:1"
       d="M 17 19 C 15.333333 19 14 23 14 23 L 19 23 C 20.29318 23 21.425989 22.381936 22.15625 21.435547 C 20.701192 20.312395 18.658938 19 17 19 z "
       id="path834" />
    <path
       style="fill:url(#linearGradient888);stroke:none;stroke-width:1px;stroke-linecap:butt;stroke-linejoin:miter;stroke-opacity:1;fill-opacity:1.0"
       d="M 6.1875,21.09375 C 7.3717847,19.420359 8,17 8,17 h 8 l 2,6 H 5 c 0,0 0.5785702,-1.045834 1.1875,-1.90625 z"
       id="path836"
       inkscape:connector-curvature="0"
       sodipodi:nodetypes="sccccs" />
    <path
       style="fill:url(#linearGradient896);stroke:none;stroke-width:1px;stroke-linecap:butt;stroke-linejoin:miter;stroke-opacity:1;fill-opacity:1"
       d="m 17.75,12.125 c 0,0 0.670823,-2.2761756 1.5625,-2.1875 0.556756,0.055368 0.744326,0.974641 0.6875,1.53125 -0.04698,0.460183 -0.609511,0.709343 -0.8125,1.125 -0.261832,0.536148 0.09556,1.682437 -0.5,1.71875 C 17.895661,14.36078 17.75,12.125 17.75,12.125 Z"
       id="path840"
       inkscape:connector-curvature="0"
       sodipodi:nodetypes="cssssc" />
    <path
       style="fill:url(#linearGradient904);stroke:none;stroke-width:1px;stroke-linecap:butt;stroke-linejoin:miter;stroke-opacity:1;fill-opacity:1"
       d="m 6.1875,15.1875 c 0,0 1.2248821,5.796043 6.84375,5.40625 2.616561,-0.181516 4.791208,-2.578556 5.4375,-5.6875 0.175047,-0.842051 0.5168,-1.671361 0.5,-2.53125 C 18.941557,10.98313 18.16329,9.6950263 18,8.3125 17.782669,6.4724236 16.89821,4.0490644 12.8125,4.03125 c -8.5193304,-0.037146 -7.75,6.3125 -7.75,6.3125 l 0.0625,1.1875 c 0,0 -0.9711975,-0.589665 -1.40625,-0.375 -0.536053,0.264501 -0.8312394,1.076033 -0.6875,1.65625 0.208143,0.840189 1.2262031,1.548826 1.75,1.6875 0.2491116,0.06595 0.231854,0.563457 0.4375,0.71875 C 5.4765797,15.413449 6.1875,15.1875 6.1875,15.1875 Z"
       id="path838"
       inkscape:connector-curvature="0"
       sodipodi:nodetypes="csssssccssssc" />
    <path
       style="fill:#b06d1e;stroke:none;stroke-width:1px;stroke-linecap:butt;stroke-linejoin:miter;stroke-opacity:1"
       d="M 5 19 C 3.9766392 19 2.6657577 20.098784 1.6328125 21.150391 C 2.3418904 22.26186 3.5783793 23 5 23 L 12 23 C 12 23 8.3436692 19 5 19 z "
       id="path832" />
    <path
       style="fill:none;stroke:#54311c;stroke-width:1px;stroke-linecap:round;stroke-linejoin:round;stroke-opacity:1"
       d="m 8.7725435,9.5485052 c 0,0 0.8883272,-1.0761889 2.1213205,-1.1048544 1.232993,-0.028666 1.679378,0.7071068 1.679378,0.7071068"
       id="path842"
       inkscape:connector-curvature="0"
       sodipodi:nodetypes="czc" />
    <path
       style="fill:none;stroke:#54311c;stroke-width:1px;stroke-linecap:round;stroke-linejoin:round;stroke-opacity:1"
       d="m 14.760854,8.7751071 c 0,0 0.756061,-0.8783218 1.701476,-0.9280776 0.822772,-0.043301 1.281631,0.6629126 1.281631,0.6629126"
       id="path844"
       inkscape:connector-curvature="0"
       sodipodi:nodetypes="csc" />
    <path
       style="fill:#000000;stroke:none;stroke-width:1px;stroke-linecap:butt;stroke-linejoin:miter;stroke-opacity:1;opacity:0.25"
       d="m 11.733553,14.343573 c 0,0 -0.783458,0.899376 -0.90598,1.458408 -0.05085,0.232029 0.08839,0.707107 0.08839,0.707107 0,0 1.352525,-0.606649 2.077126,-0.662913 0.431026,-0.03347 0.850463,0.230454 1.281631,0.198874 0.322974,-0.02366 0.667232,-0.361839 0.849953,-0.271637 0.173954,0.08587 0.03393,0.580996 0.03393,0.580996 0,0 0.376568,-0.304444 0.596621,-0.397748 0.319225,-0.135355 1.016466,-0.22097 1.016466,-0.22097 0,0 -0.358101,-0.287677 -0.574524,-0.30936 -0.252718,-0.02532 -0.729204,0.220971 -0.729204,0.220971 0,0 0.0081,-0.300473 -0.353554,-0.331456 -0.306653,-0.02627 -0.555536,0.30084 -0.861786,0.331456 -0.438588,0.04385 -0.864258,-0.254845 -1.303728,-0.220971 -0.53414,0.04117 -1.524699,0.508233 -1.524699,0.508233 z"
       id="path846"
       inkscape:connector-curvature="0"
       sodipodi:nodetypes="cscssscscscssscc" />
    <path
       style="fill:url(#linearGradient918);stroke:none;stroke-width:1px;stroke-linecap:butt;stroke-linejoin:miter;stroke-opacity:1;opacity:0.25;fill-opacity:1"
       d="m 13.984375,10.671875 c 0,0 0.366889,0.624928 0.609375,0.890625 0.264328,0.28963 0.612514,0.490243 0.90625,0.75 0.193198,0.170849 0.5625,0.53125 0.5625,0.53125 0,0 -0.461462,-0.1322 -0.515625,0.03125 -0.09234,0.278655 0.04145,0.59684 0.03125,0.90625 -0.01311,0.397566 -0.675738,0.104377 -1.265625,-0.07813 -0.518326,-0.160366 -0.03344,-1.085795 -0.09375,-1.625 -0.05282,-0.472269 -0.234375,-1.406245 -0.234375,-1.406245 z"
       id="path856"
       inkscape:connector-curvature="0"
       sodipodi:nodetypes="csscssssc" />
    <path
       style="fill:#000000;stroke:none;stroke-width:1px;stroke-linecap:butt;stroke-linejoin:miter;stroke-opacity:1;opacity:0.25"
       d="m 12.875,14.484375 c -0.01606,-0.245151 0.445819,-0.309754 0.6875,-0.265625 0.130627,0.02385 0.327748,0.136477 0.296875,0.265625 -0.0376,0.157279 -0.30705,0.123159 -0.46875,0.125 -0.176842,0.002 -0.504062,0.05147 -0.515625,-0.125 z"
       id="path858"
       inkscape:connector-curvature="0"
       sodipodi:nodetypes="sssss" />
    <path
       style="fill:#f5d0ba;stroke:none;stroke-width:1px;stroke-linecap:butt;stroke-linejoin:miter;stroke-opacity:1;fill-opacity:1"
       d="m 14.21875,14.5625 c 0,0 0.0112,-0.847332 0.734375,-0.96875 0.236611,-0.03973 0.60753,0.0905 0.640625,0.328125 0.04321,0.310243 -0.6875,0.640625 -0.6875,0.640625 0,0 0.311373,-0.323313 0.21875,-0.46875 -0.06155,-0.09665 -0.236011,-0.03901 -0.34375,0 -0.229492,0.08309 -0.5625,0.46875 -0.5625,0.46875 z"
       id="path860"
       inkscape:connector-curvature="0"
       sodipodi:nodetypes="csscssc" />
    <path
       style="fill:#000000;stroke:none;stroke-width:1px;stroke-linecap:butt;stroke-linejoin:miter;stroke-opacity:1;opacity:0.25"
       d="M 10.296875 4.2519531 C 4.4719793 5.3491878 5.0625 10.34375 5.0625 10.34375 L 5.125 11.525391 C 5.3038403 11.66193 5.5372468 11.739101 5.8554688 12.068359 C 6.1268144 12.349115 6.5410156 13.017578 6.5410156 13.017578 C 6.5410156 13.017578 6.8532451 10.156501 7.2929688 8.796875 C 7.5068702 8.1354919 7.7671111 7.4659517 8.1972656 6.9199219 C 8.5211789 6.5087526 9.069899 6.3182029 9.4140625 5.9238281 C 9.9466221 5.3135713 10.181924 4.6994492 10.296875 4.2519531 z "
       id="path864" />
    <path
       style="opacity:0.25;vector-effect:none;fill:#000000;fill-opacity:1;fill-rule:evenodd;stroke:none;stroke-width:4;stroke-linecap:round;stroke-linejoin:round;stroke-miterlimit:4;stroke-dasharray:none;paint-order:stroke fill markers"
       d="m 5,0.99999976 c -2.216,0 -4,1.78400004 -4,4.00000004 V 19 c 0,2.216 1.784,4 4,4 h 14 c 2.216,0 4,-1.784 4,-4 V 4.9999998 c 0,-2.216 -1.784,-4.00000004 -4,-4.00000004 z M 5,1.9999998 h 14 c 1.662,0 3,1.338 3,3 V 19 c 0,1.662 -1.338,3 -3,3 H 5 C 3.338,22 2,20.662 2,19 V 4.9999998 c 0,-1.662 1.338,-3 3,-3 z"
       id="rect1558-6"
       inkscape:connector-curvature="0" />
    <path
       style="fill:#ffffff;stroke:none;stroke-width:1px;stroke-linecap:butt;stroke-linejoin:miter;stroke-opacity:1"
       d="m 9.0708542,11.062156 c 0.063186,-0.312429 1.1555428,-0.317609 1.7346208,-0.243068 0.59764,0.07693 1.698383,0.434714 1.668331,0.696058 -0.05185,0.450927 -1.416894,0.271399 -2.110272,0.143631 -0.4667157,-0.086 -1.3867536,-0.131465 -1.2926798,-0.596621 z"
       id="path957"
       inkscape:connector-curvature="0"
       sodipodi:nodetypes="sssss" />
    <path
       style="fill:#ffffff;stroke:none;stroke-width:1px;stroke-linecap:butt;stroke-linejoin:miter;stroke-opacity:1"
       d="m 14.56198,11.205787 c -0.0028,-0.22767 1.061838,-0.659811 1.657282,-0.817593 0.417263,-0.110567 1.216562,-0.315077 1.292679,-0.07734 0.161531,0.504513 -0.743611,0.822919 -1.248485,0.98332 -0.541263,0.171962 -1.694551,0.479494 -1.701476,-0.08839 z"
       id="path959"
       inkscape:connector-curvature="0"
       sodipodi:nodetypes="sssss" />
    <path
       style="opacity:1;vector-effect:none;fill:#4a4a4a;fill-opacity:1;fill-rule:evenodd;stroke:none;stroke-width:2;stroke-linecap:round;stroke-linejoin:round;stroke-miterlimit:4;stroke-dasharray:none;stroke-opacity:1;paint-order:stroke fill markers"
       d="M 10.298828 10.78125 C 10.214877 10.778927 10.13186 10.785577 10.046875 10.787109 C 9.9930978 10.88695 9.9550781 10.995405 9.9550781 11.117188 C 9.9550781 11.316576 10.038034 11.494742 10.169922 11.623047 C 10.232119 11.632394 10.310544 11.648485 10.363281 11.658203 C 10.532781 11.689437 10.744064 11.724499 10.964844 11.751953 C 11.202647 11.6383 11.369141 11.399264 11.369141 11.117188 C 11.369141 11.049181 11.34979 10.987934 11.332031 10.925781 C 11.141873 10.876106 10.956651 10.837921 10.804688 10.818359 C 10.659918 10.799724 10.483657 10.786365 10.298828 10.78125 z "
       id="rect961" />
    <path
       style="opacity:1;vector-effect:none;fill:#4a4a4a;fill-opacity:1;fill-rule:evenodd;stroke:none;stroke-width:2;stroke-linecap:round;stroke-linejoin:round;stroke-miterlimit:4;stroke-dasharray:none;stroke-opacity:1;paint-order:stroke fill markers"
       d="M 16.667969 10.291016 C 16.509911 10.325768 16.339575 10.356655 16.21875 10.388672 C 15.984582 10.450722 15.676462 10.571662 15.390625 10.689453 C 15.392541 11.040571 15.65239 11.319049 15.988281 11.373047 C 16.082787 11.346538 16.188199 11.3189 16.263672 11.294922 C 16.364028 11.263038 16.485003 11.220372 16.605469 11.175781 C 16.727467 11.048832 16.804688 10.876333 16.804688 10.685547 C 16.804688 10.535417 16.747155 10.40526 16.667969 10.291016 z "
       id="rect961-0" />
    <path
       style="opacity:0.2;fill:#6f0500;fill-opacity:1;stroke:none;stroke-width:1px;stroke-linecap:butt;stroke-linejoin:miter;stroke-opacity:1"
       d="M 6.1875 15.1875 C 6.1875 15.1875 7.4123821 20.983543 13.03125 20.59375 C 14.890039 20.464802 16.513849 19.204966 17.537109 17.378906 C 16.458761 18.274605 14.712254 19.140897 12.042969 19.027344 C 8.342673 18.869932 6.1875 15.1875 6.1875 15.1875 z "
       id="path1010" />
    <path
       style="fill:#6f0500;stroke:none;stroke-width:0.7653591px;stroke-linecap:butt;stroke-linejoin:miter;stroke-opacity:1;opacity:0.2"
       d="m 4.1103364,12.93492 c -0.3141227,-0.229742 -0.044405,-0.440959 0.1691221,-0.558103 0.2135272,-0.117143 0.5736236,-0.0069 0.8456103,0.236772 0.2719867,0.243628 0.6246849,1.037615 0.490454,1.217679 C 5.310253,14.240772 5.0458413,13.619126 4.1103364,12.93492 Z"
       id="path1171"
       inkscape:connector-curvature="0"
       sodipodi:nodetypes="sssss" />
  </g>
</svg>
