<?xml version="1.0" encoding="UTF-8" standalone="no"?>
<!-- Created with Inkscape (http://www.inkscape.org/) -->

<svg
   xmlns:dc="http://purl.org/dc/elements/1.1/"
   xmlns:cc="http://creativecommons.org/ns#"
   xmlns:rdf="http://www.w3.org/1999/02/22-rdf-syntax-ns#"
   xmlns:svg="http://www.w3.org/2000/svg"
   xmlns="http://www.w3.org/2000/svg"
   xmlns:xlink="http://www.w3.org/1999/xlink"
   xmlns:sodipodi="http://sodipodi.sourceforge.net/DTD/sodipodi-0.dtd"
   xmlns:inkscape="http://www.inkscape.org/namespaces/inkscape"
   width="24px"
   height="24px"
   viewBox="0 0 24 24"
   version="1.1"
   id="SVGRoot"
   inkscape:version="0.92.4 (5da689c313, 2019-01-14)"
   sodipodi:docname="discodsp-ob-xd.svg">
  <defs
     id="defs1125">
    <linearGradient
       inkscape:collect="always"
       xlink:href="#linearGradient1763"
       id="linearGradient1573-6"
       x1="12"
       y1="2"
       x2="12"
       y2="22"
       gradientUnits="userSpaceOnUse"
       gradientTransform="matrix(1.1,0,0,1.1,-1.2,-1.2000002)" />
    <linearGradient
       inkscape:collect="always"
       id="linearGradient1763">
      <stop
         style="stop-color:#717174;stop-opacity:1"
         offset="0"
         id="stop1759" />
      <stop
         style="stop-color:#4c4c4c;stop-opacity:1"
         offset="1"
         id="stop1761" />
    </linearGradient>
  </defs>
  <sodipodi:namedview
     id="base"
     pagecolor="#ffffff"
     bordercolor="#666666"
     borderopacity="1.0"
     inkscape:pageopacity="0.0"
     inkscape:pageshadow="2"
     inkscape:zoom="22.627417"
     inkscape:cx="10.991543"
     inkscape:cy="12.767966"
     inkscape:document-units="px"
     inkscape:current-layer="layer1"
     showgrid="true"
     inkscape:window-width="1920"
     inkscape:window-height="1017"
     inkscape:window-x="-8"
     inkscape:window-y="-8"
     inkscape:window-maximized="1"
     inkscape:grid-bbox="true"
     inkscape:snap-global="false">
    <inkscape:grid
       type="xygrid"
       id="grid1723" />
  </sodipodi:namedview>
  <metadata
     id="metadata1128">
    <rdf:RDF>
      <cc:Work
         rdf:about="">
        <dc:format>image/svg+xml</dc:format>
        <dc:type
           rdf:resource="http://purl.org/dc/dcmitype/StillImage" />
        <dc:title></dc:title>
      </cc:Work>
    </rdf:RDF>
  </metadata>
  <g
     inkscape:label="Layer 1"
     inkscape:groupmode="layer"
     id="layer1">
    <rect
       style="opacity:1;vector-effect:none;fill:url(#linearGradient1573-6);fill-opacity:1;fill-rule:evenodd;stroke:none;stroke-width:4.4000001;stroke-linecap:round;stroke-linejoin:round;stroke-miterlimit:4;stroke-dasharray:none;paint-order:stroke fill markers"
       id="rect1560-7"
       width="22"
       height="22"
       x="1"
       y="0.99999976"
       ry="4" />
    <path
       style="opacity:0.25;vector-effect:none;fill:#000000;fill-opacity:1;fill-rule:evenodd;stroke:none;stroke-width:4;stroke-linecap:round;stroke-linejoin:round;stroke-miterlimit:4;stroke-dasharray:none;paint-order:stroke fill markers"
       d="m 5,0.99999976 c -2.216,0 -4,1.78400004 -4,4.00000004 V 19 c 0,2.216 1.784,4 4,4 h 14 c 2.216,0 4,-1.784 4,-4 V 4.9999998 c 0,-2.216 -1.784,-4.00000004 -4,-4.00000004 z M 5,1.9999998 h 14 c 1.662,0 3,1.338 3,3 V 19 c 0,1.662 -1.338,3 -3,3 H 5 C 3.338,22 2,20.662 2,19 V 4.9999998 c 0,-1.662 1.338,-3 3,-3 z"
       id="rect1558-6"
       inkscape:connector-curvature="0" />
    <path
       style="color:#000000;font-style:normal;font-variant:normal;font-weight:normal;font-stretch:normal;font-size:medium;line-height:normal;font-family:sans-serif;font-variant-ligatures:normal;font-variant-position:normal;font-variant-caps:normal;font-variant-numeric:normal;font-variant-alternates:normal;font-feature-settings:normal;text-indent:0;text-align:start;text-decoration:none;text-decoration-line:none;text-decoration-style:solid;text-decoration-color:#000000;letter-spacing:normal;word-spacing:normal;text-transform:none;writing-mode:lr-tb;direction:ltr;text-orientation:mixed;dominant-baseline:auto;baseline-shift:baseline;text-anchor:start;white-space:normal;shape-padding:0;clip-rule:nonzero;display:inline;overflow:visible;visibility:visible;opacity:1;isolation:auto;mix-blend-mode:normal;color-interpolation:sRGB;color-interpolation-filters:linearRGB;solid-color:#000000;solid-opacity:1;vector-effect:none;fill:#ffffff;fill-opacity:1;fill-rule:nonzero;stroke:none;stroke-width:2;stroke-linecap:round;stroke-linejoin:round;stroke-miterlimit:4;stroke-dasharray:none;stroke-dashoffset:0;stroke-opacity:1;color-rendering:auto;image-rendering:auto;shape-rendering:auto;text-rendering:auto;enable-background:accumulate"
       d="M 19.001953 5.7421875 C 18.860367 5.7461075 18.721229 5.7800629 18.59375 5.8417969 L 18.269531 6 L 16.621094 6 C 15.720891 6.0001188 15.27911 7.0964817 15.927734 7.7207031 C 15.927734 7.7207031 15.960696 7.7540102 16.003906 7.8164062 C 16.024176 7.8456813 16.02925 7.8703451 16.03125 7.8769531 L 16.03125 8.6328125 C 15.882568 8.6101065 15.796732 8.5351562 15.632812 8.5351562 C 13.697114 8.5351564 12.100287 10.22665 12 12.302734 L 11.382812 11.283203 L 13.8125 7.5761719 C 14.246964 6.9107801 13.76928 6.0289059 12.974609 6.0292969 L 10.611328 6.0292969 C 9.7953528 6.0313269 9.3251088 6.9570177 9.8046875 7.6171875 C 9.8046875 7.6171875 9.8260147 7.6548521 9.8242188 7.6582031 C 9.7715948 7.7563951 9.6925259 7.8784963 9.6074219 8.0253906 L 8.9101562 6.6035156 C 8.7417346 6.261195 8.3932277 6.0445147 8.0117188 6.0449219 L 5.0820312 6.0449219 C 4.2301044 6.0444714 3.7677421 7.0413293 4.3183594 7.6914062 L 5.0371094 8.5390625 L 6.5292969 11.337891 L 3.7207031 15.435547 C 3.2673591 16.098793 3.7415451 16.998847 4.5449219 17 L 7.1914062 17.001953 C 7.9616463 17.002715 8.4435988 16.169067 8.0585938 15.501953 L 7.9179688 15.257812 C 7.9022647 15.230992 7.8853185 15.204918 7.8671875 15.179688 C 7.8755575 15.172087 7.8785389 15.174292 7.9199219 15.101562 C 8.0232869 14.920013 8.1431127 14.764798 8.3183594 14.498047 L 9.3847656 16.478516 C 9.5593969 16.802335 9.8977186 17.004128 10.265625 17.003906 L 13.070312 17.003906 C 13.422501 17.002906 13.748183 16.816657 13.927734 16.513672 C 13.963924 16.533432 13.998764 16.560295 14.035156 16.578125 C 15.097856 17.098782 16.130859 16.908203 16.130859 16.908203 C 16.262709 16.886583 16.38889 16.838773 16.501953 16.767578 C 16.657123 16.860708 16.834655 16.90998 17.015625 16.910156 L 19.455078 16.910156 C 20.198475 16.910132 20.681997 16.12784 20.349609 15.462891 L 20.03125 14.824219 L 20.03125 6.7421875 C 20.031434 6.1782808 19.565619 5.7257247 19.001953 5.7421875 z M 19.03125 6.7421875 L 19.03125 15.060547 L 19.455078 15.910156 L 17.015625 15.910156 L 17.03125 12.078125 C 17.03125 12.078125 17.021894 11.03125 16.195312 11.03125 C 15.436877 11.03125 15.039062 11.959618 15.039062 13.050781 C 15.039064 14.757043 16.5 14.859375 16.5 14.859375 L 15.966797 15.921875 C 15.966797 15.921875 12.980469 16.414742 12.980469 12.503906 C 12.980469 10.886648 14.31898 9.5351562 15.632812 9.5351562 C 16.448673 9.5351562 17.03125 10.021484 17.03125 10.021484 L 17.03125 7.7890625 C 17.03125 7.3938644 16.621094 7 16.621094 7 L 18.5 7 L 19.03125 6.7421875 z M 10.611328 7.0292969 L 12.974609 7.0292969 L 10.201172 11.261719 L 13.070312 16.003906 L 10.265625 16.003906 L 8.40625 12.552734 C 8.40625 12.552734 7.4536418 13.899842 7.0507812 14.607422 C 6.6824971 15.254271 7.0507812 15.757812 7.0507812 15.757812 L 7.1914062 16.001953 L 4.546875 16 L 7.6972656 11.402344 L 5.8691406 7.9746094 L 5.0820312 7.0449219 L 8.0117188 7.0449219 L 9.5253906 10.126953 C 9.5253906 10.126953 10.382875 8.735708 10.707031 8.1308594 C 11.007749 7.5697492 10.611328 7.0292969 10.611328 7.0292969 z "
       id="path836" />
  </g>
</svg>
