<?xml version="1.0" encoding="UTF-8" standalone="no"?>
<!-- Created with Inkscape (http://www.inkscape.org/) -->

<svg
   xmlns:dc="http://purl.org/dc/elements/1.1/"
   xmlns:cc="http://creativecommons.org/ns#"
   xmlns:rdf="http://www.w3.org/1999/02/22-rdf-syntax-ns#"
   xmlns:svg="http://www.w3.org/2000/svg"
   xmlns="http://www.w3.org/2000/svg"
   xmlns:xlink="http://www.w3.org/1999/xlink"
   xmlns:sodipodi="http://sodipodi.sourceforge.net/DTD/sodipodi-0.dtd"
   xmlns:inkscape="http://www.inkscape.org/namespaces/inkscape"
   width="24px"
   height="24px"
   viewBox="0 0 24 24"
   version="1.1"
   id="SVGRoot"
   inkscape:version="0.92.4 (5da689c313, 2019-01-14)"
   sodipodi:docname="fxpansion-geist.svg">
  <defs
     id="defs1125">
    <linearGradient
       inkscape:collect="always"
       xlink:href="#linearGradient2572"
       id="linearGradient1573-6-0-4-6-6"
       x1="12"
       y1="2"
       x2="12"
       y2="22"
       gradientUnits="userSpaceOnUse"
       gradientTransform="matrix(1.1,0,0,1.1,-1.199993,-1.199999)" />
    <linearGradient
       inkscape:collect="always"
       id="linearGradient2572">
      <stop
         style="stop-color:#ffffff;stop-opacity:1"
         offset="0"
         id="stop2568" />
      <stop
         style="stop-color:#c2c6c8;stop-opacity:1"
         offset="1"
         id="stop2570" />
    </linearGradient>
    <linearGradient
       gradientTransform="matrix(1.1,0,0,1.1,-1.2,-1.2)"
       gradientUnits="userSpaceOnUse"
       y2="22"
       x2="12"
       y1="2"
       x1="12"
       id="linearGradient1573-6-0-4-6"
       xlink:href="#linearGradient2572"
       inkscape:collect="always" />
  </defs>
  <sodipodi:namedview
     id="base"
     pagecolor="#ffffff"
     bordercolor="#666666"
     borderopacity="1.0"
     inkscape:pageopacity="0.0"
     inkscape:pageshadow="2"
     inkscape:zoom="25.573695"
     inkscape:cx="9.6912442"
     inkscape:cy="11.882488"
     inkscape:document-units="px"
     inkscape:current-layer="layer1"
     showgrid="true"
     inkscape:window-width="1920"
     inkscape:window-height="1017"
     inkscape:window-x="-8"
     inkscape:window-y="-8"
     inkscape:window-maximized="1"
     inkscape:grid-bbox="true">
    <inkscape:grid
       type="xygrid"
       id="grid1723" />
  </sodipodi:namedview>
  <metadata
     id="metadata1128">
    <rdf:RDF>
      <cc:Work
         rdf:about="">
        <dc:format>image/svg+xml</dc:format>
        <dc:type
           rdf:resource="http://purl.org/dc/dcmitype/StillImage" />
        <dc:title></dc:title>
      </cc:Work>
    </rdf:RDF>
  </metadata>
  <g
     inkscape:label="Layer 1"
     inkscape:groupmode="layer"
     id="layer1">
    <rect
       style="opacity:1;vector-effect:none;fill:url(#linearGradient1573-6-0-4-6);fill-opacity:1;fill-rule:evenodd;stroke:none;stroke-width:4.4000001;stroke-linecap:round;stroke-linejoin:round;stroke-miterlimit:4;stroke-dasharray:none;paint-order:stroke fill markers"
       id="rect1560-7-9-5-4"
       width="22"
       height="22"
       x="1"
       y="1"
       ry="4" />
    <rect
       style="opacity:1;vector-effect:none;fill:url(#linearGradient1573-6-0-4-6-6);fill-opacity:1;fill-rule:evenodd;stroke:none;stroke-width:4.4000001;stroke-linecap:round;stroke-linejoin:round;stroke-miterlimit:4;stroke-dasharray:none;paint-order:stroke fill markers"
       id="rect1560-7-9-5-4-4"
       width="22"
       height="22"
       x="1.0000001"
       y="1"
       ry="4" />
    <path
       style="opacity:0.25;vector-effect:none;fill:#000000;fill-opacity:1;fill-rule:evenodd;stroke:none;stroke-width:4;stroke-linecap:round;stroke-linejoin:round;stroke-miterlimit:4;stroke-dasharray:none;paint-order:stroke fill markers"
       d="m 5.000007,1 c -2.216,0 -4,1.784001 -4,4 v 14.000001 c 0,2.216 1.784,4 4,4 h 13.999997 c 2.216,0 4,-1.784 4,-4 V 5 c 0,-2.216 -1.784,-4 -4,-4 z m 0,1 h 13.999997 c 1.662,0 3,1.338001 3,3 v 14.000001 c 0,1.662 -1.338,3 -3,3 H 5.000007 c -1.662,0 -3,-1.338 -3,-3 V 5 c 0,-1.661999 1.338,-3 3,-3 z"
       id="rect1558-6-9-8-8-1"
       inkscape:connector-curvature="0" />
    <path
       style="opacity:1;vector-effect:none;fill:#567a95;fill-opacity:1;fill-rule:evenodd;stroke:none;stroke-width:2;stroke-linecap:round;stroke-linejoin:round;stroke-miterlimit:4;stroke-dasharray:none;stroke-opacity:1;paint-order:stroke fill markers"
       d="M 5 4 C 4.446 4 4 4.446 4 5 L 4 19 C 4 19.554 4.446 20 5 20 L 19 20 C 19.554 20 20 19.554 20 19 L 20 5 C 20 4.446 19.554 4 19 4 L 5 4 z M 6 6 L 18 6 L 18 18 L 6 18 L 6 6 z "
       id="rect3460" />
    <path
       style="opacity:1;vector-effect:none;fill:#567a95;fill-opacity:1;fill-rule:evenodd;stroke:none;stroke-width:2;stroke-linecap:round;stroke-linejoin:round;stroke-miterlimit:4;stroke-dasharray:none;stroke-opacity:1;paint-order:stroke fill markers"
       d="M 7 7 L 7 17 L 11 14.599609 L 11 7 L 7 7 z M 13 7 L 13 13.400391 L 17 11 L 17 7 L 13 7 z "
       id="rect885" />
  </g>
</svg>
