<?xml version="1.0" encoding="UTF-8" standalone="no"?>
<!-- Created with Inkscape (http://www.inkscape.org/) -->

<svg
   xmlns:dc="http://purl.org/dc/elements/1.1/"
   xmlns:cc="http://creativecommons.org/ns#"
   xmlns:rdf="http://www.w3.org/1999/02/22-rdf-syntax-ns#"
   xmlns:svg="http://www.w3.org/2000/svg"
   xmlns="http://www.w3.org/2000/svg"
   xmlns:xlink="http://www.w3.org/1999/xlink"
   xmlns:sodipodi="http://sodipodi.sourceforge.net/DTD/sodipodi-0.dtd"
   xmlns:inkscape="http://www.inkscape.org/namespaces/inkscape"
   width="24px"
   height="24px"
   viewBox="0 0 24 24"
   version="1.1"
   id="SVGRoot"
   inkscape:version="0.92.4 (5da689c313, 2019-01-14)"
   sodipodi:docname="juicy-sf-plugin.svg">
  <defs
     id="defs1125">
    <linearGradient
       inkscape:collect="always"
       xlink:href="#linearGradient4205"
       id="linearGradient4167"
       gradientUnits="userSpaceOnUse"
       gradientTransform="matrix(1.1,0,0,1.1,-1.2,-1.2000002)"
       x1="12"
       y1="2"
       x2="12"
       y2="22" />
    <linearGradient
       id="linearGradient4205"
       inkscape:collect="always">
      <stop
         id="stop4201"
         offset="0"
         style="stop-color:#66c1e4;stop-opacity:1" />
      <stop
         id="stop4203"
         offset="1"
         style="stop-color:#3eb6b1;stop-opacity:1" />
    </linearGradient>
  </defs>
  <sodipodi:namedview
     id="base"
     pagecolor="#ffffff"
     bordercolor="#666666"
     borderopacity="1.0"
     inkscape:pageopacity="0.0"
     inkscape:pageshadow="2"
     inkscape:zoom="25.573695"
     inkscape:cx="9.6912442"
     inkscape:cy="11.882488"
     inkscape:document-units="px"
     inkscape:current-layer="layer1"
     showgrid="true"
     inkscape:window-width="1920"
     inkscape:window-height="1017"
     inkscape:window-x="-8"
     inkscape:window-y="-8"
     inkscape:window-maximized="1"
     inkscape:grid-bbox="true">
    <inkscape:grid
       type="xygrid"
       id="grid1723" />
  </sodipodi:namedview>
  <metadata
     id="metadata1128">
    <rdf:RDF>
      <cc:Work
         rdf:about="">
        <dc:format>image/svg+xml</dc:format>
        <dc:type
           rdf:resource="http://purl.org/dc/dcmitype/StillImage" />
        <dc:title></dc:title>
      </cc:Work>
    </rdf:RDF>
  </metadata>
  <g
     inkscape:label="Layer 1"
     inkscape:groupmode="layer"
     id="layer1">
    <rect
       style="opacity:1;vector-effect:none;fill:url(#linearGradient4167);fill-opacity:1;fill-rule:evenodd;stroke:none;stroke-width:4.4000001;stroke-linecap:round;stroke-linejoin:round;stroke-miterlimit:4;stroke-dasharray:none;paint-order:stroke fill markers"
       id="rect1560-7-3-8"
       width="22"
       height="22"
       x="1"
       y="1"
       ry="4" />
    <path
       style="opacity:0.25;vector-effect:none;fill:#000000;fill-opacity:1;fill-rule:evenodd;stroke:none;stroke-width:4;stroke-linecap:round;stroke-linejoin:round;stroke-miterlimit:4;stroke-dasharray:none;paint-order:stroke fill markers"
       d="m 5,0.99999972 c -2.216,0 -4,1.78400008 -4,4.00000008 V 19 c 0,2.216001 1.784,4.000001 4,4.000001 h 14 c 2.216,0 4,-1.784 4,-4.000001 V 4.9999998 c 0,-2.216 -1.784,-4.00000008 -4,-4.00000008 z M 5,1.9999998 h 14 c 1.662,0 3,1.338 3,3 V 19 c 0,1.662001 -1.338,3.000001 -3,3.000001 H 5 c -1.662,0 -3,-1.338 -3,-3.000001 V 4.9999998 c 0,-1.662 1.338,-3 3,-3 z"
       id="rect1558-6-7-1"
       inkscape:connector-curvature="0" />
    <path
       style="fill:#ffffff;stroke:none;stroke-width:1px;stroke-linecap:butt;stroke-linejoin:miter;stroke-opacity:1"
       d="m 14,8 v 2 h -3 v 1 h 1 c 0,0 2,0 2,2 v 1 c 0,2 -2,2 -2,2 H 9 v -2 h 3 v -1 h -1 c 0,0 -2,0 -2,-2 V 10 C 9,8 11,8 11,8 Z"
       id="path4171"
       inkscape:connector-curvature="0"
       sodipodi:nodetypes="cccccssccccccsscc" />
    <path
       style="fill:#ffffff;stroke:none;stroke-width:1px;stroke-linecap:butt;stroke-linejoin:miter;stroke-opacity:1"
       d="m 15,16 v -6 c 0,0 0,-2 2,-2 h 3 v 1 1 h -3 v 6 z"
       id="path4197"
       inkscape:connector-curvature="0"
       sodipodi:nodetypes="ccscccccc" />
    <rect
       style="opacity:1;vector-effect:none;fill:#ffffff;fill-opacity:1;fill-rule:evenodd;stroke:none;stroke-width:2;stroke-linecap:round;stroke-linejoin:round;stroke-miterlimit:4;stroke-dasharray:none;stroke-opacity:1;paint-order:stroke fill markers"
       id="rect4199"
       width="3"
       height="2"
       x="16"
       y="11" />
    <path
       style="opacity:1;vector-effect:none;fill:#ffffff;fill-opacity:1;fill-rule:evenodd;stroke:none;stroke-width:4;stroke-linecap:square;stroke-linejoin:round;stroke-miterlimit:4;stroke-dasharray:none;stroke-opacity:1;paint-order:stroke fill markers"
       d="m 4,8 v 2 h 2 v 4 H 4 v 2 h 2 c 0,0 2,0 2,-2 V 10 8 H 6 Z"
       id="rect824"
       inkscape:connector-curvature="0"
       sodipodi:nodetypes="cccccccscccc" />
  </g>
</svg>
