<?xml version="1.0" encoding="UTF-8" standalone="no"?>
<!-- Created with Inkscape (http://www.inkscape.org/) -->

<svg
   xmlns:dc="http://purl.org/dc/elements/1.1/"
   xmlns:cc="http://creativecommons.org/ns#"
   xmlns:rdf="http://www.w3.org/1999/02/22-rdf-syntax-ns#"
   xmlns:svg="http://www.w3.org/2000/svg"
   xmlns="http://www.w3.org/2000/svg"
   xmlns:xlink="http://www.w3.org/1999/xlink"
   xmlns:sodipodi="http://sodipodi.sourceforge.net/DTD/sodipodi-0.dtd"
   xmlns:inkscape="http://www.inkscape.org/namespaces/inkscape"
   width="24px"
   height="24px"
   viewBox="0 0 24 24"
   version="1.1"
   id="SVGRoot"
   inkscape:version="0.92.4 (5da689c313, 2019-01-14)"
   sodipodi:docname="mb-micro-piano.svg">
  <defs
     id="defs1125">
    <linearGradient
       inkscape:collect="always"
       id="linearGradient984">
      <stop
         style="stop-color:#e6e900;stop-opacity:1"
         offset="0"
         id="stop980" />
      <stop
         style="stop-color:#91cb1e;stop-opacity:1"
         offset="1"
         id="stop982" />
    </linearGradient>
    <linearGradient
       gradientTransform="matrix(1.1,0,0,1.1,-1.2,-1.2000002)"
       gradientUnits="userSpaceOnUse"
       y2="22"
       x2="12"
       y1="2"
       x1="12"
       id="linearGradient1573-6"
       xlink:href="#linearGradient1763-6"
       inkscape:collect="always" />
    <linearGradient
       id="linearGradient1763-6"
       inkscape:collect="always">
      <stop
         id="stop1759-2"
         offset="0"
         style="stop-color:#717174;stop-opacity:1" />
      <stop
         id="stop1761-3"
         offset="1"
         style="stop-color:#4c4c4c;stop-opacity:1" />
    </linearGradient>
    <linearGradient
       inkscape:collect="always"
       xlink:href="#linearGradient984"
       id="linearGradient986"
       x1="12"
       y1="5"
       x2="12"
       y2="13"
       gradientUnits="userSpaceOnUse" />
  </defs>
  <sodipodi:namedview
     id="base"
     pagecolor="#ffffff"
     bordercolor="#666666"
     borderopacity="1.0"
     inkscape:pageopacity="0.0"
     inkscape:pageshadow="2"
     inkscape:zoom="19.983616"
     inkscape:cx="12.947743"
     inkscape:cy="12.364015"
     inkscape:document-units="px"
     inkscape:current-layer="layer1"
     showgrid="true"
     inkscape:window-width="958"
     inkscape:window-height="1008"
     inkscape:window-x="953"
     inkscape:window-y="0"
     inkscape:window-maximized="0"
     inkscape:grid-bbox="true"
     inkscape:snap-global="true"
     showguides="false">
    <inkscape:grid
       type="xygrid"
       id="grid1723" />
  </sodipodi:namedview>
  <metadata
     id="metadata1128">
    <rdf:RDF>
      <cc:Work
         rdf:about="">
        <dc:format>image/svg+xml</dc:format>
        <dc:type
           rdf:resource="http://purl.org/dc/dcmitype/StillImage" />
        <dc:title></dc:title>
      </cc:Work>
    </rdf:RDF>
  </metadata>
  <g
     inkscape:label="Layer 1"
     inkscape:groupmode="layer"
     id="layer1">
    <rect
       style="opacity:1;vector-effect:none;fill:url(#linearGradient1573-6);fill-opacity:1;fill-rule:evenodd;stroke:none;stroke-width:4.4000001;stroke-linecap:round;stroke-linejoin:round;stroke-miterlimit:4;stroke-dasharray:none;paint-order:stroke fill markers"
       id="rect1560-7"
       width="22"
       height="22"
       x="1"
       y="0.99999976"
       ry="4" />
    <path
       style="opacity:1;vector-effect:none;fill:#ffffff;fill-opacity:1;fill-rule:evenodd;stroke:none;stroke-width:2;stroke-linecap:round;stroke-linejoin:round;stroke-miterlimit:4;stroke-dasharray:none;stroke-opacity:1;paint-order:stroke fill markers"
       d="M 6 16 C 5.446 16 5 16.446 5 17 L 5 21 L 5 22 L 5 23 L 6 23 L 18 23 L 19 23 L 19 22 L 19 21 L 19 17 C 19 16.446 18.554 16 18 16 L 6 16 z "
       id="rect939" />
    <path
       style="opacity:0.25;vector-effect:none;fill:#000000;fill-opacity:1;fill-rule:evenodd;stroke:none;stroke-width:2;stroke-linecap:round;stroke-linejoin:round;stroke-miterlimit:4;stroke-dasharray:none;stroke-opacity:1;paint-order:stroke fill markers"
       d="M 6 16 C 5.446 16 5 16.446 5 17 L 5 18 C 5 17.446 5.446 17 6 17 L 18 17 C 18.554 17 19 17.446 19 18 L 19 17 C 19 16.446 18.554 16 18 16 L 6 16 z "
       id="rect958" />
    <path
       style="opacity:0.25;vector-effect:none;fill:#000000;fill-opacity:1;fill-rule:evenodd;stroke:none;stroke-width:4;stroke-linecap:round;stroke-linejoin:round;stroke-miterlimit:4;stroke-dasharray:none;paint-order:stroke fill markers"
       d="m 5,0.99999976 c -2.216,0 -4,1.78400004 -4,4.00000004 V 19 c 0,2.216 1.784,4 4,4 h 14 c 2.216,0 4,-1.784 4,-4 V 4.9999998 c 0,-2.216 -1.784,-4.00000004 -4,-4.00000004 z M 5,1.9999998 h 14 c 1.662,0 3,1.338 3,3 V 19 c 0,1.662 -1.338,3 -3,3 H 5 C 3.338,22 2,20.662 2,19 V 4.9999998 c 0,-1.662 1.338,-3 3,-3 z"
       id="rect1558-6"
       inkscape:connector-curvature="0" />
    <path
       style="opacity:1;vector-effect:none;fill:#3c3e3f;fill-opacity:1;fill-rule:evenodd;stroke:none;stroke-width:2;stroke-linecap:round;stroke-linejoin:round;stroke-miterlimit:4;stroke-dasharray:none;stroke-opacity:1;paint-order:stroke fill markers"
       d="M 7 16 L 7 20 L 9 20 L 9 16 L 7 16 z M 11 16 L 11 20 L 13 20 L 13 16 L 11 16 z M 15 16 L 15 20 L 17 20 L 17 16 L 15 16 z "
       id="rect941" />
    <path
       style="opacity:0.25;vector-effect:none;fill:#000000;fill-opacity:1;fill-rule:evenodd;stroke:none;stroke-width:2;stroke-linecap:round;stroke-linejoin:round;stroke-miterlimit:4;stroke-dasharray:none;stroke-opacity:1;paint-order:stroke fill markers"
       d="M 7 19 L 7 20 L 9 20 L 9 19 L 7 19 z M 11 19 L 11 20 L 13 20 L 13 19 L 11 19 z M 15 19 L 15 20 L 17 20 L 17 19 L 15 19 z "
       id="rect951" />
    <rect
       style="opacity:0.25;vector-effect:none;fill:#000000;fill-opacity:1;fill-rule:evenodd;stroke:none;stroke-width:2;stroke-linecap:round;stroke-linejoin:round;stroke-miterlimit:4;stroke-dasharray:none;stroke-opacity:1;paint-order:stroke fill markers"
       id="rect976"
       width="16"
       height="10"
       x="4"
       y="4"
       ry="2" />
    <rect
       style="opacity:1;vector-effect:none;fill:url(#linearGradient986);fill-opacity:1;fill-rule:evenodd;stroke:none;stroke-width:2;stroke-linecap:round;stroke-linejoin:round;stroke-miterlimit:4;stroke-dasharray:none;stroke-opacity:1;paint-order:stroke fill markers"
       id="rect978"
       width="14"
       height="8"
       x="5"
       y="5"
       ry="1" />
    <path
       style="opacity:0.5;vector-effect:none;fill:#000000;fill-opacity:1;fill-rule:evenodd;stroke:none;stroke-width:2;stroke-linecap:round;stroke-linejoin:round;stroke-miterlimit:4;stroke-dasharray:none;stroke-opacity:1;paint-order:stroke fill markers"
       d="M 9 7 C 7.892 7 7 7.892 7 9 C 7 10.108 7.892 11 9 11 C 10.108 11 11 10.108 11 9 C 11 7.892 10.108 7 9 7 z M 9.5 8 C 9.777 8 10 8.223 10 8.5 C 10 8.777 9.777 9 9.5 9 C 9.223 9 9 8.777 9 8.5 C 9 8.223 9.223 8 9.5 8 z "
       id="rect1011" />
    <path
       style="opacity:0.5;vector-effect:none;fill:#000000;fill-opacity:1;fill-rule:evenodd;stroke:none;stroke-width:2;stroke-linecap:round;stroke-linejoin:round;stroke-miterlimit:4;stroke-dasharray:none;stroke-opacity:1;paint-order:stroke fill markers"
       d="M 15 7 C 13.892 7 13 7.892 13 9 C 13 10.108 13.892 11 15 11 C 16.108 11 17 10.108 17 9 C 17 7.892 16.108 7 15 7 z M 14.5 9 C 14.777 9 15 9.223 15 9.5 C 15 9.777 14.777 10 14.5 10 C 14.223 10 14 9.777 14 9.5 C 14 9.223 14.223 9 14.5 9 z "
       id="rect1013" />
  </g>
</svg>
