<?xml version="1.0" encoding="UTF-8" standalone="no"?>
<!-- Created with Inkscape (http://www.inkscape.org/) -->

<svg
   xmlns:dc="http://purl.org/dc/elements/1.1/"
   xmlns:cc="http://creativecommons.org/ns#"
   xmlns:rdf="http://www.w3.org/1999/02/22-rdf-syntax-ns#"
   xmlns:svg="http://www.w3.org/2000/svg"
   xmlns="http://www.w3.org/2000/svg"
   xmlns:xlink="http://www.w3.org/1999/xlink"
   xmlns:sodipodi="http://sodipodi.sourceforge.net/DTD/sodipodi-0.dtd"
   xmlns:inkscape="http://www.inkscape.org/namespaces/inkscape"
   width="24px"
   height="24px"
   viewBox="0 0 24 24"
   version="1.1"
   id="SVGRoot"
   inkscape:version="0.92.4 (5da689c313, 2019-01-14)"
   sodipodi:docname="monkey-orchestra.svg">
  <defs
     id="defs1125">
    <linearGradient
       inkscape:collect="always"
       xlink:href="#linearGradient2572"
       id="linearGradient1573-6-0-4-6"
       x1="12"
       y1="2"
       x2="12"
       y2="22"
       gradientUnits="userSpaceOnUse"
       gradientTransform="matrix(1.1,0,0,1.1,-1.1999994,-1.2)" />
    <linearGradient
       inkscape:collect="always"
       id="linearGradient2572">
      <stop
         style="stop-color:#ffffff;stop-opacity:1"
         offset="0"
         id="stop2568" />
      <stop
         style="stop-color:#c2c6c8;stop-opacity:1"
         offset="1"
         id="stop2570" />
    </linearGradient>
  </defs>
  <sodipodi:namedview
     id="base"
     pagecolor="#ffffff"
     bordercolor="#666666"
     borderopacity="1.0"
     inkscape:pageopacity="0.0"
     inkscape:pageshadow="2"
     inkscape:zoom="22.627417"
     inkscape:cx="7.9267919"
     inkscape:cy="13.964356"
     inkscape:document-units="px"
     inkscape:current-layer="layer1"
     showgrid="true"
     inkscape:window-width="1920"
     inkscape:window-height="1017"
     inkscape:window-x="-8"
     inkscape:window-y="-8"
     inkscape:window-maximized="1"
     inkscape:grid-bbox="true"
     inkscape:snap-global="true">
    <inkscape:grid
       type="xygrid"
       id="grid1723" />
  </sodipodi:namedview>
  <metadata
     id="metadata1128">
    <rdf:RDF>
      <cc:Work
         rdf:about="">
        <dc:format>image/svg+xml</dc:format>
        <dc:type
           rdf:resource="http://purl.org/dc/dcmitype/StillImage" />
        <dc:title></dc:title>
      </cc:Work>
    </rdf:RDF>
  </metadata>
  <g
     inkscape:label="Layer 1"
     inkscape:groupmode="layer"
     id="layer1">
    <rect
       style="opacity:1;vector-effect:none;fill:url(#linearGradient1573-6-0-4-6);fill-opacity:1;fill-rule:evenodd;stroke:none;stroke-width:4.4000001;stroke-linecap:round;stroke-linejoin:round;stroke-miterlimit:4;stroke-dasharray:none;paint-order:stroke fill markers"
       id="rect1560-7-9-5-4"
       width="22"
       height="22"
       x="0.99999988"
       y="1"
       ry="4" />
    <path
       style="fill:#4c4c4c;stroke-width:0.11052031"
       d="m 14.695312,3.9511719 c -0.285028,0 -0.488321,0.029256 -0.451171,0.066406 0.03715,0.037153 -0.07883,0.1911889 -0.257813,0.3417969 -0.258083,0.217162 -0.326172,0.3642332 -0.326172,0.7070312 0,0.3658071 -0.03548,0.4316407 -0.232422,0.4316407 -0.127994,0 -0.385665,-0.1281433 -0.572265,-0.2851563 -0.252842,-0.212706 -0.410992,-0.2672837 -0.623047,-0.2148437 -0.156499,0.0387 -0.371384,0.069704 -0.476563,0.070312 -0.105179,6.04e-4 -0.218726,0.048549 -0.253906,0.1054687 -0.03518,0.056917 -0.158807,0.1035157 -0.275391,0.1035157 -0.267712,0 -0.57881,0.4609085 -0.53125,0.7890624 0.04656,0.32123 0.71356,0.7317533 0.894532,0.5507813 0.09311,-0.093112 0.06379,-0.125 -0.117188,-0.125 -0.527168,0 -0.152471,-0.4174011 0.464844,-0.5175781 0.345763,-0.05611 0.396484,-0.034811 0.396484,0.1601562 0,0.123022 0.07484,0.2521194 0.166016,0.2871094 0.09118,0.034989 0.166016,0.1347031 0.166016,0.2207031 0,0.085998 0.09913,0.1811007 0.220703,0.2128907 0.12967,0.03391 0.222656,0.1512861 0.222656,0.2832031 0,0.123676 0.04858,0.2553987 0.109375,0.2929687 0.167016,0.103222 0.132848,0.4003052 -0.07227,0.6269532 -0.251782,0.278218 -0.664091,0.2581833 -0.824218,-0.041016 -0.12459,-0.2328 -0.529952,-0.6289187 -0.652344,-0.6367187 -0.03178,-0.00202 -0.327119,0.1712467 -0.654297,0.3867187 -0.413569,0.272401 -0.628704,0.3576238 -0.708984,0.2773438 C 10.243134,7.9814109 10.038914,7.9316937 9.8535156,7.9335938 9.6681176,7.9354447 9.10793,7.8000195 8.609375,7.6328125 7.771948,7.3519525 7.6637381,7.339495 7.1738281,7.46875 6.7878411,7.570586 6.5084814,7.747957 6.1464844,8.125 5.6541204,8.637828 5.6533371,8.6405539 6.1113284,8.216797 6.4167474,7.934207 6.6839839,7.7833907 6.9003909,7.7753907 c 0.180283,-0.00667 0.3045207,-0.050256 0.2753906,-0.097656 -0.029128,-0.04736 0.1460909,-0.071697 0.3886719,-0.054687 0.303803,0.021304 0.4106569,0.067261 0.3417969,0.1503906 -0.05499,0.066379 -0.076235,0.1444681 -0.046875,0.1738281 0.029361,0.029361 -0.251758,0.1102775 -0.625,0.1796875 -1.099792,0.204528 -1.7105345,0.7583782 -1.9140625,1.7363281 -0.067248,0.323132 -0.062664,0.321672 0.1542969,-0.070312 0.423858,-0.765785 1.594952,-1.4035411 2.296875,-1.25 C 8.3150104,8.6618607 8.669895,8.8300259 8.734375,8.9980469 8.830912,9.2496169 8.5973078,9.5859438 8.3242188,9.5898438 8.1895888,9.5917538 7.9968753,9.7086614 7.8945312,9.8496094 7.7349052,10.06944 7.726578,10.163074 7.84375,10.503906 l 0.1367188,0.396485 0.3261718,-0.265625 c 0.407536,-0.33309 0.5320413,-0.337958 0.7382813,-0.02734 0.142793,0.215056 0.1878912,0.228296 0.3476562,0.0957 0.100985,-0.08377 0.2167994,-0.121091 0.2558594,-0.08203 0.03906,0.03906 0.012326,0.07031 -0.058594,0.07031 -0.070921,0 -0.1289063,0.06677 -0.1289063,0.146485 0,0.07972 -0.099131,0.250366 -0.2207031,0.380859 -0.306058,0.328514 -0.2776211,0.370132 0.1386718,0.201172 0.3729421,-0.151369 0.6347661,-0.126362 0.6347661,0.0625 0,0.124106 -0.9958307,1.057166 -1.6914067,1.583984 -0.489076,0.37042 -1.83148,1.115786 -1.875,1.041016 -0.155935,-0.267881 -0.295271,-0.468111 -0.5625,-0.804688 -0.339798,-0.427977 -0.7243337,-1.685135 -0.7460937,-2.4375 L 5.125,10.416016 5.0292969,10.96875 c -0.098449,0.572928 0.05505,1.753713 0.2617187,2.017578 0.074661,0.09532 0.063061,0.136719 -0.037109,0.136719 -0.098739,0 -0.086647,0.04471 0.039063,0.138672 0.13943,0.104206 0.1560762,0.179639 0.066406,0.304687 -0.10028,0.139831 -0.1091206,0.135792 -0.056641,-0.02734 0.03422,-0.106369 0.014671,-0.193359 -0.042969,-0.193359 -0.154463,0 -0.5158392,-0.763503 -0.7695312,-1.623047 l -0.2226563,-0.75391 0.033203,0.71875 c 0.032109,0.686255 0.1770933,1.110259 1.2070313,3.546875 0.105745,0.250172 0.071082,0.360486 -0.2753906,0.882813 -0.86087,1.297812 -1.28344,2.3789 -1.21875,3.125 0.060989,0.703414 0.1912916,0.84375 0.7753906,0.84375 0.51258,0 1.4667969,-0.366075 1.4667969,-0.5625 0,-0.138951 -0.075443,-0.127148 -0.5039063,0.07617 -0.571739,0.271308 -0.6290967,0.150414 -0.2148437,-0.453125 0.20861,-0.303931 0.3807125,-0.607241 0.3828125,-0.675781 0.00215,-0.06854 0.080448,-0.188125 0.1738281,-0.265625 0.142048,-0.117889 0.2239819,-0.0907 0.4980469,0.171875 0.18016,0.172605 0.328125,0.396025 0.328125,0.496094 0,0.127384 0.096224,0.181641 0.3222656,0.181641 0.440607,0 0.8794611,0.311157 1.0644531,0.753906 0.132989,0.318284 0.1303284,0.555209 -0.025391,1.740234 C 8.1988318,22.176061 8.1632127,22.719551 8.171875,23 h 1.3261719 c 0.00245,-0.04431 -0.00208,-0.07163 0.00391,-0.123047 0.033643,-0.288734 0.092549,-0.960308 0.1308594,-1.492187 0.038306,-0.531879 0.1054106,-0.966797 0.1503906,-0.966797 0.04498,0 0.033246,-0.273125 -0.027344,-0.607422 -0.104775,-0.578043 -0.05774,-0.850709 0.1171875,-0.675781 0.1248429,0.124848 0.07591,3.344145 -0.050785,3.865234 h 0.7910154 c 0.139815,-0.171916 0.327952,-0.404119 0.472657,-0.582031 0.380028,-0.46724 0.884559,-0.78325 1.248046,-0.78125 0.324634,0.0018 0.857118,0.65061 0.642578,0.783203 -0.07121,0.04401 0.08806,0.135907 0.363282,0.210937 0.321292,0.08759 0.718165,0.229495 1.064453,0.369141 h 4.146484 c 0.467755,-0.11702 0.669761,-0.268959 0.416016,-0.425781 -0.165624,-0.102358 -0.133496,-0.637582 0.05469,-0.90625 0.21198,-0.302643 1.07031,-0.634135 1.417969,-0.546875 0.186209,0.04674 0.286865,0.170629 0.333985,0.40625 0.0607,0.303522 0.0918,0.324734 0.300781,0.21289 0.127936,-0.06847 0.428764,-0.30147 0.667969,-0.517578 0.340367,-0.307498 0.417531,-0.444259 0.357421,-0.626953 -0.127559,-0.387722 -0.04549,-0.883636 0.185547,-1.115234 0.206824,-0.207326 0.233982,-0.207649 0.521485,-0.0332 0.04912,0.02981 0.09137,0.07844 0.136718,0.121093 C 22.96999,19.381232 23,19.194715 23,19 v -0.828125 c -0.01236,0.0036 -0.06362,0.0061 -0.07227,0.0098 -0.160911,0.06787 -0.322735,0.09328 -0.359375,0.05664 -0.03664,-0.03665 -0.06641,-0.0084 -0.06641,0.0625 0,0.07092 -0.09913,0.128907 -0.220703,0.128907 -0.309717,-1e-6 -0.276037,-0.07777 0.125,-0.285157 C 22.517622,18.086939 22.716585,18.04115 23,18 v -3.400391 c -0.142237,0.05185 -0.255409,0.06696 -0.34375,0.01172 -0.284516,-0.177924 -0.241427,-0.31126 0.167969,-0.515625 0.07293,-0.03641 0.120304,-0.06832 0.175781,-0.101562 v -1.496094 c -0.102115,0.126709 -0.252358,0.273618 -0.439453,0.402344 -0.264173,0.181756 -0.501241,0.39043 -0.525391,0.46289 -0.09041,0.271236 -0.416015,-0.007 -0.416015,-0.355469 V 12.66211 l -0.339844,0.285157 c -0.187021,0.157369 -0.38724,0.287109 -0.443359,0.287109 -0.05612,0 -0.101563,0.07484 -0.101563,0.166016 0,0.09118 -0.05054,0.166015 -0.111328,0.166015 -0.06079,0 -0.109375,0.04363 -0.109375,0.09766 0,0.05403 0.06269,0.09655 0.138672,0.09375 0.65718,-0.0244 0.732068,0.346593 0.128906,0.632813 -0.332292,0.15768 -0.388968,0.236557 -0.361328,0.5 0.03861,0.368139 -0.219241,0.65345 -1.134766,1.253906 -0.705795,0.462902 -0.830948,0.487956 -0.923828,0.195313 C 18.324818,16.224809 18.150578,16.07289 17.974609,16 c -0.336082,-0.13921 -0.473784,-0.340728 -0.351562,-0.509766 0.03997,-0.05527 0.357511,-0.341331 0.707031,-0.634765 0.34952,-0.293435 0.636719,-0.607669 0.636719,-0.699219 0,-0.228064 -0.253397,-0.130481 -0.378906,0.146484 -0.05633,0.124311 -0.331385,0.349094 -0.609375,0.498047 -0.463125,0.248153 -0.578805,0.26418 -1.400391,0.19336 -1.391415,-0.119934 -1.480512,-0.176991 -1.300781,-0.847657 0.08473,-0.316175 0.485454,-0.330452 0.759765,-0.02734 0.23866,0.263721 0.689303,0.280331 1.712891,0.06445 0.39511,-0.08333 0.752569,-0.131612 0.792969,-0.107422 0.108365,0.06489 0.498214,-0.621464 0.583984,-1.027344 0.0614,-0.290591 0.03239,-0.374284 -0.166015,-0.480469 -0.161735,-0.08656 -0.204207,-0.164934 -0.128907,-0.240234 0.07362,-0.07357 0.17915,-0.07526 0.306641,-0.0039 0.150364,0.08415 0.246223,0.04596 0.433594,-0.171875 0.341591,-0.397122 0.53846,-0.235693 0.46875,0.382812 -0.0585,0.519012 -0.311285,0.885933 -0.716797,1.041016 -0.136769,0.05231 -0.248047,0.180315 -0.248047,0.285156 0,0.14826 0.02966,0.161745 0.132812,0.05859 0.07294,-0.07294 0.222617,-0.132813 0.332032,-0.132813 0.116967,0 0.199218,-0.08174 0.199218,-0.197265 0,-0.274846 0.412207,-0.600175 0.660157,-0.521485 0.245518,0.07792 0.83647,-0.507716 0.943359,-0.933593 0.123062,-0.490317 0.430569,-0.570584 0.833984,-0.220704 0.202354,0.1755 0.633459,0.236807 0.822266,0.164063 V 6.671875 C 22.831836,6.5511553 22.666984,6.4351438 22.564453,6.3984375 22.03954,6.2105165 20.752336,6.3203409 20.660156,6.5605469 c -0.09709,0.253009 0.386879,1.5006835 1.441406,3.7109371 0.281105,0.589186 0.511719,1.130135 0.511719,1.203125 0,0.178222 -1.642008,0.0551 -3.013672,-0.226562 -0.561057,-0.115208 -1.256187,-0.243776 -1.544921,-0.285156 -0.302536,-0.04336 -0.525391,-0.132218 -0.525391,-0.210938 0,-0.07513 0.147192,-0.355559 0.328125,-0.623047 0.274847,-0.4063317 0.304657,-0.5050254 0.173828,-0.6035154 -0.132956,-0.100093 -0.124826,-0.1680784 0.05664,-0.4433594 0.42411,-0.643366 0.166621,-1.4424359 -0.322266,-1 -0.108898,0.098555 -0.262384,0.1796876 -0.339844,0.1796876 -0.07746,0 -0.392247,0.2259591 -0.699219,0.5019531 l -0.55664,0.5 L 15.882812,9 C 15.724956,8.854489 15.509534,8.7049288 15.404297,8.6679688 15.229809,8.6066877 15.230665,8.635956 15.425781,9 c 0.155274,0.28971 0.185212,0.4542534 0.107422,0.5996094 -0.130069,0.243037 -0.340783,0.1850181 -0.898437,-0.2480469 -0.224384,-0.174253 -0.476397,-0.3164063 -0.560547,-0.3164063 -0.239044,0 -0.671153,-0.5182327 -0.595703,-0.7148437 0.03665,-0.095505 0.205954,-0.2021281 0.376953,-0.2363281 0.275526,-0.055106 0.306381,-0.1023228 0.269531,-0.4179688 -0.02702,-0.231474 0.0208,-0.4073731 0.134766,-0.5019531 0.253737,-0.210582 0.215073,-0.3689804 -0.05469,-0.2246094 -0.315724,0.16897 -0.544922,0.056154 -0.544922,-0.2695312 0,-0.185343 0.08075,-0.2978425 0.25,-0.3515625 0.136769,-0.04338 0.25156,-0.059276 0.25586,-0.035156 0.0043,0.024116 0.09489,-0.044107 0.201172,-0.1503906 0.276628,-0.276628 0.683907,-0.3490332 1.064453,-0.1914063 0.391402,0.162121 0.424171,0.3007994 0.08203,0.3496094 -0.290754,0.041482 -0.417671,0.421875 -0.140625,0.421875 0.09998,0 0.256936,0.075296 0.347656,0.1660156 0.146236,0.1462361 0.129238,0.1779054 -0.146484,0.2871094 -0.555622,0.220064 -0.638656,0.2844043 -0.84961,0.6445313 -0.15033,0.256632 -0.17512,0.3893325 -0.08789,0.4765625 0.08723,0.087227 0.181546,0.046041 0.33789,-0.1464844 L 15.189453,7.875 15.503906,8.1132812 c 0.172193,0.1313441 0.302183,0.2876763 0.289063,0.3476563 -0.01312,0.06 0.06887,0.084687 0.183593,0.054687 C 16.148975,8.47054 16.173724,8.3904186 16.121094,8.0566406 16.086071,7.8345346 16.016717,7.62682 15.966797,7.59375 c -0.04992,-0.033075 -0.08578,-0.2070428 -0.08008,-0.3867188 0.0057,-0.1796769 -0.0238,-0.4335839 -0.06641,-0.5625 -0.06241,-0.1888229 -0.02367,-0.2467943 0.199219,-0.3027343 0.528687,-0.132692 0.826371,0.1771857 0.460938,0.4804687 -0.09051,0.075116 -0.137146,0.1819182 -0.103516,0.2363282 0.03363,0.054413 -0.05464,0.1447518 -0.195312,0.2011718 -0.184968,0.074186 -0.201511,0.104275 -0.06445,0.109375 0.214271,0.00792 0.461412,0.3967415 0.382812,0.6015625 -0.03454,0.09002 0.07238,0.1347657 0.322266,0.1347657 0.337881,0 0.375,-0.030451 0.375,-0.3125 0,-0.1762021 -0.07267,-0.3411332 -0.166016,-0.3769532 -0.260248,-0.099864 -0.205781,-0.4804687 0.06836,-0.4804687 0.165667,0 0.213126,-0.051051 0.166016,-0.1738281 -0.04977,-0.12965 -0.0046,-0.1645419 0.181641,-0.1386719 0.229142,0.031835 0.245582,-0.00485 0.226562,-0.4902344 -0.01913,-0.488252 -4.06e-4,-0.5234375 0.25,-0.5234375 0.526001,0 0.222811,-0.5945749 -0.357422,-0.7011719 C 17.374446,4.8729331 17.072398,4.88649 16.894531,4.9375 16.511509,5.047349 16.321066,4.958526 15.679688,4.375 15.277132,4.008754 15.141799,3.9511719 14.695312,3.9511719 Z m 1.88086,1.4785156 c 0.09793,-0.00323 0.179687,0.081798 0.179687,0.2558594 0,0.23393 0.04035,0.2674637 0.25,0.2148437 0.137274,-0.03445 0.323393,-0.015244 0.414063,0.041016 0.141073,0.087527 0.131339,0.1357515 -0.06836,0.3359376 l -0.234374,0.234375 -0.22461,-0.2871094 c -0.123541,-0.157057 -0.327064,-0.2851563 -0.453125,-0.2851563 -0.188669,0 -0.213555,-0.041143 -0.140625,-0.2382812 0.06518,-0.17621 0.179419,-0.2682592 0.277344,-0.2714848 z m -4.185547,0.2304687 c 0.01855,-0.00775 0.05434,-0.00129 0.103516,0.017578 0.09434,0.036204 0.171875,0.083532 0.171875,0.1074218 0,0.08951 -0.210491,0.040563 -0.275391,-0.064453 -0.01936,-0.031325 -0.01855,-0.052801 0,-0.060547 z M 9.7382812,8.3710938 c 0.09835,0 0.1469451,0.050538 0.109375,0.1113281 -0.03757,0.060791 -0.086155,0.109375 -0.109375,0.109375 -0.02322,0 -0.073758,-0.048585 -0.1113281,-0.109375 -0.037568,-0.06079 0.012978,-0.1113281 0.1113281,-0.1113281 z m 2.3906248,0.203125 c 0.221639,0.00941 0.363878,0.1456175 0.232422,0.3007812 -0.04506,0.05319 -0.0027,0.038064 0.09375,-0.035156 0.143179,-0.108646 0.217885,-0.088535 0.404297,0.1132812 0.125628,0.13601 0.310069,0.4463081 0.410156,0.6894531 0.465138,1.1299817 1.748127,1.8227077 2.457031,1.3261717 0.130159,-0.0912 0.31599,-0.136489 0.41211,-0.09961 0.09612,0.03689 0.175781,0.0173 0.175781,-0.04492 0,-0.06222 -0.05914,-0.13234 -0.130859,-0.15625 -0.187899,-0.06263 -0.02189,-0.41797 0.195312,-0.41797 0.127736,0 0.163587,0.0657 0.123047,0.220703 -0.03179,0.12157 -0.01213,0.222656 0.04297,0.222656 0.145263,0 0.120364,0.452018 -0.04297,0.773438 -0.08954,0.176211 -0.240327,0.279256 -0.414062,0.285156 -0.14983,0.0051 -0.445452,0.04479 -0.658203,0.08984 -0.212752,0.04505 -0.466431,0.104179 -0.5625,0.130859 -0.104322,0.02897 -0.419745,-0.189046 -0.785157,-0.542968 -0.367335,-0.355784 -0.751052,-0.62052 -0.958984,-0.66211 -0.387701,-0.07754 -0.465118,-0.350513 -0.125,-0.439453 0.241607,-0.06318 0.306393,-0.298828 0.08203,-0.298828 -0.230706,0 -0.746094,-0.5463058 -0.746094,-0.7910158 0,-0.1876119 -0.04831,-0.2161662 -0.271484,-0.1601562 C 11.86217,9.1284 11.761243,9.09159 11.677733,8.9355429 c -0.09618,-0.17972 -0.06526,-0.2286188 0.208985,-0.3242188 0.08402,-0.029289 0.168308,-0.040247 0.242187,-0.037109 z m -1.205078,0.2890624 c 0.170063,0.036917 0.306641,0.2198617 0.306641,0.4550782 0,0.35813 -0.147257,0.4098756 -0.425781,0.1503906 -0.283011,-0.263663 -0.306334,-0.4947738 -0.05859,-0.5898438 0.06067,-0.02328 0.121046,-0.027931 0.177734,-0.015625 z M 17.251953,9.03125 c 0.04723,-0.010742 0.0877,-0.00214 0.117188,0.027344 0.02829,0.02829 0.07181,0.3038221 0.09766,0.6113281 0.04213,0.5012009 0.023,0.5650169 -0.193359,0.6230469 -0.354977,0.0952 -0.517579,0.08156 -0.517579,-0.04297 0,-0.06079 -0.07484,-0.109375 -0.166015,-0.109375 -0.220962,0 -0.212574,-0.04127 0.115234,-0.5605467 0.197399,-0.3127005 0.405196,-0.5166015 0.546875,-0.5488281 z M 9.5351562,9.082031 c 0.02672,-8.209e-4 0.061964,0.009 0.1074219,0.025391 0.298726,0.107741 0.5917969,0.440233 0.5917969,0.671875 0,0.110589 -0.07724,0.312168 -0.171875,0.447265 -0.094626,0.135098 -0.2442944,0.244141 -0.3339844,0.244141 -0.163722,0 -0.4147329,-0.4718504 -0.2792968,-0.5253904 0.03971,-0.015716 0.05444,-0.2275141 0.03125,-0.4707031 C 9.4524338,9.1806371 9.4549956,9.0844942 9.5351562,9.082031 Z M 8.8046875,9.5878906 c 0.057198,0 0.1035156,0.072883 0.1035156,0.1640625 0,0.17091 -0.1294402,0.2201691 -0.2539062,0.095703 -0.088299,-0.088298 0.011027,-0.2597656 0.1503906,-0.2597655 z m 6.1269535,0.4863284 c 0.243712,0 0.386718,0.05206 0.386718,0.142578 0,0.14855 -0.564174,0.205356 -0.699218,0.07031 -0.152201,-0.152203 -0.06275,-0.21289 0.3125,-0.21289 z m 1.283203,1.976562 c 0.05282,0.02484 0.04372,0.09026 0.01953,0.216797 -0.02779,0.145391 -0.268627,0.55902 -0.537109,0.917969 -0.268482,0.358948 -0.488282,0.743221 -0.488282,0.855469 0,0.112248 -0.146535,0.34966 -0.324218,0.527343 -0.4248,0.424802 -0.716049,0.433877 -0.642578,0.01953 0.08589,-0.484442 0.435394,-1.835996 0.521484,-2.017579 0.103171,-0.217604 0.502051,-0.400887 1.066406,-0.492187 0.21817,-0.0353 0.331946,-0.05219 0.384766,-0.02734 z m -3.72461,0.859375 c 0.208192,0.01267 0.451168,0.07058 0.650391,0.171875 0.469626,0.238774 0.438959,0.187434 0.539063,0.84375 0.04854,0.318247 0.114427,0.754046 0.148437,0.966797 0.06789,0.424671 0.443368,1.024111 0.912109,1.457031 0.474645,0.438377 0.650895,0.45357 0.914063,0.08398 0.245775,-0.34516 0.488488,-0.420317 0.580078,-0.181641 0.08976,0.233914 -0.212403,0.96169 -0.541016,1.304688 -0.394658,0.411934 -0.189082,0.407471 0.492188,-0.01172 0.296371,-0.182359 0.56376,-0.332031 0.59375,-0.332031 0.02999,0 0.185305,0.120879 0.345703,0.269531 0.187512,0.173781 0.248412,0.297193 0.169922,0.345703 -0.06714,0.0415 -0.157312,0.01824 -0.201172,-0.05273 -0.04385,-0.07096 -0.08008,0.02839 -0.08008,0.220703 0,0.294697 -0.147511,0.491167 -0.939453,1.248047 -0.516805,0.493923 -1.130734,1.034009 -1.363281,1.201171 -0.495315,0.356045 -0.71875,0.386374 -0.71875,0.0957 -1e-6,-0.130824 -0.10249,-0.235907 -0.275391,-0.279297 -0.391025,-0.09814 -0.34476,-0.369046 0.136719,-0.78711 0.227949,-0.197925 0.389765,-0.38066 0.359375,-0.40625 -0.03039,-0.02559 -0.470215,-0.242651 -0.978516,-0.480468 -0.791603,-0.370361 -0.985469,-0.517277 -1.353516,-1.03125 -0.236329,-0.330029 -0.429687,-0.662038 -0.429687,-0.736329 0,-0.15541 0.472829,-0.492187 0.691406,-0.492187 0.08098,0 0.343699,0.20618 0.583984,0.457031 0.537025,0.56064 1.341854,1.092591 1.646485,1.087891 0.124868,-0.0019 0.309205,-0.116757 0.410156,-0.255859 0.174821,-0.240898 0.174601,-0.253494 -0.03906,-0.246094 -0.123381,0.0042 -0.265917,-0.06702 -0.316407,-0.158203 -0.310827,-0.561341 -0.878196,-2.010923 -0.941406,-2.40625 -0.06818,-0.426341 -0.113344,-0.478886 -0.509766,-0.597657 -0.331527,-0.09933 -0.500844,-0.241687 -0.71289,-0.603515 -0.152943,-0.260981 -0.245721,-0.525291 -0.207031,-0.587891 0.05312,-0.08594 0.225402,-0.120087 0.433593,-0.107422 z m -1.787109,0.181641 c 0.03612,0.0451 -0.0052,0.180512 -0.146484,0.378906 -0.291829,0.409835 -0.194756,0.717274 0.294921,0.921875 0.499241,0.208595 0.598409,0.475136 0.273438,0.738281 -0.347177,0.28117 -0.777535,0.27479 -0.703125,-0.0098 0.04105,-0.156968 -0.04144,-0.264644 -0.314453,-0.410156 C 9.9039809,14.602505 9.7045825,14.512266 9.6640625,14.509766 9.4078675,14.493658 9.4845706,14.329654 9.7753906,14.271484 10.080044,14.210555 10.125,14.15626 10.125,13.847656 c 0,-0.227288 0.09081,-0.44065 0.255859,-0.595703 0.171285,-0.160913 0.286151,-0.205252 0.322266,-0.160156 z m 10.613281,0.03125 c 0.01708,0 0.02875,0.04657 0.05078,0.138672 0.02544,0.106375 0.02544,0.280343 0,0.386719 -0.04406,0.1842 -0.05068,0.1842 -0.13086,0 -0.0463,-0.106376 -0.0463,-0.280344 0,-0.386719 0.04009,-0.0921 0.063,-0.138672 0.08008,-0.138672 z M 9.09375,14.146484 c 0.072908,-0.0027 0.126815,0.01744 0.171875,0.0625 0.090122,0.09012 0.079747,0.137209 -0.035156,0.173828 -0.3349411,0.10675 -0.7636719,0.142314 -0.7636719,0.06445 0,-0.04498 0.1521506,-0.143773 0.3378906,-0.220704 0.12387,-0.05131 0.2161545,-0.07738 0.2890625,-0.08008 z m 1.074219,1.300782 c 0.202202,0.0026 0.182536,0.04603 -0.154297,0.332031 -0.2127521,0.180647 -0.5037355,0.359877 -0.6464845,0.398437 -0.220451,0.05955 -0.2495294,0.119537 -0.1933594,0.400391 0.03637,0.181866 0.066406,0.422744 0.066406,0.535156 0,0.112414 0.3114922,0.560404 0.6914062,0.994141 0.3799137,0.433737 0.8071957,0.962799 0.9492187,1.175781 0.395909,0.59372 0.127823,0.657481 -0.351562,0.08398 -0.228323,-0.273148 -0.488022,-0.496094 -0.5761723,-0.496094 -0.33754,0 -1.2649781,-1.204451 -1.2675781,-1.646485 -0.00239,-0.405745 -0.08991,-0.493228 -0.7402344,-0.736328 -0.316579,-0.118342 -0.5634312,-0.263428 -0.5507813,-0.324219 0.012649,-0.06078 0.3451234,-0.110996 0.7402344,-0.111328 0.577385,-5.01e-4 0.8245996,-0.06091 1.2597656,-0.304687 0.297788,-0.166819 0.6457231,-0.302381 0.7734381,-0.300781 z m 10.708984,4.142578 -0.193359,0.330078 c -0.200775,0.344457 -1.255487,1.275158 -1.583985,1.396484 -0.103474,0.03822 -0.536901,0.103755 -0.96289,0.146485 -0.695334,0.06974 -0.8028,0.05348 -1.046875,-0.158203 -0.226821,-0.19672 -0.244727,-0.252291 -0.109375,-0.337891 0.08923,-0.05643 0.292465,-0.104585 0.453125,-0.105469 0.376648,-0.0022 1.931583,-0.309242 2.361328,-0.466797 0.182359,-0.06686 0.500635,-0.274912 0.707031,-0.46289 z m -5.039062,1.308594 c 0.352405,0.03304 0.712718,0.06321 0.798828,0.06641 0.205153,0.0077 0.05862,0.151073 -0.1875,0.183594 -1.172046,0.154847 -1.792969,0.129746 -1.792969,-0.07227 0,-0.165713 0.500097,-0.241615 1.181641,-0.177734 z"
       id="path855"
       inkscape:connector-curvature="0"
       sodipodi:nodetypes="sscssccccsccssscscscccccccccssccccsccscccccccccsssccscccccccscccscccccssssscccssccccccscccccccccccsccccccccscccsccccccccccsccsssscccsccccsccccccccccccccscsscscccccssscsccccsccccccsscccccscccccssccscccccccccccccccsscscccsccsssscccccscsccsccscscscscccccscscsccccsccsscccscccccccscssscccscscccssccssccccccscccscscsscssscccsccccccccssscccccsccssccccccsscssccccssccscsccccsscccccccccccccccccccaccsacccccccsc" />
    <path
       style="opacity:0.25;vector-effect:none;fill:#000000;fill-opacity:1;fill-rule:evenodd;stroke:none;stroke-width:4;stroke-linecap:round;stroke-linejoin:round;stroke-miterlimit:4;stroke-dasharray:none;paint-order:stroke fill markers"
       d="m 5,0.99999976 c -2.216,0 -4,1.78400004 -4,4.00000004 V 19 c 0,2.216 1.784,4 4,4 h 14 c 2.216,0 4,-1.784 4,-4 V 4.9999998 c 0,-2.216 -1.784,-4.00000004 -4,-4.00000004 z M 5,1.9999998 h 14 c 1.662,0 3,1.338 3,3 V 19 c 0,1.662 -1.338,3 -3,3 H 5 C 3.338,22 2,20.662 2,19 V 4.9999998 c 0,-1.662 1.338,-3 3,-3 z"
       id="rect1558-6"
       inkscape:connector-curvature="0" />
  </g>
</svg>
