<?xml version="1.0" encoding="UTF-8" standalone="no"?>
<!-- Created with Inkscape (http://www.inkscape.org/) -->

<svg
   xmlns:dc="http://purl.org/dc/elements/1.1/"
   xmlns:cc="http://creativecommons.org/ns#"
   xmlns:rdf="http://www.w3.org/1999/02/22-rdf-syntax-ns#"
   xmlns:svg="http://www.w3.org/2000/svg"
   xmlns="http://www.w3.org/2000/svg"
   xmlns:xlink="http://www.w3.org/1999/xlink"
   xmlns:sodipodi="http://sodipodi.sourceforge.net/DTD/sodipodi-0.dtd"
   xmlns:inkscape="http://www.inkscape.org/namespaces/inkscape"
   width="24px"
   height="24px"
   viewBox="0 0 24 24"
   version="1.1"
   id="SVGRoot"
   inkscape:version="0.92.4 (5da689c313, 2019-01-14)"
   sodipodi:docname="mtpower-drum-kit.svg">
  <defs
     id="defs1125">
    <linearGradient
       gradientTransform="matrix(1.1,0,0,1.1,-1.2,-1.2000002)"
       gradientUnits="userSpaceOnUse"
       y2="22"
       x2="12"
       y1="2"
       x1="12"
       id="linearGradient1573-6"
       xlink:href="#linearGradient1763-6"
       inkscape:collect="always" />
    <linearGradient
       id="linearGradient1763-6"
       inkscape:collect="always">
      <stop
         id="stop1759-2"
         offset="0"
         style="stop-color:#817164;stop-opacity:1" />
      <stop
         id="stop1761-3"
         offset="1"
         style="stop-color:#514540;stop-opacity:1" />
    </linearGradient>
  </defs>
  <sodipodi:namedview
     id="base"
     pagecolor="#ffffff"
     bordercolor="#666666"
     borderopacity="1.0"
     inkscape:pageopacity="0.0"
     inkscape:pageshadow="2"
     inkscape:zoom="23.361905"
     inkscape:cx="7.1139696"
     inkscape:cy="12.067086"
     inkscape:document-units="px"
     inkscape:current-layer="layer1"
     showgrid="true"
     inkscape:window-width="1920"
     inkscape:window-height="1017"
     inkscape:window-x="-8"
     inkscape:window-y="-8"
     inkscape:window-maximized="1"
     inkscape:grid-bbox="true"
     inkscape:snap-global="true"
     showguides="false">
    <inkscape:grid
       type="xygrid"
       id="grid1723" />
  </sodipodi:namedview>
  <metadata
     id="metadata1128">
    <rdf:RDF>
      <cc:Work
         rdf:about="">
        <dc:format>image/svg+xml</dc:format>
        <dc:type
           rdf:resource="http://purl.org/dc/dcmitype/StillImage" />
        <dc:title />
      </cc:Work>
    </rdf:RDF>
  </metadata>
  <g
     inkscape:label="Layer 1"
     inkscape:groupmode="layer"
     id="layer1">
    <rect
       style="opacity:1;vector-effect:none;fill:url(#linearGradient1573-6);fill-opacity:1;fill-rule:evenodd;stroke:none;stroke-width:4.4000001;stroke-linecap:round;stroke-linejoin:round;stroke-miterlimit:4;stroke-dasharray:none;paint-order:stroke fill markers"
       id="rect1560-7"
       width="22"
       height="22"
       x="1"
       y="0.99999976"
       ry="4" />
    <path
       style="opacity:1;vector-effect:none;fill:#eedacd;fill-opacity:1;fill-rule:evenodd;paint-order:stroke fill markers"
       d="M 6 19.058594 L 6 23 L 18 23 L 18 19.058594 C 16.77852 20.222062 14.556768 21 12 21 C 9.4432321 21 7.2214803 20.222062 6 19.058594 z "
       id="rect860" />
    <rect
       style="opacity:1;vector-effect:none;fill:#ffffff;fill-opacity:1;fill-rule:evenodd;paint-order:stroke fill markers"
       id="rect865"
       width="12"
       height="6"
       x="6"
       y="-20"
       rx="6"
       ry="3"
       transform="scale(1,-1)" />
    <path
       style="opacity:1;vector-effect:none;fill:#eedacd;fill-opacity:1;fill-rule:evenodd;paint-order:stroke fill markers"
       d="m 3,13 v 9.449219 C 3.5895523,22.790698 4.2669714,23 5,23 V 13 Z"
       id="rect871"
       inkscape:connector-curvature="0"
       sodipodi:nodetypes="ccccc" />
    <path
       style="opacity:1;vector-effect:none;fill:#eedacd;fill-opacity:1;fill-rule:evenodd;stroke-width:0.91287094;paint-order:stroke fill markers"
       d="m 19,13 v 10 c 0.733029,0 1.410448,-0.174418 2,-0.458984 V 13 Z"
       id="rect871-3"
       inkscape:connector-curvature="0" />
    <path
       style="opacity:1;vector-effect:none;fill:#ffffff;fill-opacity:1;fill-rule:evenodd;stroke:none;stroke-width:2;stroke-linecap:round;stroke-linejoin:round;stroke-miterlimit:4;stroke-dasharray:none;stroke-opacity:1;paint-order:stroke fill markers"
       d="M 20 7 C 16.676 7 14 8.1053725 14 9.4785156 L 14 9.5214844 C 14 10.894627 16.676 12 20 12 C 21.100081 12 22.11538 11.869993 23 11.658203 L 23 7.3417969 C 22.11538 7.130007 21.100081 7 20 7 z "
       id="rect828-6" />
    <path
       style="opacity:1;vector-effect:none;fill:#ffffff;fill-opacity:1;fill-rule:evenodd;stroke:none;stroke-width:2;stroke-linecap:round;stroke-linejoin:round;stroke-miterlimit:4;stroke-dasharray:none;stroke-opacity:1;paint-order:stroke fill markers"
       d="M 4 7 C 2.8999188 7 1.88462 7.130007 1 7.3417969 L 1 11.658203 C 1.88462 11.869993 2.8999188 12 4 12 C 7.324 12 10 10.894627 10 9.5214844 L 10 9.4785156 C 10 8.1053725 7.324 7 4 7 z "
       id="rect828" />
    <path
       style="opacity:0.25;vector-effect:none;fill:#000000;fill-opacity:1;fill-rule:evenodd;stroke:none;stroke-width:4;stroke-linecap:round;stroke-linejoin:round;stroke-miterlimit:4;stroke-dasharray:none;paint-order:stroke fill markers"
       d="m 5,0.99999976 c -2.216,0 -4,1.78400004 -4,4.00000004 V 19 c 0,2.216 1.784,4 4,4 h 14 c 2.216,0 4,-1.784 4,-4 V 4.9999998 c 0,-2.216 -1.784,-4.00000004 -4,-4.00000004 z M 5,1.9999998 h 14 c 1.662,0 3,1.338 3,3 V 19 c 0,1.662 -1.338,3 -3,3 H 5 C 3.338,22 2,20.662 2,19 V 4.9999998 c 0,-1.662 1.338,-3 3,-3 z"
       id="rect1558-6"
       inkscape:connector-curvature="0" />
    <rect
       style="opacity:1;vector-effect:none;fill:#ffffff;fill-opacity:1;fill-rule:evenodd;stroke:none;stroke-width:2;stroke-linecap:round;stroke-linejoin:round;stroke-miterlimit:4;stroke-dasharray:none;stroke-opacity:1;paint-order:stroke fill markers"
       id="rect833"
       width="4"
       height="2"
       x="2"
       y="6"
       ry="1"
       rx="2" />
    <rect
       style="opacity:1;vector-effect:none;fill:#ffffff;fill-opacity:1;fill-rule:evenodd;stroke:none;stroke-width:2;stroke-linecap:round;stroke-linejoin:round;stroke-miterlimit:4;stroke-dasharray:none;stroke-opacity:1;paint-order:stroke fill markers"
       id="rect833-6"
       width="4"
       height="2"
       x="18"
       y="6"
       ry="1"
       rx="2" />
  </g>
</svg>
