<?xml version="1.0" encoding="UTF-8" standalone="no"?>
<!-- Created with Inkscape (http://www.inkscape.org/) -->

<svg
   xmlns:dc="http://purl.org/dc/elements/1.1/"
   xmlns:cc="http://creativecommons.org/ns#"
   xmlns:rdf="http://www.w3.org/1999/02/22-rdf-syntax-ns#"
   xmlns:svg="http://www.w3.org/2000/svg"
   xmlns="http://www.w3.org/2000/svg"
   xmlns:xlink="http://www.w3.org/1999/xlink"
   xmlns:sodipodi="http://sodipodi.sourceforge.net/DTD/sodipodi-0.dtd"
   xmlns:inkscape="http://www.inkscape.org/namespaces/inkscape"
   width="24px"
   height="24px"
   viewBox="0 0 24 24"
   version="1.1"
   id="SVGRoot"
   inkscape:version="0.92.4 (5da689c313, 2019-01-14)"
   sodipodi:docname="pendulate.svg">
  <defs
     id="defs1125">
    <linearGradient
       inkscape:collect="always"
       xlink:href="#linearGradient1763"
       id="linearGradient1573-6"
       x1="12"
       y1="2"
       x2="12"
       y2="22"
       gradientUnits="userSpaceOnUse"
       gradientTransform="matrix(1.1,0,0,1.1,-1.2,-1.2000002)" />
    <linearGradient
       inkscape:collect="always"
       id="linearGradient1763">
      <stop
         style="stop-color:#717174;stop-opacity:1"
         offset="0"
         id="stop1759" />
      <stop
         style="stop-color:#4c4c4c;stop-opacity:1"
         offset="1"
         id="stop1761" />
    </linearGradient>
  </defs>
  <sodipodi:namedview
     id="base"
     pagecolor="#ffffff"
     bordercolor="#666666"
     borderopacity="1.0"
     inkscape:pageopacity="0.0"
     inkscape:pageshadow="2"
     inkscape:zoom="19.180272"
     inkscape:cx="-2.5450161"
     inkscape:cy="13.549443"
     inkscape:document-units="px"
     inkscape:current-layer="layer1"
     showgrid="true"
     inkscape:window-width="1920"
     inkscape:window-height="1017"
     inkscape:window-x="-8"
     inkscape:window-y="-8"
     inkscape:window-maximized="1"
     inkscape:grid-bbox="true"
     inkscape:snap-global="false">
    <inkscape:grid
       type="xygrid"
       id="grid1723" />
  </sodipodi:namedview>
  <metadata
     id="metadata1128">
    <rdf:RDF>
      <cc:Work
         rdf:about="">
        <dc:format>image/svg+xml</dc:format>
        <dc:type
           rdf:resource="http://purl.org/dc/dcmitype/StillImage" />
        <dc:title />
      </cc:Work>
    </rdf:RDF>
  </metadata>
  <g
     inkscape:label="Layer 1"
     inkscape:groupmode="layer"
     id="layer1">
    <rect
       style="opacity:1;vector-effect:none;fill:url(#linearGradient1573-6);fill-opacity:1;fill-rule:evenodd;stroke:none;stroke-width:4.4000001;stroke-linecap:round;stroke-linejoin:round;stroke-miterlimit:4;stroke-dasharray:none;paint-order:stroke fill markers"
       id="rect1560-7"
       width="22"
       height="22"
       x="1"
       y="0.99999976"
       ry="4" />
    <path
       style="color:#000000;font-style:normal;font-variant:normal;font-weight:normal;font-stretch:normal;font-size:medium;line-height:normal;font-family:sans-serif;font-variant-ligatures:normal;font-variant-position:normal;font-variant-caps:normal;font-variant-numeric:normal;font-variant-alternates:normal;font-feature-settings:normal;text-indent:0;text-align:start;text-decoration:none;text-decoration-line:none;text-decoration-style:solid;text-decoration-color:#000000;letter-spacing:normal;word-spacing:normal;text-transform:none;writing-mode:lr-tb;direction:ltr;text-orientation:mixed;dominant-baseline:auto;baseline-shift:baseline;text-anchor:start;white-space:normal;shape-padding:0;clip-rule:nonzero;display:inline;overflow:visible;visibility:visible;opacity:0.25;isolation:auto;mix-blend-mode:normal;color-interpolation:sRGB;color-interpolation-filters:linearRGB;solid-color:#000000;solid-opacity:1;vector-effect:none;fill:#ffd649;fill-opacity:1;fill-rule:nonzero;stroke:none;stroke-width:1px;stroke-linecap:round;stroke-linejoin:round;stroke-miterlimit:4;stroke-dasharray:none;stroke-dashoffset:0;stroke-opacity:1;color-rendering:auto;image-rendering:auto;shape-rendering:auto;text-rendering:auto;enable-background:accumulate"
       d="M 12.021484 2.9492188 C 11.268488 2.9475054 10.583699 3.2850525 10.009766 3.8066406 C 9.4358317 4.3282287 8.9495006 5.0349214 8.5136719 5.8632812 C 7.6420145 7.520001 6.9785014 9.6704948 6.4648438 11.814453 C 5.6661164 15.148265 5.4976029 17.155015 5.3476562 18.46875 L 3.828125 14.283203 A 0.50005 0.50005 0 0 0 2.9082031 14.238281 L 1 18.230469 L 1 19 C 1 19.405064 1.0765419 19.788312 1.1875 20.15625 L 3.2949219 15.746094 L 5.0546875 20.591797 A 0.50005 0.50005 0 0 0 6.0214844 20.46875 C 6.0214844 20.46875 6.4312173 16.247003 7.4375 12.046875 C 7.9406413 9.9468109 8.5964904 7.8543026 9.3984375 6.3300781 C 9.7994111 5.5679659 10.237973 4.9499 10.683594 4.5449219 C 11.129215 4.1399437 11.557854 3.9481683 12.019531 3.9492188 C 12.48146 3.9502688 12.91011 4.1445762 13.353516 4.5507812 C 13.796921 4.9569864 14.231958 5.5734334 14.628906 6.3359375 C 15.422803 7.8609458 16.068358 9.9541179 16.560547 12.052734 C 17.544924 16.249968 17.931641 20.464844 17.931641 20.464844 A 0.50005 0.50005 0 0 0 18.898438 20.591797 L 20.544922 16.087891 L 22.140625 21.455078 C 22.435902 21.077335 22.659978 20.647797 22.804688 20.177734 L 21.074219 14.355469 A 0.50005 0.50005 0 0 0 20.125 14.326172 L 18.615234 18.455078 C 18.471124 17.135972 18.312581 15.147369 17.533203 11.824219 C 17.03069 9.6815766 16.37876 7.5330087 15.515625 5.875 C 15.084058 5.0459957 14.600612 4.335884 14.029297 3.8125 C 13.457982 3.289116 12.774229 2.9509315 12.021484 2.9492188 z "
       id="path849" />
    <path
       style="color:#000000;font-style:normal;font-variant:normal;font-weight:normal;font-stretch:normal;font-size:medium;line-height:normal;font-family:sans-serif;font-variant-ligatures:normal;font-variant-position:normal;font-variant-caps:normal;font-variant-numeric:normal;font-variant-alternates:normal;font-feature-settings:normal;text-indent:0;text-align:start;text-decoration:none;text-decoration-line:none;text-decoration-style:solid;text-decoration-color:#000000;letter-spacing:normal;word-spacing:normal;text-transform:none;writing-mode:lr-tb;direction:ltr;text-orientation:mixed;dominant-baseline:auto;baseline-shift:baseline;text-anchor:start;white-space:normal;shape-padding:0;clip-rule:nonzero;display:inline;overflow:visible;visibility:visible;opacity:1;isolation:auto;mix-blend-mode:normal;color-interpolation:sRGB;color-interpolation-filters:linearRGB;solid-color:#000000;solid-opacity:1;vector-effect:none;fill:#ffd649;fill-opacity:1;fill-rule:nonzero;stroke:none;stroke-width:1px;stroke-linecap:round;stroke-linejoin:round;stroke-miterlimit:4;stroke-dasharray:none;stroke-dashoffset:0;stroke-opacity:1;color-rendering:auto;image-rendering:auto;shape-rendering:auto;text-rendering:auto;enable-background:accumulate"
       d="M 6.3925781 1 C 5.7634303 1.4664995 5.2300763 2.0473113 4.8125 2.6972656 C 3.836139 4.2169641 3.4137692 6.0769093 3.5683594 7.6953125 C 3.7929214 10.046251 5.2070472 12.280664 7.1113281 13.976562 C 7.9246293 14.700867 8.8603479 15.266049 9.8125 15.759766 C 8.5640327 19.927301 5.8273537 21.932741 3.9648438 22.849609 C 4.2966484 22.93821 4.6395107 23 5 23 L 5.6171875 23 C 7.4716022 21.787786 9.6168656 19.700247 10.720703 16.183594 C 10.983065 16.291725 11.253363 16.308443 11.519531 16.394531 C 11.678718 18.327492 11.575418 20.520657 10.980469 23 L 12.388672 23 C 13.636119 21.239658 14.043921 19.034005 14.193359 16.951172 C 17.903666 17.008232 20.625393 15.062465 22.359375 13.050781 C 22.589079 12.784289 22.80159 12.517814 23 12.253906 L 23 10.453125 C 22.627907 11.060405 22.189367 11.716495 21.601562 12.398438 C 20.510683 13.664024 19.022602 14.826893 17.167969 15.472656 C 17.682075 12.458476 16.769682 10.29262 16.236328 9.25 C 16.54012 9.3698447 16.871666 9.5048177 17.203125 9.9101562 A 0.50005 0.50005 0 0 0 18.085938 9.6582031 C 18.242569 8.4682592 17.57523 7.3189952 16.939453 6.4296875 C 16.420735 5.7041176 16.05798 5.3628409 15.876953 5.1816406 C 15.948069 5.041735 15.988358 4.9863933 16.080078 4.7421875 C 16.239845 4.3168057 16.45355 3.8019565 16.185547 3.2363281 C 15.754599 2.3267992 15.179008 1.5649099 14.390625 1 L 11.570312 1 C 12.301914 1.102439 12.903174 1.2788702 13.382812 1.53125 C 14.254739 1.9900457 14.813901 2.6777078 15.28125 3.6640625 C 15.27945 3.6602525 15.27225 4.050481 15.144531 4.390625 C 15.016778 4.730769 14.855469 5.015625 14.855469 5.015625 A 0.50005 0.50005 0 0 0 14.945312 5.6230469 C 14.945312 5.6230469 15.551624 6.2069632 16.126953 7.0117188 C 16.479264 7.5045224 16.739713 8.054763 16.912109 8.5839844 C 16.089334 8.1647952 15.332031 8.0351563 15.332031 8.0351562 A 0.50005 0.50005 0 0 0 14.955078 8.7949219 C 14.955078 8.7949219 16.261647 11.116401 16.251953 13.972656 C 15.104831 11.92581 13.761719 10.230469 13.761719 10.230469 A 0.50005 0.50005 0 0 0 12.902344 10.673828 C 12.902344 10.673828 13.377638 12.793236 13.373047 15.423828 C 13.372805 15.562697 13.325426 15.714278 13.322266 15.855469 C 12.998689 15.813139 12.672143 15.677004 12.34375 15.591797 C 11.662148 10.275417 9.2153873 7.1113033 9.0605469 6.9296875 C 9.0557769 6.9240975 8.9921875 6.8320312 8.9921875 6.8320312 A 0.50005 0.50005 0 0 0 8.1757812 7.3945312 C 8.1757812 7.3945312 8.8047857 8.5883711 9.3730469 10.087891 C 9.9413081 11.58741 10.40649 13.413883 10.205078 14.447266 C 10.182038 14.565489 10.134665 14.650376 10.109375 14.765625 C 9.2948673 14.327213 8.4810577 13.857177 7.7773438 13.230469 C 6.017377 11.663092 4.7563697 9.6107356 4.5644531 7.6015625 C 4.4338466 6.2342431 4.8106025 4.5514853 5.6542969 3.2382812 C 6.376543 2.1141106 7.4086026 1.2657913 8.7675781 1 L 6.3925781 1 z M 14.052734 12.210938 C 14.744911 13.133334 15.558882 14.362395 16.154297 15.804688 C 15.581888 15.924364 14.954802 15.9521 14.3125 15.949219 C 14.3165 15.780137 14.372757 15.590988 14.373047 15.425781 C 14.376147 13.645635 14.200134 13.088383 14.052734 12.210938 z M 11.166016 14.703125 C 11.205156 14.914026 11.260266 15.090886 11.292969 15.310547 C 11.196929 15.273197 11.101523 15.274905 11.005859 15.234375 C 11.050939 15.046173 11.126947 14.898796 11.166016 14.703125 z M 12.548828 16.666016 C 12.769455 16.711566 12.984465 16.811442 13.205078 16.839844 C 13.097882 18.285654 12.89718 19.746644 12.3125 21.056641 C 12.532348 19.492018 12.638055 18.000108 12.548828 16.666016 z "
       id="path847" />
    <path
       style="opacity:0.25;vector-effect:none;fill:#000000;fill-opacity:1;fill-rule:evenodd;stroke:none;stroke-width:4;stroke-linecap:round;stroke-linejoin:round;stroke-miterlimit:4;stroke-dasharray:none;paint-order:stroke fill markers"
       d="m 5,0.99999976 c -2.216,0 -4,1.78400004 -4,4.00000004 V 19 c 0,2.216 1.784,4 4,4 h 14 c 2.216,0 4,-1.784 4,-4 V 4.9999998 c 0,-2.216 -1.784,-4.00000004 -4,-4.00000004 z M 5,1.9999998 h 14 c 1.662,0 3,1.338 3,3 V 19 c 0,1.662 -1.338,3 -3,3 H 5 C 3.338,22 2,20.662 2,19 V 4.9999998 c 0,-1.662 1.338,-3 3,-3 z"
       id="rect1558-6"
       inkscape:connector-curvature="0" />
  </g>
</svg>
