<?xml version="1.0" encoding="UTF-8" standalone="no"?>
<!-- Created with Inkscape (http://www.inkscape.org/) -->

<svg
   xmlns:dc="http://purl.org/dc/elements/1.1/"
   xmlns:cc="http://creativecommons.org/ns#"
   xmlns:rdf="http://www.w3.org/1999/02/22-rdf-syntax-ns#"
   xmlns:svg="http://www.w3.org/2000/svg"
   xmlns="http://www.w3.org/2000/svg"
   xmlns:xlink="http://www.w3.org/1999/xlink"
   xmlns:sodipodi="http://sodipodi.sourceforge.net/DTD/sodipodi-0.dtd"
   xmlns:inkscape="http://www.inkscape.org/namespaces/inkscape"
   width="24px"
   height="24px"
   viewBox="0 0 24 24"
   version="1.1"
   id="SVGRoot"
   inkscape:version="0.92.4 (5da689c313, 2019-01-14)"
   sodipodi:docname="ninjas2.svg">
  <defs
     id="defs1125">
    <linearGradient
       gradientTransform="matrix(1.1,0,0,1.1,-1.2,-1.2000002)"
       gradientUnits="userSpaceOnUse"
       y2="22"
       x2="12"
       y1="2"
       x1="12"
       id="linearGradient1573-6"
       xlink:href="#linearGradient1763-6"
       inkscape:collect="always" />
    <linearGradient
       id="linearGradient1763-6"
       inkscape:collect="always">
      <stop
         id="stop1759-2"
         offset="0"
         style="stop-color:#57575a;stop-opacity:1" />
      <stop
         id="stop1761-3"
         offset="1"
         style="stop-color:#3b3b3b;stop-opacity:1" />
    </linearGradient>
  </defs>
  <sodipodi:namedview
     id="base"
     pagecolor="#ffffff"
     bordercolor="#666666"
     borderopacity="1.0"
     inkscape:pageopacity="0.0"
     inkscape:pageshadow="2"
     inkscape:zoom="33.572044"
     inkscape:cx="4.3011214"
     inkscape:cy="11.923917"
     inkscape:document-units="px"
     inkscape:current-layer="layer1"
     showgrid="true"
     inkscape:window-width="1920"
     inkscape:window-height="1017"
     inkscape:window-x="-8"
     inkscape:window-y="-8"
     inkscape:window-maximized="1"
     inkscape:grid-bbox="true"
     inkscape:snap-global="true"
     showguides="false">
    <inkscape:grid
       type="xygrid"
       id="grid1723" />
  </sodipodi:namedview>
  <metadata
     id="metadata1128">
    <rdf:RDF>
      <cc:Work
         rdf:about="">
        <dc:format>image/svg+xml</dc:format>
        <dc:type
           rdf:resource="http://purl.org/dc/dcmitype/StillImage" />
        <dc:title />
      </cc:Work>
    </rdf:RDF>
  </metadata>
  <g
     inkscape:label="Layer 1"
     inkscape:groupmode="layer"
     id="layer1">
    <rect
       style="opacity:1;vector-effect:none;fill:url(#linearGradient1573-6);fill-opacity:1;fill-rule:evenodd;stroke:none;stroke-width:4.4000001;stroke-linecap:round;stroke-linejoin:round;stroke-miterlimit:4;stroke-dasharray:none;paint-order:stroke fill markers"
       id="rect1560-7"
       width="22"
       height="22"
       x="1"
       y="0.99999976"
       ry="4" />
    <path
       style="opacity:0.25;vector-effect:none;fill:#000000;fill-opacity:1;fill-rule:evenodd;stroke:none;stroke-width:4;stroke-linecap:round;stroke-linejoin:round;stroke-miterlimit:4;stroke-dasharray:none;paint-order:stroke fill markers"
       d="m 5,0.99999976 c -2.216,0 -4,1.78400004 -4,4.00000004 V 19 c 0,2.216 1.784,4 4,4 h 14 c 2.216,0 4,-1.784 4,-4 V 4.9999998 c 0,-2.216 -1.784,-4.00000004 -4,-4.00000004 z M 5,1.9999998 h 14 c 1.662,0 3,1.338 3,3 V 19 c 0,1.662 -1.338,3 -3,3 H 5 C 3.338,22 2,20.662 2,19 V 4.9999998 c 0,-1.662 1.338,-3 3,-3 z"
       id="rect1558-6"
       inkscape:connector-curvature="0" />
    <path
       style="fill:#ffffff;stroke:none;stroke-width:1px;stroke-linecap:butt;stroke-linejoin:miter;stroke-opacity:1"
       d="M 4 10 L 4 16 L 7 16 L 7 13 L 8.4804688 13 C 8.4804688 13 9 13.014166 9 13.519531 L 9 16 L 12 16 L 12 12 C 12 12 12 10 10 10 L 4 10 z M 5 11 L 10 11 C 11 11 11 12 11 12 L 11 15 L 10 15 L 10 12.621094 C 10 11.95784 9.4804688 12 9.4804688 12 L 6 12 L 6 15 L 5 15 L 5 11 z "
       id="path820" />
    <path
       style="fill:#f16a63;stroke:none;stroke-width:1px;stroke-linecap:butt;stroke-linejoin:miter;stroke-opacity:1;fill-opacity:1"
       d="m 13,16 h 7 v -1 h -5 v -2 c 0,-2 5,-1 5,-3 V 9 C 20,7 18,7 18,7 h -5 v 1 h 4 c 0,0 1,0 1,1 v 1 c 0,1 -5,0 -5,3 z"
       id="path825"
       inkscape:connector-curvature="0"
       sodipodi:nodetypes="cccccsccccccscc" />
  </g>
</svg>
