<?xml version="1.0" encoding="UTF-8" standalone="no"?>
<!-- Created with Inkscape (http://www.inkscape.org/) -->

<svg
   xmlns:dc="http://purl.org/dc/elements/1.1/"
   xmlns:cc="http://creativecommons.org/ns#"
   xmlns:rdf="http://www.w3.org/1999/02/22-rdf-syntax-ns#"
   xmlns:svg="http://www.w3.org/2000/svg"
   xmlns="http://www.w3.org/2000/svg"
   xmlns:xlink="http://www.w3.org/1999/xlink"
   xmlns:sodipodi="http://sodipodi.sourceforge.net/DTD/sodipodi-0.dtd"
   xmlns:inkscape="http://www.inkscape.org/namespaces/inkscape"
   width="24px"
   height="24px"
   viewBox="0 0 24 24"
   version="1.1"
   id="SVGRoot"
   inkscape:version="0.92.4 (5da689c313, 2019-01-14)"
   sodipodi:docname="oxe-fm-synth.svg">
  <defs
     id="defs1125">
    <linearGradient
       inkscape:collect="always"
       xlink:href="#linearGradient1763"
       id="linearGradient3931"
       gradientUnits="userSpaceOnUse"
       gradientTransform="matrix(1.1,0,0,1.1,-1.2,-1.2)"
       x1="12"
       y1="2"
       x2="12"
       y2="22" />
    <linearGradient
       inkscape:collect="always"
       id="linearGradient1763">
      <stop
         style="stop-color:#b0b0b0;stop-opacity:1"
         offset="0"
         id="stop1759" />
      <stop
         style="stop-color:#8b8b8b;stop-opacity:1"
         offset="1"
         id="stop1761" />
    </linearGradient>
  </defs>
  <sodipodi:namedview
     id="base"
     pagecolor="#ffffff"
     bordercolor="#666666"
     borderopacity="1.0"
     inkscape:pageopacity="0.0"
     inkscape:pageshadow="2"
     inkscape:zoom="34.845214"
     inkscape:cx="16.008268"
     inkscape:cy="13.345303"
     inkscape:document-units="px"
     inkscape:current-layer="layer1"
     showgrid="false"
     inkscape:window-width="1920"
     inkscape:window-height="1017"
     inkscape:window-x="-8"
     inkscape:window-y="-8"
     inkscape:window-maximized="1"
     inkscape:grid-bbox="true"
     inkscape:snap-global="true">
    <inkscape:grid
       type="xygrid"
       id="grid1723" />
  </sodipodi:namedview>
  <metadata
     id="metadata1128">
    <rdf:RDF>
      <cc:Work
         rdf:about="">
        <dc:format>image/svg+xml</dc:format>
        <dc:type
           rdf:resource="http://purl.org/dc/dcmitype/StillImage" />
        <dc:title />
      </cc:Work>
    </rdf:RDF>
  </metadata>
  <g
     inkscape:label="Layer 1"
     inkscape:groupmode="layer"
     id="layer1">
    <rect
       style="opacity:1;vector-effect:none;fill:url(#linearGradient3931);fill-opacity:1;fill-rule:evenodd;stroke:none;stroke-width:4.4000001;stroke-linecap:round;stroke-linejoin:round;stroke-miterlimit:4;stroke-dasharray:none;paint-order:stroke fill markers"
       id="rect1560-7-8"
       width="22"
       height="22"
       x="1"
       y="1.0000001"
       ry="4" />
    <path
       style="opacity:0.25;vector-effect:none;fill:#000000;fill-opacity:1;fill-rule:evenodd;stroke:none;stroke-width:4;stroke-linecap:round;stroke-linejoin:round;stroke-miterlimit:4;stroke-dasharray:none;paint-order:stroke fill markers"
       d="M 5,1 C 2.784,1 1,2.784 1,5 v 14 c 0,2.216 1.784,4 4,4 h 14 c 2.216,0 4,-1.784 4,-4 V 5 C 23,2.784 21.216,1 19,1 Z m 0,1 h 14 c 1.662,0 3,1.338 3,3 v 14 c 0,1.662 -1.338,3 -3,3 H 5 C 3.338,22 2,20.662 2,19 V 5 C 2,3.338 3.338,2 5,2 Z"
       id="rect1558-6-98"
       inkscape:connector-curvature="0" />
    <path
       style="opacity:1;vector-effect:none;fill:#30b848;fill-opacity:1;fill-rule:evenodd;stroke:none;stroke-width:2;stroke-linecap:round;stroke-linejoin:round;stroke-miterlimit:4;stroke-dasharray:none;stroke-opacity:1;paint-order:stroke fill markers"
       d="M 7 9 C 5.338 9 4 10.338 4 12 L 5 12 C 5 10.892 5.892 10 7 10 C 8.108 10 9 10.892 9 12 L 10 12 C 10 10.338 8.662 9 7 9 z M 4.1816406 13 C 4.593201 14.164689 5.6909174 15 7 15 C 8.3090826 15 9.406799 14.164689 9.8183594 13 L 8.7246094 13 C 8.3790485 13.595799 7.7410699 14 7 14 C 6.2589301 14 5.6209515 13.595799 5.2753906 13 L 4.1816406 13 z "
       id="rect837" />
    <path
       style="fill:#30b848;stroke:none;stroke-width:1px;stroke-linecap:butt;stroke-linejoin:miter;stroke-opacity:1;fill-opacity:1"
       d="M 5,8 H 9 L 7,7 Z"
       id="path842"
       inkscape:connector-curvature="0"
       sodipodi:nodetypes="cccc" />
    <path
       style="opacity:1;vector-effect:none;fill:#faf227;fill-opacity:1;fill-rule:evenodd;stroke:none;stroke-width:2;stroke-linecap:round;stroke-linejoin:round;stroke-miterlimit:4;stroke-dasharray:none;stroke-opacity:1;paint-order:stroke fill markers"
       d="M 17 9 C 15.338 9 14 10.338 14 12 L 15 12 L 19 12 L 20 12 C 20 10.338 18.662 9 17 9 z M 17 10 C 17.74107 10 18.379048 10.404201 18.724609 11 L 15.275391 11 C 15.620952 10.404201 16.25893 10 17 10 z M 14.181641 13 C 14.593201 14.164689 15.690917 15 17 15 C 18.309083 15 19.406799 14.164689 19.818359 13 L 18.724609 13 C 18.379048 13.595799 17.74107 14 17 14 C 16.25893 14 15.620952 13.595799 15.275391 13 L 14.181641 13 z "
       id="rect837-1" />
    <path
       style="fill:#c2fa70;stroke:none;stroke-width:1px;stroke-linecap:butt;stroke-linejoin:miter;stroke-opacity:1;fill-opacity:1"
       d="m 10,8 2,-1 1,5 2,4 -2,1 -1,-5 z"
       id="path865"
       inkscape:connector-curvature="0"
       sodipodi:nodetypes="ccccccc" />
    <path
       style="fill:#c2fa70;stroke:none;stroke-width:1px;stroke-linecap:butt;stroke-linejoin:miter;stroke-opacity:1;fill-opacity:1"
       d="m 9,17 3,-6 3,-4 -2,5 z"
       id="path867"
       inkscape:connector-curvature="0"
       sodipodi:nodetypes="ccccc" />
    <path
       style="opacity:0.25;vector-effect:none;fill:#000000;fill-opacity:1;fill-rule:evenodd;stroke:none;stroke-width:2;stroke-linecap:round;stroke-linejoin:round;stroke-miterlimit:4;stroke-dasharray:none;stroke-opacity:1;paint-order:stroke fill markers"
       d="M 15 7 L 14.572266 7.5703125 L 12.888672 11.777344 L 13 12 L 15 7 z M 6 7.5 L 5 8 L 9 8 L 8 7.5 L 6 7.5 z M 10.199219 7.9003906 L 10 8 L 11.746094 11.505859 L 11.871094 11.255859 L 10.199219 7.9003906 z M 7 9.5 C 5.892 9.5 5 10.392 5 11.5 L 4.0507812 11.5 C 4.023374 11.663565 4 11.828412 4 12 L 5 12 C 5 10.892 5.892 10 7 10 C 8.108 10 9 10.892 9 12 L 10 12 C 10 11.828412 9.9766258 11.663565 9.9492188 11.5 L 9 11.5 C 9 10.392 8.108 9.5 7 9.5 z M 17 9.5 C 16.25893 9.5 15.477594 9.9704797 15.171875 10.5 C 15.002098 10.794063 14.929686 11.003906 14.929688 11.003906 L 15.275391 11 C 15.620952 10.404201 16.25893 10 17 10 C 17.74107 10 18.379048 10.404201 18.724609 11 L 19.011719 11 C 19.011719 11 18.947779 10.791817 18.779297 10.5 C 18.453478 9.9356647 17.74107 9.5 17 9.5 z M 14.050781 11.5 C 14.023374 11.663565 14 11.828412 14 12 L 15 12 L 19 12 L 20 12 C 20 11.828412 19.976629 11.663565 19.949219 11.5 L 19 11.5 L 15 11.5 L 14.050781 11.5 z M 12.199219 12.5 L 9.6660156 15.666016 L 9 17 L 12.199219 13 L 13 17 L 15 16 L 14.800781 15.599609 L 13 16.5 L 12.199219 12.5 z M 4.1816406 13 C 4.593201 14.164689 5.6909174 15 7 15 C 8.3090826 15 9.406799 14.164689 9.8183594 13 L 9.5820312 13 C 9.0658737 13.894556 8.1113969 14.5 7 14.5 C 5.8886031 14.5 4.9341263 13.894556 4.4179688 13 L 4.1816406 13 z M 14.181641 13 C 14.593201 14.164689 15.690917 15 17 15 C 18.309083 15 19.406799 14.164689 19.818359 13 L 19.582031 13 C 19.065874 13.894556 18.111397 14.5 17 14.5 C 15.888603 14.5 14.934126 13.894556 14.417969 13 L 14.181641 13 z "
       id="rect837-9" />
    <path
       style="opacity:0.25;vector-effect:none;fill:#ffffff;fill-opacity:1;fill-rule:evenodd;stroke:none;stroke-width:2;stroke-linecap:round;stroke-linejoin:round;stroke-miterlimit:4;stroke-dasharray:none;stroke-opacity:1;paint-order:stroke fill markers"
       d="M 7,7 5,8 H 6 L 7,7.5 8,8 H 9 Z M 12,7 10,8 10.199219,8.4003906 12,7.5 12.630859,10.658203 14.572266,8.0703125 15,7 12.630859,10.158203 Z M 7,9 C 5.338,9 4,10.338 4,12 H 4.050781 C 4.2888409,10.579274 5.5095878,9.5 7,9.5 8.4904122,9.5 9.7111591,10.579274 9.9492188,12 H 10 C 10,10.338 8.662,9 7,9 Z m 10,0 c -1.662,0 -3,1.338 -3,3 h 0.05078 C 14.288841,10.579274 15.509588,9.5 17,9.5 c 1.490412,0 2.711159,1.079274 2.949219,2.5 H 20 C 20,10.338 18.662,9 17,9 Z m -1.296875,2 c -0.166025,0.145204 -0.316236,0.30776 -0.427734,0.5 h 3.449218 C 18.613111,11.30776 18.4629,11.145204 18.296875,11 Z M 11.871632,11.255426 9,17 9.6660156,16.166016 11.996632,11.505426 Z m 1.01704,0.521918 -0.111328,0.277344 2.023437,4.044921 L 15,16 Z M 4.1816406,13 c 0.06215,0.175881 0.1445185,0.340884 0.2363282,0.5 h 0.8574218 c 0.3455609,0.595799 0.9835395,1 1.7246094,1 0.7410699,0 1.3790485,-0.404201 1.7246094,-1 h 0.8574218 c 0.09181,-0.159116 0.1741781,-0.324119 0.2363282,-0.5 h -1.09375 C 8.3790485,13.595799 7.7410699,14 7,14 6.2589301,14 5.6209515,13.595799 5.2753906,13 Z m 10.0000004,0 c 0.06215,0.175881 0.144518,0.340884 0.236328,0.5 h 0.857422 c 0.345561,0.595799 0.983539,1 1.724609,1 0.74107,0 1.379048,-0.404201 1.724609,-1 h 0.857422 c 0.09181,-0.159116 0.174178,-0.324119 0.236328,-0.5 h -1.09375 C 18.379048,13.595799 17.74107,14 17,14 16.25893,14 15.620952,13.595799 15.275391,13 Z"
       id="rect837-9-7"
       inkscape:connector-curvature="0"
       sodipodi:nodetypes="ccccccccccccccccsccsccssccsccsccccccccccccccccccsccccscccccsccccscc" />
  </g>
</svg>
