<?xml version="1.0" encoding="UTF-8" standalone="no"?>
<!-- Created with Inkscape (http://www.inkscape.org/) -->

<svg
   xmlns:dc="http://purl.org/dc/elements/1.1/"
   xmlns:cc="http://creativecommons.org/ns#"
   xmlns:rdf="http://www.w3.org/1999/02/22-rdf-syntax-ns#"
   xmlns:svg="http://www.w3.org/2000/svg"
   xmlns="http://www.w3.org/2000/svg"
   xmlns:xlink="http://www.w3.org/1999/xlink"
   xmlns:sodipodi="http://sodipodi.sourceforge.net/DTD/sodipodi-0.dtd"
   xmlns:inkscape="http://www.inkscape.org/namespaces/inkscape"
   width="24px"
   height="24px"
   viewBox="0 0 24 24"
   version="1.1"
   id="SVGRoot"
   inkscape:version="0.92.4 (5da689c313, 2019-01-14)"
   sodipodi:docname="nexus-3.svg">
  <defs
     id="defs1125">
    <linearGradient
       inkscape:collect="always"
       xlink:href="#linearGradient1763"
       id="linearGradient1573-6"
       x1="12"
       y1="2"
       x2="12"
       y2="22"
       gradientUnits="userSpaceOnUse"
       gradientTransform="matrix(1.1,0,0,1.1,-1.2,-1.2000002)" />
    <linearGradient
       inkscape:collect="always"
       id="linearGradient1763">
      <stop
         style="stop-color:#606063;stop-opacity:1"
         offset="0"
         id="stop1759" />
      <stop
         style="stop-color:#3f3f3f;stop-opacity:1"
         offset="1"
         id="stop1761" />
    </linearGradient>
  </defs>
  <sodipodi:namedview
     id="base"
     pagecolor="#ffffff"
     bordercolor="#666666"
     borderopacity="1.0"
     inkscape:pageopacity="0.0"
     inkscape:pageshadow="2"
     inkscape:zoom="74.687436"
     inkscape:cx="10.762549"
     inkscape:cy="11.389964"
     inkscape:document-units="px"
     inkscape:current-layer="layer1"
     showgrid="true"
     inkscape:window-width="1920"
     inkscape:window-height="1017"
     inkscape:window-x="-8"
     inkscape:window-y="-8"
     inkscape:window-maximized="1"
     inkscape:grid-bbox="true"
     inkscape:snap-global="false">
    <inkscape:grid
       type="xygrid"
       id="grid1723" />
  </sodipodi:namedview>
  <metadata
     id="metadata1128">
    <rdf:RDF>
      <cc:Work
         rdf:about="">
        <dc:format>image/svg+xml</dc:format>
        <dc:type
           rdf:resource="http://purl.org/dc/dcmitype/StillImage" />
        <dc:title></dc:title>
      </cc:Work>
    </rdf:RDF>
  </metadata>
  <g
     inkscape:label="Layer 1"
     inkscape:groupmode="layer"
     id="layer1">
    <rect
       style="opacity:1;vector-effect:none;fill:url(#linearGradient1573-6);fill-opacity:1;fill-rule:evenodd;stroke:none;stroke-width:4.4000001;stroke-linecap:round;stroke-linejoin:round;stroke-miterlimit:4;stroke-dasharray:none;paint-order:stroke fill markers"
       id="rect1560-7"
       width="22"
       height="22"
       x="1"
       y="0.99999976"
       ry="4" />
    <path
       style="opacity:0.25;vector-effect:none;fill:#000000;fill-opacity:1;fill-rule:evenodd;stroke:none;stroke-width:4;stroke-linecap:round;stroke-linejoin:round;stroke-miterlimit:4;stroke-dasharray:none;paint-order:stroke fill markers"
       d="m 5,0.99999976 c -2.216,0 -4,1.78400004 -4,4.00000004 V 19 c 0,2.216 1.784,4 4,4 h 14 c 2.216,0 4,-1.784 4,-4 V 4.9999998 c 0,-2.216 -1.784,-4.00000004 -4,-4.00000004 z M 5,1.9999998 h 14 c 1.662,0 3,1.338 3,3 V 19 c 0,1.662 -1.338,3 -3,3 H 5 C 3.338,22 2,20.662 2,19 V 4.9999998 c 0,-1.662 1.338,-3 3,-3 z"
       id="rect1558-6"
       inkscape:connector-curvature="0" />
    <path
       style="fill:#62cdf7;stroke:none;stroke-width:0.36636585px;stroke-linecap:butt;stroke-linejoin:miter;stroke-opacity:1"
       d="M 4.9872544,18.008047 V 7.7764368 c 0,-2.0229174 2.1779626,-1.7659159 2.1779626,-1.7659159 0,0 4.049869,6.0061011 6.224064,8.8546901 2.693739,3.529281 5.33699,1.223381 5.33699,1.223381 0,0 -1.306683,1.94217 -3.492588,1.883643 -3.048553,-0.08162 -4.944565,-2.832326 -4.944565,-2.832326 L 7.9642002,11.490351 v 5.144206 c 0,1.436223 -1.4029218,1.402922 -1.4029218,1.402922 z"
       id="path832"
       inkscape:connector-curvature="0"
       sodipodi:nodetypes="cscscsccscc" />
    <path
       style="fill:#62cdf7;stroke:none;stroke-width:0.36636585px;stroke-linecap:butt;stroke-linejoin:miter;stroke-opacity:1"
       d="m 14.006991,10.913935 v 1.157655 c 0,0 2.865709,-0.212266 3.01566,1.538541 0.0759,0.886226 -0.326979,1.362106 -0.326979,1.362106 0,0 2.024319,0.481654 2.093579,-1.559001 0.0267,-0.786826 -0.529774,-1.451974 -0.529774,-1.451974 0,0 0.753557,-0.64602 0.725987,-1.550084 -0.08271,-2.7123686 -2.308727,-2.349064 -2.308727,-2.349064 0,0 0.466881,0.6012347 0.290481,1.5452757 -0.334853,1.7920143 -2.960227,1.3065453 -2.960227,1.3065453 z"
       id="path834"
       inkscape:connector-curvature="0"
       sodipodi:nodetypes="ccscscscsc" />
    <path
       style="fill:#62cdf7;stroke:none;stroke-width:0.36636585px;stroke-linecap:butt;stroke-linejoin:miter;stroke-opacity:1"
       d="m 11.026493,9.9664728 h 2.668494 c 0,0 -0.343766,-2.3520856 2.422339,-2.8870745 0.807596,-0.156195 1.902857,-0.1181349 1.902857,-0.1181349 0,0 -1.138847,-1.0832721 -2.904229,-1.0137229 -4.550853,0.1792833 -4.089461,4.0189323 -4.089461,4.0189323 z"
       id="path836"
       inkscape:connector-curvature="0"
       sodipodi:nodetypes="ccscsc" />
  </g>
</svg>
