<?xml version="1.0" encoding="UTF-8" standalone="no"?>
<!-- Created with Inkscape (http://www.inkscape.org/) -->

<svg
   xmlns:dc="http://purl.org/dc/elements/1.1/"
   xmlns:cc="http://creativecommons.org/ns#"
   xmlns:rdf="http://www.w3.org/1999/02/22-rdf-syntax-ns#"
   xmlns:svg="http://www.w3.org/2000/svg"
   xmlns="http://www.w3.org/2000/svg"
   xmlns:xlink="http://www.w3.org/1999/xlink"
   xmlns:sodipodi="http://sodipodi.sourceforge.net/DTD/sodipodi-0.dtd"
   xmlns:inkscape="http://www.inkscape.org/namespaces/inkscape"
   width="24px"
   height="24px"
   viewBox="0 0 24 24"
   version="1.1"
   id="SVGRoot"
   inkscape:version="0.92.4 (5da689c313, 2019-01-14)"
   sodipodi:docname="steven-slate-drums-5.svg">
  <defs
     id="defs1125">
    <linearGradient
       inkscape:collect="always"
       xlink:href="#linearGradient1763"
       id="linearGradient1573-6"
       x1="12"
       y1="2"
       x2="12"
       y2="22"
       gradientUnits="userSpaceOnUse"
       gradientTransform="matrix(1.1,0,0,1.1,-1.2,-1.2000002)" />
    <linearGradient
       inkscape:collect="always"
       id="linearGradient1763">
      <stop
         style="stop-color:#717174;stop-opacity:1"
         offset="0"
         id="stop1759" />
      <stop
         style="stop-color:#4c4c4c;stop-opacity:1"
         offset="1"
         id="stop1761" />
    </linearGradient>
  </defs>
  <sodipodi:namedview
     id="base"
     pagecolor="#ffffff"
     bordercolor="#666666"
     borderopacity="1.0"
     inkscape:pageopacity="0.0"
     inkscape:pageshadow="2"
     inkscape:zoom="45.254834"
     inkscape:cx="10.94406"
     inkscape:cy="17.679791"
     inkscape:document-units="px"
     inkscape:current-layer="layer1"
     showgrid="true"
     inkscape:window-width="1920"
     inkscape:window-height="1017"
     inkscape:window-x="-8"
     inkscape:window-y="-8"
     inkscape:window-maximized="1"
     inkscape:grid-bbox="true"
     inkscape:snap-global="true">
    <inkscape:grid
       type="xygrid"
       id="grid1723" />
  </sodipodi:namedview>
  <metadata
     id="metadata1128">
    <rdf:RDF>
      <cc:Work
         rdf:about="">
        <dc:format>image/svg+xml</dc:format>
        <dc:type
           rdf:resource="http://purl.org/dc/dcmitype/StillImage" />
        <dc:title></dc:title>
      </cc:Work>
    </rdf:RDF>
  </metadata>
  <g
     inkscape:label="Layer 1"
     inkscape:groupmode="layer"
     id="layer1">
    <rect
       style="opacity:1;vector-effect:none;fill:url(#linearGradient1573-6);fill-opacity:1;fill-rule:evenodd;stroke:none;stroke-width:4.4000001;stroke-linecap:round;stroke-linejoin:round;stroke-miterlimit:4;stroke-dasharray:none;paint-order:stroke fill markers"
       id="rect1560-7"
       width="22"
       height="22"
       x="1"
       y="0.99999976"
       ry="4" />
    <path
       style="opacity:1;vector-effect:none;fill:#ffffff;fill-opacity:1;fill-rule:evenodd;stroke:none;paint-order:stroke fill markers"
       d="M 6 17.058594 L 6 23 L 18 23 L 18 17.058594 C 16.77852 18.222062 14.556768 19 12 19 C 9.4432321 19 7.2214803 18.222062 6 17.058594 z "
       id="rect871" />
    <path
       style="opacity:0.25;vector-effect:none;fill:#000000;fill-opacity:1;fill-rule:evenodd;stroke:none;stroke-width:4;stroke-linecap:round;stroke-linejoin:round;stroke-miterlimit:4;stroke-dasharray:none;paint-order:stroke fill markers"
       d="m 5,0.99999976 c -2.216,0 -4,1.78400004 -4,4.00000004 V 19 c 0,2.216 1.784,4 4,4 h 14 c 2.216,0 4,-1.784 4,-4 V 4.9999998 c 0,-2.216 -1.784,-4.00000004 -4,-4.00000004 z M 5,1.9999998 h 14 c 1.662,0 3,1.338 3,3 V 19 c 0,1.662 -1.338,3 -3,3 H 5 C 3.338,22 2,20.662 2,19 V 4.9999998 c 0,-1.662 1.338,-3 3,-3 z"
       id="rect1558-6"
       inkscape:connector-curvature="0" />
    <path
       style="fill:#ffffff;stroke:none;stroke-width:1px;stroke-linecap:butt;stroke-linejoin:miter;stroke-opacity:1"
       d="M 10,5 V 6 C 10,6 9.3333333,6 9,6 8,6 8,7 8,7 h 1 c 1,0 1,1 1,1 0,0 0,2 -2,2 H 7 V 9 H 8 C 9,9 9,8 9,8 9,8 8.3333333,8 8,8 7,8 7,7 7,7 7,6 8,5 9,5 Z"
       id="path828-6"
       inkscape:connector-curvature="0"
       sodipodi:nodetypes="ccscscsccscsccc" />
    <path
       style="fill:#ffffff;stroke:none;stroke-width:1px;stroke-linecap:butt;stroke-linejoin:miter;stroke-opacity:1"
       d="m 11,5 v 5 h 2 c 0,0 1,0 1,-1 0,-1 0,-2 0,-3 0,-1 -1,-1 -1,-1 z m 1,1 h 1 v 3 h -1 z"
       id="path845"
       inkscape:connector-curvature="0"
       sodipodi:nodetypes="cccssccccccc" />
    <rect
       style="opacity:1;vector-effect:none;fill:#ffffff;fill-opacity:1;fill-rule:evenodd;stroke:none;paint-order:stroke fill markers"
       id="rect847"
       width="5"
       height="7"
       x="16"
       y="4"
       ry="1" />
    <path
       style="fill:#4a4a4a;stroke:none;stroke-width:1px;stroke-linecap:butt;stroke-linejoin:miter;stroke-opacity:1"
       d="m 20,5 h -3 v 3 h 2 c 0,0 0,1 -1,1 h -1 v 1 c 0,0 0.666667,0 1,0 1,0 2,-1 2,-2 0,-0.333333 0,-1 0,-1 H 18 V 6 h 2 z"
       id="path849"
       inkscape:connector-curvature="0"
       sodipodi:nodetypes="ccccsccssccccc" />
    <path
       style="fill:#ffffff;stroke:none;stroke-width:1px;stroke-linecap:butt;stroke-linejoin:miter;stroke-opacity:1"
       d="M 6,5 V 6 C 6,6 5.3333333,6 5,6 4,6 4,7 4,7 h 1 c 1,0 1,1 1,1 0,0 0,2 -2,2 H 3 V 9 H 4 C 5,9 5,8 5,8 5,8 4.3333333,8 4,8 3,8 3,7 3,7 3,6 4,5 5,5 Z"
       id="path828-6-8"
       inkscape:connector-curvature="0"
       sodipodi:nodetypes="ccscscsccscsccc" />
    <rect
       style="opacity:1;vector-effect:none;fill:#ffffff;fill-opacity:1;fill-rule:evenodd;stroke:none;paint-order:stroke fill markers"
       id="rect869"
       width="12"
       height="6"
       x="6"
       y="12"
       ry="3"
       rx="6" />
  </g>
</svg>
