<?xml version="1.0" encoding="UTF-8" standalone="no"?>
<!-- Created with Inkscape (http://www.inkscape.org/) -->

<svg
   xmlns:dc="http://purl.org/dc/elements/1.1/"
   xmlns:cc="http://creativecommons.org/ns#"
   xmlns:rdf="http://www.w3.org/1999/02/22-rdf-syntax-ns#"
   xmlns:svg="http://www.w3.org/2000/svg"
   xmlns="http://www.w3.org/2000/svg"
   xmlns:xlink="http://www.w3.org/1999/xlink"
   xmlns:sodipodi="http://sodipodi.sourceforge.net/DTD/sodipodi-0.dtd"
   xmlns:inkscape="http://www.inkscape.org/namespaces/inkscape"
   width="24px"
   height="24px"
   viewBox="0 0 24 24"
   version="1.1"
   id="SVGRoot"
   inkscape:version="0.92.4 (5da689c313, 2019-01-14)"
   sodipodi:docname="synplant.svg">
  <defs
     id="defs1125">
    <linearGradient
       inkscape:collect="always"
       id="linearGradient880">
      <stop
         style="stop-color:#98e15f;stop-opacity:1"
         offset="0"
         id="stop876" />
      <stop
         style="stop-color:#39da87;stop-opacity:1"
         offset="1"
         id="stop878" />
    </linearGradient>
    <linearGradient
       inkscape:collect="always"
       xlink:href="#linearGradient1763"
       id="linearGradient1573-6"
       x1="12"
       y1="2"
       x2="12"
       y2="22"
       gradientUnits="userSpaceOnUse"
       gradientTransform="matrix(1.1,0,0,1.1,-1.2,-1.2000002)" />
    <linearGradient
       inkscape:collect="always"
       id="linearGradient1763">
      <stop
         style="stop-color:#b3b3b3;stop-opacity:1"
         offset="0"
         id="stop1759" />
      <stop
         style="stop-color:#9b9b9b;stop-opacity:1"
         offset="1"
         id="stop1761" />
    </linearGradient>
    <radialGradient
       inkscape:collect="always"
       xlink:href="#linearGradient880"
       id="radialGradient882"
       cx="12.047155"
       cy="12.17692"
       fx="12.047155"
       fy="12.17692"
       r="4.9113622"
       gradientTransform="matrix(1,0,0,1.017515,0,-0.21327903)"
       gradientUnits="userSpaceOnUse" />
  </defs>
  <sodipodi:namedview
     id="base"
     pagecolor="#ffffff"
     bordercolor="#666666"
     borderopacity="1.0"
     inkscape:pageopacity="0.0"
     inkscape:pageshadow="2"
     inkscape:zoom="14.90625"
     inkscape:cx="10.462854"
     inkscape:cy="13.92427"
     inkscape:document-units="px"
     inkscape:current-layer="layer1"
     showgrid="true"
     inkscape:window-width="1920"
     inkscape:window-height="1017"
     inkscape:window-x="-8"
     inkscape:window-y="-8"
     inkscape:window-maximized="1"
     inkscape:grid-bbox="true"
     inkscape:snap-global="false">
    <inkscape:grid
       type="xygrid"
       id="grid1723" />
  </sodipodi:namedview>
  <metadata
     id="metadata1128">
    <rdf:RDF>
      <cc:Work
         rdf:about="">
        <dc:format>image/svg+xml</dc:format>
        <dc:type
           rdf:resource="http://purl.org/dc/dcmitype/StillImage" />
        <dc:title></dc:title>
      </cc:Work>
    </rdf:RDF>
  </metadata>
  <g
     inkscape:label="Layer 1"
     inkscape:groupmode="layer"
     id="layer1">
    <rect
       style="opacity:1;vector-effect:none;fill:url(#linearGradient1573-6);fill-opacity:1;fill-rule:evenodd;stroke:none;stroke-width:4.4000001;stroke-linecap:round;stroke-linejoin:round;stroke-miterlimit:4;stroke-dasharray:none;paint-order:stroke fill markers"
       id="rect1560-7"
       width="22"
       height="22"
       x="1"
       y="0.99999976"
       ry="4" />
    <rect
       style="opacity:1;vector-effect:none;fill:#f4f4f4;fill-opacity:1;fill-rule:evenodd;stroke:none;stroke-linecap:round;stroke-linejoin:round;paint-order:stroke fill markers"
       id="rect829"
       width="16"
       height="16"
       x="4"
       y="4"
       ry="8" />
    <path
       style="opacity:0.25;vector-effect:none;fill:#000000;fill-opacity:1;fill-rule:evenodd;stroke:none;stroke-width:4;stroke-linecap:round;stroke-linejoin:round;stroke-miterlimit:4;stroke-dasharray:none;paint-order:stroke fill markers"
       d="m 5,0.99999976 c -2.216,0 -4,1.78400004 -4,4.00000004 V 19 c 0,2.216 1.784,4 4,4 h 14 c 2.216,0 4,-1.784 4,-4 V 4.9999998 c 0,-2.216 -1.784,-4.00000004 -4,-4.00000004 z M 5,1.9999998 h 14 c 1.662,0 3,1.338 3,3 V 19 c 0,1.662 -1.338,3 -3,3 H 5 C 3.338,22 2,20.662 2,19 V 4.9999998 c 0,-1.662 1.338,-3 3,-3 z"
       id="rect1558-6"
       inkscape:connector-curvature="0" />
    <rect
       style="opacity:1;vector-effect:none;fill:#2c2c2c;fill-opacity:1;fill-rule:evenodd;stroke:none;stroke-linecap:round;stroke-linejoin:round;paint-order:stroke fill markers"
       id="rect831"
       width="12"
       height="12"
       x="6"
       y="6"
       ry="6" />
    <rect
       style="opacity:1;vector-effect:none;fill:#575757;fill-opacity:1;fill-rule:evenodd;stroke:none;stroke-width:1.85576689;stroke-linecap:round;stroke-linejoin:round;stroke-miterlimit:4;stroke-dasharray:none;stroke-opacity:1;paint-order:stroke fill markers"
       id="rect832-4"
       width="3.7115338"
       height="1.8557669"
       x="-0.78857005"
       y="19.546915"
       ry="0.92788345"
       rx="1.8557669"
       transform="rotate(-41.997909)" />
    <path
       style="opacity:1;vector-effect:none;fill:url(#radialGradient882);fill-opacity:1;fill-rule:evenodd;stroke:none;stroke-width:1.59854352;stroke-linecap:round;stroke-linejoin:round;stroke-miterlimit:4;stroke-dasharray:none;stroke-opacity:1;paint-order:stroke fill markers"
       d="m 9.4082031,7.1796875 c -0.026982,0.00215 -0.044283,0.026518 -0.050781,0.072266 -0.00613,0.043141 -0.034581,0.075913 -0.066406,0.076172 -0.021971,1.685e-4 -0.055631,0.021578 -0.085937,0.041016 l 0.203125,1.1679688 0.6679689,0.8730468 c 0.01996,0.00801 0.02757,0.00355 0.05469,0.017578 0.09844,0.050904 0.365235,0.3590175 0.365235,0.421875 0,0.018416 0.06859,0.1242508 0.152344,0.2343749 0.161944,0.212944 0.17318,0.295626 0.02148,0.152344 -0.110066,-0.103955 -0.327969,-0.219538 -0.4375,-0.232422 -0.122193,-0.014372 -0.122191,0.06496 0,0.0918 0.291162,0.06395 0.740061,0.452817 1.039062,0.902344 0.08401,0.126306 0.182976,0.265156 0.220704,0.308594 0.11199,0.128944 0.12107,0.203915 0.0332,0.291015 l -0.08008,0.07813 -0.251953,-0.191406 c -0.497198,-0.373862 -0.493394,-0.370926 -0.394531,-0.509766 0.09584,-0.134593 0.05564,-0.165834 -0.06445,-0.05078 l -0.0957,0.08984 -0.154297,-0.208984 c -0.08458,-0.115737 -0.178563,-0.245521 -0.208984,-0.289063 -0.04866,-0.06965 -0.05916,-0.07323 -0.08594,-0.02539 -0.03594,0.06422 -0.12137,0.03091 -0.2656249,-0.103515 -0.048714,-0.04539 -0.09654,-0.08187 -0.1074219,-0.08008 -0.060834,0.01 -0.092519,-0.0027 -0.1679687,-0.07813 -0.045843,-0.04584 -0.097312,-0.08594 -0.1152344,-0.08594 -0.039612,0 -0.08504,-0.112727 -0.1230469,-0.1640627 C 8.6948668,9.7037199 7.9383106,8.8296985 9.1816405,10.255859 l 0.00195,0.01367 c 8.032e-4,8.71e-4 0.00521,-0.003 0.00586,-0.002 0.011857,0.01886 0.076444,0.0653 0.140625,0.101563 0.065548,0.03703 0.1139557,0.0903 0.1113281,0.121093 -0.00274,0.03217 0.027442,0.06248 0.074219,0.07422 0.043831,0.011 0.080078,0.03158 0.080078,0.04687 0,0.01529 0.1389198,0.09575 0.3085938,0.177734 0.1696746,0.08198 0.3662686,0.195345 0.4375006,0.251954 0.07123,0.0566 0.142387,0.103515 0.158203,0.103515 0.01582,0 0.0293,0.0398 0.0293,0.08789 0,0.0736 0.009,0.08153 0.05078,0.04687 0.06448,-0.05351 0.0872,-0.0441 0.482422,0.214844 0.288598,0.18908 0.334424,0.230135 0.333983,0.308593 -9.59e-4,0.170758 -0.02124,0.178047 -0.503906,0.167969 l -0.445312,-0.0098 -0.01172,-0.125 c -0.01251,-0.151105 -0.06741,-0.162909 -0.0957,-0.02149 -0.01814,0.09071 -0.03038,0.09902 -0.107422,0.08008 -0.100508,-0.02471 -0.2853667,-0.135726 -0.5078121,-0.302734 -0.086522,-0.06496 -0.166528,-0.102115 -0.1777344,-0.08399 -0.019911,0.03222 0.4102109,0.369807 0.5273435,0.414063 0.03325,0.01257 0.04941,0.03673 0.03711,0.05664 C 10.07268,12.040943 9.6100045,11.955833 9.3945337,11.8456 9.3269133,11.811113 9.178955,11.780142 9.0019531,11.763672 8.809712,11.745832 8.6426669,11.6293 8.2695312,11.257812 8.0988984,11.087934 7.938056,10.941597 7.9121094,10.931641 c -0.025947,-0.01 -0.056656,-0.05688 -0.068359,-0.103516 -0.022257,-0.08868 -0.066103,-0.112241 -0.087891,-0.04687 -0.00801,0.02404 -0.065856,0.0039 -0.1542969,-0.05469 -0.1455921,-0.09635 -0.2177186,-0.09666 -0.1230469,-0.002 0.029679,0.02968 0.1978861,0.165376 0.3710938,0.304688 0.306588,0.246589 0.3985287,0.351471 0.3554687,0.394531 -0.01158,0.01158 -0.00287,0.01953 0.019531,0.01953 0.046946,0 0.510057,0.339552 0.4902344,0.359375 -0.00723,0.0073 -0.08231,-0.01761 -0.1679688,-0.05664 -0.085659,-0.03902 -0.1721307,-0.06698 -0.1914062,-0.06055 -0.019275,0.0064 0.027871,0.04011 0.1035156,0.07422 0.089168,0.04021 0.1367187,0.0831 0.1367187,0.123046 0,0.05541 -0.030738,0.0625 -0.3027343,0.0625 -0.2701137,0 -0.3009452,0.0045 -0.2910157,0.05664 0.00611,0.03209 0.044245,0.06462 0.083984,0.07031 0.03974,0.0057 0.089413,0.03023 0.1113281,0.05664 0.021914,0.02641 0.083952,0.04883 0.1367188,0.04883 0.1221164,0 0.124758,0.05339 0.00391,0.07617 -0.050428,0.0095 -0.1535138,0.04021 -0.2285156,0.06836 -0.075002,0.02815 -0.3207848,0.06327 -0.546875,0.07813 -0.2790222,0.01833 -0.4164195,0.04007 -0.4257812,0.06836 -0.010326,0.0312 0.063904,0.04444 0.296875,0.04687 l 0.3125,0.002 -0.1269532,0.05273 c -0.068765,0.02821 -0.125,0.06227 -0.125,0.07813 0,0.04018 0.04757,0.03641 0.091797,-0.0078 0.0204,-0.0204 0.055833,-0.03153 0.080078,-0.02344 0.028233,0.0094 -0.024685,0.09086 -0.1503906,0.222656 -0.1079493,0.113174 -0.1846097,0.205078 -0.1699219,0.205078 0.024415,0 0.3320814,-0.235585 0.4511719,-0.345703 0.060562,-0.056 0.3169383,-0.1875 0.3652344,-0.1875 0.092971,0 0.011077,0.0759 -0.1777344,0.167969 -0.1154686,0.0563 -0.2281067,0.130959 -0.25,0.166015 -0.035997,0.05764 -0.030454,0.06144 0.037109,0.03516 0.041091,-0.01598 0.1655469,-0.08383 0.2753906,-0.15039 0.1098434,-0.06656 0.2026484,-0.104945 0.2089844,-0.08594 0.0066,0.01981 0.050683,0.0064 0.1035156,-0.03125 0.050673,-0.03608 0.1575802,-0.08666 0.2382812,-0.113281 0.2197239,-0.07249 0.9814123,-0.255859 1.0644532,-0.255859 0.039881,0 0.1002748,-0.01475 0.1347656,-0.0332 0.034492,-0.01846 0.1558986,-0.04769 0.2714843,-0.06445 0.187975,-0.02726 0.216112,-0.02212 0.265625,0.03516 0.06905,0.0799 0.08276,0.07939 0.103516,0 0.01374,-0.05253 0.06216,-0.06798 0.279297,-0.08984 0.144294,-0.01453 0.353516,-0.02635 0.462891,-0.02734 0.189239,-0.0017 0.200208,0.0012 0.232421,0.0918 0.03668,0.103121 0.03773,0.100282 -0.232421,0.289062 -0.0656,0.04585 -0.204309,0.147339 -0.308594,0.226563 l -0.1875,0.144531 -0.0625,-0.08594 c -0.08143,-0.111784 -0.147736,-0.07416 -0.07227,0.04101 0.05453,0.08321 0.05544,0.08705 -0.02148,0.150391 -0.04382,0.03609 -0.162816,0.105372 -0.263672,0.152344 -0.16901,0.07871 -0.232442,0.08533 -0.8105473,0.105469 -0.3850851,0.01342 -0.6433644,0.03594 -0.6660156,0.05859 -0.05582,0.05582 0.097938,0.100838 0.2402344,0.07031 0.1840699,-0.03948 0.6324534,-0.06223 0.6503906,-0.0332 0.017239,0.02789 -0.1234144,0.103515 -0.1933594,0.103515 -0.023138,0 -0.071827,0.0239 -0.1074219,0.05274 -0.061599,0.04988 -0.059444,0.04963 0.039063,0.0332 0.056922,-0.0095 0.1190733,-4e-5 0.1386719,0.01953 0.025285,0.02528 0.063978,0.01589 0.1308594,-0.03125 0.1339959,-0.09443 0.3793619,-0.21634 0.3984369,-0.197266 0.02969,0.02969 -0.3166161,0.280824 -0.4609369,0.333985 -0.07846,0.0289 -0.2184327,0.08086 -0.3085938,0.113281 -0.090161,0.03242 -0.1702001,0.07701 -0.1777343,0.09961 -0.010189,0.03056 0.022714,0.02897 0.1269531,-0.0078 0.1880373,-0.06635 0.2526392,-0.06672 0.1972656,0 -0.022828,0.0275 -0.054587,0.05078 -0.072266,0.05078 -0.062593,0 -0.3214212,0.207576 -0.3066407,0.246094 0.00825,0.02151 -0.1148944,0.158687 -0.2734374,0.304687 -0.4111686,0.378637 -0.3985723,0.365035 -0.5390626,0.658204 -0.00695,0.01451 0.1003638,-0.08969 0.2402344,-0.230469 0.1398702,-0.140781 0.2640598,-0.245706 0.2753906,-0.234375 0.01133,0.01133 -0.055982,0.140737 -0.1503906,0.289062 -0.094409,0.148327 -0.171875,0.279711 -0.171875,0.291016 0,0.05773 0.216007,-0.19728 0.3320313,-0.392578 0.076012,-0.127945 0.1598912,-0.231904 0.1992187,-0.242188 0.037736,-0.0099 0.067151,-0.02958 0.064453,-0.04492 -0.012163,-0.06912 0.01081,-0.135188 0.072266,-0.208984 0.080753,-0.09697 0.1117351,-0.07626 0.066406,0.04297 -0.06307,0.165887 0.015884,0.08713 0.1054688,-0.105469 0.083649,-0.179837 0.3515545,-0.482144 0.6015625,-0.675781 0.1226843,-0.09502 0.1175243,-0.02767 -0.00781,0.09766 -0.055012,0.05502 -0.099609,0.109826 -0.099609,0.123047 0,0.01322 -0.056236,0.07568 -0.125,0.138672 -0.118816,0.10884 -0.1205518,0.111004 -0.017578,0.04297 0.1402489,-0.09266 0.1379415,-0.05781 -0.00781,0.103516 -0.064181,0.07104 -0.1171875,0.145794 -0.1171875,0.166016 0,0.02022 -0.038141,0.08224 -0.083984,0.136718 -0.045843,0.05448 -0.083984,0.1262 -0.083984,0.160157 0,0.03396 -0.018826,0.08123 -0.042969,0.105469 -0.024143,0.02423 -0.071074,0.08952 -0.1054688,0.144531 l -0.0625,0.09961 0.1054688,-0.09766 c 0.058536,-0.05385 0.1054687,-0.116899 0.1054687,-0.140625 0,-0.02372 0.038891,-0.05118 0.083984,-0.0625 0.045094,-0.01132 0.1116319,-0.07238 0.1484375,-0.134766 0.036806,-0.06238 0.089032,-0.113281 0.1152344,-0.113281 0.026203,0 0.085788,-0.07821 0.1347656,-0.171875 0.1073505,-0.205304 0.4709676,-0.643656 0.4355466,-0.525391 -0.02699,0.09013 -0.133581,0.270138 -0.3027341,0.509766 -0.062948,0.08917 -0.1138912,0.17837 -0.1132813,0.199219 0.00115,0.03935 0.077406,-0.04117 0.1679684,-0.177735 0.07567,-0.114106 0.130859,-0.05674 0.130859,0.134766 0,0.15827 -0.0045,0.166145 -0.125,0.216797 -0.068764,0.02892 -0.1792812,0.06821 -0.2480461,0.08984 -0.068765,0.02164 -0.125,0.05252 -0.125,0.06836 0,0.01583 0.024551,0.01912 0.056641,0.0059 0.03209,-0.0133 0.1116007,-0.03114 0.1757813,-0.03906 0.064181,-0.0079 0.1483418,-0.03687 0.1874998,-0.0625 0.08145,-0.05332 0.116971,-0.03327 0.08789,0.04687 -0.02588,0.07132 -0.2105365,0.345473 -0.261719,0.388672 -0.061423,0.05184 -0.1578945,0.216797 -0.1269531,0.216797 0.015225,0 0.1125913,-0.09282 0.2167971,-0.205079 0.193028,-0.20795 0.261719,-0.227449 0.261719,-0.07422 0,0.05277 0.01684,0.07932 0.04297,0.07031 0.02292,-0.0079 0.04173,-0.05487 0.04101,-0.103515 -7.54e-4,-0.05064 0.0164,-0.08984 0.04102,-0.08984 0.02364,0 0.04297,-0.02133 0.04297,-0.04883 0,-0.0275 0.01123,-0.05078 0.02539,-0.05078 0.01416,0 0.100142,-0.06645 0.189453,-0.148438 0.0893,-0.08199 0.173718,-0.140584 0.189453,-0.130859 0.01574,0.0097 0.02734,0.08937 0.02734,0.177734 0,0.157886 0.08709,0.428537 0.125,0.390625 0.01064,-0.01064 0.02376,-0.238421 0.0293,-0.505859 0.01007,-0.48572 0.06378,-0.862341 0.119141,-0.828125 0.01612,0.01 0.02128,0.06734 0.0098,0.128906 -0.02676,0.142653 0.0013,0.193732 0.08008,0.144531 0.0481,-0.03004 0.05653,-0.07197 0.04492,-0.232422 -0.01155,-0.159704 -0.004,-0.197569 0.04102,-0.214843 0.06775,-0.026 0.351562,0.04968 0.351562,0.09375 0,0.01756 -0.05105,0.125468 -0.115234,0.240234 -0.187817,0.335848 -0.119809,0.389678 0.07422,0.05859 0.131954,-0.225162 0.132104,-0.10433 0,0.169922 -0.06357,0.131968 -0.125712,0.285526 -0.138672,0.339843 -0.01296,0.05432 -0.06802,0.161606 -0.121094,0.240235 -0.05306,0.07862 -0.08035,0.144531 -0.06055,0.144531 0.0205,0 0.03127,0.0384 0.02344,0.0918 -0.011,0.07492 0.0093,0.11649 0.107422,0.205078 0.110731,0.09993 0.121748,0.124527 0.109375,0.248047 l -0.01172,0.138672 0.04883,-0.109375 c 0.02797,-0.05959 0.07231,-0.1572 0.09961,-0.216797 0.0273,-0.05959 0.04885,-0.08609 0.04687,-0.05859 -0.01265,0.177082 0.02181,0.163234 0.125,-0.05078 0.09554,-0.198143 0.110231,-0.216587 0.111329,-0.132813 7.09e-4,0.05427 -0.03857,0.240276 -0.08789,0.414063 -0.06446,0.227142 -0.07734,0.318622 -0.04883,0.328125 0.08826,0.02942 0.01459,0.184776 -0.201172,0.423828 -0.04956,0.05491 -0.08209,0.107367 -0.07227,0.117187 0.0164,0.0164 0.08741,-0.05635 0.261719,-0.267578 0.03668,-0.04444 0.0892,-0.126628 0.115234,-0.18164 0.03801,-0.0803 0.04947,-0.08935 0.06055,-0.04102 0.0076,0.03311 -0.01647,0.127685 -0.05469,0.208984 -0.03821,0.0813 -0.07031,0.172577 -0.07031,0.203125 0,0.04932 0.0076,0.05055 0.07031,-0.0059 l 0.07226,-0.06445 -0.02344,0.25 c -0.01232,0.137529 -0.03087,0.294597 -0.04102,0.349609 -0.02956,0.160388 0.04684,0.05823 0.08594,-0.115234 0.0942,-0.417854 0.126021,-0.860745 0.08594,-1.19336 -0.01654,-0.137209 -0.01487,-0.207031 0.0078,-0.207031 0.01893,0 0.04321,0.01818 0.05273,0.04297 0.01958,0.05102 0.291016,0.194943 0.291016,0.154297 0,-0.01449 -0.06127,-0.0827 -0.134766,-0.152344 -0.07923,-0.07508 -0.160711,-0.197857 -0.199219,-0.300781 -0.149318,-0.399087 -0.215921,-1.262447 -0.15625,-2.001953 0.01455,-0.180352 0.01034,-0.312995 -0.0078,-0.324219 -0.01694,-0.01047 -0.03843,0.04517 -0.04687,0.123047 -0.02431,0.223781 -0.09049,0.527648 -0.148438,0.683594 -0.05044,0.135739 -0.05645,0.142365 -0.154296,0.121093 -0.171377,-0.03725 -0.254772,-0.0763 -0.253907,-0.121093 0.0022,-0.112008 0.207465,-0.629555 0.302735,-0.763672 0.03403,-0.04792 0.05342,-0.09503 0.04297,-0.105469 -0.01044,-0.01044 0.01219,-0.01009 0.05078,0 0.03859,0.01009 0.09142,-0.002 0.117187,-0.02344 0.03206,-0.02661 0.05358,-0.0259 0.06836,-0.002 0.03937,0.06371 0.118216,0.03609 0.236329,-0.08203 0.06418,-0.06418 0.131753,-0.117187 0.15039,-0.117187 0.02198,0 0.0243,-0.01824 0.0039,-0.05469 -0.02059,-0.03678 -0.01909,-0.07884 0.0059,-0.119141 0.02942,-0.04751 0.02814,-0.06863 -0.0059,-0.08984 -0.03581,-0.02229 -0.03475,-0.03751 0.0078,-0.08008 0.02886,-0.02886 0.05256,-0.07147 0.05273,-0.0957 3e-4,-0.0408 0.676908,-0.396636 0.75,-0.394532 0.06373,0.0018 0.500402,-0.177243 0.533204,-0.21875 0.04116,-0.05208 0.337734,-0.10512 0.734374,-0.130859 0.165037,-0.01071 0.314612,-0.03537 0.332032,-0.05274 0.01742,-0.01735 0.05683,-0.03125 0.08984,-0.03125 0.03301,0 0.0625,-0.01175 0.0625,-0.02734 0,-0.01559 -0.109243,-0.0082 -0.242188,0.01563 -0.29145,0.05217 -0.326172,0.05313 -0.326172,0.01953 0,-0.01433 0.06788,-0.04595 0.150391,-0.07031 0.0832,-0.02457 0.15039,-0.06453 0.15039,-0.08984 0,-0.04592 0.22645,-0.180258 0.306641,-0.181641 0.06233,-0.001 0.21296,-0.122978 0.185547,-0.15039 -0.01278,-0.01277 -0.09228,-0.0059 -0.177735,0.01562 -0.178157,0.04486 -0.200201,0.03617 -0.148437,-0.06055 0.03053,-0.05705 0.06803,-0.07031 0.212891,-0.07031 0.1501,0 0.181963,-0.01045 0.21289,-0.07422 0.07061,-0.145583 0.07707,-0.252959 0.01953,-0.285156 -0.05941,-0.033248 -0.08195,-0.01146 0.402343,-0.3808592 0.22257,-0.1697674 0.298699,-0.2597657 0.220703,-0.2597657 -0.02045,0 -0.147252,0.082739 -0.28125,0.1835938 -0.133998,0.1008551 -0.258526,0.1835937 -0.277343,0.1835937 -0.01882,0 -0.07587,0.03208 -0.126953,0.072266 -0.05109,0.040185 -0.176629,0.1133286 -0.279297,0.1621094 -0.102668,0.048781 -0.25342,0.140002 -0.335938,0.203125 -0.223239,0.17077 -0.247459,0.182703 -0.205078,0.103515 0.01952,-0.03648 0.02651,-0.07505 0.01563,-0.08594 -0.02086,-0.02086 -0.09406,0.04068 -0.417969,0.353515 -0.109172,0.10544 -0.207844,0.191407 -0.220703,0.191407 -0.01286,0 -0.104203,0.08274 -0.203125,0.183593 -0.09892,0.100856 -0.195253,0.183594 -0.212891,0.183594 -0.01764,0 -0.08816,-0.0639 -0.15625,-0.140625 -0.146171,-0.164716 -0.211039,-0.123904 -0.06836,0.04297 0.0535,0.06258 0.09886,0.131939 0.09961,0.154297 0.0012,0.0353 -0.334321,0.27539 -0.384765,0.27539 -0.01022,0 -0.102647,0.06142 -0.205078,0.134766 -0.202334,0.144888 -0.242188,0.157816 -0.242188,0.08398 0,-0.02659 -0.02455,-0.06126 -0.05469,-0.07813 -0.04712,-0.02637 -0.01157,-0.100752 0.253906,-0.527343 0.296132,-0.475853 0.446438,-0.681531 0.677734,-0.921875 0.05854,-0.06083 0.136565,-0.1478445 0.173828,-0.1933594 0.03726,-0.045515 0.120002,-0.123801 0.183594,-0.1757812 l 0.117188,-0.095703 -0.101563,0.023437 -0.09961,0.021484 0.07422,-0.078125 c 0.04126,-0.043933 0.07617,-0.1022492 0.07617,-0.1289063 0,-0.026657 0.110719,-0.1596784 0.248047,-0.296875 0.137328,-0.1371966 0.291478,-0.303007 0.341797,-0.3671875 l 0.0918,-0.1152344 -0.173828,0.1230469 c -0.187755,0.1344834 -0.203752,0.1320318 -0.105469,-0.023437 0.03478,-0.055011 0.08657,-0.1461599 0.117188,-0.2011719 0.03062,-0.055011 0.07144,-0.1115277 0.0918,-0.125 0.0246,-0.016278 0.02204,-0.023098 -0.0098,-0.023437 -0.02633,-2.667e-4 -0.08263,0.03051 -0.125,0.070312 -0.10805,0.1015076 -0.128074,0.058531 -0.02734,-0.058594 0.04592,-0.053389 0.08395,-0.1306161 0.08399,-0.171875 2.2e-5,-0.041259 0.0168,-0.074219 0.03711,-0.074219 0.0203,0 0.02692,-0.023308 0.01563,-0.052734 -0.02205,-0.05746 0.03679,-0.3031756 0.08984,-0.3730468 0.03768,-0.049629 0.0094,-0.091671 -0.04102,-0.060547 -0.01904,0.011764 -0.06482,0.084935 -0.101562,0.1621094 -0.03674,0.077174 -0.07859,0.1639002 -0.0957,0.1914062 -0.0171,0.027506 -0.08004,0.1612985 -0.138671,0.2988281 -0.05862,0.1375297 -0.116621,0.2584096 -0.13086,0.2675782 -0.01424,0.00917 -0.08107,0.1253219 -0.148437,0.2578125 -0.06737,0.1324905 -0.136713,0.2488983 -0.154297,0.2597656 -0.01758,0.010868 -0.06502,0.080795 -0.103516,0.15625 l -0.0703,0.138692 L 13.302734,9.375 13.25,9.2597656 13.238281,9.4082031 c -0.0078,0.098708 -0.0434,0.1884517 -0.105469,0.2675781 -0.05119,0.065273 -0.117119,0.1637382 -0.146484,0.21875 -0.02937,0.055011 -0.05422,0.076334 -0.05469,0.048828 -0.0013,-0.072793 0.209119,-0.6897378 0.294921,-0.8652344 0.06845,-0.1399939 0.161629,-0.6879795 0.123047,-0.7265625 -0.0092,-0.00923 -0.02327,0.00375 -0.03125,0.029297 -0.008,0.025546 -0.03278,0.097824 -0.05273,0.1601562 -0.01995,0.062333 -0.03516,0.1458844 -0.03516,0.1855469 0,0.039662 -0.03322,0.1379328 -0.07227,0.21875 -0.09223,0.1909036 -0.195312,0.4921633 -0.195312,0.5703125 0,0.1011495 -0.05884,0.069585 -0.08399,-0.044922 C 12.866034,9.4121349 12.815264,9.2731616 12.765613,9.1621092 12.715963,9.0510569 12.658877,8.922796 12.63866,8.8769529 l -0.03711,-0.083984 -0.002,0.083984 c -0.001,0.045843 0.03643,0.163775 0.08203,0.2617188 0.129376,0.2779118 0.181226,0.5311056 0.148437,0.7050781 -0.01552,0.082359 -0.02142,0.1593372 -0.01367,0.1718752 0.0078,0.01254 0.0012,0.05893 -0.01563,0.101563 -0.01681,0.04263 -0.05711,0.149226 -0.08789,0.236328 -0.03078,0.0871 -0.06762,0.15625 -0.08203,0.15625 -0.0144,0 -0.0328,-0.06085 -0.04297,-0.136719 -0.01018,-0.07587 -0.04397,-0.161838 -0.07422,-0.191406 -0.05096,-0.04981 -0.05467,-0.04545 -0.0332,0.07813 0.01275,0.07335 0.02695,0.14963 0.0293,0.167968 0.0042,0.03327 -0.01606,0.03273 -0.257813,-0.0059 -0.125986,-0.02013 -0.126992,-0.0224 -0.107422,-0.140625 0.01095,-0.06612 0.03198,-0.265229 0.04883,-0.4414064 0.03477,-0.3635712 0.0823,-0.5551289 0.177735,-0.7421876 0.04907,-0.096182 0.05487,-0.1360759 0.02539,-0.1542968 -0.02911,-0.017989 -0.02996,-0.041142 -0.0039,-0.089844 0.01958,-0.036595 0.02525,-0.076311 0.01367,-0.087891 -0.01158,-0.011579 -0.003,-0.021484 0.01953,-0.021484 0.02248,0 0.03282,-0.014865 0.02149,-0.033203 -0.01133,-0.018338 0.0026,-0.033203 0.03125,-0.033203 0.05807,0 0.06849,-0.052523 0.01758,-0.083984 -0.02095,-0.012948 -0.01481,-0.061908 0.01563,-0.1347656 0.05348,-0.1279943 0.05401,-0.1267941 -0.05859,-0.083984 -0.0524,0.019922 -0.08649,0.065238 -0.09961,0.1308594 -0.01113,0.055678 -0.07388,0.2119894 -0.136719,0.3457031 -0.109057,0.232031 -0.174387,0.4425487 -0.158203,0.5039063 0.0042,0.015683 -0.0067,0.045415 -0.02344,0.066406 -0.03224,0.040477 -0.02653,0.1530166 0.01953,0.3710938 0.01732,0.081989 0.01311,0.2129528 -0.0098,0.3359368 l -0.03516,0.199219 -0.04492,-0.148437 c -0.02332,-0.08124 -0.03225,-0.1904794 -0.02149,-0.2421876 0.01077,-0.051708 0.02832,-0.1360296 0.03906,-0.1875 0.01292,-0.061964 0.0018,-0.1073546 -0.03125,-0.1347656 -0.073,-0.060583 -0.08964,-0.00932 -0.09375,0.2851562 l -0.002,0.259765 -0.05274,-0.140625 c -0.02901,-0.077934 -0.06359,-0.1425775 -0.07617,-0.1425775 -0.05467,0 -0.06067,0.1175862 -0.0098,0.1953125 0.03054,0.04661 0.0608,0.13771 0.06641,0.203125 0.0056,0.06541 0.04176,0.230032 0.08008,0.365234 0.05061,0.178575 0.06558,0.319359 0.05859,0.513672 l -0.0098,0.265625 -0.123047,0.01367 c -0.117931,0.01201 -0.129306,0.0045 -0.242187,-0.171875 -0.06502,-0.101639 -0.117188,-0.191721 -0.117187,-0.199219 0,-0.0075 -0.05443,-0.104887 -0.121094,-0.216797 -0.06667,-0.11191 -0.114491,-0.207269 -0.107422,-0.212891 0.007,-0.0056 0.120537,-0.04581 0.253906,-0.08789 0.133368,-0.04208 0.251892,-0.08957 0.261719,-0.105469 0.03421,-0.05535 -0.171531,-0.02764 -0.357422,0.04883 l -0.1875,0.07813 -0.05664,-0.169922 c -0.06289,-0.185497 -0.08722,-0.251719 -0.152343,-0.402343 -0.02378,-0.055012 -0.05356,-0.2668881 -0.06445,-0.4707031 -0.01807,-0.3382084 -0.02933,-0.3844067 -0.123047,-0.5351563 -0.05647,-0.090846 -0.111995,-0.2079504 -0.125,-0.2597656 -0.02468,-0.09835 -0.06978,-0.084654 -0.09766,0.03125 -0.0088,0.036675 -0.0174,0.00955 -0.01953,-0.0625 C 10.004555,8.1486128 9.8505472,7.9699277 9.5078125,7.2402344 9.4696268,7.1980395 9.4351853,7.1775424 9.4082031,7.1796875 Z m 4.5859379,1.6210937 c -0.0039,0.020612 -0.0249,0.060867 -0.0625,0.109375 -0.0614,0.079211 -0.06488,0.080014 -0.04687,0.00977 0.01042,-0.040658 0.03893,-0.092098 0.06445,-0.1132813 0.03367,-0.027945 0.04886,-0.026475 0.04492,-0.00586 z m -3.416016,0.050781 c 0.0092,-0.00917 0.02524,0.00815 0.03711,0.039063 0.01187,0.030921 0.0151,0.063097 0.0059,0.072266 -0.0092,0.00917 -0.02719,-0.00815 -0.03906,-0.039063 -0.01187,-0.030921 -0.01309,-0.063097 -0.0039,-0.072266 z m -0.01953,0.25 c 0.01904,0.018385 0.04789,0.080549 0.08398,0.1894531 0.06424,0.1939019 0.06176,0.1855469 0.01953,0.1855469 -0.01834,0 -0.0332,-0.019661 -0.0332,-0.044922 0,-0.02526 -0.02133,-0.065064 -0.04883,-0.087891 -0.0275,-0.022828 -0.05079,-0.094553 -0.05078,-0.1601562 0,-0.074068 0.01026,-0.1004163 0.0293,-0.082031 z m 0.185547,0.050781 c 0.03456,-0.034561 0.05758,0.01521 0.04492,0.095703 L 10.777344,9.3261719 10.75,9.2480469 c -0.01476,-0.042641 -0.01674,-0.08486 -0.0059,-0.095703 z m -0.02539,0.71875 c 0.0096,0.024068 0.0091,0.051421 -0.002,0.0625 -0.01108,0.011079 -0.02098,-0.00782 -0.01953,-0.042969 0.0016,-0.03884 0.01089,-0.046127 0.02148,-0.019531 z m 4.664062,0.3398438 c -0.02859,0 -0.05273,0.01487 -0.05273,0.0332 0,0.01834 0.01399,0.0332 0.03125,0.0332 0.01726,0 0.04139,-0.01487 0.05273,-0.0332 0.01133,-0.01834 -0.0026,-0.0332 -0.03125,-0.0332 z m -0.74414,0.214843 c 0.05035,-0.01306 0.0918,-0.01165 0.0918,0.01367 0,0.02032 -0.01163,0.03961 -0.02539,0.04102 -0.0488,0.005 -0.125628,0.02454 -0.191406,0.04883 -0.05982,0.02209 -0.06244,0.01785 -0.01758,-0.0293 0.032,-0.03362 0.09223,-0.06116 0.142578,-0.07422 z m -2.523438,0.04297 c 0.02108,-0.02108 0.308752,0.06783 0.367188,0.113281 0.09051,0.07039 -0.103219,0.747229 -0.244141,0.853516 -0.0644,0.04857 -0.06753,0.04939 -0.166015,0.002 -0.07011,-0.03383 -0.07313,-0.05151 -0.05469,-0.273438 0.01081,-0.1302 0.03237,-0.289335 0.04883,-0.353515 0.01646,-0.06418 0.03115,-0.162209 0.03125,-0.21875 1e-4,-0.05654 0.0069,-0.110477 0.01758,-0.121094 z m 2.300782,0.04102 c 0.0081,0 0.01563,0.01683 0.01563,0.03516 0,0.01834 -0.01769,0.0332 -0.03711,0.0332 -0.01942,0 -0.025,-0.01487 -0.01367,-0.0332 0.01133,-0.01834 0.02708,-0.03516 0.03516,-0.03516 z m -0.369141,0.06445 c 0.0028,0.0116 -0.02848,0.05642 -0.09375,0.128906 -0.05825,0.0647 -0.15625,0.102414 -0.15625,0.06055 0,-0.0076 0.06339,-0.06386 0.140625,-0.125 0.0695,-0.05501 0.10656,-0.07605 0.109375,-0.06445 z m 0.507813,0.05469 c 0.06541,-0.01312 0.109398,-0.01448 0.109374,0.0039 -3.3e-5,0.03076 -0.310225,0.210938 -0.363281,0.210938 -0.01965,0 -0.0251,-0.0249 -0.01367,-0.05469 0.01853,-0.04828 0.01033,-0.04764 -0.06836,0.0039 -0.04852,0.0318 -0.07826,0.07459 -0.06641,0.09375 0.01185,0.01917 0.007,0.02521 -0.01172,0.01367 -0.01868,-0.01154 -0.09496,0.0068 -0.169922,0.04297 -0.157514,0.0761 -0.163977,0.07758 -0.191406,0.0332 -0.01133,-0.01834 0.003,-0.0332 0.0293,-0.0332 0.02634,0 0.06409,-0.02055 0.08594,-0.04687 0.06379,-0.07686 0.463937,-0.228229 0.660157,-0.267578 z m -0.806641,0.189453 c 0.0088,0.0088 -0.01399,0.04287 -0.05078,0.07617 -0.03679,0.03329 -0.06641,0.04432 -0.06641,0.02539 0,-0.04195 0.09479,-0.123966 0.117188,-0.101563 z m 1.326172,0.625 c -0.01929,0 -0.05686,0.02609 -0.08203,0.05664 -0.02517,0.03054 -0.119251,0.103387 -0.210938,0.162109 -0.145037,0.09289 -0.20573,0.110584 -0.466797,0.128907 -0.165034,0.01158 -0.407976,0.02792 -0.539062,0.03906 -0.222087,0.01888 -0.240942,0.01664 -0.261719,-0.04883 -0.0301,-0.09484 -0.08399,-0.08823 -0.08398,0.0098 0,0.06927 -0.01945,0.08008 -0.158204,0.09766 -0.0871,0.01103 -0.296594,0.03728 -0.466796,0.05859 -0.170202,0.02131 -0.303937,0.04567 -0.294922,0.05469 0.009,0.009 0.215279,0.02047 0.458984,0.02539 l 0.443359,0.0098 0.01172,0.105469 c 0.0136,0.134778 0.06389,0.129297 0.09961,-0.0078 0.02478,-0.09516 0.03914,-0.105399 0.125,-0.0957 0.05377,0.0061 0.131262,0.03062 0.171874,0.05664 0.04061,0.02602 0.09548,0.04883 0.121094,0.04883 0.04207,0 0.492499,0.433397 0.513672,0.494141 0.02714,0.07788 -0.639513,0.171323 -0.880859,0.123047 -0.1181,-0.02363 -0.100303,-0.0306 0.240234,-0.09766 0.388172,-0.07644 0.520653,-0.126234 0.453125,-0.167968 -0.02157,-0.01333 -0.06511,-0.0149 -0.09375,-0.0039 -0.164701,0.0632 -0.745396,0.158111 -0.886719,0.144531 -0.151284,-0.01454 -0.709056,-0.26237 -0.761718,-0.337891 -0.01163,-0.01668 -0.04032,-0.02368 -0.06445,-0.01563 -0.02617,0.0087 0.01899,0.06262 0.113281,0.130859 0.08699,0.06295 0.239059,0.177927 0.33789,0.25586 0.09883,0.07794 0.195271,0.140625 0.214844,0.140625 0.05815,0 0.04231,0.05205 -0.04883,0.150391 -0.05297,0.05716 -0.07388,0.103853 -0.05469,0.123046 0.01919,0.01919 0.06415,-0.0073 0.117187,-0.07031 0.04722,-0.05612 0.100417,-0.101563 0.117187,-0.101563 0.01677,0 0.08884,0.04262 0.16211,0.0957 0.07327,0.05308 0.181954,0.124183 0.242187,0.158204 0.386727,0.218443 0.833985,0.565312 0.833985,0.646484 0,0.03237 -0.243365,0.09961 -0.361328,0.09961 -0.233173,0 -0.423714,-0.06979 -0.605469,-0.21875 -0.09992,-0.08189 -0.279246,-0.2133 -0.398438,-0.292968 -0.31581,-0.211083 -0.539751,-0.425172 -0.703125,-0.671875 -0.07924,-0.119658 -0.157023,-0.216797 -0.171875,-0.216797 -0.04228,0 -0.03333,0.02128 0.08789,0.242187 0.277853,0.506364 0.289314,0.536643 0.226562,0.583985 -0.03145,0.02373 -0.134197,0.06769 -0.230468,0.0957 -0.174623,0.05079 -0.235075,0.111328 -0.109375,0.111328 0.03648,0 0.141134,-0.02977 0.232422,-0.06445 0.192912,-0.0733 0.197673,-0.06868 0.283203,0.197265 0.03243,0.100855 0.07012,0.208118 0.08398,0.236328 0.01385,0.02821 0.03432,0.117406 0.04687,0.199219 0.01256,0.08181 0.03642,0.184626 0.05274,0.230469 0.0163,0.04585 0.03786,0.21973 0.04687,0.384766 0.009,0.165035 0.04136,0.373594 0.07031,0.464843 0.02895,0.09125 0.04412,0.185626 0.03516,0.208985 -0.0097,0.02533 0.0086,0.04297 0.04687,0.04297 0.07156,0 0.07394,0.0033 0.152344,0.580079 0.05856,0.430818 0.09816,0.516161 0.06445,0.136718 -0.03317,-0.373403 0.03808,-0.291872 0.103516,0.119141 0.0275,0.172721 0.06475,0.388784 0.08398,0.480469 0.01923,0.09169 0.0428,0.225164 0.05274,0.296875 0.03751,0.270979 0.06694,0.02632 0.03906,-0.328125 -0.02759,-0.350808 -0.01866,-0.46409 0.02539,-0.332031 0.04775,0.143164 0.142985,0.326828 0.144531,0.277343 0.0015,-0.04797 -0.05311,-0.188135 -0.13086,-0.333984 -0.01591,-0.02983 -0.03725,-0.112571 -0.04883,-0.183594 l -0.02344,-0.128906 0.06641,0.07227 c 0.03581,0.04079 0.10372,0.121903 0.152344,0.179688 0.150133,0.178423 0.13421,0.0822 -0.04102,-0.234375 -0.08591,-0.155212 -0.108133,-0.210231 -0.0918,-0.226563 0.01001,-0.01001 0.02749,0.007 0.03906,0.03711 0.01156,0.03013 0.0344,0.05469 0.05078,0.05469 0.06322,0 0.02395,-0.07197 -0.09961,-0.183593 -0.08736,-0.07893 -0.153754,-0.183457 -0.205078,-0.324219 -0.04163,-0.114151 -0.115565,-0.297595 -0.166016,-0.408203 -0.101035,-0.221513 -0.250021,-0.644498 -0.28125,-0.800782 -0.01926,-0.09639 -0.01838,-0.09746 0.0332,-0.0332 0.05018,0.0625 0.279668,0.526767 0.326172,0.660157 0.01159,0.03325 0.03496,0.05198 0.05273,0.04101 0.02079,-0.01284 0.02124,-0.05157 0,-0.107422 -0.05408,-0.142239 -0.02153,-0.118056 0.101563,0.07422 0.192831,0.301209 0.196475,0.304345 0.228515,0.25586 0.02081,-0.03149 0.07875,0.01302 0.212891,0.166015 0.101228,0.115451 0.194019,0.243897 0.207031,0.285156 0.02555,0.08102 0.06943,0.09737 0.105469,0.03906 0.01241,-0.02008 -0.01227,-0.08201 -0.05273,-0.136719 -0.04045,-0.05471 -0.06457,-0.107297 -0.05469,-0.117187 0.0099,-0.0099 0.09297,0.0078 0.185547,0.04101 0.126986,0.04566 0.169122,0.07924 0.169922,0.13086 0.01213,0.01648 0.02482,0.02335 0.03711,0.03711 l 0.03125,-0.119141 -0.185547,-0.248047 c -0.01005,0.01123 -0.03311,0.03168 -0.03906,0.04102 -0.08219,0.0056 -0.179742,-0.02007 -0.273438,-0.06836 -0.14855,-0.07656 -0.188852,-0.112836 -0.59375,-0.560547 C 13.144651,14.174611 12.741483,13.582531 12.775391,13.5 c 0.0085,-0.02075 0.01809,-0.01256 0.01953,0.01953 0.0014,0.03209 0.01472,0.05859 0.03125,0.05859 0.01653,0 0.0663,0.05541 0.109375,0.123047 0.132168,0.207554 0.143343,0.224164 0.228515,0.322266 0.04542,0.05231 0.122964,0.14152 0.171876,0.199218 0.136895,0.161485 0.148492,0.08287 0.01367,-0.09375 -0.156622,-0.205184 -0.298918,-0.449127 -0.27539,-0.472656 0.02013,-0.02013 0.523437,0.646511 0.523437,0.693359 0,0.01549 0.02133,0.0293 0.04883,0.0293 0.0785,0 0.06276,-0.03429 -0.132812,-0.279297 -0.100753,-0.126218 -0.183594,-0.236829 -0.183594,-0.24414 0,-0.0073 0.141919,0.09951 0.314453,0.238281 0.289985,0.233241 0.314837,0.26683 0.351563,0.419922 0.02185,0.09108 0.05503,0.172939 0.07226,0.183594 0.01724,0.01065 0.02288,0.04885 0.01172,0.08398 -0.01133,0.0357 -0.0043,0.06445 0.01563,0.06445 0.03687,0 0.05031,-0.0902 0.03711,-0.234375 l -0.0078,-0.08203 0.09961,0.09375 c 0.09938,0.09497 0.185704,0.07242 0.08984,-0.02344 -0.07336,-0.07336 -0.06187,-0.09158 0.03516,-0.05469 0.107067,0.04071 0.28125,0.04362 0.28125,0.0039 0,-0.03436 -0.08243,-0.07031 -0.160156,-0.07031 -0.08834,0 -0.339844,-0.136063 -0.339844,-0.183594 0,-0.02435 -0.06465,-0.09895 -0.142578,-0.166016 l -0.140625,-0.121094 0.166016,0.02149 c 0.09169,0.01261 0.286381,0.02128 0.433594,0.01953 l 0.267578,-0.002 0.103515,0.15625 c 0.05657,0.08676 0.114581,0.194534 0.128907,0.240234 0.0044,0.01404 0.0034,0.01425 0.0059,0.02344 0,0 0.1774,0.157166 0.25,0.25 0.130617,0.167019 0.328125,0.544922 0.328125,0.544922 v 0.01758 c 0.07243,0.03947 0.175398,9.63e-4 0.15625,-0.07227 -0.01889,-0.07224 0.04329,-0.261719 0.08594,-0.261719 0.0154,0 0.01647,-0.01672 0.0039,-0.03711 -0.0126,-0.02039 -0.0019,-0.04977 0.02344,-0.06641 0.03749,-0.02467 0.03522,-0.0398 -0.01758,-0.08008 -0.05404,-0.04124 -0.05693,-0.05078 -0.01172,-0.05078 0.02978,0 0.110117,0.06787 0.177735,0.15039 0.06762,0.08252 0.136215,0.150391 0.152343,0.150391 0.04789,0 0.03186,-0.07304 -0.0293,-0.140625 -0.04857,-0.05367 -0.04854,-0.06664 -0.0078,-0.0918 0.0395,-0.02441 0.0347,-0.04699 -0.03125,-0.117188 -0.0879,-0.09356 -0.07708,-0.141234 0.01953,-0.08594 0.03387,0.01939 0.136829,0.06329 0.228516,0.09766 0.09169,0.03436 0.242297,0.09212 0.333984,0.128906 0.101299,0.04065 0.191902,0.05756 0.232422,0.04297 l 0.002,-0.002 c 0.007,-0.01213 0.01454,-0.02298 0.02148,-0.03516 -0.01375,-0.01432 -0.04438,-0.0326 -0.105469,-0.06445 -0.08252,-0.04302 -0.261922,-0.12925 -0.398437,-0.189453 -0.136517,-0.0602 -0.274214,-0.133595 -0.302735,-0.164063 -0.04741,-0.05065 -0.04535,-0.05318 0.01563,-0.0293 0.03667,0.01436 0.111613,0.03373 0.166016,0.04297 0.08551,0.01452 0.09306,0.01091 0.05078,-0.0293 -0.101664,-0.09671 -0.296407,-0.230469 -0.335937,-0.230469 -0.06849,0 -0.0034,-0.04231 0.07812,-0.05078 0.04184,-0.0043 0.08586,-0.0094 0.09961,-0.01172 0.04124,-0.007 0.02924,-0.09713 -0.01563,-0.115234 -0.02292,-0.0092 3.58e-4,-0.01809 0.05078,-0.01953 0.05043,-0.0014 0.08984,-0.01491 0.08984,-0.03125 0,-0.01635 0.04164,-0.04209 0.0918,-0.05469 0.07929,-0.0199 0.08318,-0.02671 0.0332,-0.05469 -0.03792,-0.02122 -0.09945,-0.01738 -0.183594,0.0078 -0.134131,0.04019 -0.37877,0.02839 -0.658203,-0.03125 -0.09169,-0.01957 -0.251982,-0.04554 -0.357422,-0.05664 -0.180701,-0.01901 -0.273727,-0.08203 -0.121094,-0.08203 0.05414,0 0.06611,-0.01527 0.05274,-0.06641 -0.0096,-0.03665 -0.0037,-0.07521 0.01367,-0.08594 0.01736,-0.01073 0.02359,-0.05046 0.01172,-0.08789 -0.0144,-0.04537 -0.01094,-0.06013 0.01367,-0.04492 0.0748,0.04623 0.0341,-0.03278 -0.05469,-0.105469 -0.0725,-0.05936 -0.07934,-0.07328 -0.0332,-0.07422 0.08835,-0.0018 0.07126,-0.03789 -0.09375,-0.197266 -0.164461,-0.15884 -0.171788,-0.19136 -0.0332,-0.138672 0.140326,0.05335 0.216975,0.0341 0.08594,-0.02148 -0.06418,-0.02723 -0.158556,-0.06629 -0.208984,-0.08789 -0.116454,-0.04987 -0.115857,-0.0726 0.0059,-0.123047 0.08122,-0.03364 0.128351,-0.02931 0.269531,0.01758 0.211115,0.07012 0.249082,0.04898 0.0625,-0.03516 l -0.138672,-0.0625 0.226563,-0.07031 c 0.271529,-0.08149 0.307935,-0.134801 0.109375,-0.164063 -0.225375,-0.03322 -0.427734,-0.09131 -0.427734,-0.123047 0,-0.01595 0.01163,-0.03045 0.02539,-0.03125 0.01376,-7.99e-4 0.09326,-0.01515 0.175781,-0.03125 0.130175,-0.0254 0.183433,-0.01575 0.400391,0.07227 0.13753,0.05579 0.279731,0.106219 0.316406,0.111328 0.03667,0.0051 0.147355,0.04085 0.246094,0.08008 0.09874,0.03923 0.195362,0.06705 0.214844,0.06055 0.03589,-0.01197 -0.678856,-0.324219 -0.742188,-0.324219 -0.0189,0 -0.03516,-0.01487 -0.03516,-0.0332 0,-0.04177 0.224678,-0.04473 0.353516,-0.0039 0.05317,0.01682 0.163575,0.04044 0.246093,0.05078 l 0.150391,0.01758 -0.09961,-0.04883 c -0.09962,-0.04931 -0.09963,-0.04869 0.06641,-0.03125 0.435569,0.04575 0.677363,0.04213 0.697265,-0.0098 0.02405,-0.06268 0.04315,-0.05477 -0.214843,-0.103515 -0.258957,-0.04892 -0.598134,-0.163987 -0.666016,-0.226563 -0.0421,-0.03881 -0.03766,-0.04644 0.0332,-0.04687 0.04519,-2.66e-4 0.103869,-0.01418 0.13086,-0.03125 0.07325,-0.04632 -0.03591,-0.08029 -0.181641,-0.05664 -0.07107,0.01153 -0.115234,0.0063 -0.115234,-0.01563 0,-0.02393 -0.07757,-0.02893 -0.232422,-0.01367 -0.156954,0.01547 -0.231853,0.0095 -0.240235,-0.01563 -0.0081,-0.02426 -0.06378,-0.01335 -0.162109,0.03125 -0.145722,0.0661 -0.333984,0.09267 -0.333984,0.04687 0,-0.01257 0.03435,-0.05717 0.07422,-0.09961 0.03987,-0.04244 0.0564,-0.07813 0.03711,-0.07813 z m 1.074219,0 c -0.02967,0 -0.0465,0.01683 -0.03516,0.03516 0.01133,0.01834 0.02816,0.0332 0.03516,0.0332 0.007,0 0.02188,-0.01487 0.0332,-0.0332 0.01133,-0.01834 -0.0035,-0.03516 -0.0332,-0.03516 z m -0.410157,0.167969 c 0.09956,-5.53e-4 0.117378,0.01592 0.04687,0.04297 -0.02459,0.0094 -0.06596,0.0047 -0.0918,-0.01172 -0.0342,-0.02164 -0.0218,-0.03088 0.04492,-0.03125 z m 0.121094,0.166016 c 0.15757,5.9e-4 0.513936,0.108212 0.53125,0.160156 0.01476,0.04428 -0.0052,0.04528 -0.226563,0.0059 -0.08252,-0.01468 -0.219302,-0.02794 -0.304687,-0.0293 -0.138294,-0.0022 -0.154205,-0.009 -0.138672,-0.06836 0.01344,-0.05137 0.04536,-0.06871 0.138672,-0.06836 z m -6.6367188,0.111328 c 0.024068,-0.0096 0.053374,-0.0091 0.064453,0.002 0.011079,0.01108 -0.00782,0.01903 -0.042969,0.01758 -0.03884,-0.0016 -0.04808,-0.0089 -0.021484,-0.01953 z m 5.4999998,0.06445 c 0.07842,-0.007 0.199298,-0.0072 0.267578,0 0.06828,0.0072 0.0042,0.01379 -0.142578,0.01367 -0.146698,-1.33e-4 -0.203418,-0.0066 -0.125,-0.01367 z m -0.583984,0.02539 c 0.06066,4.14e-4 0.06582,0.0052 0.02539,0.03125 -0.06464,0.04177 -0.09961,0.04177 -0.09961,0 0,-0.01834 0.03296,-0.03154 0.07422,-0.03125 z m 0.486328,0.0332 c 0.04406,-0.0011 0.114954,0.007 0.220703,0.02148 l 0.158203,0.02149 -0.107422,0.04492 c -0.05891,0.02477 -0.108849,0.04485 -0.111328,0.04297 -0.0025,-0.0018 -0.05369,-0.01994 -0.113281,-0.03906 -0.05959,-0.01912 -0.109374,-0.04681 -0.109375,-0.0625 0,-0.01707 0.01844,-0.02823 0.0625,-0.0293 z m -0.244141,0.05273 c 0.07051,0.0061 0.143532,0.02829 0.173829,0.05859 0.05155,0.05155 0.04911,0.05446 -0.04297,0.05078 -0.05436,-0.0022 -0.142252,-0.01363 -0.197266,-0.02539 -0.05501,-0.01177 -0.09315,-0.03458 -0.08398,-0.05274 0.01338,-0.0265 0.07989,-0.03739 0.15039,-0.03125 z m -5.4101559,0.08984 c 0.03209,-0.0084 0.085098,-0.0084 0.1171875,0 0.03209,0.0084 0.00559,0.01563 -0.058594,0.01563 -0.064181,0 -0.090684,-0.0072 -0.058594,-0.01563 z m 5.6171879,0.06445 c 0.180469,-0.009 0.576171,0.07625 0.576171,0.125 0,0.02328 -0.303755,0.101563 -0.396484,0.101562 -0.03168,0 -0.126782,-0.04695 -0.21289,-0.101562 -0.08611,-0.05461 -0.156375,-0.102433 -0.15625,-0.107422 1.32e-4,-0.005 0.08425,-0.01236 0.189453,-0.01758 z m -3.09961,0.08789 0.08594,0.08008 0.08594,0.07813 -0.06641,0.09766 c -0.03583,0.05387 -0.165486,0.277419 -0.289062,0.496094 -0.140172,0.248036 -0.300692,0.475968 -0.425782,0.607422 -0.110285,0.115894 -0.185897,0.216681 -0.167968,0.222656 0.06316,0.02105 -0.343024,0.455078 -0.425782,0.455078 -0.0088,0 -0.02145,-0.03941 -0.03125,-0.08984 -0.02148,-0.110538 0.02164,-0.35942 0.0918,-0.527344 0.02817,-0.06742 0.04883,-0.149295 0.04883,-0.18164 0,-0.04469 0.193619,-0.374413 0.292969,-0.5 0.0067,-0.0085 0.03923,0.0035 0.07422,0.02539 0.03634,0.0227 0.07326,0.02708 0.08398,0.0098 0.01032,-0.0167 0.003,-0.03926 -0.01563,-0.05078 -0.01864,-0.01152 -0.0332,-0.04382 -0.0332,-0.07031 0,-0.05677 0.395883,-0.452956 0.570313,-0.570312 z m 2.986328,0.138671 c 0.01817,-0.01174 0.06007,-0.0063 0.121094,0.01953 0.092,0.03892 0.107486,0.05728 0.06836,0.08203 -0.07023,0.04441 -0.119374,0.03861 -0.166015,-0.01758 -0.03526,-0.04248 -0.0416,-0.07223 -0.02344,-0.08399 z m 0.05469,0.314454 c 0.02666,2.35e-4 0.03774,0.01322 0.05664,0.03906 0.0224,0.03064 0.03809,0.06316 0.03125,0.07422 -0.02134,0.03454 -0.386719,0.04381 -0.386719,0.0098 0,-0.01766 0.07118,-0.05628 0.158203,-0.08594 0.07343,-0.02502 0.113964,-0.03735 0.140625,-0.03711 z m -1.125,0.09375 c 0.0043,-0.0042 0.02805,0.0019 0.07617,0.01172 0.05501,0.01128 0.182348,0.04504 0.283203,0.07813 0.199756,0.06552 0.599609,0.111697 0.599609,0.06836 0,-0.01483 0.07607,-0.0327 0.169922,-0.03906 0.1703,-0.01153 0.171806,-0.01113 0.332031,0.173828 0.08829,0.101923 0.171205,0.226032 0.183594,0.275391 0.01239,0.04936 0.01631,0.0887 0.0098,0.08789 -0.0066,-7.99e-4 -0.07119,-0.02263 -0.144532,-0.04883 -0.07335,-0.02619 -0.198041,-0.05639 -0.277343,-0.06836 -0.0793,-0.01197 -0.229915,-0.05065 -0.333985,-0.08398 l -0.189453,-0.06055 0.253907,0.01953 c 0.168561,0.01255 0.277649,0.0055 0.328124,-0.02148 0.131753,-0.07051 0.03034,-0.103054 -0.380859,-0.119141 -0.21749,-0.0085 -0.42901,-0.02438 -0.466797,-0.03516 -0.111806,-0.0319 -0.328652,-0.13803 -0.40039,-0.195313 -0.03208,-0.02562 -0.04729,-0.03872 -0.04297,-0.04297 z m -6.0507814,0.238281 c -0.011176,-0.01117 -0.038582,0.01576 -0.060547,0.05859 -0.038179,0.07444 -0.03612,0.07456 0.021484,0.01953 0.033141,-0.03165 0.050238,-0.06696 0.039063,-0.07813 z m 3.0351564,0.03516 c 0.01806,0.01806 -0.07618,0.119141 -0.111328,0.119141 -0.01332,0 0.0019,-0.03157 0.03516,-0.06836 0.03329,-0.03679 0.06776,-0.05918 0.07617,-0.05078 z m -0.181641,0.306641 c 0.0123,0.0123 -0.0028,0.0504 -0.0332,0.08398 -0.05831,0.06443 -0.111328,0.0785 -0.111328,0.03125 0,-0.04467 0.119784,-0.139981 0.144531,-0.115234 z m 4.34375,0.04883 c 0.01317,-0.0027 0.03729,3.64e-4 0.07422,0.0078 0.05762,0.01163 0.150065,0.03172 0.205078,0.04297 0.05501,0.01125 0.09961,0.03902 0.09961,0.06445 0,0.06002 -0.07012,0.05832 -0.125,-0.0039 -0.02364,-0.02681 -0.08742,-0.04883 -0.140626,-0.04883 -0.05321,0 -0.106284,-0.0163 -0.11914,-0.03711 -0.0082,-0.01333 -0.0072,-0.02269 0.0059,-0.02539 z m -1.386719,0.0957 c 0.0017,-0.0017 0.01458,0.0085 0.04102,0.0293 0.05553,0.04355 0.07236,0.07031 0.04492,0.07031 -0.007,0 -0.03147,-0.0265 -0.05664,-0.05859 -0.02074,-0.02644 -0.03102,-0.0393 -0.0293,-0.04102 z m 0.216797,0.15625 0.0918,0.05859 c 0.09454,0.06084 0.11141,0.08398 0.0625,0.08398 -0.0155,0 -0.05687,-0.0308 -0.0918,-0.07031 z m 2.191407,0.179687 c 0.05043,-0.0018 0.0918,0.01291 0.0918,0.03125 0,0.01834 -0.0032,0.03112 -0.0078,0.0293 -0.0046,-0.0018 -0.04596,-0.01462 -0.0918,-0.0293 l -0.08398,-0.02734 z m -0.611328,0.265626 c 0.01433,-0.0094 0.05419,0.0014 0.105468,0.04101 0.06023,0.04655 0.105891,0.191406 0.06055,0.191406 -0.01662,0 -0.0293,-0.01595 -0.0293,-0.03516 0,-0.01921 -0.04137,-0.07085 -0.0918,-0.115234 -0.04769,-0.04198 -0.05925,-0.0726 -0.04492,-0.08203 z m -3.208985,0.09375 c 0.0047,0.01077 0.0058,0.06769 0.0078,0.179687 0.0042,0.235424 -0.01438,0.283669 -0.05078,0.138672 -0.01184,-0.04718 -0.0067,-0.148013 0.01172,-0.224609 0.0167,-0.06931 0.02653,-0.104529 0.03125,-0.09375 z m -1.037109,0.0059 c 0.07102,0 0.0571,0.07834 -0.02734,0.152344 -0.163485,0.143268 -0.191406,0.159325 -0.191406,0.103515 0,-0.06905 0.159657,-0.255859 0.21875,-0.255859 z m 5.148437,0.002 c 0.0275,-10e-4 0.07211,0.01348 0.09961,0.03125 0.06095,0.03939 0.0096,0.03939 -0.08203,0 -0.04397,-0.0189 -0.05055,-0.03005 -0.01758,-0.03125 z m -3.943359,0.08789 c 0.0092,0.02292 0.0092,0.06106 0,0.08398 -0.0092,0.02292 -0.01758,0.0048 -0.01758,-0.04102 0,-0.04585 0.0083,-0.06589 0.01758,-0.04297 z m -0.933594,0.03516 c 0.0096,0.02407 0.0072,0.05338 -0.0039,0.06445 -0.01108,0.01108 -0.01903,-0.0079 -0.01758,-0.04297 0.0016,-0.03884 0.01089,-0.04808 0.02148,-0.02148 z m 0.5625,0.125 c 0.02306,-0.0079 0.0117,0.05992 -0.03516,0.181641 l -0.04492,0.117187 -0.002,-0.09961 c -7.99e-4,-0.05501 0.02191,-0.130421 0.04883,-0.166016 0.01548,-0.02047 0.02552,-0.03057 0.0332,-0.0332 z m -1.185547,0.03125 c 0.01834,-0.01133 0.03125,-0.0046 0.03125,0.01367 0,0.01833 -0.01291,0.04335 -0.03125,0.05469 -0.01834,0.01133 -0.0332,0.0046 -0.0332,-0.01367 0,-0.01834 0.01487,-0.04335 0.0332,-0.05469 z M 9.4785156,14.625 c -0.027495,0.01653 -0.048828,0.05027 -0.048828,0.08789 0,0.06757 0.00134,0.06815 0.080078,0.0098 0.0454,-0.03369 0.068749,-0.07525 0.052734,-0.0918 -0.023003,-0.02378 -0.056489,-0.02243 -0.083984,-0.0059 z m 2.1875004,0.02148 c 0.01,0.01868 0.0087,0.09472 -0.01367,0.212891 -0.03291,0.174281 -0.09043,0.284677 -0.08789,0.167969 7.77e-4,-0.03576 0.01938,-0.147191 0.04297,-0.248047 0.02602,-0.111214 0.04862,-0.151493 0.05859,-0.132813 z m 0.205078,0 c 0.03631,0 0.0199,0.123841 -0.03711,0.273438 -0.04128,0.108301 -0.103515,0.121105 -0.103515,0.02148 0,-0.09111 0.09724,-0.294922 0.140625,-0.294922 z"
       id="rect865"
       inkscape:connector-curvature="0"
       sodipodi:nodetypes="cccccccsccccccccccccccccccscccccccsccsscccccccccccccccccccccssccccsscccscscccccscccscscccccccsccccccccccccccccccsccccccccccsccccccsccccccccscccscsccccsccscccccsccscccccsssccsssccscccccccscccccsccccccccccccsccccsccccccscsccccccccccscccsccccccccccscscsccccscccsssccccscscscccscsccsccccccssccccccccccscccscccccccccccccccccscscsccccccccscccccccccccscscccccccccccscccccscccccccccccccccccccccccccccccccccsccsccsccccccccccsscccscccccccccssccssscsccsccccsccccccsccccscscccscccscccccccsccccccccccscccsccsscccscccsccccccccsccccccccccccccccsccccccccccccccccccccccsccsccsccssssccccscccscsssccccccccccccsccccsscccccccccccccccsccccscccccscccccsccccccccccsccccccssccccsccccccscccsssscscsccccccccccccccccccccsccccccccccccccccssccsccccccccsccsccsccccsccccccccccscccccscccccccccccccssccscsccscsscccscsscscsssccscccsccccccsscccccccccsscscccsscccccccsccccsssccsccccscccscsscccccccccscsccscccccccccccscc" />
    <rect
       style="opacity:1;vector-effect:none;fill:#ffffff;fill-opacity:1;fill-rule:evenodd;stroke:none;stroke-width:1.85576689;stroke-linecap:round;stroke-linejoin:round;stroke-miterlimit:4;stroke-dasharray:none;stroke-opacity:1;paint-order:stroke fill markers"
       id="rect832"
       width="3.7115338"
       height="1.8557669"
       x="-1.1025825"
       y="12.366006"
       ry="0.92788345"
       rx="1.8557669"
       transform="rotate(-41.997909)" />
    <rect
       style="opacity:1;vector-effect:none;fill:#c1816e;fill-opacity:1;fill-rule:evenodd;stroke:none;stroke-width:2;stroke-linecap:round;stroke-linejoin:round;stroke-miterlimit:4;stroke-dasharray:none;stroke-opacity:1;paint-order:stroke fill markers"
       id="rect849"
       width="2"
       height="2"
       x="11"
       y="11"
       rx="2"
       ry="1" />
  </g>
</svg>
