<?xml version="1.0" encoding="UTF-8" standalone="no"?>
<!-- Created with Inkscape (http://www.inkscape.org/) -->

<svg
   xmlns:dc="http://purl.org/dc/elements/1.1/"
   xmlns:cc="http://creativecommons.org/ns#"
   xmlns:rdf="http://www.w3.org/1999/02/22-rdf-syntax-ns#"
   xmlns:svg="http://www.w3.org/2000/svg"
   xmlns="http://www.w3.org/2000/svg"
   xmlns:xlink="http://www.w3.org/1999/xlink"
   xmlns:sodipodi="http://sodipodi.sourceforge.net/DTD/sodipodi-0.dtd"
   xmlns:inkscape="http://www.inkscape.org/namespaces/inkscape"
   width="24px"
   height="24px"
   viewBox="0 0 24 24"
   version="1.1"
   id="SVGRoot"
   inkscape:version="0.92.4 (5da689c313, 2019-01-14)"
   sodipodi:docname="urgitone-koji.svg">
  <defs
     id="defs1125">
    <linearGradient
       inkscape:collect="always"
       xlink:href="#linearGradient1763"
       id="linearGradient1573-6"
       x1="12"
       y1="2"
       x2="12"
       y2="22"
       gradientUnits="userSpaceOnUse"
       gradientTransform="matrix(1.1,0,0,1.1,-1.2,-1.2000002)" />
    <linearGradient
       inkscape:collect="always"
       id="linearGradient1763">
      <stop
         style="stop-color:#cfcfd7;stop-opacity:1"
         offset="0"
         id="stop1759" />
      <stop
         style="stop-color:#9c9cac;stop-opacity:1"
         offset="1"
         id="stop1761" />
    </linearGradient>
  </defs>
  <sodipodi:namedview
     id="base"
     pagecolor="#ffffff"
     bordercolor="#666666"
     borderopacity="1.0"
     inkscape:pageopacity="0.0"
     inkscape:pageshadow="2"
     inkscape:zoom="32"
     inkscape:cx="2.9525255"
     inkscape:cy="11.492607"
     inkscape:document-units="px"
     inkscape:current-layer="layer1"
     showgrid="true"
     inkscape:window-width="1920"
     inkscape:window-height="1017"
     inkscape:window-x="-8"
     inkscape:window-y="-8"
     inkscape:window-maximized="1"
     inkscape:grid-bbox="true"
     inkscape:snap-global="true">
    <inkscape:grid
       type="xygrid"
       id="grid1723" />
  </sodipodi:namedview>
  <metadata
     id="metadata1128">
    <rdf:RDF>
      <cc:Work
         rdf:about="">
        <dc:format>image/svg+xml</dc:format>
        <dc:type
           rdf:resource="http://purl.org/dc/dcmitype/StillImage" />
        <dc:title></dc:title>
      </cc:Work>
    </rdf:RDF>
  </metadata>
  <g
     inkscape:label="Layer 1"
     inkscape:groupmode="layer"
     id="layer1">
    <rect
       style="opacity:1;vector-effect:none;fill:url(#linearGradient1573-6);fill-opacity:1;fill-rule:evenodd;stroke:none;stroke-width:4.4000001;stroke-linecap:round;stroke-linejoin:round;stroke-miterlimit:4;stroke-dasharray:none;paint-order:stroke fill markers"
       id="rect1560-7"
       width="22"
       height="22"
       x="1"
       y="0.99999976"
       ry="4" />
    <path
       style="fill:#503433;stroke:none;stroke-width:1px;stroke-linecap:butt;stroke-linejoin:miter;stroke-opacity:1"
       d="M 9,9 C 9,9 7,11 6,15 5.3482051,17.60718 5,23 5,23 H 17 L 16,15 Z"
       id="path836"
       inkscape:connector-curvature="0"
       sodipodi:nodetypes="cscccc" />
    <path
       style="opacity:0.25;vector-effect:none;fill:#000000;fill-opacity:1;fill-rule:evenodd;stroke:none;stroke-width:4;stroke-linecap:round;stroke-linejoin:round;stroke-miterlimit:4;stroke-dasharray:none;paint-order:stroke fill markers"
       d="m 5,0.99999976 c -2.216,0 -4,1.78400004 -4,4.00000004 V 19 c 0,2.216 1.784,4 4,4 h 14 c 2.216,0 4,-1.784 4,-4 V 4.9999998 c 0,-2.216 -1.784,-4.00000004 -4,-4.00000004 z M 5,1.9999998 h 14 c 1.662,0 3,1.338 3,3 V 19 c 0,1.662 -1.338,3 -3,3 H 5 C 3.338,22 2,20.662 2,19 V 4.9999998 c 0,-1.662 1.338,-3 3,-3 z"
       id="rect1558-6"
       inkscape:connector-curvature="0" />
    <path
       style="fill:#503433;stroke:none;stroke-width:1px;stroke-linecap:butt;stroke-linejoin:miter;stroke-opacity:1"
       d="M 7,14 17,9 V 7 C 17,7 17,4 12,4 5,4 5,11 5,11 Z"
       id="path832"
       inkscape:connector-curvature="0"
       sodipodi:nodetypes="cccscc" />
    <path
       style="fill:#ffffff;stroke:none;stroke-width:1px;stroke-linecap:butt;stroke-linejoin:miter;stroke-opacity:1"
       d="M 12,9 V 7 C 12,7 12,6 14.5,6 17,6 17,7 17,7 v 2 z"
       id="path840"
       inkscape:connector-curvature="0"
       sodipodi:nodetypes="cczccc" />
    <path
       style="fill:#f4cfb1;stroke:none;stroke-width:1px;stroke-linecap:butt;stroke-linejoin:miter;stroke-opacity:1"
       d="m 9,9 c 0,0 0,-1 4,-1 4,0 4,0 4,0 v 3 h 1 c 0,0 2,0 2,2 0,2 -2,2 -2,2 h -1 c 0,0 0,3 -3,3 C 11,18 8,16.14466 8,13 8,11 9,9 9,9 Z"
       id="path834"
       inkscape:connector-curvature="0"
       sodipodi:nodetypes="ccccczccssc" />
    <path
       style="fill:#f4cfb1;stroke:none;stroke-width:1px;stroke-linecap:butt;stroke-linejoin:miter;stroke-opacity:1"
       d="m 8,12 c 0,0 -1,1 -2,3 0,0 -2,-1 -2,-3 0,-1 1.057191,-2 2,-2 2,0 2,2 2,2 z"
       id="path838"
       inkscape:connector-curvature="0"
       sodipodi:nodetypes="ccssc" />
    <path
       style="fill:#c47c3e;stroke:none;stroke-width:1px;stroke-linecap:butt;stroke-linejoin:miter;stroke-opacity:1"
       d="m 7,13 c 0,0 0,-2 1,-2 1,0 1,2 1,2 0,0 0,2 4,2 1.333333,0 4,0 4,0 v 1 c 0,0 0,1 -1,1 -2,0 -4,0 -6,0 -3,0 -3,-4 -3,-4 z"
       id="path842"
       inkscape:connector-curvature="0"
       sodipodi:nodetypes="cscsccssc" />
    <path
       style="fill:#886e59;stroke:none;stroke-width:1px;stroke-linecap:butt;stroke-linejoin:miter;stroke-opacity:1"
       d="m 17,15 c -1,0 -1,-1 -1,-1 h 3 c 1,0 1,-1 1,-1 0,0 0.15625,2 -1.8125,2 z"
       id="path844"
       inkscape:connector-curvature="0"
       sodipodi:nodetypes="scscss" />
    <path
       style="opacity:1;vector-effect:none;fill:#ffffff;fill-opacity:1;fill-rule:evenodd;stroke:none;stroke-width:2;stroke-linecap:round;stroke-linejoin:round;stroke-miterlimit:4;stroke-dasharray:none;stroke-opacity:1;paint-order:stroke fill markers"
       d="M 12 9 L 12 10.5 L 12 11 L 12 11.5 C 12 12.331 12.669 13 13.5 13 C 14.331 13 15 12.331 15 11.5 L 15 11 L 15 10.5 L 15 9 L 13.5 9 L 12 9 z "
       id="rect846" />
    <rect
       style="opacity:1;vector-effect:none;fill:#6c4f49;fill-opacity:1;fill-rule:evenodd;stroke:none;stroke-width:2;stroke-linecap:round;stroke-linejoin:round;stroke-miterlimit:4;stroke-dasharray:none;stroke-opacity:1;paint-order:stroke fill markers"
       id="rect850"
       width="2"
       height="3"
       x="13"
       y="9"
       ry="1" />
    <path
       style="opacity:1;vector-effect:none;fill:#c47c3e;fill-opacity:1;fill-rule:evenodd;stroke:none;stroke-width:2;stroke-linecap:round;stroke-linejoin:round;stroke-miterlimit:4;stroke-dasharray:none;stroke-opacity:1;paint-order:stroke fill markers"
       d="M 11.5 9 C 11.223 9 11 9.223 11 9.5 C 11 9.777 11.223 10 11.5 10 L 13 10 L 14.5 10 L 15 10 L 15 9.5 L 15 9 L 14.5 9 L 13 9 L 11.5 9 z "
       id="rect848" />
  </g>
</svg>
