<?xml version="1.0" encoding="UTF-8" standalone="no"?>
<!-- Created with Inkscape (http://www.inkscape.org/) -->

<svg
   xmlns:dc="http://purl.org/dc/elements/1.1/"
   xmlns:cc="http://creativecommons.org/ns#"
   xmlns:rdf="http://www.w3.org/1999/02/22-rdf-syntax-ns#"
   xmlns:svg="http://www.w3.org/2000/svg"
   xmlns="http://www.w3.org/2000/svg"
   xmlns:xlink="http://www.w3.org/1999/xlink"
   xmlns:sodipodi="http://sodipodi.sourceforge.net/DTD/sodipodi-0.dtd"
   xmlns:inkscape="http://www.inkscape.org/namespaces/inkscape"
   width="24px"
   height="24px"
   viewBox="0 0 24 24"
   version="1.1"
   id="SVGRoot"
   inkscape:version="0.92.4 (5da689c313, 2019-01-14)"
   sodipodi:docname="xoxos-breathcube.svg">
  <defs
     id="defs1125">
    <linearGradient
       inkscape:collect="always"
       id="linearGradient867">
      <stop
         style="stop-color:#db6963;stop-opacity:1;"
         offset="0"
         id="stop863" />
      <stop
         style="stop-color:#b2615d;stop-opacity:1"
         offset="1"
         id="stop865" />
    </linearGradient>
    <linearGradient
       inkscape:collect="always"
       id="linearGradient859">
      <stop
         style="stop-color:#88ddcf;stop-opacity:1;"
         offset="0"
         id="stop855" />
      <stop
         style="stop-color:#77a7d8;stop-opacity:1"
         offset="1"
         id="stop857" />
    </linearGradient>
    <linearGradient
       inkscape:collect="always"
       id="linearGradient851">
      <stop
         style="stop-color:#ffffff;stop-opacity:1;"
         offset="0"
         id="stop847" />
      <stop
         style="stop-color:#cbd9db;stop-opacity:1"
         offset="1"
         id="stop849" />
    </linearGradient>
    <linearGradient
       inkscape:collect="always"
       id="linearGradient841">
      <stop
         style="stop-color:#856d4f;stop-opacity:1"
         offset="0"
         id="stop837" />
      <stop
         id="stop845"
         offset="0.5"
         style="stop-color:#c2a157;stop-opacity:1" />
      <stop
         style="stop-color:#856d4f;stop-opacity:1"
         offset="1"
         id="stop839" />
    </linearGradient>
    <linearGradient
       inkscape:collect="always"
       xlink:href="#linearGradient1763"
       id="linearGradient1573-6"
       x1="12"
       y1="2"
       x2="12"
       y2="22"
       gradientUnits="userSpaceOnUse"
       gradientTransform="matrix(1.1,0,0,1.1,-1.2,-1.2000002)" />
    <linearGradient
       inkscape:collect="always"
       id="linearGradient1763">
      <stop
         style="stop-color:#a4bdeb;stop-opacity:1"
         offset="0"
         id="stop1759" />
      <stop
         style="stop-color:#596c8f;stop-opacity:1"
         offset="1"
         id="stop1761" />
    </linearGradient>
    <linearGradient
       inkscape:collect="always"
       xlink:href="#linearGradient841"
       id="linearGradient843"
       x1="11"
       y1="10"
       x2="11"
       y2="18"
       gradientUnits="userSpaceOnUse" />
    <linearGradient
       inkscape:collect="always"
       xlink:href="#linearGradient851"
       id="linearGradient853"
       x1="12"
       y1="4"
       x2="12"
       y2="12"
       gradientUnits="userSpaceOnUse" />
    <linearGradient
       inkscape:collect="always"
       xlink:href="#linearGradient859"
       id="linearGradient861"
       x1="12"
       y1="10"
       x2="12"
       y2="7"
       gradientUnits="userSpaceOnUse" />
    <linearGradient
       inkscape:collect="always"
       xlink:href="#linearGradient867"
       id="linearGradient869"
       x1="12"
       y1="20"
       x2="12"
       y2="23"
       gradientUnits="userSpaceOnUse" />
  </defs>
  <sodipodi:namedview
     id="base"
     pagecolor="#ffffff"
     bordercolor="#666666"
     borderopacity="1.0"
     inkscape:pageopacity="0.0"
     inkscape:pageshadow="2"
     inkscape:zoom="38.360543"
     inkscape:cx="7.2066562"
     inkscape:cy="9.3287898"
     inkscape:document-units="px"
     inkscape:current-layer="layer1"
     showgrid="true"
     inkscape:window-width="1920"
     inkscape:window-height="1017"
     inkscape:window-x="-8"
     inkscape:window-y="-8"
     inkscape:window-maximized="1"
     inkscape:grid-bbox="true"
     inkscape:snap-global="true">
    <inkscape:grid
       type="xygrid"
       id="grid1723" />
  </sodipodi:namedview>
  <metadata
     id="metadata1128">
    <rdf:RDF>
      <cc:Work
         rdf:about="">
        <dc:format>image/svg+xml</dc:format>
        <dc:type
           rdf:resource="http://purl.org/dc/dcmitype/StillImage" />
        <dc:title />
      </cc:Work>
    </rdf:RDF>
  </metadata>
  <g
     inkscape:label="Layer 1"
     inkscape:groupmode="layer"
     id="layer1">
    <rect
       style="opacity:1;vector-effect:none;fill:url(#linearGradient1573-6);fill-opacity:1;fill-rule:evenodd;stroke:none;stroke-width:4.4000001;stroke-linecap:round;stroke-linejoin:round;stroke-miterlimit:4;stroke-dasharray:none;paint-order:stroke fill markers"
       id="rect1560-7"
       width="22"
       height="22"
       x="1"
       y="0.99999976"
       ry="4" />
    <path
       style="fill:#ffffff;stroke:none;stroke-width:1px;stroke-linecap:butt;stroke-linejoin:miter;stroke-opacity:1;opacity:0.5"
       d="M 5 1 C 2.784 1 1 2.784 1 5 L 1 9.5917969 C 2.2712354 10.540852 4.0310807 10.830023 5.59375 11 C 6.8146993 11.132807 7.959457 10.171212 9.1875 10.1875 C 11.132681 10.2133 13.568457 13.094022 14.84375 11.625 C 15.796108 10.52797 13.017775 9.1927937 13.1875 7.75 C 13.299971 6.79391 14.274912 6.3664683 14.34375 5.40625 C 14.40172 4.5976302 13.445759 4.0282631 13.21875 3.25 C 13.026486 2.5908552 12.992526 1.6231649 12.982422 1 L 5 1 z M 19.160156 15.037109 C 18.914841 15.052336 18.690763 15.119033 18.5 15.25 C 17.838699 15.704012 18.288062 16.443273 17.65625 16.9375 C 16.587595 17.773441 15.154506 15.305364 14.28125 16.34375 C 13.684213 17.053685 15.430848 18.05352 15 18.875 C 14.641251 19.559011 13.49179 18.58556 13.15625 19.28125 C 12.652076 20.326575 14.200972 21.922812 15.125 22.625 C 15.302817 22.760127 15.510804 22.883167 15.730469 23 L 19 23 C 21.216 23 23 21.216 23 19 L 23 16.796875 C 22.074504 16.103436 20.361859 14.962522 19.160156 15.037109 z "
       id="path887" />
    <path
       style="color:#000000;font-style:normal;font-variant:normal;font-weight:normal;font-stretch:normal;font-size:medium;line-height:normal;font-family:sans-serif;font-variant-ligatures:normal;font-variant-position:normal;font-variant-caps:normal;font-variant-numeric:normal;font-variant-alternates:normal;font-feature-settings:normal;text-indent:0;text-align:start;text-decoration:none;text-decoration-line:none;text-decoration-style:solid;text-decoration-color:#000000;letter-spacing:normal;word-spacing:normal;text-transform:none;writing-mode:lr-tb;direction:ltr;text-orientation:mixed;dominant-baseline:auto;baseline-shift:baseline;text-anchor:start;white-space:normal;shape-padding:0;clip-rule:nonzero;display:inline;overflow:visible;visibility:visible;opacity:0.5;isolation:auto;mix-blend-mode:normal;color-interpolation:sRGB;color-interpolation-filters:linearRGB;solid-color:#000000;solid-opacity:1;vector-effect:none;fill:#000000;fill-opacity:1;fill-rule:nonzero;stroke:none;stroke-width:2;stroke-linecap:round;stroke-linejoin:round;stroke-miterlimit:4;stroke-dasharray:none;stroke-dashoffset:0;stroke-opacity:1;color-rendering:auto;image-rendering:auto;shape-rendering:auto;text-rendering:auto;enable-background:accumulate"
       d="M 12 3 C 9.2472972 3 7 5.2472972 7 8 C 7 8.3238491 7.0769558 8.5969382 7.1347656 8.8828125 C 6.5085754 9.7075484 6 10.728976 6 12 C 6 13.283727 6.7734431 14.211273 7.5820312 14.705078 C 8.2507499 15.113467 8.8733062 15.289544 9.2734375 15.445312 C 9.6795378 15.603409 9.9665026 15.794737 9.9726562 15.800781 C 9.9969159 15.824608 10.005314 15.825048 10.015625 15.826172 L 10.013672 15.828125 C 10.006004 15.854383 10 15.90597 10 16 L 10 17 A 1.0001 1.0001 0 0 0 9 18 L 9 19.179688 C 8.6894064 19.42389 8.4052561 19.699913 8.1503906 20 L 7 20 C 6.446 20 6 20.446 6 21 L 6 23 L 18 23 L 18 21 C 18 20.446 17.554 20 17 20 L 15.849609 20 C 15.594744 19.699913 15.310594 19.42389 15 19.179688 L 15 18 A 1.0001 1.0001 0 0 0 14 17 L 14 16 C 14 14.767248 13.526107 13.682673 12.777344 12.947266 C 12.732624 12.903346 12.691844 12.910151 12.646484 12.869141 C 15.082174 12.537516 17 10.523799 17 8 C 17 5.2472972 14.752703 3 12 3 z "
       id="path972" />
    <path
       style="opacity:1;vector-effect:none;fill:#a4524d;fill-opacity:1;fill-rule:evenodd;stroke:none;stroke-width:2;stroke-linecap:round;stroke-linejoin:round;stroke-miterlimit:4;stroke-dasharray:none;stroke-opacity:1;paint-order:stroke fill markers"
       d="M 7 21 L 7 23 L 17 23 L 17 21 L 7 21 z "
       id="rect873" />
    <path
       style="fill:none;stroke:url(#linearGradient843);stroke-width:2;stroke-linecap:round;stroke-linejoin:round;stroke-miterlimit:4;stroke-dasharray:none;stroke-opacity:1"
       d="m 12,8 c 0,0 -4,1 -4,4 0,1.885618 4,1 4,4 0,1.333333 0,4 0,4"
       id="path823"
       inkscape:connector-curvature="0"
       sodipodi:nodetypes="cssc" />
    <rect
       style="opacity:1;vector-effect:none;fill:url(#linearGradient853);fill-opacity:1;fill-rule:evenodd;stroke:none;stroke-width:2.66666675;stroke-linecap:round;stroke-linejoin:round;stroke-miterlimit:4;stroke-dasharray:none;stroke-opacity:1;paint-order:stroke fill markers"
       id="rect821"
       width="8"
       height="8"
       x="8"
       y="4"
       ry="4" />
    <rect
       style="opacity:1;vector-effect:none;fill:url(#linearGradient861);fill-opacity:1;fill-rule:evenodd;stroke:none;stroke-width:2;stroke-linecap:round;stroke-linejoin:round;stroke-miterlimit:4;stroke-dasharray:none;stroke-opacity:1;paint-order:stroke fill markers"
       id="rect825"
       width="4"
       height="4"
       x="10"
       y="6"
       ry="2" />
    <rect
       style="opacity:1;vector-effect:none;fill:#4f4f4f;fill-opacity:1;fill-rule:evenodd;stroke:none;stroke-width:2;stroke-linecap:round;stroke-linejoin:round;stroke-miterlimit:4;stroke-dasharray:none;stroke-opacity:1;paint-order:stroke fill markers"
       id="rect827"
       width="2"
       height="2"
       x="11"
       y="7"
       ry="1" />
    <rect
       style="opacity:1;vector-effect:none;fill:#a4524d;fill-opacity:1;fill-rule:evenodd;stroke:none;stroke-width:2;stroke-linecap:round;stroke-linejoin:round;stroke-miterlimit:4;stroke-dasharray:none;stroke-opacity:1;paint-order:stroke fill markers"
       id="rect830"
       width="4"
       height="2"
       x="10"
       y="18" />
    <path
       style="opacity:1;vector-effect:none;fill:url(#linearGradient869);fill-opacity:1;fill-rule:evenodd;stroke:none;stroke-width:2;stroke-linecap:round;stroke-linejoin:round;stroke-miterlimit:4;stroke-dasharray:none;stroke-opacity:1;paint-order:stroke fill markers"
       d="M 12 19 C 9.784 19 8 20.784 8 23 L 16 23 C 16 20.784 14.216 19 12 19 z "
       id="rect832" />
    <path
       style="opacity:1;vector-effect:none;fill:#a4524d;fill-opacity:1;fill-rule:evenodd;stroke:none;stroke-width:2;stroke-linecap:round;stroke-linejoin:round;stroke-miterlimit:4;stroke-dasharray:none;stroke-opacity:1;paint-order:stroke fill markers"
       d="M 12 21 C 10.892 21 10 21.892 10 23 L 14 23 C 14 21.892 13.108 21 12 21 z "
       id="rect834" />
    <path
       style="opacity:0.25;vector-effect:none;fill:#000000;fill-opacity:1;fill-rule:evenodd;stroke:none;stroke-width:4;stroke-linecap:round;stroke-linejoin:round;stroke-miterlimit:4;stroke-dasharray:none;paint-order:stroke fill markers"
       d="m 5,0.99999976 c -2.216,0 -4,1.78400004 -4,4.00000004 V 19 c 0,2.216 1.784,4 4,4 h 14 c 2.216,0 4,-1.784 4,-4 V 4.9999998 c 0,-2.216 -1.784,-4.00000004 -4,-4.00000004 z M 5,1.9999998 h 14 c 1.662,0 3,1.338 3,3 V 19 c 0,1.662 -1.338,3 -3,3 H 5 C 3.338,22 2,20.662 2,19 V 4.9999998 c 0,-1.662 1.338,-3 3,-3 z"
       id="rect1558-6"
       inkscape:connector-curvature="0" />
    <path
       style="color:#000000;font-style:normal;font-variant:normal;font-weight:normal;font-stretch:normal;font-size:medium;line-height:normal;font-family:sans-serif;font-variant-ligatures:normal;font-variant-position:normal;font-variant-caps:normal;font-variant-numeric:normal;font-variant-alternates:normal;font-feature-settings:normal;text-indent:0;text-align:start;text-decoration:none;text-decoration-line:none;text-decoration-style:solid;text-decoration-color:#000000;letter-spacing:normal;word-spacing:normal;text-transform:none;writing-mode:lr-tb;direction:ltr;text-orientation:mixed;dominant-baseline:auto;baseline-shift:baseline;text-anchor:start;white-space:normal;shape-padding:0;clip-rule:nonzero;display:inline;overflow:visible;visibility:visible;opacity:1;isolation:auto;mix-blend-mode:normal;color-interpolation:sRGB;color-interpolation-filters:linearRGB;solid-color:#000000;solid-opacity:1;vector-effect:none;fill:#000000;fill-opacity:1;fill-rule:nonzero;stroke:none;stroke-width:2;stroke-linecap:round;stroke-linejoin:round;stroke-miterlimit:4;stroke-dasharray:none;stroke-dashoffset:0;stroke-opacity:1;color-rendering:auto;image-rendering:auto;shape-rendering:auto;text-rendering:auto;enable-background:accumulate"
       d="m 8.6230469,12.994141 c -0.00383,-0.002 0.00979,0.0048 0.00781,0.0039 -0.023253,-0.01024 -0.029039,-0.01416 -0.00586,0 -9.711e-4,-5.93e-4 -9.794e-4,-0.0033 -0.00195,-0.0039 z"
       id="path966" />
  </g>
</svg>
