<?xml version="1.0" encoding="UTF-8" standalone="no"?>
<!-- Created with Inkscape (http://www.inkscape.org/) -->

<svg
   xmlns:dc="http://purl.org/dc/elements/1.1/"
   xmlns:cc="http://creativecommons.org/ns#"
   xmlns:rdf="http://www.w3.org/1999/02/22-rdf-syntax-ns#"
   xmlns:svg="http://www.w3.org/2000/svg"
   xmlns="http://www.w3.org/2000/svg"
   xmlns:xlink="http://www.w3.org/1999/xlink"
   xmlns:sodipodi="http://sodipodi.sourceforge.net/DTD/sodipodi-0.dtd"
   xmlns:inkscape="http://www.inkscape.org/namespaces/inkscape"
   width="24px"
   height="24px"
   viewBox="0 0 24 24"
   version="1.1"
   id="SVGRoot"
   inkscape:version="0.92.4 (5da689c313, 2019-01-14)"
   sodipodi:docname="zebra.svg">
  <defs
     id="defs1125">
    <linearGradient
       inkscape:collect="always"
       id="linearGradient1763">
      <stop
         style="stop-color:#717174;stop-opacity:1"
         offset="0"
         id="stop1759" />
      <stop
         style="stop-color:#4c4c4c;stop-opacity:1"
         offset="1"
         id="stop1761" />
    </linearGradient>
    <linearGradient
       gradientTransform="matrix(1.1,0,0,1.1,-1.2,-1.2)"
       gradientUnits="userSpaceOnUse"
       y2="22"
       x2="12"
       y1="2"
       x1="12"
       id="linearGradient1573-6-0-4-6"
       xlink:href="#linearGradient2572"
       inkscape:collect="always" />
    <linearGradient
       id="linearGradient2572"
       inkscape:collect="always">
      <stop
         id="stop2568"
         offset="0"
         style="stop-color:#ffffff;stop-opacity:1" />
      <stop
         id="stop2570"
         offset="1"
         style="stop-color:#c2c6c8;stop-opacity:1" />
    </linearGradient>
    <linearGradient
       inkscape:collect="always"
       xlink:href="#linearGradient1763"
       id="linearGradient919"
       x1="12"
       y1="1"
       x2="12"
       y2="23"
       gradientUnits="userSpaceOnUse" />
  </defs>
  <sodipodi:namedview
     id="base"
     pagecolor="#ffffff"
     bordercolor="#666666"
     borderopacity="1.0"
     inkscape:pageopacity="0.0"
     inkscape:pageshadow="2"
     inkscape:zoom="18.671859"
     inkscape:cx="11.204286"
     inkscape:cy="11.52581"
     inkscape:document-units="px"
     inkscape:current-layer="layer1"
     showgrid="true"
     inkscape:window-width="1920"
     inkscape:window-height="1017"
     inkscape:window-x="-8"
     inkscape:window-y="-8"
     inkscape:window-maximized="1"
     inkscape:grid-bbox="true"
     inkscape:snap-global="true">
    <inkscape:grid
       type="xygrid"
       id="grid1723" />
  </sodipodi:namedview>
  <metadata
     id="metadata1128">
    <rdf:RDF>
      <cc:Work
         rdf:about="">
        <dc:format>image/svg+xml</dc:format>
        <dc:type
           rdf:resource="http://purl.org/dc/dcmitype/StillImage" />
        <dc:title></dc:title>
      </cc:Work>
    </rdf:RDF>
  </metadata>
  <g
     inkscape:label="Layer 1"
     inkscape:groupmode="layer"
     id="layer1">
    <rect
       style="opacity:1;vector-effect:none;fill:url(#linearGradient1573-6-0-4-6);fill-opacity:1;fill-rule:evenodd;stroke:none;stroke-width:4.4000001;stroke-linecap:round;stroke-linejoin:round;stroke-miterlimit:4;stroke-dasharray:none;paint-order:stroke fill markers"
       id="rect1560-7-9-5-4"
       width="22"
       height="22"
       x="1"
       y="1"
       ry="4" />
    <path
       style="fill:url(#linearGradient919);stroke-width:0.07;fill-opacity:1"
       d="M 5 1 C 4.5510183 1 4.1268786 1.0893863 3.7246094 1.2246094 C 6.0217651 1.4049108 7.4823689 2.0985721 10.144531 4.1679688 C 10.760531 4.646808 11.532125 5.2406388 11.859375 5.4882812 C 12.186625 5.7359244 12.801109 6.2742029 13.224609 6.6835938 C 14.1594 7.5872419 14.378886 7.7384816 15.576172 8.3085938 C 17.127156 9.0471266 17.384165 9.360101 18.255859 11.591797 C 18.837159 13.080031 18.855847 13.116978 19.410156 13.716797 C 19.665562 13.993173 20.071233 14.442016 20.310547 14.712891 C 20.609504 15.051274 20.948015 15.332133 21.394531 15.611328 C 22.170788 16.096703 22.636058 16.424745 23 16.835938 L 23 15.75 C 22.719337 15.513844 22.562438 15.278382 22.324219 14.800781 C 21.884367 13.918934 21.655699 13.6377 20.486328 12.537109 C 20.206536 12.273775 19.9316 11.968835 19.875 11.859375 C 19.818396 11.749916 19.599229 11.129877 19.388672 10.482422 L 19.005859 9.3046875 L 19.474609 9.7949219 C 19.732945 10.064802 20.426315 10.79605 21.015625 11.419922 C 21.983694 12.444768 22.170249 12.60678 22.941406 13.09375 C 22.965124 13.108728 22.97673 13.116143 23 13.130859 L 23 11.224609 C 21.956395 10.02936 21.491572 9.6688562 20.324219 9.0957031 C 19.708604 8.7934459 19.383656 8.5778067 18.90625 8.1542969 C 18.167531 7.4989751 17.72468 7.2721793 16.515625 6.9296875 C 14.445001 6.3431365 13.838133 5.9867846 12.035156 4.2929688 C 10.915863 3.2414435 10.19369 2.6969015 9.453125 2.3457031 C 7.9283313 1.622599 7.0379931 1.2394457 6.3164062 1 L 5 1 z M 9.5234375 1 C 9.6521001 1.0769079 9.7457711 1.1226358 9.8867188 1.2089844 C 10.934564 1.8509236 11.286042 2.0375926 13.189453 2.9589844 C 13.978703 3.3410395 14.813922 3.7783783 15.044922 3.9296875 C 15.639906 4.3194139 16.788792 5.2988264 17.810547 6.2890625 C 18.715439 7.1660407 20.952466 8.9169886 21.615234 9.265625 C 21.833359 9.3803648 22.263203 9.5115937 22.646484 9.5820312 C 22.789469 9.6083081 22.893116 9.6318079 23 9.65625 L 23 8.5976562 C 22.577458 8.2539292 22.196187 7.9187834 21.800781 7.5175781 C 21.319531 7.0292693 20.532031 6.3046256 20.050781 5.90625 C 19.569531 5.5078744 18.841402 4.8654385 18.433594 4.4785156 C 17.973292 4.041787 17.469689 3.6428913 17.105469 3.4277344 C 16.308542 2.9569641 14.608865 2.1823804 13.886719 1.9609375 C 13.561326 1.8611567 13.201438 1.717448 13.085938 1.640625 L 12.875 1.5 L 13.429688 1.5 C 13.822459 1.4996731 14.209945 1.5607396 14.759766 1.7070312 C 15.186454 1.8205608 15.817563 1.965732 16.164062 2.0292969 C 16.510562 2.0928618 17.109141 2.2523627 17.494141 2.3847656 C 17.879141 2.5171678 18.825703 2.8170624 19.595703 3.0507812 C 20.365703 3.2845001 21.214875 3.5782716 21.484375 3.703125 C 21.750101 3.8262298 22.413181 4.2507342 22.966797 4.6542969 C 22.847649 3.2725023 22.040351 2.1066637 20.878906 1.4863281 C 20.758808 1.4563009 20.556524 1.4200608 20.480469 1.3964844 C 20.185678 1.3051008 19.629141 1.1478548 19.244141 1.0449219 C 19.225115 1.0398353 19.173487 1.0215134 19.152344 1.015625 C 19.100634 1.0136624 19.052206 1 19 1 L 9.5234375 1 z M 3.0332031 1.5332031 C 2.5740247 1.7934214 2.1757163 2.1368327 1.8535156 2.5507812 C 2.1695588 2.6615922 2.502721 2.7672888 2.8652344 2.8652344 C 5.1544206 3.4837369 6.3050097 3.9334032 7.0742188 4.5117188 C 7.2715117 4.6600501 8.1167426 5.5357229 8.953125 6.4589844 C 9.9522966 7.5619443 10.812636 8.4347844 11.462891 9.0019531 C 13.131681 10.457515 13.784298 11.071135 14.128906 11.509766 C 14.310732 11.741199 14.433774 11.926275 14.402344 11.921875 C 14.370914 11.917517 13.981813 11.691817 13.539062 11.419922 C 13.096313 11.148026 12.0105 10.582698 11.125 10.164062 C 10.2395 9.7454277 9.135912 9.2024275 8.671875 8.9570312 C 7.3064893 8.2349736 6.8491661 8.1137354 4.4296875 7.8378906 C 3.5575281 7.7384556 2.5970125 7.5948351 2.2949219 7.5175781 C 1.8343361 7.3997883 1.4183404 7.2354125 1 7.0039062 L 1 8.015625 C 1.1291686 8.0688918 1.2934958 8.1557565 1.3984375 8.1914062 C 1.8582311 8.3476035 2.1314489 8.3875031 2.9746094 8.4257812 C 3.9658073 8.4707794 4.0098176 8.4785274 4.515625 8.7285156 C 4.8018088 8.8699583 5.1973904 9.082734 5.3964844 9.2011719 C 5.6630934 9.3597737 6.0180451 9.4716102 6.7402344 9.6210938 C 8.3098591 9.9459847 9.3177105 10.340003 10.318359 11.019531 C 10.557203 11.181727 10.99407 11.436557 11.289062 11.585938 C 11.584057 11.735311 11.794359 11.853909 11.755859 11.849609 C 11.48044 11.818501 11.223462 11.733868 10.390625 11.404297 C 9.1635873 10.918732 8.5883952 10.803121 7.1210938 10.744141 C 5.7730456 10.689956 6.0614641 10.779865 4.3691406 9.8964844 L 3.7753906 9.5859375 L 2.4453125 9.5507812 C 1.5220568 9.526485 1.2357267 9.5112071 1 9.4355469 L 1 10.089844 C 1.4908036 10.238155 2.128321 10.378239 3.3027344 10.597656 C 5.2269294 10.957155 6.115562 11.215477 6.9902344 11.671875 C 7.8040397 12.096514 8.5245776 12.749639 8.7714844 13.285156 C 8.8576277 13.471994 8.917935 13.668876 8.90625 13.722656 C 8.8805285 13.841049 8.6452849 13.707098 7.9511719 13.181641 C 7.34027 12.719176 6.6178679 12.370647 6.015625 12.248047 C 5.746125 12.193186 4.8472812 12.126729 4.0195312 12.099609 C 3.1283844 12.070412 2.4133894 12.014581 2.265625 11.962891 C 2.1283732 11.91488 1.6639209 11.634822 1.234375 11.339844 C 1.1481948 11.280662 1.0817392 11.245456 1 11.191406 L 1 12.492188 C 1.4538658 12.705648 1.8676358 12.945208 2.1894531 13.226562 C 2.8643833 13.816633 2.9960212 13.864674 4.1816406 13.957031 C 4.7510493 14.001387 5.2547374 14.050578 5.3007812 14.066406 C 5.3468251 14.082235 6.0310625 14.192719 6.8203125 14.3125 C 8.4351943 14.557582 9.2470093 14.793174 10.371094 15.34375 C 11.277981 15.787929 12.560547 16.664496 12.560547 16.839844 C 12.560547 16.867075 12.284141 16.751915 11.947266 16.585938 C 11.043182 16.140499 8.7767867 15.403419 7.5332031 15.150391 C 6.4863475 14.937392 5.543406 14.870561 5.1132812 14.978516 C 4.6900207 15.084747 4.9979151 15.267511 5.7617188 15.363281 C 6.9930132 15.517672 8.839875 16.300254 10.703125 17.457031 C 12.272484 18.431347 12.665983 18.661569 13.921875 19.345703 C 14.574402 19.701159 15.238961 20.084246 15.400391 20.195312 C 15.700445 20.401753 16.269531 21.001193 16.269531 21.111328 C 16.269531 21.144962 16.088563 21.081571 15.867188 20.970703 C 14.929875 20.501284 13.144884 19.77795 11.9375 19.378906 C 11.574393 19.258898 11.301717 19.122605 11.199219 19.007812 C 11.109904 18.907784 10.906786 18.679571 10.748047 18.501953 C 10.404752 18.117826 9.8347821 17.821064 8.9550781 17.570312 C 7.0594004 17.029966 5.6418098 16.899865 3.2519531 17.044922 C 2.2225343 17.107404 1.5574396 17.129635 1 17.128906 L 1 18.105469 C 1.9682252 18.236744 2.7150412 18.35362 3.2148438 18.476562 C 3.8661006 18.636761 4.7278496 18.775954 5.7851562 18.894531 C 7.7597723 19.115984 8.4407366 19.232365 9.5390625 19.533203 C 11.552612 20.084725 12.552021 20.774579 14.564453 23 L 18.412109 23 C 18.375594 22.869017 18.335914 22.761514 18.300781 22.605469 C 18.052854 21.504289 17.858912 21.21297 16.685547 20.169922 C 16.078627 19.630408 15.853432 19.369293 15.066406 18.302734 C 14.826266 17.977303 14.332743 17.402585 13.970703 17.025391 C 13.608664 16.648198 13.329883 16.339844 13.351562 16.339844 C 13.447553 16.339844 14.448334 16.724146 14.765625 16.882812 C 15.552803 17.276451 17.31509 18.370859 18.011719 18.898438 C 18.420683 19.208158 19.195375 19.820035 19.734375 20.259766 C 20.785624 21.117402 21.170677 21.370465 21.953125 21.681641 C 22.366085 21.226783 22.671105 20.678817 22.839844 20.068359 C 22.805237 20.049437 22.759467 20.019764 22.726562 20.001953 C 21.310495 19.235453 21.028287 19.058288 18.894531 17.599609 C 16.340984 15.853953 15.779784 15.568767 14.566406 15.398438 C 13.796287 15.290333 13.402136 15.16409 12.945312 14.880859 C 12.282897 14.470162 9.8230996 12.535812 9.5527344 12.212891 C 9.3900864 12.018625 9.2767092 11.859375 9.3007812 11.859375 C 9.3248528 11.859375 9.4584059 11.906661 9.5976562 11.964844 C 10.054478 12.155716 10.632186 12.276644 11.441406 12.347656 C 12.414584 12.433056 12.761912 12.582264 13.447266 13.216797 C 14.284897 13.992315 14.901683 14.295037 16.830078 14.871094 C 17.349828 15.026356 17.975755 15.246732 18.220703 15.361328 C 18.46565 15.475923 18.679516 15.570312 18.697266 15.570312 C 18.772296 15.570312 17.752995 13.860586 17.361328 13.330078 C 16.379069 11.999619 14.360235 9.5942198 13.814453 9.1035156 C 13.619937 8.928629 13.065471 8.5402698 12.582031 8.2402344 C 11.538689 7.5927085 11.290104 7.3179574 10.664062 6.1347656 C 10.136887 5.1384262 9.91434 4.8564042 9.1757812 4.2363281 C 7.5446637 2.8668803 6.0112153 2.1632 3.5371094 1.6484375 C 3.3527223 1.6100738 3.2035395 1.572506 3.0332031 1.5332031 z M 1.15625 3.9433594 C 1.0638887 4.2816049 1 4.6316776 1 5 L 1 5.1035156 C 2.6229276 5.8581761 4.3426386 6.2604407 6.0410156 6.2636719 C 6.5176827 6.2645779 6.9210879 6.2527393 6.9355469 6.2382812 C 6.9500054 6.2238221 6.8697264 6.0767933 6.7578125 5.9101562 C 6.4852472 5.5043173 5.9266876 5.1427295 5.0371094 4.7949219 C 4.4052684 4.5478842 4.1856094 4.4964651 3.4785156 4.4394531 C 2.6236728 4.3705276 2.0594455 4.2594731 1.3007812 4.0097656 C 1.244588 3.9912701 1.2056913 3.9632063 1.15625 3.9433594 z M 1 14.78125 L 1 15.414062 C 1.6992967 15.415491 1.9571863 15.390734 2.1699219 15.296875 L 2.4453125 15.175781 L 1.9902344 15.085938 C 1.6400929 15.017051 1.3237933 14.91352 1 14.78125 z M 1.0449219 19.447266 C 1.0668503 19.643468 1.0974218 19.835064 1.1464844 20.021484 C 1.5060466 20.195143 1.9729436 20.330142 3.2519531 20.667969 C 5.3188613 21.213904 5.3601253 21.226985 6.6699219 21.892578 C 7.485581 22.307068 7.8738734 22.577058 8.1992188 23 L 11.066406 23 C 11.01644 22.917358 10.970278 22.855089 10.917969 22.761719 C 10.332952 21.717479 9.6756578 21.170384 8.3808594 20.652344 C 7.2488173 20.199422 5.7651354 19.927818 3.3554688 19.732422 C 2.6436879 19.674705 1.7463574 19.559046 1.0449219 19.447266 z M 1.9726562 21.591797 C 2.6224278 22.350856 3.5443467 22.855144 4.5976562 22.960938 C 3.9133795 22.435132 3.0994248 22.024379 1.9726562 21.591797 z "
       id="path832" />
    <path
       style="opacity:0.25;vector-effect:none;fill:#000000;fill-opacity:1;fill-rule:evenodd;stroke:none;stroke-width:4;stroke-linecap:round;stroke-linejoin:round;stroke-miterlimit:4;stroke-dasharray:none;paint-order:stroke fill markers"
       d="m 5,0.99999976 c -2.216,0 -4,1.78400004 -4,4.00000004 V 19 c 0,2.216 1.784,4 4,4 h 14 c 2.216,0 4,-1.784 4,-4 V 4.9999998 c 0,-2.216 -1.784,-4.00000004 -4,-4.00000004 z M 5,1.9999998 h 14 c 1.662,0 3,1.338 3,3 V 19 c 0,1.662 -1.338,3 -3,3 H 5 C 3.338,22 2,20.662 2,19 V 4.9999998 c 0,-1.662 1.338,-3 3,-3 z"
       id="rect1558-6"
       inkscape:connector-curvature="0" />
  </g>
</svg>
