<?xml version="1.0" encoding="UTF-8" standalone="no"?>
<!-- Created with Inkscape (http://www.inkscape.org/) -->

<svg
   xmlns:dc="http://purl.org/dc/elements/1.1/"
   xmlns:cc="http://creativecommons.org/ns#"
   xmlns:rdf="http://www.w3.org/1999/02/22-rdf-syntax-ns#"
   xmlns:svg="http://www.w3.org/2000/svg"
   xmlns="http://www.w3.org/2000/svg"
   xmlns:xlink="http://www.w3.org/1999/xlink"
   xmlns:sodipodi="http://sodipodi.sourceforge.net/DTD/sodipodi-0.dtd"
   xmlns:inkscape="http://www.inkscape.org/namespaces/inkscape"
   width="24px"
   height="24px"
   viewBox="0 0 24 24"
   version="1.1"
   id="SVGRoot"
   inkscape:version="0.92.4 (5da689c313, 2019-01-14)"
   sodipodi:docname="kicker.svg">
  <defs
     id="defs1125">
    <linearGradient
       inkscape:collect="always"
       xlink:href="#linearGradient2572"
       id="linearGradient1573-6-0-4-6-4"
       x1="12"
       y1="2"
       x2="12"
       y2="22"
       gradientUnits="userSpaceOnUse"
       gradientTransform="matrix(1.1,0,0,1.1,-50.200006,22.8)" />
    <linearGradient
       inkscape:collect="always"
       id="linearGradient2572">
      <stop
         style="stop-color:#ffffff;stop-opacity:1"
         offset="0"
         id="stop2568" />
      <stop
         style="stop-color:#c2c6c8;stop-opacity:1"
         offset="1"
         id="stop2570" />
    </linearGradient>
  </defs>
  <sodipodi:namedview
     id="base"
     pagecolor="#ffffff"
     bordercolor="#666666"
     borderopacity="1.0"
     inkscape:pageopacity="0.0"
     inkscape:pageshadow="2"
     inkscape:zoom="21.333333"
     inkscape:cx="12"
     inkscape:cy="12"
     inkscape:document-units="px"
     inkscape:current-layer="layer1"
     showgrid="true"
     inkscape:window-width="1920"
     inkscape:window-height="1017"
     inkscape:window-x="-8"
     inkscape:window-y="-8"
     inkscape:window-maximized="1"
     inkscape:grid-bbox="true">
    <inkscape:grid
       type="xygrid"
       id="grid1723" />
  </sodipodi:namedview>
  <metadata
     id="metadata1128">
    <rdf:RDF>
      <cc:Work
         rdf:about="">
        <dc:format>image/svg+xml</dc:format>
        <dc:type
           rdf:resource="http://purl.org/dc/dcmitype/StillImage" />
        <dc:title></dc:title>
      </cc:Work>
    </rdf:RDF>
  </metadata>
  <g
     inkscape:label="Layer 1"
     inkscape:groupmode="layer"
     id="layer1">
    <g
       id="g3791"
       transform="translate(49,-24)">
      <rect
         ry="4"
         y="25"
         x="-48"
         height="22"
         width="22"
         id="rect1560-7-9-5-4-9"
         style="opacity:1;vector-effect:none;fill:url(#linearGradient1573-6-0-4-6-4);fill-opacity:1;fill-rule:evenodd;stroke:none;stroke-width:4.4000001;stroke-linecap:round;stroke-linejoin:round;stroke-miterlimit:4;stroke-dasharray:none;paint-order:stroke fill markers" />
      <path
         inkscape:connector-curvature="0"
         id="rect1558-6-9-8-8-6"
         d="m -44.000005,25 c -2.216001,0 -4.000001,1.784 -4.000001,4 v 14 c 0,2.216 1.784,4 4.000001,4 h 13.999999 c 2.216,0 4,-1.784 4,-4 V 29 c 0,-2.216 -1.784,-4 -4,-4 z m 0,1 h 13.999999 c 1.662,0 3,1.338 3,3 v 14 c 0,1.662 -1.338,3 -3,3 h -13.999999 c -1.662,0 -3.000001,-1.338 -3.000001,-3 V 29 c 0,-1.662 1.338001,-3 3.000001,-3 z"
         style="opacity:0.25;vector-effect:none;fill:#000000;fill-opacity:1;fill-rule:evenodd;stroke:none;stroke-width:4;stroke-linecap:round;stroke-linejoin:round;stroke-miterlimit:4;stroke-dasharray:none;paint-order:stroke fill markers" />
      <path
         inkscape:connector-curvature="0"
         id="path3103"
         d="m -44.000002,25 c -0.315055,0 -0.618404,0.04309 -0.912109,0.111328 l -1.148438,4.757813 4.400391,2.138672 3.599609,-3.232422 L -39.078127,25 Z m 12.273438,2.992188 -2.269532,2.830078 2.033203,3.541015 h 3.13086 l 0.861328,-3.611328 z m -7.609376,8.972656 -2.732421,3.429687 3.21289,3.578125 3.697266,-1.341797 0.160156,-4.771484 z m -8.664062,0.216797 V 43 c 0,0.613787 0.147578,1.188257 0.392578,1.707031 l 1.644531,-0.253906 0.992188,-6.025391 z m 19.269531,1.853515 -2.285156,3.757813 2.279297,3.986328 C -27.14705,46.250541 -26.000002,44.771365 -26.000002,43 v -3.611328 z"
         style="opacity:0.5;fill:#000000;stroke:none;stroke-width:1.75124776px;stroke-linecap:butt;stroke-linejoin:miter;stroke-opacity:1" />
    </g>
  </g>
</svg>
