<?xml version="1.0" encoding="UTF-8" standalone="no"?>
<!-- Created with Inkscape (http://www.inkscape.org/) -->

<svg
   xmlns:dc="http://purl.org/dc/elements/1.1/"
   xmlns:cc="http://creativecommons.org/ns#"
   xmlns:rdf="http://www.w3.org/1999/02/22-rdf-syntax-ns#"
   xmlns:svg="http://www.w3.org/2000/svg"
   xmlns="http://www.w3.org/2000/svg"
   xmlns:xlink="http://www.w3.org/1999/xlink"
   xmlns:sodipodi="http://sodipodi.sourceforge.net/DTD/sodipodi-0.dtd"
   xmlns:inkscape="http://www.inkscape.org/namespaces/inkscape"
   width="24px"
   height="24px"
   viewBox="0 0 24 24"
   version="1.1"
   id="SVGRoot"
   inkscape:version="0.92.4 (5da689c313, 2019-01-14)"
   sodipodi:docname="monstro.svg">
  <defs
     id="defs1125">
    <linearGradient
       inkscape:collect="always"
       xlink:href="#linearGradient3339"
       id="linearGradient1573-6-4-79"
       x1="12"
       y1="2"
       x2="12"
       y2="22"
       gradientUnits="userSpaceOnUse"
       gradientTransform="matrix(1.1,0,0,1.1,-26.184375,-4.2)" />
    <linearGradient
       id="linearGradient3339"
       inkscape:collect="always">
      <stop
         id="stop3335"
         offset="0"
         style="stop-color:#e4c580;stop-opacity:1" />
      <stop
         id="stop3337"
         offset="1"
         style="stop-color:#c98d5a;stop-opacity:1" />
    </linearGradient>
    <linearGradient
       inkscape:collect="always"
       xlink:href="#linearGradient2572"
       id="linearGradient3333"
       x1="13"
       y1="1"
       x2="13"
       y2="9"
       gradientUnits="userSpaceOnUse"
       gradientTransform="translate(-24.984375,-3)" />
    <linearGradient
       inkscape:collect="always"
       id="linearGradient2572">
      <stop
         style="stop-color:#ffffff;stop-opacity:1"
         offset="0"
         id="stop2568" />
      <stop
         style="stop-color:#c2c6c8;stop-opacity:1"
         offset="1"
         id="stop2570" />
    </linearGradient>
    <linearGradient
       inkscape:collect="always"
       xlink:href="#linearGradient2572"
       id="linearGradient3324"
       x1="12"
       y1="18"
       x2="12"
       y2="23"
       gradientUnits="userSpaceOnUse"
       gradientTransform="translate(-24.984375,-3)" />
  </defs>
  <sodipodi:namedview
     id="base"
     pagecolor="#ffffff"
     bordercolor="#666666"
     borderopacity="1.0"
     inkscape:pageopacity="0.0"
     inkscape:pageshadow="2"
     inkscape:zoom="21.333333"
     inkscape:cx="12"
     inkscape:cy="12"
     inkscape:document-units="px"
     inkscape:current-layer="layer1"
     showgrid="true"
     inkscape:window-width="1920"
     inkscape:window-height="1017"
     inkscape:window-x="-8"
     inkscape:window-y="-8"
     inkscape:window-maximized="1"
     inkscape:grid-bbox="true">
    <inkscape:grid
       type="xygrid"
       id="grid1723" />
  </sodipodi:namedview>
  <metadata
     id="metadata1128">
    <rdf:RDF>
      <cc:Work
         rdf:about="">
        <dc:format>image/svg+xml</dc:format>
        <dc:type
           rdf:resource="http://purl.org/dc/dcmitype/StillImage" />
        <dc:title></dc:title>
      </cc:Work>
    </rdf:RDF>
  </metadata>
  <g
     inkscape:label="Layer 1"
     inkscape:groupmode="layer"
     id="layer1">
    <g
       id="g3827"
       transform="translate(24.984375,3)">
      <rect
         ry="4"
         y="-2"
         x="-23.984375"
         height="22"
         width="22"
         id="rect1560-7-3-9"
         style="opacity:1;vector-effect:none;fill:url(#linearGradient1573-6-4-79);fill-opacity:1;fill-rule:evenodd;stroke:none;stroke-width:4.4000001;stroke-linecap:round;stroke-linejoin:round;stroke-miterlimit:4;stroke-dasharray:none;paint-order:stroke fill markers" />
      <path
         inkscape:connector-curvature="0"
         id="rect3341"
         d="m -19.984375,-2 c -2.216,0 -4,1.784 -4,4 v 2.978516 c 0.909932,1.221607 2.352918,2.021484 4,2.021484 2.77,0 5,-2.23 5,-5 0,-1.647082 -0.799877,-3.090068 -2.021484,-4 z"
         style="opacity:0.25;vector-effect:none;fill:#000000;fill-opacity:1;fill-rule:evenodd;stroke:none;stroke-width:1;stroke-linecap:round;stroke-linejoin:round;stroke-miterlimit:4;stroke-dasharray:none;stroke-opacity:1;paint-order:stroke fill markers" />
      <path
         inkscape:connector-curvature="0"
         id="path3282"
         d="m -23.984375,4 v 12 c 0,2.216 1.784,4 4,4 h 14 c 2.216,0 4,-1.784 4,-4 V 4 l -11,12 z"
         style="opacity:0.1;fill:#000000;stroke:none;stroke-width:1px;stroke-linecap:butt;stroke-linejoin:miter;stroke-opacity:1" />
      <path
         inkscape:connector-curvature="0"
         id="rect3341-5"
         d="m -8.962891,-2 c -1.221607,0.909932 -2.021484,2.352918 -2.021484,4 0,2.77 2.23,5 5,5 1.647082,0 3.090068,-0.799877 4,-2.021484 V 2 c 0,-2.216 -1.784,-4 -4,-4 z"
         style="opacity:0.25;vector-effect:none;fill:#000000;fill-opacity:1;fill-rule:evenodd;stroke:none;stroke-width:1;stroke-linecap:round;stroke-linejoin:round;stroke-miterlimit:4;stroke-dasharray:none;stroke-opacity:1;paint-order:stroke fill markers" />
      <path
         inkscape:connector-curvature="0"
         id="rect3284"
         d="m -19.984375,-2 c -2.216,0 -4,1.784 -4,4 0,2.216 1.784,4 4,4 2.216,0 4,-1.784 4,-4 0,-2.216 -1.784,-4 -4,-4 z m 14,0 c -2.216,0 -4,1.784 -4,4 0,2.216 1.784,4 4,4 2.216,0 4,-1.784 4,-4 0,-2.216 -1.784,-4 -4,-4 z"
         style="opacity:1;vector-effect:none;fill:url(#linearGradient3333);fill-opacity:1;fill-rule:evenodd;stroke:none;stroke-width:1;stroke-linecap:round;stroke-linejoin:round;stroke-miterlimit:4;stroke-dasharray:none;stroke-opacity:1;paint-order:stroke fill markers" />
      <path
         inkscape:connector-curvature="0"
         id="path3265-1"
         d="m -20,14 a 1.0001,1.0001 0 0 0 -0.984375,1 v 4.861328 c 0.320999,0.0825 0.65255,0.138672 1,0.138672 h 6 a 1.0001,1.0001 0 0 0 -0.292969,-0.707031 l -5,-5 A 1.0001,1.0001 0 0 0 -20,14 Z m 13.986328,0 a 1.0001,1.0001 0 0 0 -0.677734,0.292969 l -5,5 A 1.0001,1.0001 0 0 0 -11.984375,20 h 6 c 0.34745,0 0.679001,-0.05617 1,-0.138672 V 15 A 1.0001,1.0001 0 0 0 -6.013672,14 Z M -18.984375,17.414062 -17.398437,19 h -1.585938 z m 12,0 V 19 h -1.585938 z"
         style="color:#000000;font-style:normal;font-variant:normal;font-weight:normal;font-stretch:normal;font-size:medium;line-height:normal;font-family:sans-serif;font-variant-ligatures:normal;font-variant-position:normal;font-variant-caps:normal;font-variant-numeric:normal;font-variant-alternates:normal;font-feature-settings:normal;text-indent:0;text-align:start;text-decoration:none;text-decoration-line:none;text-decoration-style:solid;text-decoration-color:#000000;letter-spacing:normal;word-spacing:normal;text-transform:none;writing-mode:lr-tb;direction:ltr;text-orientation:mixed;dominant-baseline:auto;baseline-shift:baseline;text-anchor:start;white-space:normal;shape-padding:0;clip-rule:nonzero;display:inline;overflow:visible;visibility:visible;opacity:0.25;isolation:auto;mix-blend-mode:normal;color-interpolation:sRGB;color-interpolation-filters:linearRGB;solid-color:#000000;solid-opacity:1;vector-effect:none;fill:#000000;fill-opacity:1;fill-rule:nonzero;stroke:none;stroke-width:2;stroke-linecap:round;stroke-linejoin:round;stroke-miterlimit:4;stroke-dasharray:none;stroke-dashoffset:0;stroke-opacity:1;color-rendering:auto;image-rendering:auto;shape-rendering:auto;text-rendering:auto;enable-background:accumulate" />
      <path
         inkscape:connector-curvature="0"
         id="path3265"
         d="m -19.984375,15 v 5 h 5 z m 14,0 -5,5 h 5 z"
         style="fill:url(#linearGradient3324);fill-opacity:1;stroke:none;stroke-width:1px;stroke-linecap:butt;stroke-linejoin:miter;stroke-opacity:1" />
      <path
         inkscape:connector-curvature="0"
         id="rect1558-6-7-51"
         d="m -19.984375,-2.000001 c -2.216,0 -4,1.784001 -4,4.000001 v 14 c 0,2.216 1.784,4 4,4 h 14 c 2.216,0 4,-1.784 4,-4 V 2 c 0,-2.216 -1.784,-4.000001 -4,-4.000001 z m 0,1.000001 h 14 c 1.662,0 3,1.338 3,3 v 14 c 0,1.662001 -1.338,3 -3,3 h -14 c -1.662,0 -3,-1.337999 -3,-3 V 2 c 0,-1.662 1.338,-3 3,-3 z"
         style="opacity:0.25;vector-effect:none;fill:#000000;fill-opacity:1;fill-rule:evenodd;stroke:none;stroke-width:4;stroke-linecap:round;stroke-linejoin:round;stroke-miterlimit:4;stroke-dasharray:none;paint-order:stroke fill markers" />
      <rect
         ry="2"
         y="0"
         x="-7.984375"
         height="4"
         width="4"
         id="rect3288"
         style="opacity:0.5;vector-effect:none;fill:#000000;fill-opacity:1;fill-rule:evenodd;stroke:none;stroke-width:1;stroke-linecap:round;stroke-linejoin:round;stroke-miterlimit:4;stroke-dasharray:none;stroke-opacity:1;paint-order:stroke fill markers" />
      <rect
         ry="2"
         y="0"
         x="-21.984375"
         height="4"
         width="4"
         id="rect3290"
         style="opacity:0.5;vector-effect:none;fill:#000000;fill-opacity:1;fill-rule:evenodd;stroke:none;stroke-width:1;stroke-linecap:round;stroke-linejoin:round;stroke-miterlimit:4;stroke-dasharray:none;stroke-opacity:1;paint-order:stroke fill markers" />
    </g>
  </g>
</svg>
