<?xml version="1.0" encoding="UTF-8" standalone="no"?>
<!-- Created with Inkscape (http://www.inkscape.org/) -->

<svg
   xmlns:dc="http://purl.org/dc/elements/1.1/"
   xmlns:cc="http://creativecommons.org/ns#"
   xmlns:rdf="http://www.w3.org/1999/02/22-rdf-syntax-ns#"
   xmlns:svg="http://www.w3.org/2000/svg"
   xmlns="http://www.w3.org/2000/svg"
   xmlns:xlink="http://www.w3.org/1999/xlink"
   xmlns:sodipodi="http://sodipodi.sourceforge.net/DTD/sodipodi-0.dtd"
   xmlns:inkscape="http://www.inkscape.org/namespaces/inkscape"
   width="24px"
   height="24px"
   viewBox="0 0 24 24"
   version="1.1"
   id="SVGRoot"
   inkscape:version="0.92.4 (5da689c313, 2019-01-14)"
   sodipodi:docname="opulenz.svg">
  <defs
     id="defs1125">
    <linearGradient
       inkscape:collect="always"
       xlink:href="#linearGradient3707"
       id="linearGradient1573-6-4-0-1-8"
       x1="12"
       y1="2"
       x2="12"
       y2="22"
       gradientUnits="userSpaceOnUse"
       gradientTransform="matrix(1.1,0,0,1.1,-98.213672,-4.2)" />
    <linearGradient
       id="linearGradient3707"
       inkscape:collect="always">
      <stop
         id="stop3703"
         offset="0"
         style="stop-color:#4a7ac2;stop-opacity:1" />
      <stop
         id="stop3705"
         offset="1"
         style="stop-color:#43588c;stop-opacity:1" />
    </linearGradient>
    <linearGradient
       inkscape:collect="always"
       xlink:href="#linearGradient3752"
       id="linearGradient3754"
       x1="13"
       y1="17"
       x2="13"
       y2="7"
       gradientUnits="userSpaceOnUse"
       gradientTransform="translate(-97.013672,-3)" />
    <linearGradient
       inkscape:collect="always"
       id="linearGradient3752">
      <stop
         style="stop-color:#b39f09;stop-opacity:1"
         offset="0"
         id="stop3748" />
      <stop
         id="stop3756"
         offset="0.5"
         style="stop-color:#ece355;stop-opacity:1" />
      <stop
         style="stop-color:#b39f09;stop-opacity:1"
         offset="1"
         id="stop3750" />
    </linearGradient>
  </defs>
  <sodipodi:namedview
     id="base"
     pagecolor="#ffffff"
     bordercolor="#666666"
     borderopacity="1.0"
     inkscape:pageopacity="0.0"
     inkscape:pageshadow="2"
     inkscape:zoom="21.333333"
     inkscape:cx="12"
     inkscape:cy="12"
     inkscape:document-units="px"
     inkscape:current-layer="layer1"
     showgrid="true"
     inkscape:window-width="1920"
     inkscape:window-height="1017"
     inkscape:window-x="-8"
     inkscape:window-y="-8"
     inkscape:window-maximized="1"
     inkscape:grid-bbox="true">
    <inkscape:grid
       type="xygrid"
       id="grid1723" />
  </sodipodi:namedview>
  <metadata
     id="metadata1128">
    <rdf:RDF>
      <cc:Work
         rdf:about="">
        <dc:format>image/svg+xml</dc:format>
        <dc:type
           rdf:resource="http://purl.org/dc/dcmitype/StillImage" />
        <dc:title></dc:title>
      </cc:Work>
    </rdf:RDF>
  </metadata>
  <g
     inkscape:label="Layer 1"
     inkscape:groupmode="layer"
     id="layer1">
    <g
       id="g3840"
       transform="translate(97.013672,3)">
      <rect
         ry="4"
         y="-2"
         x="-96.013672"
         height="22"
         width="22"
         id="rect1560-7-3-2-8-5"
         style="opacity:1;vector-effect:none;fill:url(#linearGradient1573-6-4-0-1-8);fill-opacity:1;fill-rule:evenodd;stroke:none;stroke-width:4.4000001;stroke-linecap:round;stroke-linejoin:round;stroke-miterlimit:4;stroke-dasharray:none;paint-order:stroke fill markers" />
      <path
         inkscape:connector-curvature="0"
         id="path3709"
         d="m -84.955078,0.929688 a 0.50005,0.50005 0 0 0 -0.460938,0.384765 l -3.009765,12.896485 -2.628911,-10.875 a 0.50005,0.50005 0 0 0 -0.95312,-0.0625 l -1.83399,4.734374 h -2.17187 v 1 h 2.51367 a 0.50005,0.50005 0 0 0 0.4668,-0.320312 l 1.38086,-3.5625 2.748045,11.365234 a 0.50005,0.50005 0 0 0 0.972656,-0.0039 l 2.998047,-12.83789 2.949219,12.898437 a 0.50005,0.50005 0 0 0 0.972656,0.0039 L -78.314453,5.236328 -76.917969,8.6875 A 0.50005,0.50005 0 0 0 -76.455078,9 h 2.441406 V 8 h -2.103516 L -77.97461,3.410156 a 0.50005,0.50005 0 0 0 -0.949218,0.07031 l -2.564453,10.755859 -2.953125,-12.919922 a 0.50005,0.50005 0 0 0 -0.513672,-0.386718 z"
         style="color:#000000;font-style:normal;font-variant:normal;font-weight:normal;font-stretch:normal;font-size:medium;line-height:normal;font-family:sans-serif;font-variant-ligatures:normal;font-variant-position:normal;font-variant-caps:normal;font-variant-numeric:normal;font-variant-alternates:normal;font-feature-settings:normal;text-indent:0;text-align:start;text-decoration:none;text-decoration-line:none;text-decoration-style:solid;text-decoration-color:#000000;letter-spacing:normal;word-spacing:normal;text-transform:none;writing-mode:lr-tb;direction:ltr;text-orientation:mixed;dominant-baseline:auto;baseline-shift:baseline;text-anchor:start;white-space:normal;shape-padding:0;clip-rule:nonzero;display:inline;overflow:visible;visibility:visible;opacity:1;isolation:auto;mix-blend-mode:normal;color-interpolation:sRGB;color-interpolation-filters:linearRGB;solid-color:#000000;solid-opacity:1;vector-effect:none;fill:#c9faff;fill-opacity:1;fill-rule:nonzero;stroke:none;stroke-width:1px;stroke-linecap:round;stroke-linejoin:round;stroke-miterlimit:4;stroke-dasharray:none;stroke-dashoffset:0;stroke-opacity:1;color-rendering:auto;image-rendering:auto;shape-rendering:auto;text-rendering:auto;enable-background:accumulate" />
      <path
         inkscape:connector-curvature="0"
         id="rect1558-6-7-8-2-5"
         d="m -92.013672,-2.000001 c -2.216,0 -4,1.784001 -4,4.000001 v 13.999999 c 0,2.216001 1.784,4.000001 4,4.000001 h 14 c 2.216,0 4,-1.784 4,-4.000001 V 2 c 0,-2.216 -1.784,-4.000001 -4,-4.000001 z m 0,1.000001 h 14 c 1.662,0 3,1.338 3,3 v 13.999999 c 0,1.662001 -1.338,3.000001 -3,3.000001 h -14 c -1.662,0 -3,-1.338 -3,-3.000001 V 2 c 0,-1.662 1.338,-3 3,-3 z"
         style="opacity:0.25;vector-effect:none;fill:#000000;fill-opacity:1;fill-rule:evenodd;stroke:none;stroke-width:4;stroke-linecap:round;stroke-linejoin:round;stroke-miterlimit:4;stroke-dasharray:none;paint-order:stroke fill markers" />
      <path
         inkscape:connector-curvature="0"
         id="rect3742"
         d="m -85.013672,3 c -3.324,0 -6,2.676 -6,6 0,3.324 2.676,6 6,6 3.324,0 6,-2.676 6,-6 0,-3.324 -2.676,-6 -6,-6 z m 0,4 c 1.108,0 2,0.892 2,2 0,1.108 -0.892,2 -2,2 -1.108,0 -2,-0.892 -2,-2 0,-1.108 0.892,-2 2,-2 z"
         style="opacity:1;vector-effect:none;fill:#242a37;fill-opacity:1;fill-rule:evenodd;stroke:none;stroke-width:2;stroke-linecap:round;stroke-linejoin:round;stroke-miterlimit:4;stroke-dasharray:none;stroke-opacity:1;paint-order:stroke fill markers" />
      <path
         inkscape:connector-curvature="0"
         id="rect3738"
         d="m -85.013672,4 c -2.77,0 -5,2.23 -5,5 0,2.77 2.23,5 5,5 2.77,0 5,-2.23 5,-5 0,-2.77 -2.23,-5 -5,-5 z m 0,2 c 1.662,0 3,1.338 3,3 0,1.662 -1.338,3 -3,3 -1.662,0 -3,-1.338 -3,-3 0,-1.662 1.338,-3 3,-3 z"
         style="opacity:1;vector-effect:none;fill:url(#linearGradient3754);fill-opacity:1;fill-rule:evenodd;stroke:none;stroke-width:2;stroke-linecap:round;stroke-linejoin:round;stroke-miterlimit:4;stroke-dasharray:none;stroke-opacity:1;paint-order:stroke fill markers" />
    </g>
  </g>
</svg>
