<?xml version="1.0" encoding="UTF-8" standalone="no"?>
<!-- Created with Inkscape (http://www.inkscape.org/) -->

<svg
   xmlns:dc="http://purl.org/dc/elements/1.1/"
   xmlns:cc="http://creativecommons.org/ns#"
   xmlns:rdf="http://www.w3.org/1999/02/22-rdf-syntax-ns#"
   xmlns:svg="http://www.w3.org/2000/svg"
   xmlns="http://www.w3.org/2000/svg"
   xmlns:xlink="http://www.w3.org/1999/xlink"
   xmlns:sodipodi="http://sodipodi.sourceforge.net/DTD/sodipodi-0.dtd"
   xmlns:inkscape="http://www.inkscape.org/namespaces/inkscape"
   width="24px"
   height="24px"
   viewBox="0 0 24 24"
   version="1.1"
   id="SVGRoot"
   inkscape:version="0.92.4 (5da689c313, 2019-01-14)"
   sodipodi:docname="sid-modified.svg">
  <defs
     id="defs1125">
    <linearGradient
       inkscape:collect="always"
       xlink:href="#linearGradient1763"
       id="linearGradient4027"
       gradientUnits="userSpaceOnUse"
       gradientTransform="matrix(1.1,0,0,1.1,-1.2,-1.2000002)"
       x1="12"
       y1="2"
       x2="12"
       y2="22" />
    <linearGradient
       inkscape:collect="always"
       id="linearGradient1763">
      <stop
         style="stop-color:#ddddde;stop-opacity:1"
         offset="0"
         id="stop1759" />
      <stop
         style="stop-color:#b9b9b9;stop-opacity:1"
         offset="1"
         id="stop1761" />
    </linearGradient>
  </defs>
  <sodipodi:namedview
     id="base"
     pagecolor="#ffffff"
     bordercolor="#666666"
     borderopacity="1.0"
     inkscape:pageopacity="0.0"
     inkscape:pageshadow="2"
     inkscape:zoom="30.656901"
     inkscape:cx="7.7653021"
     inkscape:cy="11.784461"
     inkscape:document-units="px"
     inkscape:current-layer="layer1"
     showgrid="true"
     inkscape:window-width="1920"
     inkscape:window-height="1017"
     inkscape:window-x="-8"
     inkscape:window-y="-8"
     inkscape:window-maximized="1"
     inkscape:grid-bbox="true">
    <inkscape:grid
       type="xygrid"
       id="grid1723" />
  </sodipodi:namedview>
  <metadata
     id="metadata1128">
    <rdf:RDF>
      <cc:Work
         rdf:about="">
        <dc:format>image/svg+xml</dc:format>
        <dc:type
           rdf:resource="http://purl.org/dc/dcmitype/StillImage" />
        <dc:title />
      </cc:Work>
    </rdf:RDF>
  </metadata>
  <g
     inkscape:label="Layer 1"
     inkscape:groupmode="layer"
     id="layer1">
    <rect
       style="opacity:1;vector-effect:none;fill:url(#linearGradient4027);fill-opacity:1;fill-rule:evenodd;stroke:none;stroke-width:4.4000001;stroke-linecap:round;stroke-linejoin:round;stroke-miterlimit:4;stroke-dasharray:none;paint-order:stroke fill markers"
       id="rect1560-7-9-1"
       width="22"
       height="22"
       x="1"
       y="0.99999976"
       ry="4" />
    <path
       style="opacity:1;vector-effect:none;fill:#5381c5;fill-opacity:1;fill-rule:evenodd;stroke:none;stroke-width:2;stroke-linecap:round;stroke-linejoin:round;stroke-miterlimit:4;stroke-dasharray:none;stroke-opacity:1;paint-order:stroke fill markers"
       d="M 10.5 4 C 6.899 4 4 7.568 4 12 C 4 16.432 6.899 20 10.5 20 C 12.91433 20 15.007841 18.392817 16.128906 16 L 12.585938 16 C 12.002833 16.62078 11.286337 17 10.5 17 C 8.561 17 7 14.77 7 12 C 7 9.23 8.561 7 10.5 7 C 11.286337 7 12.002833 7.3792202 12.585938 8 L 16.128906 8 C 15.007841 5.6071828 12.91433 4 10.5 4 z "
       id="rect827" />
    <path
       style="opacity:0.25;vector-effect:none;fill:#000000;fill-opacity:1;fill-rule:evenodd;stroke:none;stroke-width:4;stroke-linecap:round;stroke-linejoin:round;stroke-miterlimit:4;stroke-dasharray:none;paint-order:stroke fill markers"
       d="m 5,0.99999976 c -2.216,0 -4,1.78400004 -4,4.00000004 V 19 c 0,2.216 1.784,4 4,4 h 14 c 2.216,0 4,-1.784 4,-4 V 4.9999998 c 0,-2.216 -1.784,-4.00000004 -4,-4.00000004 z M 5,1.9999998 h 14 c 1.662,0 3,1.338 3,3 V 19 c 0,1.662 -1.338,3 -3,3 H 5 C 3.338,22 2,20.662 2,19 V 4.9999998 c 0,-1.662 1.338,-3 3,-3 z"
       id="rect1558-6-9-0"
       inkscape:connector-curvature="0" />
    <path
       style="fill:#ee625c;stroke:none;stroke-width:0.72727275px;stroke-linecap:butt;stroke-linejoin:miter;stroke-opacity:1"
       d="m 16,15 v -2 h -3 l -2,2 z"
       id="path1496"
       inkscape:connector-curvature="0"
       sodipodi:nodetypes="ccccc" />
    <path
       style="fill:#5381c5;fill-opacity:1;stroke:none;stroke-width:0.72727275px;stroke-linecap:butt;stroke-linejoin:miter;stroke-opacity:1"
       d="m 16,9 v 2 H 13 L 11,9 Z"
       id="path1496-3"
       inkscape:connector-curvature="0"
       sodipodi:nodetypes="ccccc" />
    <rect
       style="opacity:1;vector-effect:none;fill:#ee625c;fill-opacity:1;fill-rule:evenodd;stroke:none;stroke-width:0.72727275;stroke-linecap:round;stroke-linejoin:round;stroke-miterlimit:4;stroke-dasharray:none;stroke-opacity:1;paint-order:stroke fill markers"
       id="rect1513"
       width="0.90909004"
       height="1.909091"
       x="17.09091"
       y="9.090909" />
    <rect
       style="opacity:1;vector-effect:none;fill:#5381c5;fill-opacity:1;fill-rule:evenodd;stroke:none;stroke-width:0.72727275;stroke-linecap:round;stroke-linejoin:round;stroke-miterlimit:4;stroke-dasharray:none;stroke-opacity:1;paint-order:stroke fill markers"
       id="rect1515"
       width="1"
       height="2"
       x="17"
       y="13" />
    <rect
       style="opacity:1;vector-effect:none;fill:#ee625c;fill-opacity:1;fill-rule:evenodd;stroke:none;stroke-width:0.72727275;stroke-linecap:round;stroke-linejoin:round;stroke-miterlimit:4;stroke-dasharray:none;stroke-opacity:1;paint-order:stroke fill markers"
       id="rect1520"
       width="1"
       height="2"
       x="19"
       y="9" />
    <rect
       style="opacity:1;vector-effect:none;fill:#5381c5;fill-opacity:1;fill-rule:evenodd;stroke:none;stroke-width:0.72727275;stroke-linecap:round;stroke-linejoin:round;stroke-miterlimit:4;stroke-dasharray:none;stroke-opacity:1;paint-order:stroke fill markers"
       id="rect1522"
       width="1"
       height="2"
       x="19"
       y="13" />
  </g>
</svg>
