<?xml version="1.0" encoding="UTF-8" standalone="no"?>
<!-- Created with Inkscape (http://www.inkscape.org/) -->

<svg
   xmlns:dc="http://purl.org/dc/elements/1.1/"
   xmlns:cc="http://creativecommons.org/ns#"
   xmlns:rdf="http://www.w3.org/1999/02/22-rdf-syntax-ns#"
   xmlns:svg="http://www.w3.org/2000/svg"
   xmlns="http://www.w3.org/2000/svg"
   xmlns:xlink="http://www.w3.org/1999/xlink"
   xmlns:sodipodi="http://sodipodi.sourceforge.net/DTD/sodipodi-0.dtd"
   xmlns:inkscape="http://www.inkscape.org/namespaces/inkscape"
   width="24px"
   height="24px"
   viewBox="0 0 24 24"
   version="1.1"
   id="SVGRoot"
   inkscape:version="0.92.4 (5da689c313, 2019-01-14)"
   sodipodi:docname="vibed.svg">
  <defs
     id="defs1125">
    <linearGradient
       inkscape:collect="always"
       xlink:href="#linearGradient2474"
       id="linearGradient1573-6-4-0-1"
       x1="12"
       y1="2"
       x2="12"
       y2="22"
       gradientUnits="userSpaceOnUse"
       gradientTransform="matrix(1.1,0,0,1.1,-74.2,46.8)" />
    <linearGradient
       id="linearGradient2474"
       inkscape:collect="always">
      <stop
         id="stop2470"
         offset="0"
         style="stop-color:#3d5e8f;stop-opacity:1" />
      <stop
         id="stop2472"
         offset="1"
         style="stop-color:#293f60;stop-opacity:1" />
    </linearGradient>
    <linearGradient
       inkscape:collect="always"
       xlink:href="#linearGradient2480"
       id="linearGradient2482"
       x1="12"
       y1="1"
       x2="12"
       y2="18"
       gradientUnits="userSpaceOnUse"
       gradientTransform="translate(-73,48)" />
    <linearGradient
       inkscape:collect="always"
       id="linearGradient2480">
      <stop
         style="stop-color:#6e9ee6;stop-opacity:1"
         offset="0"
         id="stop2476" />
      <stop
         style="stop-color:#4a6fca;stop-opacity:1"
         offset="1"
         id="stop2478" />
    </linearGradient>
    <linearGradient
       inkscape:collect="always"
       xlink:href="#linearGradient2537"
       id="linearGradient2539"
       x1="-61"
       y1="34"
       x2="-61"
       y2="26"
       gradientUnits="userSpaceOnUse"
       gradientTransform="translate(-6e-7,24)" />
    <linearGradient
       inkscape:collect="always"
       id="linearGradient2537">
      <stop
         style="stop-color:#ffffff;stop-opacity:1;"
         offset="0"
         id="stop2533" />
      <stop
         style="stop-color:#6e9ee6;stop-opacity:1"
         offset="1"
         id="stop2535" />
    </linearGradient>
  </defs>
  <sodipodi:namedview
     id="base"
     pagecolor="#ffffff"
     bordercolor="#666666"
     borderopacity="1.0"
     inkscape:pageopacity="0.0"
     inkscape:pageshadow="2"
     inkscape:zoom="21.333333"
     inkscape:cx="12"
     inkscape:cy="12"
     inkscape:document-units="px"
     inkscape:current-layer="layer1"
     showgrid="true"
     inkscape:window-width="1920"
     inkscape:window-height="1017"
     inkscape:window-x="-8"
     inkscape:window-y="-8"
     inkscape:window-maximized="1"
     inkscape:grid-bbox="true">
    <inkscape:grid
       type="xygrid"
       id="grid1723" />
  </sodipodi:namedview>
  <metadata
     id="metadata1128">
    <rdf:RDF>
      <cc:Work
         rdf:about="">
        <dc:format>image/svg+xml</dc:format>
        <dc:type
           rdf:resource="http://purl.org/dc/dcmitype/StillImage" />
        <dc:title></dc:title>
      </cc:Work>
    </rdf:RDF>
  </metadata>
  <g
     inkscape:label="Layer 1"
     inkscape:groupmode="layer"
     id="layer1">
    <g
       id="g3890"
       transform="translate(73,-48)">
      <rect
         ry="4"
         y="49"
         x="-72"
         height="22"
         width="22"
         id="rect1560-7-3-2-8"
         style="opacity:1;vector-effect:none;fill:url(#linearGradient1573-6-4-0-1);fill-opacity:1;fill-rule:evenodd;stroke:none;stroke-width:4.4000001;stroke-linecap:round;stroke-linejoin:round;stroke-miterlimit:4;stroke-dasharray:none;paint-order:stroke fill markers" />
      <path
         inkscape:connector-curvature="0"
         id="path2453-0"
         d="m -68,49 c -0.62004,0 -1.199874,0.150672 -1.722656,0.400391 0.220333,0.813076 1.008061,3.692152 2.126953,7.048828 0.643974,1.931921 1.34685,3.871878 2.095703,5.476562 0.374426,0.802342 0.742168,1.513291 1.248047,2.203125 C -63.746075,64.818741 -63.125,66 -61,66 c 2.125,0 2.746075,-1.181259 3.251953,-1.871094 0.505879,-0.689834 0.873621,-1.400783 1.248047,-2.203125 0.748853,-1.604684 1.451729,-3.544641 2.095703,-5.476562 1.118892,-3.356676 1.90662,-6.235752 2.126953,-7.048828 C -52.800126,49.150672 -53.37996,49 -54,49 h -4.396484 c -0.397574,1.405919 -0.954743,3.317354 -1.699219,5.550781 -0.297619,0.892856 -0.595607,1.556315 -0.904297,2.375 -0.30869,-0.818685 -0.606678,-1.482144 -0.904297,-2.375 C -62.648772,52.317354 -63.205942,50.405919 -63.603516,49 Z"
         style="color:#000000;font-style:normal;font-variant:normal;font-weight:normal;font-stretch:normal;font-size:medium;line-height:normal;font-family:sans-serif;font-variant-ligatures:normal;font-variant-position:normal;font-variant-caps:normal;font-variant-numeric:normal;font-variant-alternates:normal;font-feature-settings:normal;text-indent:0;text-align:start;text-decoration:none;text-decoration-line:none;text-decoration-style:solid;text-decoration-color:#000000;letter-spacing:normal;word-spacing:normal;text-transform:none;writing-mode:lr-tb;direction:ltr;text-orientation:mixed;dominant-baseline:auto;baseline-shift:baseline;text-anchor:start;white-space:normal;shape-padding:0;clip-rule:nonzero;display:inline;overflow:visible;visibility:visible;opacity:1;isolation:auto;mix-blend-mode:normal;color-interpolation:sRGB;color-interpolation-filters:linearRGB;solid-color:#000000;solid-opacity:1;vector-effect:none;fill:url(#linearGradient2482);fill-opacity:1;fill-rule:nonzero;stroke:none;stroke-width:6;stroke-linecap:round;stroke-linejoin:round;stroke-miterlimit:4;stroke-dasharray:none;stroke-dashoffset:0;stroke-opacity:1;color-rendering:auto;image-rendering:auto;shape-rendering:auto;text-rendering:auto;enable-background:accumulate" />
      <path
         inkscape:connector-curvature="0"
         id="path2453"
         d="m -67.759766,49 c 0.25078,0.921174 0.99645,3.624113 2.060547,6.816406 0.631325,1.893974 1.324601,3.791277 2.011719,5.263672 0.343559,0.736198 0.679681,1.363805 1.048828,1.867188 C -62.269525,63.450648 -61.875,64 -61,64 c 0.875,0 1.269525,-0.549352 1.638672,-1.052734 0.369147,-0.503383 0.705269,-1.13099 1.048828,-1.867188 0.687118,-1.472395 1.380394,-3.369698 2.011719,-5.263672 1.064097,-3.192293 1.809767,-5.895232 2.060547,-6.816406 h -2.078125 c -0.352253,1.270915 -0.977699,3.474112 -1.88086,6.183594 -0.618675,1.856026 -1.300399,3.708723 -1.925781,5.048828 -0.312691,0.670052 -0.617194,1.21432 -0.849609,1.53125 -0.01238,0.01688 -0.01345,0.01069 -0.02539,0.02539 -0.01195,-0.0147 -0.01301,-0.0085 -0.02539,-0.02539 -0.232417,-0.31693 -0.536918,-0.861198 -0.849609,-1.53125 -0.625382,-1.340105 -1.307106,-3.192802 -1.925781,-5.048828 C -64.703942,52.474112 -65.329387,50.270915 -65.681641,49 Z"
         style="color:#000000;font-style:normal;font-variant:normal;font-weight:normal;font-stretch:normal;font-size:medium;line-height:normal;font-family:sans-serif;font-variant-ligatures:normal;font-variant-position:normal;font-variant-caps:normal;font-variant-numeric:normal;font-variant-alternates:normal;font-feature-settings:normal;text-indent:0;text-align:start;text-decoration:none;text-decoration-line:none;text-decoration-style:solid;text-decoration-color:#000000;letter-spacing:normal;word-spacing:normal;text-transform:none;writing-mode:lr-tb;direction:ltr;text-orientation:mixed;dominant-baseline:auto;baseline-shift:baseline;text-anchor:start;white-space:normal;shape-padding:0;clip-rule:nonzero;display:inline;overflow:visible;visibility:visible;opacity:1;isolation:auto;mix-blend-mode:normal;color-interpolation:sRGB;color-interpolation-filters:linearRGB;solid-color:#000000;solid-opacity:1;vector-effect:none;fill:url(#linearGradient2539);fill-opacity:1;fill-rule:nonzero;stroke:none;stroke-width:2;stroke-linecap:round;stroke-linejoin:round;stroke-miterlimit:4;stroke-dasharray:none;stroke-dashoffset:0;stroke-opacity:1;color-rendering:auto;image-rendering:auto;shape-rendering:auto;text-rendering:auto;enable-background:accumulate" />
      <path
         inkscape:connector-curvature="0"
         id="rect1558-6-7-8-2"
         d="m -68,48.999999 c -2.216,0 -4,1.784001 -4,4.000001 V 66.999999 C -72,69.216 -70.216,71 -68,71 h 14 c 2.216,0 4,-1.784 4,-4.000001 V 53 c 0,-2.216 -1.784,-4.000001 -4,-4.000001 z M -68,50 h 14 c 1.662,0 3,1.338 3,3 V 66.999999 C -51,68.662 -52.338,70 -54,70 h -14 c -1.662,0 -3,-1.338 -3,-3.000001 V 53 c 0,-1.662 1.338,-3 3,-3 z"
         style="opacity:0.25;vector-effect:none;fill:#000000;fill-opacity:1;fill-rule:evenodd;stroke:none;stroke-width:4;stroke-linecap:round;stroke-linejoin:round;stroke-miterlimit:4;stroke-dasharray:none;paint-order:stroke fill markers" />
    </g>
  </g>
</svg>
