<?xml version="1.0" encoding="UTF-8" standalone="no"?>
<!-- Created with Inkscape (http://www.inkscape.org/) -->

<svg
   xmlns:dc="http://purl.org/dc/elements/1.1/"
   xmlns:cc="http://creativecommons.org/ns#"
   xmlns:rdf="http://www.w3.org/1999/02/22-rdf-syntax-ns#"
   xmlns:svg="http://www.w3.org/2000/svg"
   xmlns="http://www.w3.org/2000/svg"
   xmlns:xlink="http://www.w3.org/1999/xlink"
   xmlns:sodipodi="http://sodipodi.sourceforge.net/DTD/sodipodi-0.dtd"
   xmlns:inkscape="http://www.inkscape.org/namespaces/inkscape"
   width="24px"
   height="24px"
   viewBox="0 0 24 24"
   version="1.1"
   id="SVGRoot"
   inkscape:version="0.92.4 (5da689c313, 2019-01-14)"
   sodipodi:docname="watsyn.svg">
  <defs
     id="defs1125">
    <linearGradient
       inkscape:collect="always"
       xlink:href="#linearGradient2254"
       id="linearGradient2256"
       x1="12"
       y1="3"
       x2="12"
       y2="23"
       gradientUnits="userSpaceOnUse"
       gradientTransform="translate(-25,48)" />
    <linearGradient
       inkscape:collect="always"
       id="linearGradient2254">
      <stop
         style="stop-color:#8fadcd;stop-opacity:1"
         offset="0"
         id="stop2250" />
      <stop
         style="stop-color:#4c7cb2;stop-opacity:1"
         offset="1"
         id="stop2252" />
    </linearGradient>
    <linearGradient
       inkscape:collect="always"
       xlink:href="#linearGradient2248"
       id="linearGradient1573-6-4-7"
       x1="12"
       y1="2"
       x2="12"
       y2="22"
       gradientUnits="userSpaceOnUse"
       gradientTransform="matrix(1.1,0,0,1.1,-26.2,46.8)" />
    <linearGradient
       id="linearGradient2248"
       inkscape:collect="always">
      <stop
         id="stop2244"
         offset="0"
         style="stop-color:#e3edea;stop-opacity:1" />
      <stop
         id="stop2246"
         offset="1"
         style="stop-color:#c1d8d1;stop-opacity:1" />
    </linearGradient>
  </defs>
  <sodipodi:namedview
     id="base"
     pagecolor="#ffffff"
     bordercolor="#666666"
     borderopacity="1.0"
     inkscape:pageopacity="0.0"
     inkscape:pageshadow="2"
     inkscape:zoom="21.333333"
     inkscape:cx="12"
     inkscape:cy="12"
     inkscape:document-units="px"
     inkscape:current-layer="layer1"
     showgrid="true"
     inkscape:window-width="1920"
     inkscape:window-height="1017"
     inkscape:window-x="-8"
     inkscape:window-y="-8"
     inkscape:window-maximized="1"
     inkscape:grid-bbox="true">
    <inkscape:grid
       type="xygrid"
       id="grid1723" />
  </sodipodi:namedview>
  <metadata
     id="metadata1128">
    <rdf:RDF>
      <cc:Work
         rdf:about="">
        <dc:format>image/svg+xml</dc:format>
        <dc:type
           rdf:resource="http://purl.org/dc/dcmitype/StillImage" />
        <dc:title></dc:title>
      </cc:Work>
    </rdf:RDF>
  </metadata>
  <g
     inkscape:label="Layer 1"
     inkscape:groupmode="layer"
     id="layer1">
    <g
       id="g3869"
       transform="translate(25,-48)">
      <rect
         ry="4"
         y="49"
         x="-24"
         height="22"
         width="22"
         id="rect1560-7-3-5-0"
         style="opacity:1;vector-effect:none;fill:url(#linearGradient2256);fill-opacity:1;fill-rule:evenodd;stroke:none;stroke-width:4.4000001;stroke-linecap:round;stroke-linejoin:round;stroke-miterlimit:4;stroke-dasharray:none;paint-order:stroke fill markers" />
      <path
         inkscape:connector-curvature="0"
         id="rect1560-7-3-5"
         d="m -20,49 c -2.216,0 -4,1.784 -4,4 v 14 c 0,2.216 1.784,4 4,4 h 5 l 0.658203,-0.964844 a 0.5000799,0.5000799 0 0 0 0.101563,-0.01758 c 0,0 1.78982,-0.514248 3.585937,-1.675781 1.7961164,-1.161533 3.6788464,-3.036676 3.6640624,-5.734375 -0.015923,-2.905229 -0.755208,-4.83923 -1.982422,-6.03125 -1.2272144,-1.19202 -2.8810704,-1.583985 -4.5605464,-1.583985 -3.052452,0 -5.462891,2.343184 -5.462891,5.617188 0,2.634104 2.361485,4.4046 4.544922,4.386719 1.650088,-0.01352 2.602458,-0.91244 3.021484,-1.771485 0.41903,-0.859044 0.398438,-1.699218 0.398438,-1.699218 a 0.50006107,0.50006107 0 0 0 -1,0.01563 c 0,0 0.0018,0.629683 -0.298828,1.246093 -0.300675,0.616411 -0.810562,1.19817 -2.13086,1.208985 -1.626597,0.01332 -3.535156,-1.364067 -3.535156,-3.386719 0,-2.800092 1.905,-4.617188 4.462891,-4.617188 1.526232,0 2.87886,0.344591 3.8632806,1.300782 0.9844218,0.95619 1.6646698,2.580225 1.6796878,5.320312 0.01222,2.229118 -1.5523038,3.818575 -3.2070314,4.888672 -1.336096,0.864043 -2.452183,1.256448 -2.919922,1.410156 C -18.569118,68.362924 -22,64.605216 -22,60 c 0,-4.986 4.014,-9 9,-9 3.6042516,0 6.6915124,2.102499 8.1308584,5.148437 l 0.023438,-0.03516 2.845703,4.886719 v -8 c 0,-2.216 -1.784,-4 -4,-4 z"
         style="opacity:1;vector-effect:none;fill:url(#linearGradient1573-6-4-7);fill-opacity:1;fill-rule:evenodd;stroke:none;stroke-width:4.4000001;stroke-linecap:round;stroke-linejoin:round;stroke-miterlimit:4;stroke-dasharray:none;paint-order:stroke fill markers" />
      <path
         inkscape:connector-curvature="0"
         id="rect1558-6-7-6"
         d="m -20,49 c -2.216,0 -4,1.784 -4,4 v 14 c 0,2.216001 1.784,4.000001 4,4.000001 h 13.9999994 c 2.216,0 4,-1.784 4,-4.000001 V 53 c 0,-2.216 -1.784,-4 -4,-4 z m 0,1 h 13.9999994 c 1.662,0 3,1.338 3,3 v 14 c 0,1.662001 -1.338,3.000001 -3,3.000001 H -20 c -1.662,0 -3,-1.338 -3,-3.000001 V 53 c 0,-1.662 1.338,-3 3,-3 z"
         style="opacity:0.25;vector-effect:none;fill:#000000;fill-opacity:1;fill-rule:evenodd;stroke:none;stroke-width:4;stroke-linecap:round;stroke-linejoin:round;stroke-miterlimit:4;stroke-dasharray:none;paint-order:stroke fill markers" />
    </g>
  </g>
</svg>
