<?xml version="1.0" encoding="UTF-8" standalone="no"?>
<!-- Created with Inkscape (http://www.inkscape.org/) -->

<svg
   xmlns:dc="http://purl.org/dc/elements/1.1/"
   xmlns:cc="http://creativecommons.org/ns#"
   xmlns:rdf="http://www.w3.org/1999/02/22-rdf-syntax-ns#"
   xmlns:svg="http://www.w3.org/2000/svg"
   xmlns="http://www.w3.org/2000/svg"
   xmlns:xlink="http://www.w3.org/1999/xlink"
   xmlns:sodipodi="http://sodipodi.sourceforge.net/DTD/sodipodi-0.dtd"
   xmlns:inkscape="http://www.inkscape.org/namespaces/inkscape"
   width="24px"
   height="24px"
   viewBox="0 0 24 24"
   version="1.1"
   id="SVGRoot"
   inkscape:version="0.92.4 (5da689c313, 2019-01-14)"
   sodipodi:docname="hgf-alionoctis.svg">
  <defs
     id="defs1125">
    <linearGradient
       inkscape:collect="always"
       xlink:href="#linearGradient1763"
       id="linearGradient1573-6"
       x1="12"
       y1="2"
       x2="12"
       y2="22"
       gradientUnits="userSpaceOnUse"
       gradientTransform="matrix(1.1,0,0,1.1,-1.2,-1.2000002)" />
    <linearGradient
       inkscape:collect="always"
       id="linearGradient1763">
      <stop
         style="stop-color:#6e7177;stop-opacity:1"
         offset="0"
         id="stop1759" />
      <stop
         style="stop-color:#424448;stop-opacity:1"
         offset="1"
         id="stop1761" />
    </linearGradient>
  </defs>
  <sodipodi:namedview
     id="base"
     pagecolor="#ffffff"
     bordercolor="#666666"
     borderopacity="1.0"
     inkscape:pageopacity="0.0"
     inkscape:pageshadow="2"
     inkscape:zoom="6.3934237"
     inkscape:cx="15.325798"
     inkscape:cy="11.62203"
     inkscape:document-units="px"
     inkscape:current-layer="layer1"
     showgrid="true"
     inkscape:window-width="1920"
     inkscape:window-height="1017"
     inkscape:window-x="-8"
     inkscape:window-y="-8"
     inkscape:window-maximized="1"
     inkscape:grid-bbox="true"
     inkscape:snap-global="false">
    <inkscape:grid
       type="xygrid"
       id="grid1723" />
  </sodipodi:namedview>
  <metadata
     id="metadata1128">
    <rdf:RDF>
      <cc:Work
         rdf:about="">
        <dc:format>image/svg+xml</dc:format>
        <dc:type
           rdf:resource="http://purl.org/dc/dcmitype/StillImage" />
        <dc:title></dc:title>
      </cc:Work>
    </rdf:RDF>
  </metadata>
  <g
     inkscape:label="Layer 1"
     inkscape:groupmode="layer"
     id="layer1">
    <rect
       style="opacity:1;vector-effect:none;fill:url(#linearGradient1573-6);fill-opacity:1;fill-rule:evenodd;stroke:none;stroke-width:4.4000001;stroke-linecap:round;stroke-linejoin:round;stroke-miterlimit:4;stroke-dasharray:none;paint-order:stroke fill markers"
       id="rect1560-7"
       width="22"
       height="22"
       x="1"
       y="0.99999976"
       ry="4" />
    <path
       style="opacity:1;vector-effect:none;fill:#babdc1;fill-opacity:1;fill-rule:evenodd;stroke:none;stroke-width:0.16794412;stroke-linecap:round;stroke-linejoin:round;stroke-miterlimit:4;stroke-dasharray:none;stroke-opacity:1;paint-order:stroke fill markers"
       d="M 12.744141,4.0461601 C 11.846472,3.8977324 10.949272,4.246263 10.505859,5.0695977 9.6977457,6.0903174 10.11258,7.1839272 10.130799,8.3581228 c 0.01,0.5837611 -0.4662613,1.0025283 -0.2328625,1.5264009 0.4457175,0.015109 0.3137575,-1.3011153 0.4297595,-0.3774362 0.05693,0.9745415 0.422217,1.8903455 0.660585,2.8210375 -0.461826,1.088733 -1.3022068,1.977092 -2.0151785,2.911941 -0.738991,0.866734 -1.4730495,1.739608 -2.1221911,2.673794 -0.4011409,0.413939 -1.8303817,0.899835 -1.1971562,1.584637 1.0915622,-0.2612 1.7968925,-1.300734 2.8755417,-1.621544 1.7941381,-0.585618 3.2934011,-1.77501 5.0292481,-2.483439 0.795635,-0.112245 0.823055,-2.143081 1.676579,-1.322848 0.31115,0.503804 1.196159,0.978062 1.33952,1.269472 0.535869,0.756979 -0.732264,0.575162 -0.862009,0.181706 0.169832,-0.351457 -0.570107,0.375025 -0.868719,0.240314 -2.226588,0.901537 -4.264243,2.212682 -6.5090444,3.078419 -0.9414015,0.357737 -1.8474318,0.884991 -2.8522282,1.027898 -0.5469936,-0.185686 -1.4510618,-0.531744 -0.8671031,-1.301005 1.1914293,-1.494036 2.5567915,-2.837362 3.7875015,-4.293819 -0.3783147,0.145147 -1.1469656,1.016957 -1.6521179,1.471495 -0.9593231,1.023001 -2.1791694,1.907723 -2.6851706,3.261502 -0.031971,0.788712 1.242539,1.141895 1.918387,1.01206 2.6677886,-0.806261 5.0816587,-2.23954 7.6373397,-3.319302 0.8762,-0.36904 1.830676,-0.706379 2.786723,-0.429875 1.013238,0.276653 2.296231,0.115295 3.029335,1.012879 0.503833,0.781837 1.461937,1.005752 2.335081,0.89509 0.426185,-0.154471 1.402216,0.0702 1.227381,-0.605234 -0.02932,-0.282838 0.01927,-0.68398 0,-1.013081 0.03384,-0.485878 0.01173,-1.0409 -0.490138,-1.298519 -0.794927,-0.455581 -0.122448,0.89747 -0.638696,1.185442 -0.07296,0.43596 0.431021,0.798315 -0.222917,1.094564 -0.628241,0.677693 -1.73629,0.255368 -1.790806,-0.653861 -0.271117,-0.661129 -0.824775,-1.376055 -1.557016,-1.487523 -0.604793,0.345003 0.743507,1.157187 0.128021,0.950351 -0.679397,-0.06045 -1.233913,-0.210648 -1.265049,-0.861997 -0.915592,-0.4913 0.349535,-0.264216 0.674575,-0.02983 0.383667,-0.544695 -0.216742,-1.723477 -0.963412,-1.870563 -0.6523,-0.197415 -2.200579,-0.303036 -1.159622,-1.200179 0.339646,-0.685157 1.842675,0.626817 1.113185,-0.318715 -0.23254,-0.231048 -0.295237,-1.017328 0.119141,-0.458984 0.216005,-0.237028 -0.520254,-0.834504 0.26349,-0.714254 0.457048,0.20245 0.95832,1.025029 0.907797,1.317737 -0.466402,-0.765411 -0.957348,-0.0276 -0.244894,0.346154 0.458185,0.581339 0.838534,0.222298 0.503294,-0.318778 -0.178437,-0.68276 -0.143117,-1.750684 -0.74898,-2.3996805 -0.465966,-0.5281422 -0.249994,-1.7501851 0.612488,-1.207579 0.398569,0.1187107 1.068536,1.0825683 1.279133,0.7507901 -0.266527,-0.7897818 -1.340991,-1.8873977 -0.362263,-2.5730635 0.338962,-0.1150947 -0.641862,0.6415011 -0.109568,0.9694951 0.149846,0.8776335 0.944678,1.329711 1.188415,2.110986 0.309075,0.7703618 1.028731,1.4407548 1.901054,1.4112928 0.764059,0.169685 0.778529,0.961331 0.762364,1.552382 C 23.119721,12.770043 22.943376,12.23708 23,11.967463 V 7.2285116 C 21.903059,6.8697824 20.855004,6.1929832 19.671875,6.2011679 c -1.061377,0.00462 -1.219266,1.2247493 -1.860008,1.8158688 -0.490934,0.4311941 -0.876074,0.6385287 -0.518233,1.3346402 0.06415,0.3803185 0.297987,1.4050371 0.167304,1.4491001 C 17.31882,10.284589 17.139301,10.244741 16.794922,10.195312 16.465528,9.5472806 16.623635,8.6460262 16.257812,7.9980469 16.467584,7.7281042 15.849684,6.5121653 16.431622,7.2933889 16.589829,7.5673933 17.169258,8.7920124 16.918971,7.84722 16.471905,6.2310628 15.51311,4.8173226 13.925944,4.1105991 13.539792,4.0202776 13.137049,4.0570687 12.744141,4.0461601 Z m 7.347656,2.8405587 c 0.452768,0.1065633 0.988788,0.4538317 0.283203,0.6992187 -0.274512,0.4005976 -1.178604,0.8783934 -0.775442,0.01097 0.135896,-0.2305847 0.182552,-0.6608743 0.492239,-0.7101887 z m -6.083985,0.076172 c 0.529707,0.055217 0.491887,2.0191173 0.179688,1.109375 -0.227426,-0.3017446 -0.206506,-0.7329922 -0.433594,-0.732422 -0.141252,-0.211798 0.01949,-0.4072536 0.253906,-0.376953 z m 1.16211,0.1113282 c 0.420843,0.2307363 0.880156,1.4912413 0.535652,1.6056666 -0.17078,-0.5039041 -0.760295,-0.5179171 -0.441237,0.1033495 0.370457,0.3944753 -0.182292,1.3009069 -0.246759,0.4159839 -0.01676,-0.5613364 -0.747671,0.212674 -1.085758,-0.242255 -0.843836,-0.1257522 0.02045,-0.188835 0.277164,-0.3300107 0.84612,-0.092965 1.019968,-0.821133 0.960938,-1.5527343 z m -4.833984,1.125 c 0.409996,0.7018337 0.627865,1.35517 1.311233,1.878726 0.672423,0.301394 0.830204,1.274721 1.042044,1.669018 -0.135996,-0.498692 -0.13405,-1.034208 0.422113,-0.530166 0.715481,0.457688 1.526374,0.744319 2.244141,1.193359 -0.246614,0.87342 -1.056098,1.075973 -1.827011,1.344514 -1.43191,0.824198 -2.791964,1.789561 -4.3038486,2.467986 C 8.2349759,16.39667 9.5231892,15.261985 9.6510272,14.910947 10.355078,13.884665 11.281839,12.929245 11.478486,11.650216 12.151528,10.948779 10.97014,10.270372 10.777344,9.5371094 10.525753,9.1417441 10.283805,8.6813995 10.335938,8.199219 Z M 19.84375,8.5253908 C 20.382622,8.9190571 21.419895,9.99034 21.405636,10.297565 20.744591,9.8392204 20.190432,9.250808 19.84375,8.5253908 Z m -6.234375,0.8242188 c 0.4766,0.4733996 -0.658819,0.6314079 -0.136719,0.042969 z M 15.943359,9.65625 c 0.285934,0.398667 -0.0707,0.490426 0.241591,0.763579 -0.184172,0.280634 -0.31102,1.162602 -0.536784,1.595849 -0.180473,0.211046 -0.241667,-0.49245 -0.04074,-0.238334 0.350198,-0.433615 -0.744494,-0.270795 0.0043,-0.442107 0.289498,-0.513802 0.130143,-1.14934 0.331624,-1.678987 z m 3.189453,0.439453 c -0.704841,0.420568 -0.542262,1.543028 -0.297617,2.143001 0.750515,-0.219429 0.526043,-1.672088 0.297617,-2.143001 z m -8.011718,0.455078 c 0.796449,0.24345 -0.410702,1.209306 -0.126171,0.188494 0.0061,-0.06555 0.02493,-0.201617 0.126171,-0.188494 z m -0.623047,1.64649 c -0.731293,0.410655 -1.0106785,1.345037 -1.6363417,1.907523 -1.3133107,1.4939 -2.6163383,3.004727 -3.8010312,4.602203 -0.2561996,0.927284 1.0107739,-0.645868 1.2690294,-0.915282 1.4569863,-1.710621 2.9761774,-3.384263 4.2322895,-5.251515 0.08076,-0.09229 0.170042,-0.37958 -0.06395,-0.342929 z m 11.021484,0.337886 c -0.196133,0.197052 -0.582745,0.379305 0.03672,0.173807 0.655711,0.06289 -0.607236,0.510406 -0.709009,-0.04892 -0.591126,0.290728 0.111765,1.285795 0.739608,0.822077 0.751377,-0.121966 0.73051,-0.969138 -0.06731,-0.946961 z m -1.626953,0.552735 c -0.438329,0.750039 0.345036,1.610988 0.384181,2.40725 0.09354,0.463 -0.02562,2.357267 0.714218,1.339841 0.186863,-0.870451 0.421977,-1.806237 0.05051,-2.64382 -0.400842,-0.352872 -0.90786,-0.608963 -1.148911,-1.103271 z M 23,14.109375 c -0.30709,0.210814 -1.816491,0.277631 -0.81554,0.531971 0.713117,0.156444 0.91058,0.202907 0.81554,-0.531971 z m -9.773438,0.271484 c -0.05,0.341175 -1.499812,0.861465 -0.505113,0.262568 0.15973,-0.101623 0.322052,-0.207963 0.505113,-0.262568 z"
       id="rect852"
       inkscape:connector-curvature="0"
       sodipodi:nodetypes="cccccccccccccccccccccccccccccccccccccccccccccccccccccccccccccccccccccccccccccccccccccccccccccccccccccccccccccccccccccccccccccccccccccc" />
    <path
       style="opacity:0.25;vector-effect:none;fill:#000000;fill-opacity:1;fill-rule:evenodd;stroke:none;stroke-width:4;stroke-linecap:round;stroke-linejoin:round;stroke-miterlimit:4;stroke-dasharray:none;paint-order:stroke fill markers"
       d="m 5,0.99999976 c -2.216,0 -4,1.78400004 -4,4.00000004 V 19 c 0,2.216 1.784,4 4,4 h 14 c 2.216,0 4,-1.784 4,-4 V 4.9999998 c 0,-2.216 -1.784,-4.00000004 -4,-4.00000004 z M 5,1.9999998 h 14 c 1.662,0 3,1.338 3,3 V 19 c 0,1.662 -1.338,3 -3,3 H 5 C 3.338,22 2,20.662 2,19 V 4.9999998 c 0,-1.662 1.338,-3 3,-3 z"
       id="rect1558-6"
       inkscape:connector-curvature="0" />
  </g>
</svg>
