<?xml version="1.0" encoding="UTF-8" standalone="no"?>
<!-- Created with Inkscape (http://www.inkscape.org/) -->

<svg
   xmlns:dc="http://purl.org/dc/elements/1.1/"
   xmlns:cc="http://creativecommons.org/ns#"
   xmlns:rdf="http://www.w3.org/1999/02/22-rdf-syntax-ns#"
   xmlns:svg="http://www.w3.org/2000/svg"
   xmlns="http://www.w3.org/2000/svg"
   xmlns:xlink="http://www.w3.org/1999/xlink"
   xmlns:sodipodi="http://sodipodi.sourceforge.net/DTD/sodipodi-0.dtd"
   xmlns:inkscape="http://www.inkscape.org/namespaces/inkscape"
   width="24px"
   height="24px"
   viewBox="0 0 24 24"
   version="1.1"
   id="SVGRoot"
   inkscape:version="0.92.4 (5da689c313, 2019-01-14)"
   sodipodi:docname="sts-33.svg">
  <defs
     id="defs1125">
    <linearGradient
       inkscape:collect="always"
       xlink:href="#linearGradient1763-6"
       id="linearGradient1573-6-8"
       x1="12"
       y1="2"
       x2="12"
       y2="22"
       gradientUnits="userSpaceOnUse"
       gradientTransform="matrix(1.1,0,0,1.1,-1.2,-1.2000002)" />
    <linearGradient
       inkscape:collect="always"
       id="linearGradient1763-6">
      <stop
         style="stop-color:#57575a;stop-opacity:1"
         offset="0"
         id="stop1759-2" />
      <stop
         style="stop-color:#3b3b3b;stop-opacity:1"
         offset="1"
         id="stop1761-3" />
    </linearGradient>
  </defs>
  <sodipodi:namedview
     id="base"
     pagecolor="#ffffff"
     bordercolor="#666666"
     borderopacity="1.0"
     inkscape:pageopacity="0.0"
     inkscape:pageshadow="2"
     inkscape:zoom="15.827318"
     inkscape:cx="14.666968"
     inkscape:cy="7.8567648"
     inkscape:document-units="px"
     inkscape:current-layer="layer1"
     showgrid="true"
     inkscape:window-width="1920"
     inkscape:window-height="1017"
     inkscape:window-x="-8"
     inkscape:window-y="-8"
     inkscape:window-maximized="1"
     inkscape:grid-bbox="true"
     inkscape:snap-global="true"
     showguides="false">
    <inkscape:grid
       type="xygrid"
       id="grid1723" />
  </sodipodi:namedview>
  <metadata
     id="metadata1128">
    <rdf:RDF>
      <cc:Work
         rdf:about="">
        <dc:format>image/svg+xml</dc:format>
        <dc:type
           rdf:resource="http://purl.org/dc/dcmitype/StillImage" />
        <dc:title />
      </cc:Work>
    </rdf:RDF>
  </metadata>
  <g
     inkscape:label="Layer 1"
     inkscape:groupmode="layer"
     id="layer1">
    <rect
       style="opacity:1;vector-effect:none;fill:url(#linearGradient1573-6-8);fill-opacity:1;fill-rule:evenodd;stroke:none;stroke-width:4.4000001;stroke-linecap:round;stroke-linejoin:round;stroke-miterlimit:4;stroke-dasharray:none;paint-order:stroke fill markers"
       id="rect1560-7-2"
       width="22"
       height="22"
       x="1"
       y="0.99999976"
       ry="4" />
    <path
       style="opacity:0.25;vector-effect:none;fill:#000000;fill-opacity:1;fill-rule:evenodd;stroke:none;stroke-width:4;stroke-linecap:round;stroke-linejoin:round;stroke-miterlimit:4;stroke-dasharray:none;paint-order:stroke fill markers"
       d="m 5,0.99999976 c -2.216,0 -4,1.78400004 -4,4.00000004 V 19 c 0,2.216 1.784,4 4,4 h 14 c 2.216,0 4,-1.784 4,-4 V 4.9999998 c 0,-2.216 -1.784,-4.00000004 -4,-4.00000004 z M 5,1.9999998 h 14 c 1.662,0 3,1.338 3,3 V 19 c 0,1.662 -1.338,3 -3,3 H 5 C 3.338,22 2,20.662 2,19 V 4.9999998 c 0,-1.662 1.338,-3 3,-3 z"
       id="rect1558-6-3"
       inkscape:connector-curvature="0" />
    <path
       style="fill:#605b7b;stroke:none;stroke-width:1px;stroke-linecap:butt;stroke-linejoin:miter;stroke-opacity:1;fill-opacity:1"
       d="m 2,11 c 0,0 3.4951129,4.463093 7.2403254,5.691054 2.8466826,0.933356 7.2043766,1.496913 8.9373636,-0.946755 C 19.1005,14.443053 17.230113,11.042247 17.079454,11.086267 19.037928,11.497566 22,15 22,15 22,15 19.516055,9.6734005 14.882983,7.7158199 11.909613,6.4595018 6.7713398,5.6013712 5.2260857,8.4353535 4.1255004,10.453817 8.5207919,14.494583 8.5207919,14.494583 5.5704803,14.27438 2,11 2,11 Z"
       id="path832"
       inkscape:connector-curvature="0"
       sodipodi:nodetypes="cssccsscc" />
    <rect
       style="opacity:1;vector-effect:none;fill:#746469;fill-opacity:1;fill-rule:evenodd;stroke:none;stroke-width:2.19373512;stroke-linecap:round;stroke-linejoin:round;stroke-miterlimit:4;stroke-dasharray:none;stroke-opacity:1;paint-order:stroke fill markers"
       id="rect851"
       width="15.278109"
       height="8.8197613"
       x="8.6434183"
       y="-0.14233686"
       rx="7.6390543"
       ry="4.4098806"
       transform="matrix(0.86389881,0.50366541,-0.48865186,0.87247886,0,0)" />
    <rect
       style="opacity:1;vector-effect:none;fill:#a49381;fill-opacity:1;fill-rule:evenodd;stroke:none;stroke-width:1.86213887;stroke-linecap:round;stroke-linejoin:round;stroke-miterlimit:4;stroke-dasharray:none;stroke-opacity:1;paint-order:stroke fill markers"
       id="rect834"
       width="9.2713795"
       height="3.7400701"
       x="11.901656"
       y="1.6515675"
       ry="1.8700351"
       rx="4.6356897"
       transform="matrix(0.83842914,0.54501062,-0.5296999,0.84818513,0,0)" />
    <rect
       style="opacity:1;vector-effect:none;fill:#ffffff;fill-opacity:1;fill-rule:evenodd;stroke:none;stroke-width:0.90400344;stroke-linecap:round;stroke-linejoin:round;stroke-miterlimit:4;stroke-dasharray:none;stroke-opacity:1;paint-order:stroke fill markers"
       id="rect834-9"
       width="4.5200171"
       height="1.8080069"
       x="14.308481"
       y="2.7682068"
       ry="0.90400344"
       rx="2.2600086"
       transform="rotate(32.503084)" />
    <rect
       style="opacity:0.5;vector-effect:none;fill:#000000;fill-opacity:1;fill-rule:evenodd;stroke:none;stroke-opacity:1;paint-order:stroke fill markers"
       id="rect824"
       width="11"
       height="7"
       x="9"
       y="13"
       ry="1" />
    <path
       style="opacity:1;vector-effect:none;fill:#ffffff;fill-opacity:1;fill-rule:evenodd;stroke:none;stroke-width:2;stroke-linecap:round;stroke-linejoin:round;stroke-miterlimit:4;stroke-dasharray:none;stroke-opacity:1;paint-order:stroke fill markers"
       d="m 10,14 v 1 1 1 h 2 v 1 h -2 v 1 h 3 v -1 -2 h -2 v -1 h 2 1 v 4 h 1 v -4 h 1 v 1 1 h 2 v 1 h -2 v 1 h 3 v -1 -2 h -2 v -1 h 2 v -1 h -2 -1 -3 -2 z"
       id="rect883"
       inkscape:connector-curvature="0" />
  </g>
</svg>
