<?xml version="1.0" encoding="UTF-8" standalone="no"?>
<!-- Created with Inkscape (http://www.inkscape.org/) -->

<svg
   xmlns:dc="http://purl.org/dc/elements/1.1/"
   xmlns:cc="http://creativecommons.org/ns#"
   xmlns:rdf="http://www.w3.org/1999/02/22-rdf-syntax-ns#"
   xmlns:svg="http://www.w3.org/2000/svg"
   xmlns="http://www.w3.org/2000/svg"
   xmlns:xlink="http://www.w3.org/1999/xlink"
   xmlns:sodipodi="http://sodipodi.sourceforge.net/DTD/sodipodi-0.dtd"
   xmlns:inkscape="http://www.inkscape.org/namespaces/inkscape"
   width="24px"
   height="24px"
   viewBox="0 0 24 24"
   version="1.1"
   id="SVGRoot"
   inkscape:version="0.92.4 (5da689c313, 2019-01-14)"
   sodipodi:docname="swamp-xt.svg">
  <defs
     id="defs1125">
    <linearGradient
       inkscape:collect="always"
       id="linearGradient831">
      <stop
         style="stop-color:#333333;stop-opacity:1;"
         offset="0"
         id="stop827" />
      <stop
         id="stop835"
         offset="0.5"
         style="stop-color:#202020;stop-opacity:1" />
      <stop
         style="stop-color:#333333;stop-opacity:1"
         offset="1"
         id="stop829" />
    </linearGradient>
    <linearGradient
       inkscape:collect="always"
       id="linearGradient889">
      <stop
         style="stop-color:#305157;stop-opacity:1"
         offset="0"
         id="stop885" />
      <stop
         style="stop-color:#497b83;stop-opacity:1"
         offset="1"
         id="stop887" />
    </linearGradient>
    <linearGradient
       inkscape:collect="always"
       id="linearGradient881">
      <stop
         style="stop-color:#5f735a;stop-opacity:1"
         offset="0"
         id="stop877" />
      <stop
         style="stop-color:#4c5d48;stop-opacity:0.98039216"
         offset="1"
         id="stop879" />
    </linearGradient>
    <linearGradient
       inkscape:collect="always"
       xlink:href="#linearGradient881"
       id="linearGradient883"
       x1="12"
       y1="2"
       x2="12"
       y2="9"
       gradientUnits="userSpaceOnUse" />
    <linearGradient
       inkscape:collect="always"
       xlink:href="#linearGradient889"
       id="linearGradient891"
       x1="17"
       y1="14"
       x2="17"
       y2="21"
       gradientUnits="userSpaceOnUse" />
    <linearGradient
       inkscape:collect="always"
       xlink:href="#linearGradient831"
       id="linearGradient833"
       x1="1"
       y1="12"
       x2="23"
       y2="12"
       gradientUnits="userSpaceOnUse" />
  </defs>
  <sodipodi:namedview
     id="base"
     pagecolor="#ffffff"
     bordercolor="#666666"
     borderopacity="1.0"
     inkscape:pageopacity="0.0"
     inkscape:pageshadow="2"
     inkscape:zoom="107.329"
     inkscape:cx="8.3493235"
     inkscape:cy="12.562898"
     inkscape:document-units="px"
     inkscape:current-layer="layer1"
     showgrid="true"
     inkscape:window-width="1920"
     inkscape:window-height="1017"
     inkscape:window-x="-8"
     inkscape:window-y="-8"
     inkscape:window-maximized="1"
     inkscape:grid-bbox="true"
     inkscape:snap-global="false">
    <inkscape:grid
       type="xygrid"
       id="grid1723" />
  </sodipodi:namedview>
  <metadata
     id="metadata1128">
    <rdf:RDF>
      <cc:Work
         rdf:about="">
        <dc:format>image/svg+xml</dc:format>
        <dc:type
           rdf:resource="http://purl.org/dc/dcmitype/StillImage" />
        <dc:title />
      </cc:Work>
    </rdf:RDF>
  </metadata>
  <g
     inkscape:label="Layer 1"
     inkscape:groupmode="layer"
     id="layer1">
    <rect
       style="opacity:1;vector-effect:none;fill:url(#linearGradient833);fill-opacity:1;fill-rule:evenodd;stroke:none;stroke-width:4.4000001;stroke-linecap:round;stroke-linejoin:round;stroke-miterlimit:4;stroke-dasharray:none;paint-order:stroke fill markers"
       id="rect1560-7"
       width="22"
       height="22"
       x="1"
       y="0.99999976"
       ry="4" />
    <path
       style="fill:url(#linearGradient891);stroke:none;stroke-width:1px;stroke-linecap:butt;stroke-linejoin:miter;stroke-opacity:1;fill-opacity:1"
       d="M 17 12 C 13.837722 12 10.633179 13.248896 8 15 C 5.9205934 16.382837 3.3591361 19.719985 1.9902344 21.611328 C 2.7225446 22.455509 3.7895938 23 5 23 L 19 23 C 21.216 23 23 21.216 23 19 L 23 16 C 23 16 21 12 17 12 z "
       id="path838" />
    <path
       style="fill:url(#linearGradient883);stroke:none;stroke-width:1px;stroke-linecap:butt;stroke-linejoin:miter;stroke-opacity:1;fill-opacity:1"
       d="M 5 1 C 2.784 1 1 2.784 1 5 L 1 7 C 1 7 8.2016675 9.8691784 12 10 C 13.698666 10.05851 15.315366 8.774397 17 9 C 19.216283 9.2968003 23 12 23 12 L 23 5 C 23 2.784 21.216 1 19 1 L 5 1 z "
       id="path836" />
    <path
       style="fill:#ffffff;stroke:none;stroke-width:5.69423389px;stroke-linecap:butt;stroke-linejoin:miter;stroke-opacity:1"
       d="m 9.1359759,12.33314 c 0.4677586,0.37542 1.7316741,0.489021 1.7316741,0.489021 0,0 0.154371,1.325446 0.539131,1.832957 1.268139,1.672766 4.630695,4.003679 5.566856,3.153348 0.348659,-0.316713 -2.493963,-3.207262 -2.493963,-3.207262 0,0 4.286556,2.598831 4.546977,0.976931 C 19.165419,14.713824 14.377138,13.255998 12.592809,11.31267 10.891543,9.4598056 10.421976,4.7215733 9.4615439,5.0283102 7.692055,5.5934631 10.382484,10.01882 10.382484,10.01882 c 0,0 -3.834016,-3.4496581 -4.2185532,-3.1360538 -0.6702456,0.5465895 1.318399,4.1230988 2.9720679,5.4503958 z"
       id="path834"
       inkscape:connector-curvature="0"
       sodipodi:nodetypes="ccsscssscssc" />
    <path
       style="fill:#cb8b70;fill-opacity:1;stroke:none;stroke-width:5.69423389px;stroke-linecap:butt;stroke-linejoin:miter;stroke-opacity:1"
       d="m 6.1235323,17.835836 c 0.581727,0.53691 4.5823837,-4.097189 4.5823837,-4.097189 0,0 0.669848,-0.200721 0.916482,-0.431282 0.270305,-0.252709 0.765887,-1.173474 0.765887,-1.173474 0,0 0.706425,0.0081 1.071549,-0.374429 0.967559,-1.013698 0.377358,-1.68674 0.377358,-1.68674 0,0 -0.716151,-0.5896521 -1.707761,0.387649 -0.226801,0.223499 -0.345306,1.067956 -0.345306,1.067956 0,0 -0.755585,0.426613 -1.024301,0.754749 -0.188478,0.23016 -0.377357,0.808655 -0.377357,0.808655 0,0 -4.7560727,4.285269 -4.258921,4.744134 z"
       id="path832"
       inkscape:connector-curvature="0"
       sodipodi:nodetypes="ccscscscscsc" />
    <path
       style="opacity:0.25;vector-effect:none;fill:#000000;fill-opacity:1;fill-rule:evenodd;stroke:none;stroke-width:4;stroke-linecap:round;stroke-linejoin:round;stroke-miterlimit:4;stroke-dasharray:none;paint-order:stroke fill markers"
       d="m 5,0.99999976 c -2.216,0 -4,1.78400004 -4,4.00000004 V 19 c 0,2.216 1.784,4 4,4 h 14 c 2.216,0 4,-1.784 4,-4 V 4.9999998 c 0,-2.216 -1.784,-4.00000004 -4,-4.00000004 z M 5,1.9999998 h 14 c 1.662,0 3,1.338 3,3 V 19 c 0,1.662 -1.338,3 -3,3 H 5 C 3.338,22 2,20.662 2,19 V 4.9999998 c 0,-1.662 1.338,-3 3,-3 z"
       id="rect1558-6"
       inkscape:connector-curvature="0" />
  </g>
</svg>
