<?xml version="1.0" encoding="UTF-8" standalone="no"?>
<!-- Created with Inkscape (http://www.inkscape.org/) -->

<svg
   xmlns:dc="http://purl.org/dc/elements/1.1/"
   xmlns:cc="http://creativecommons.org/ns#"
   xmlns:rdf="http://www.w3.org/1999/02/22-rdf-syntax-ns#"
   xmlns:svg="http://www.w3.org/2000/svg"
   xmlns="http://www.w3.org/2000/svg"
   xmlns:xlink="http://www.w3.org/1999/xlink"
   xmlns:sodipodi="http://sodipodi.sourceforge.net/DTD/sodipodi-0.dtd"
   xmlns:inkscape="http://www.inkscape.org/namespaces/inkscape"
   width="24px"
   height="24px"
   viewBox="0 0 24 24"
   version="1.1"
   id="SVGRoot"
   inkscape:version="0.92.4 (5da689c313, 2019-01-14)"
   sodipodi:docname="the-tiger.svg">
  <defs
     id="defs1125">
    <linearGradient
       inkscape:collect="always"
       xlink:href="#linearGradient1763-6-9"
       id="linearGradient1573-6"
       x1="12"
       y1="2"
       x2="12"
       y2="22"
       gradientUnits="userSpaceOnUse"
       gradientTransform="matrix(1.1,0,0,1.1,-1.2,-1.2000002)" />
    <linearGradient
       inkscape:collect="always"
       id="linearGradient1763-6">
      <stop
         style="stop-color:#57575a;stop-opacity:1"
         offset="0"
         id="stop1759-2" />
      <stop
         style="stop-color:#3b3b3b;stop-opacity:1"
         offset="1"
         id="stop1761-3" />
    </linearGradient>
    <linearGradient
       inkscape:collect="always"
       xlink:href="#linearGradient1763-6"
       id="linearGradient888"
       x1="10"
       y1="1"
       x2="10"
       y2="23"
       gradientUnits="userSpaceOnUse" />
    <linearGradient
       inkscape:collect="always"
       id="linearGradient1763-6-9">
      <stop
         style="stop-color:#ffa764;stop-opacity:1"
         offset="0"
         id="stop1759-2-8" />
      <stop
         style="stop-color:#e68424;stop-opacity:1"
         offset="1"
         id="stop1761-3-4" />
    </linearGradient>
  </defs>
  <sodipodi:namedview
     id="base"
     pagecolor="#ffffff"
     bordercolor="#666666"
     borderopacity="1.0"
     inkscape:pageopacity="0.0"
     inkscape:pageshadow="2"
     inkscape:zoom="18.671859"
     inkscape:cx="6.8141908"
     inkscape:cy="11.52581"
     inkscape:document-units="px"
     inkscape:current-layer="layer1"
     showgrid="true"
     inkscape:window-width="1920"
     inkscape:window-height="1017"
     inkscape:window-x="-8"
     inkscape:window-y="-8"
     inkscape:window-maximized="1"
     inkscape:grid-bbox="true"
     inkscape:snap-global="true">
    <inkscape:grid
       type="xygrid"
       id="grid1723" />
  </sodipodi:namedview>
  <metadata
     id="metadata1128">
    <rdf:RDF>
      <cc:Work
         rdf:about="">
        <dc:format>image/svg+xml</dc:format>
        <dc:type
           rdf:resource="http://purl.org/dc/dcmitype/StillImage" />
        <dc:title></dc:title>
      </cc:Work>
    </rdf:RDF>
  </metadata>
  <g
     inkscape:label="Layer 1"
     inkscape:groupmode="layer"
     id="layer1">
    <rect
       style="opacity:1;vector-effect:none;fill:url(#linearGradient1573-6);fill-opacity:1.0;fill-rule:evenodd;stroke:none;stroke-width:4.4000001;stroke-linecap:round;stroke-linejoin:round;stroke-miterlimit:4;stroke-dasharray:none;paint-order:stroke fill markers"
       id="rect1560-7"
       width="22"
       height="22"
       x="1"
       y="0.99999976"
       ry="4" />
    <path
       style="fill:url(#linearGradient888);stroke-width:0.05666667;fill-opacity:1"
       d="M 7.7148438 1 C 7.304458 0.999692 7.0761719 1.0219939 7.0761719 1.0605469 C 7.0761719 1.0934854 7.2604119 1.4056021 7.484375 1.7539062 C 8.1187884 2.7405372 8.3539164 3.2401452 8.4648438 3.84375 C 8.5920921 4.5361647 8.7441832 4.9294004 9.2558594 5.8671875 C 9.9367355 7.1150797 9.9222898 7.0531267 9.9667969 8.9042969 L 10.005859 10.492188 L 10.1875 11.023438 C 10.297599 11.346644 10.386463 11.749721 10.414062 12.048828 C 10.474796 12.70701 10.602982 12.927668 11.443359 13.826172 C 12.173735 14.607065 12.250761 14.727525 12.476562 15.421875 C 12.602491 15.809098 12.630582 16.019449 12.664062 16.869141 C 12.693332 17.611903 12.684769 17.920952 12.630859 18.087891 C 12.49755 18.500728 11.698146 19.875374 11.353516 20.285156 C 10.136186 21.732624 9.7432766 22.309566 9.5 23 L 11.027344 23 C 11.064462 22.863117 11.107643 22.72291 11.126953 22.589844 C 11.213677 21.992194 11.525378 21.307098 11.964844 20.75 C 12.241638 20.399116 12.918775 19.260363 13.138672 18.775391 C 13.229626 18.574795 13.385002 18.094609 13.482422 17.708984 C 13.638496 17.091197 13.653891 16.954128 13.619141 16.554688 C 13.576363 16.062914 13.391837 15.359528 13.164062 14.818359 C 13.084983 14.630475 12.662972 13.837205 12.224609 13.056641 C 11.786245 12.276077 11.353372 11.480747 11.263672 11.289062 C 10.997736 10.720767 10.911022 9.9506197 10.919922 8.2539062 C 10.924572 7.3621266 10.902571 6.7002492 10.863281 6.5253906 C 10.799259 6.2404458 10.39066 5.2381138 10.123047 4.7109375 C 10.043941 4.5551041 9.7985901 4.1546169 9.578125 3.8203125 C 9.0598001 3.0343436 9.0209111 2.951316 8.6582031 1.8925781 L 8.3515625 1 L 7.7148438 1 z M 11.099609 1 C 10.885191 1 10.695751 1.0235811 10.677734 1.0527344 C 10.571366 1.2248411 10.991661 2.7163894 11.341797 3.4082031 L 11.455078 3.6328125 L 11.515625 3.4921875 C 11.586145 3.3243043 11.600596 1.6532946 11.535156 1.2695312 L 11.490234 1 L 11.099609 1 z M 12.650391 1 L 12.580078 1.3828125 C 12.541336 1.5931875 12.354032 2.4161875 12.166016 3.2109375 C 11.834424 4.612587 11.825489 4.6710366 11.857422 5.2207031 C 11.900894 5.9689699 12.00166 6.3266189 12.410156 7.1757812 C 12.597568 7.5653645 12.866578 8.2030261 13.007812 8.5917969 C 13.256995 9.2777157 13.70346 10.304277 13.865234 10.5625 C 14.001444 10.779914 14.046875 10.648517 14.046875 10.027344 C 14.046875 9.2671871 13.919513 8.8145926 13.5 8.0742188 C 13.217252 7.575211 13.186762 7.4825013 13.138672 7.0253906 C 13.024384 5.9390361 13.095217 4.4613326 13.314453 3.3886719 C 13.425403 2.8458496 13.453219 2.0869487 13.386719 1.3828125 L 13.349609 1 L 12.650391 1 z M 15.521484 1 L 15.171875 1.0117188 L 14.705078 1.0292969 L 14.566406 1.5664062 C 14.444362 2.0466363 14.428227 2.2617454 14.404297 3.5605469 L 14.376953 5.0175781 L 14.609375 5.9667969 C 14.823808 6.8391433 14.892827 7.2849088 15.1875 9.71875 C 15.275332 10.444251 15.226883 10.851042 14.925781 11.908203 C 14.549827 13.228086 14.549346 13.204381 14.921875 15.193359 C 15.096803 16.127317 15.280728 17.029447 15.330078 17.199219 C 15.432323 17.55093 15.464962 17.529656 15.609375 17.001953 C 15.674978 16.762227 15.712571 16.256479 15.744141 15.195312 C 15.781486 13.940188 15.804401 13.675663 15.900391 13.410156 C 16.142631 12.740112 16.153157 12.604683 16.091797 11.052734 C 16.025037 9.364193 15.927061 8.5470993 15.65625 7.4355469 L 15.462891 6.6445312 L 15.462891 5.0175781 C 15.462891 3.5096514 15.534042 1.6189643 15.607422 1.1816406 L 15.638672 1 L 15.521484 1 z M 18.132812 1 L 18.072266 1.2128906 C 17.958662 1.6219552 18.056392 2.6653835 18.294922 3.5996094 C 18.358145 3.8472329 18.408809 4.1872917 18.408203 4.3535156 C 18.406634 4.7820476 18.274544 5.705081 18.072266 6.6933594 C 17.725287 8.3886017 17.752993 8.6344192 18.439453 10.033203 C 18.973073 11.120549 19.147437 11.593835 19.146484 11.949219 C 19.145104 12.465394 18.920914 14.3057 18.820312 14.628906 L 18.714844 14.96875 L 18.535156 14.65625 C 18.436081 14.484833 18.287378 14.141911 18.205078 13.892578 C 18.122774 13.643244 17.958165 13.252281 17.839844 13.025391 C 17.721523 12.7985 17.558836 12.41639 17.478516 12.175781 C 17.398201 11.935171 17.270602 11.636093 17.195312 11.511719 L 17.058594 11.285156 L 17.021484 11.439453 C 16.96691 11.656892 17.092719 13.275082 17.195312 13.671875 C 17.242664 13.855014 17.489464 14.387969 17.744141 14.855469 C 18.613741 16.451764 18.81804 17.074234 18.705078 17.800781 C 18.62634 18.307243 18.478223 18.611722 18.023438 19.210938 C 17.837153 19.45638 17.550266 19.903152 17.384766 20.203125 C 17.219266 20.503099 16.948771 20.944932 16.785156 21.185547 C 16.62154 21.426162 16.457982 21.731849 16.419922 21.865234 C 16.378948 22.008845 16.353584 22.469989 16.347656 23 L 17.464844 23 C 17.513734 22.507996 17.559189 22.221941 17.644531 22.023438 C 17.718227 21.852022 17.840466 21.490574 17.916016 21.220703 C 18.109175 20.530704 18.277996 20.275593 18.878906 19.769531 C 20.124265 18.72074 20.196191 18.616246 20.150391 17.917969 C 20.112285 17.336946 19.910653 16.788088 19.507812 16.175781 C 19.339422 15.919832 19.208497 15.696718 19.216797 15.679688 C 19.225107 15.662654 19.374637 15.430932 19.548828 15.166016 C 20.041997 14.415983 20.053627 14.367466 20.091797 12.962891 C 20.119957 11.926753 20.109221 11.663363 20.025391 11.255859 C 19.915134 10.719913 19.73308 10.184139 19.482422 9.6542969 C 19.254197 9.1718839 19.264654 8.9179654 19.541016 8.1464844 C 19.664524 7.8017057 19.781091 7.396734 19.800781 7.2480469 C 19.842413 6.933637 19.63019 4.4386982 19.513672 3.8730469 C 19.35967 3.1254319 19.355213 2.870369 19.482422 2.0175781 C 19.549579 1.5673851 19.618566 1.1541514 19.634766 1.0996094 C 19.639345 1.0841913 19.635962 1.0735255 19.632812 1.0625 C 19.436463 1.0313502 19.23817 1.0056034 19.033203 1.0039062 C 18.972957 1.0036406 18.972177 1 18.898438 1 L 18.132812 1 z M 4.1132812 1.3144531 L 4.1542969 1.59375 C 4.278695 2.4232974 4.5501721 3.1476225 4.9179688 3.6347656 C 5.2607783 4.088813 5.3918849 4.3867202 5.3886719 4.7089844 C 5.3850509 5.0722722 5.0156253 6.5432198 4.6328125 7.7148438 L 4.3359375 8.6210938 L 4.3007812 10.292969 L 4.265625 11.964844 L 4.0625 12.53125 C 3.950479 12.842916 3.7509415 13.391583 3.6210938 13.75 C 3.2928951 14.655921 3.2554773 14.850936 3.0234375 16.837891 C 2.8546315 18.283347 2.8252869 18.699863 2.8554688 19.189453 C 2.9178299 20.201044 3.0359674 20.588556 4.0078125 22.863281 C 4.326452 22.944487 4.6553799 23 5 23 L 5.8574219 23 C 5.7680508 22.779557 5.6299918 22.541506 5.3828125 22.164062 C 5.122594 21.766708 4.9351874 21.408628 4.8652344 21.173828 C 4.5508372 20.118536 4.3872205 18.202359 4.5234375 17.181641 C 4.5606721 16.902634 4.6684039 16.365727 4.7636719 15.990234 C 4.9255155 15.352337 4.9395376 15.213422 4.9785156 13.863281 C 5.0171441 12.52522 5.0375178 12.314885 5.2597656 11.029297 C 5.4836618 9.7341774 5.498497 9.5990603 5.4589844 9.0175781 C 5.3737368 7.7630348 5.3774057 7.7266378 5.7070312 7.0761719 C 6.0758864 6.3482921 6.1627742 5.9788948 6.1796875 5.0507812 C 6.1916294 4.3954467 6.1776627 4.2841007 6.0664062 4.0371094 C 5.9362447 3.7481489 4.8787362 2.2411625 4.3925781 1.6523438 L 4.1132812 1.3144531 z M 20.886719 1.4882812 C 20.867004 1.614652 20.850062 1.7038421 20.816406 1.9902344 C 20.723934 2.7771386 20.71948 2.9667839 20.783203 3.7910156 C 20.860016 4.784557 20.942013 5.2505318 21.162109 5.9589844 C 21.239581 6.2083547 21.316634 6.6021875 21.333984 6.8359375 C 21.368266 7.2977878 21.29241 8.6559862 21.177734 9.6328125 C 21.113674 10.178395 21.117031 10.309961 21.207031 10.822266 C 21.76663 14.007786 21.776089 14.114782 21.550781 15.222656 C 21.297617 16.467498 21.302889 17.715933 21.564453 18.339844 L 21.646484 18.539062 L 21.785156 18.3125 C 21.954172 18.034602 21.96737 17.94578 22 16.951172 C 22.014315 16.514838 22.066354 15.991646 22.115234 15.789062 C 22.239064 15.275875 22.446384 13.377497 22.402344 13.162109 C 22.38237 13.06441 22.317933 12.820773 22.257812 12.621094 C 22.125397 12.181331 22.146768 12.026576 22.439453 11.367188 C 22.776381 10.608128 22.794141 10.465652 22.691406 9.2070312 C 22.553208 7.5139524 22.495625 7.0494812 22.320312 6.21875 C 22.230953 5.7953117 22.06617 4.8404491 21.955078 4.0976562 C 21.800649 3.0650978 21.714381 2.6488967 21.585938 2.328125 C 21.49045 2.0896563 21.414123 1.9264389 21.337891 1.7617188 C 21.195348 1.6588402 21.042623 1.5719442 20.886719 1.4882812 z M 2.2363281 2.1152344 C 1.7523369 2.5788286 1.3958468 3.1641827 1.1933594 3.8222656 C 1.2859556 4.0212985 1.3511156 4.1943649 1.3515625 4.2890625 C 1.3521199 4.4067998 1.2240803 4.7199165 1 5.1894531 L 1 7.8203125 C 1.2438914 7.3270387 1.5174435 6.7359828 1.6171875 6.4746094 C 1.8701775 5.8116631 2.0930235 5.400948 2.4042969 5.0214844 C 2.7118263 4.6465841 2.8261719 4.4145735 2.8261719 4.171875 C 2.8261719 4.0023974 2.5183254 2.9618437 2.2363281 2.1152344 z M 2.8183594 6.2832031 C 2.8028057 6.2759575 2.7877685 6.2967864 2.7636719 6.3398438 C 2.632505 6.5742204 2.4707533 7.414452 2.3144531 8.6777344 C 2.2219062 9.4257344 2.1184881 10.140214 2.0839844 10.263672 C 2.0494806 10.38713 1.8607655 10.846047 1.6640625 11.285156 C 1.4673595 11.724265 1.2645632 12.236441 1.2128906 12.421875 C 1.0863148 12.876106 1.034121 14.099143 1.1230469 14.556641 C 1.1979925 14.942215 1.5837978 15.978175 1.7695312 16.292969 L 1.8867188 16.490234 L 1.9355469 16.324219 C 1.9623349 16.233199 1.9633291 15.76238 1.9394531 15.279297 C 1.8551581 13.573735 1.9178381 13.088479 2.3632812 11.982422 C 2.8601363 10.748706 3.2209958 9.3463335 3.2226562 8.640625 C 3.2235668 8.2539311 2.9768215 6.6584305 2.875 6.390625 C 2.8499191 6.3246586 2.8339131 6.2904488 2.8183594 6.2832031 z M 7.7695312 8.4140625 C 7.7307447 8.3752759 7.6733247 8.4591909 7.59375 8.671875 C 7.3606267 9.2949522 7.3086164 10.015894 7.4160156 11.148438 C 7.4795299 11.818204 7.6030607 12.330748 7.9316406 13.308594 C 8.198306 14.102185 8.1936543 14.151694 7.7539062 15.072266 C 7.4114883 15.789087 7.379481 16.08162 7.5800781 16.724609 C 7.7545996 17.284014 7.7823012 17.672369 7.6796875 18.15625 C 7.5891387 18.583238 7.5034031 18.776831 6.921875 19.869141 C 6.5200602 20.623887 6.3712912 21.118794 6.4121094 21.570312 C 6.4215875 21.675156 6.6332069 22.373123 6.8222656 23 L 7.8046875 23 C 7.7987282 22.710631 7.7866088 22.401832 7.7871094 22.193359 C 7.790098 20.94836 7.9563714 20.33274 8.65625 18.962891 C 8.9349129 18.417475 9.2596427 17.704203 9.3789062 17.376953 L 9.5957031 16.78125 L 9.59375 15.818359 C 9.5923571 14.96237 9.5749541 14.786297 9.4375 14.232422 C 9.3524195 13.889588 9.205144 13.442817 9.109375 13.240234 C 8.8309439 12.651261 8.7219413 12.290499 8.6601562 11.742188 C 8.6283424 11.459852 8.5398636 10.947499 8.4628906 10.603516 C 8.310765 9.923688 7.8620472 8.5065785 7.7695312 8.4140625 z M 21.714844 18.947266 L 21.273438 19.757812 C 20.606832 20.979551 20.562496 21.11387 20.503906 22.080078 C 20.4877 22.347308 20.480974 22.500404 20.46875 22.716797 C 20.876894 22.556186 21.243152 22.322921 21.572266 22.044922 C 21.597974 21.898833 21.617544 21.769854 21.677734 21.541016 C 22.022499 20.230261 22.049521 19.795559 21.824219 19.224609 L 21.714844 18.947266 z M 14.951172 20.126953 C 14.80759 20.215692 13.887701 21.776406 13.785156 22.105469 C 13.744351 22.236418 13.71825 22.545797 13.695312 23 L 14.892578 23 C 15.012912 21.193621 15.042438 20.070544 14.951172 20.126953 z "
       id="path832" />
    <path
       style="opacity:0.25;vector-effect:none;fill:#000000;fill-opacity:1;fill-rule:evenodd;stroke:none;stroke-width:4;stroke-linecap:round;stroke-linejoin:round;stroke-miterlimit:4;stroke-dasharray:none;paint-order:stroke fill markers"
       d="m 5,0.99999976 c -2.216,0 -4,1.78400004 -4,4.00000004 V 19 c 0,2.216 1.784,4 4,4 h 14 c 2.216,0 4,-1.784 4,-4 V 4.9999998 c 0,-2.216 -1.784,-4.00000004 -4,-4.00000004 z M 5,1.9999998 h 14 c 1.662,0 3,1.338 3,3 V 19 c 0,1.662 -1.338,3 -3,3 H 5 C 3.338,22 2,20.662 2,19 V 4.9999998 c 0,-1.662 1.338,-3 3,-3 z"
       id="rect1558-6"
       inkscape:connector-curvature="0" />
  </g>
</svg>
